<svg width="1440" height="174" viewBox="0 0 1440 174" fill="none" xmlns="http://www.w3.org/2000/svg">
<path fill-rule="evenodd" clip-rule="evenodd" d="M595.63 0H770.178C774.967 23.8329 796.018 41.7837 821.261 41.7837C846.411 41.7837 867.4 23.9642 872.29 0.261902C877.18 23.9642 898.169 41.7837 923.32 41.7837C948.563 41.7837 969.613 23.8329 974.402 0H1082.8C1087.59 23.8329 1108.64 41.7837 1133.89 41.7837C1159.13 41.7837 1180.18 23.8329 1184.97 0H1187.01C1191.8 23.8329 1212.85 41.7837 1238.1 41.7837C1263.34 41.7837 1284.39 23.8329 1289.18 0H1443.88C1439.11 23.7838 1418.13 41.7099 1392.96 41.7837H1342.31C1313.53 41.7837 1290.2 65.1118 1290.2 93.8884C1290.2 122.665 1313.53 145.993 1342.31 145.993H1476V174H-99V0H-6.50781V41.7839H-5.05322C-33.7581 41.8681 -57.002 65.1638 -57.002 93.8884C-57.002 122.665 -33.6738 145.993 -4.89722 145.993H147.657C176.434 145.993 199.762 122.665 199.762 93.8884C199.762 65.1118 176.434 41.7837 147.657 41.7837H45.4407C20.2668 41.7099 -0.706665 23.7838 -5.48572 0H200.784C205.573 23.8329 226.623 41.7837 251.866 41.7837C277.109 41.7837 298.16 23.8329 302.949 0H304.995C309.784 23.8329 330.835 41.7839 356.078 41.7839C381.321 41.7839 402.372 23.8329 407.161 0H409.202C413.991 23.8329 435.041 41.7837 460.284 41.7837C485.527 41.7837 506.578 23.8329 511.367 0H513.413C518.195 23.7986 539.191 41.7322 564.386 41.7838C535.661 41.8439 512.393 65.1489 512.393 93.8884C512.393 122.665 535.721 145.993 564.497 145.993H717.052C745.828 145.993 769.156 122.665 769.156 93.8884C769.156 65.1118 745.828 41.7837 717.052 41.7837L616.6 41.7839C616.6 24.6795 608.358 9.49995 595.63 0ZM1081.78 93.8884C1081.78 65.1118 1058.45 41.7837 1029.68 41.7837H925.467C896.831 41.7837 873.591 64.8837 873.364 93.4658C873.137 64.8837 849.897 41.7837 821.261 41.7837C792.484 41.7837 769.156 65.1118 769.156 93.8884C769.156 122.665 792.484 145.993 821.261 145.993C849.897 145.993 873.137 122.893 873.364 94.3111C873.591 122.893 896.831 145.993 925.467 145.993H1029.68C1058.45 145.993 1081.78 122.665 1081.78 93.8884ZM1081.78 93.8884C1081.78 122.665 1105.11 145.993 1133.89 145.993C1162.66 145.993 1185.99 122.665 1185.99 93.8884C1185.99 65.1118 1162.66 41.7837 1133.89 41.7837C1105.11 41.7837 1081.78 65.1118 1081.78 93.8884ZM356.078 41.7839C327.302 41.7839 303.973 65.1119 303.973 93.8886C303.973 122.665 327.302 145.993 356.078 145.993C384.715 145.993 407.956 122.891 408.181 94.3073C408.406 122.891 431.647 145.993 460.284 145.993C489.061 145.993 512.389 122.665 512.389 93.8884C512.389 65.1118 489.061 41.7837 460.284 41.7837C431.647 41.7837 408.406 64.8858 408.181 93.4697C407.956 64.8859 384.715 41.7839 356.078 41.7839ZM199.762 93.8884C199.762 65.1118 223.09 41.7837 251.866 41.7837C280.643 41.7837 303.971 65.1118 303.971 93.8884C303.971 122.665 280.643 145.993 251.866 145.993C223.09 145.993 199.762 122.665 199.762 93.8884ZM1476 41.7837H1444.91V0H1476V41.7837ZM1185.99 93.8884C1185.99 65.1118 1209.32 41.7837 1238.1 41.7837C1266.87 41.7837 1290.2 65.1118 1290.2 93.8884C1290.2 122.665 1266.87 145.993 1238.1 145.993C1209.32 145.993 1185.99 122.665 1185.99 93.8884Z" fill="#272727"/>
</svg>
