<svg width="185" height="132" viewBox="0 0 185 132" fill="none" xmlns="http://www.w3.org/2000/svg">
<path d="M121.498 110C119.143 110 116.623 109.249 114 107.767L44.5944 68.3799C33.2334 61.9238 24 46.2503 24 33.4394C24 24.4454 28.6683 18.6186 35.9187 18.6186C38.8932 18.6186 42.0743 19.5728 45.3793 21.4406C46.1436 21.8873 46.9492 22.3949 47.8168 23.0039C50.6054 15.9996 56.3066 12 63.5983 12C68.0187 12 72.7697 13.4212 77.7272 16.2432C94.7687 25.9072 108.629 49.3362 108.774 68.583C110.715 68.8266 112.74 69.5372 114.785 70.7147C123.729 75.7903 131 88.1342 131 98.2246C131 101.778 130.112 104.742 128.397 106.833C126.703 108.904 124.307 110 121.498 110ZM35.9187 20.1413C29.5153 20.1413 25.5492 25.2372 25.5492 33.4394C25.5492 45.763 34.4521 60.8477 45.3793 67.0603L114.785 106.447C117.14 107.787 119.453 108.477 121.498 108.477C123.832 108.477 125.815 107.584 127.199 105.879C128.666 104.072 129.451 101.432 129.451 98.2246C129.451 88.6215 122.531 76.8664 114 72.0344C111.893 70.8365 109.848 70.1666 107.906 70.0244C107.493 70.0041 107.183 69.659 107.183 69.2529C107.183 69.2529 107.183 69.0499 107.183 69.0296C107.183 50.0468 93.612 27.0238 76.9216 17.5426C72.212 14.8626 67.7089 13.5024 63.5569 13.5024C56.5338 13.5024 51.3284 17.4005 48.8909 24.4454C48.8083 24.6687 48.6224 24.8515 48.3745 24.9327C48.1473 25.0139 47.8788 24.953 47.6722 24.8109C46.5361 23.9582 45.5033 23.2882 44.5531 22.74C41.4753 20.994 38.5627 20.121 35.8568 20.121L35.9187 20.1413Z" fill="#95FF42"/>
<path d="M125.69 108C125.443 108 125.217 107.879 125.052 107.677C124.826 107.353 124.867 106.929 125.176 106.666C127.213 104.908 128.304 101.957 128.304 98.1568C128.304 88.5965 121.409 76.8938 112.909 72.0834C110.809 70.8909 108.751 70.2239 106.837 70.0824C106.425 70.0622 106.117 69.7186 106.117 69.3144C106.117 69.3144 106.117 69.1122 106.117 69.092C106.117 50.1939 92.594 27.2735 75.9636 17.8346C71.2708 15.1666 66.7839 13.8124 62.6469 13.8124C55.6489 13.8124 50.4622 17.6931 48.0335 24.7066C47.9511 24.929 47.7659 25.1109 47.5189 25.1917C47.2925 25.2726 47.0249 25.2119 46.8191 25.0704C45.6871 24.2215 44.658 23.5546 43.7112 23.0088C39.0184 20.3409 34.5315 19.6941 31.0737 21.1695C30.7032 21.3312 30.271 21.1695 30.0857 20.8259C29.9005 20.4621 30.024 20.0377 30.3739 19.8356L41.9823 13.1454C45.6047 10.6796 50.8121 10.72 56.2458 13.3677L65.6313 8.11264C68.7186 6.07123 72.444 5 76.3135 5C80.6975 5 85.2873 6.33399 89.9184 8.96154C106.899 18.5824 120.709 41.907 120.853 61.0679C122.788 61.3104 124.805 62.0179 126.843 63.1901C135.755 68.2431 143 80.532 143 90.5773C143 95.7516 141.045 99.6727 137.628 101.37C137.587 101.411 137.546 101.451 137.484 101.472L125.978 107.879C125.855 107.939 125.731 107.98 125.608 107.98L125.69 108ZM107.681 68.6676C109.616 68.9101 111.633 69.6175 113.67 70.7898C122.582 75.8428 129.827 88.1317 129.827 98.177C129.827 100.764 129.354 103.008 128.469 104.827L136.619 100.299C136.619 100.299 136.743 100.178 136.825 100.138C139.81 98.7631 141.518 95.2867 141.518 90.6177C141.518 81.0575 134.623 69.3548 126.123 64.5443C124.023 63.3518 121.986 62.6848 120.051 62.5434C119.639 62.5232 119.33 62.1796 119.33 61.7955V61.553C119.33 42.675 105.808 19.7547 89.1774 10.3157C80.9239 5.60636 72.7528 5.32339 66.4957 9.42641L61.2267 12.3774C65.9812 12.0338 71.2708 13.4284 76.7457 16.541C93.7261 26.1619 107.537 49.4865 107.681 68.6474V68.6676ZM35.1284 18.9058C38.0716 18.9058 41.2413 19.8558 44.5345 21.7153C45.296 22.1599 46.0987 22.6652 46.9632 23.2716C48.5892 19.1686 51.2237 16.0963 54.5992 14.2773C50.0917 12.3369 45.8929 12.3976 42.8673 14.439L35.1284 18.9058Z" fill="#95FF42"/>
<path d="M45.385 104.458L45.385 104.458C43.3964 103.323 42.7627 101.931 42.9183 100.679C43.0845 99.3417 44.1942 97.7268 46.632 96.3293C49.0459 94.9549 52.1264 94.1732 55.1543 94.0505C58.1931 93.9274 61.0553 94.4724 63.0662 95.6205C63.0663 95.6205 63.0663 95.6205 63.0663 95.6205L106.099 120.192L106.099 120.192C108.088 121.328 108.721 122.719 108.566 123.971C108.4 125.309 107.29 126.923 104.852 128.321C102.438 129.695 99.3576 130.477 96.3297 130.6C93.2909 130.723 90.4287 130.178 88.4177 129.03L45.385 104.458Z" stroke="#95FF42" stroke-width="2.13415"/>
</svg>
