<svg width="101" height="106" viewBox="0 0 101 106" fill="none" xmlns="http://www.w3.org/2000/svg">
<path d="M82.1992 87.5944C80.2347 87.5944 78.1324 86.9678 75.9439 85.7314L18.0436 52.8736C8.5659 47.4876 0.863098 34.4123 0.863098 23.7251C0.863098 16.222 4.75758 11.3611 10.8061 11.3611C13.2875 11.3611 15.9413 12.1571 18.6985 13.7153C19.336 14.0879 20.0081 14.5113 20.7319 15.0194C23.0582 9.17619 27.8143 5.8396 33.8973 5.8396C37.585 5.8396 41.5484 7.02519 45.6841 9.37943C59.9007 17.4414 71.4635 36.9867 71.5842 53.043C73.204 53.2462 74.8927 53.839 76.5987 54.8214C84.0603 59.0556 90.126 69.3533 90.126 77.771C90.126 80.7349 89.385 83.2077 87.9548 84.9523C86.5417 86.6798 84.5428 87.5944 82.1992 87.5944ZM10.8061 12.6313C5.4641 12.6313 2.15551 16.8825 2.15551 23.7251C2.15551 34.0058 9.5826 46.59 18.6985 51.7727L76.5987 84.6305C78.5632 85.7483 80.4932 86.3242 82.1992 86.3242C84.1464 86.3242 85.8007 85.5789 86.9553 84.1562C88.1788 82.6488 88.8336 80.447 88.8336 77.771C88.8336 69.7598 83.0608 59.9533 75.9439 55.9223C74.1862 54.923 72.4802 54.3641 70.8604 54.2455C70.5157 54.2286 70.2573 53.9406 70.2573 53.6019C70.2573 53.6019 70.2573 53.4325 70.2573 53.4156C70.2573 37.5795 58.9357 18.373 45.0121 10.4634C41.0831 8.22771 37.3265 7.09294 33.8628 7.09294C28.0039 7.09294 23.6613 10.3448 21.6279 16.222C21.559 16.4083 21.4039 16.5607 21.1971 16.6285C21.0076 16.6962 20.7836 16.6454 20.6112 16.5268C19.6635 15.8155 18.8018 15.2566 18.0092 14.7993C15.4416 13.3427 13.0118 12.6144 10.7544 12.6144L10.8061 12.6313Z" fill="#95FF42"/>
<path d="M85.6965 85.926C85.4904 85.926 85.3016 85.8248 85.1642 85.6562C84.9753 85.3864 85.0097 85.0323 85.2672 84.8131C86.9671 83.3462 87.8771 80.8844 87.8771 77.7145C87.8771 69.739 82.125 59.9762 75.0337 55.9632C73.2823 54.9684 71.5652 54.4119 69.9684 54.2939C69.625 54.277 69.3674 53.9904 69.3674 53.6532C69.3674 53.6532 69.3674 53.4846 69.3674 53.4677C69.3674 37.7022 58.0865 18.5813 44.2128 10.707C40.298 8.48131 36.5548 7.3516 33.1036 7.3516C27.2656 7.3516 22.9387 10.589 20.9126 16.4399C20.8439 16.6254 20.6894 16.7772 20.4833 16.8446C20.2944 16.912 20.0712 16.8615 19.8995 16.7434C18.9551 16.0352 18.0966 15.4788 17.3068 15.0236C13.3919 12.7978 9.64879 12.2583 6.76416 13.4892C6.4551 13.6241 6.09452 13.4892 5.93998 13.2025C5.78545 12.899 5.88847 12.5449 6.18037 12.3763L15.8645 6.79517C18.8865 4.73807 23.2306 4.77179 27.7636 6.98064L35.5933 2.59666C38.1688 0.893657 41.2767 0 44.5047 0C48.162 0 51.991 1.11286 55.8543 3.30485C70.0199 11.3309 81.5413 30.789 81.6614 46.7737C83.2755 46.976 84.9582 47.5662 86.658 48.5441C94.0928 52.7595 100.137 63.0113 100.137 71.3914C100.137 75.708 98.5056 78.9791 95.6553 80.3954C95.621 80.4292 95.5866 80.4629 95.5351 80.4797L85.9369 85.8248C85.8338 85.8754 85.7308 85.9091 85.6278 85.9091L85.6965 85.926ZM70.6724 53.1136C72.2864 53.3159 73.9691 53.9061 75.669 54.884C83.1038 59.0994 89.1477 69.3512 89.1477 77.7313C89.1477 79.8896 88.7528 81.7612 88.0145 83.2787L94.814 79.5018C94.814 79.5018 94.917 79.4006 94.9857 79.3669C97.4754 78.2203 98.9005 75.3201 98.9005 71.4251C98.9005 63.4497 93.1484 53.6869 86.0571 49.6739C84.3057 48.679 82.6058 48.1226 80.9918 48.0046C80.6484 47.9877 80.3908 47.7011 80.3908 47.3807V47.1784C80.3908 31.4298 69.1099 12.3089 55.2362 4.43456C48.3509 0.505844 41.5342 0.269783 36.3144 3.69266L31.9188 6.15443C35.8852 5.86779 40.298 7.03123 44.8653 9.62789C59.0309 17.6539 70.5522 37.1121 70.6724 53.0967V53.1136ZM10.1467 11.6007C12.6021 11.6007 15.2463 12.3932 17.9936 13.9444C18.6289 14.3154 19.2986 14.7369 20.0197 15.2428C21.3762 11.8199 23.574 9.25694 26.3899 7.73941C22.6296 6.12071 19.1269 6.17129 16.6028 7.8743L10.1467 11.6007Z" fill="#95FF42"/>
<path d="M18.7908 82.8175L18.7908 82.8175C17.1733 81.894 16.7025 80.7932 16.8209 79.8406C16.9499 78.8023 17.8224 77.4952 19.8312 76.3435C21.816 75.2135 24.3572 74.5671 26.8602 74.4657C29.3741 74.3638 31.7258 74.816 33.3657 75.7522C33.3657 75.7522 33.3657 75.7522 33.3658 75.7523L69.2651 96.2509L69.2651 96.2509C70.8826 97.1744 71.3535 98.2752 71.2351 99.2278C71.106 100.266 70.2335 101.573 68.2247 102.725C66.2398 103.855 63.6987 104.501 61.1958 104.603C58.6818 104.705 56.3301 104.252 54.6902 103.316C54.6902 103.316 54.6902 103.316 54.6902 103.316L18.7908 82.8175Z" stroke="#95FF42" stroke-width="2.13415"/>
</svg>
