<svg width="121" height="94" viewBox="0 0 121 94" fill="none" xmlns="http://www.w3.org/2000/svg">
<g clip-path="url(#clip0_3585_7886)">
<path d="M101.993 55.7279L102.106 39.2837L51.9031 34.7644L65.1886 52.4154L101.993 55.7279Z" fill="#272727" stroke="#95FF42" stroke-width="1.5" stroke-linejoin="round"/>
<path d="M92.2946 75.7151L92.1815 92.1481L69.8852 62.5094L69.9983 46.0652L92.2946 75.7151Z" fill="#272727" stroke="#95FF42" stroke-width="1.5" stroke-linejoin="round"/>
<path d="M87.7333 11.151C98.6724 18.2425 104.5 28.5184 102.096 39.295L51.8931 34.7757L74.1994 64.4144C65.3323 67.3041 55.1113 68.5317 44.6018 67.5876C33.3671 66.58 23.5243 63.2243 16.063 58.4004C5.12378 51.309 -0.693348 41.0218 1.69995 30.2452C5.72594 12.1235 31.4705 -0.540269 59.1945 1.95261C70.439 2.97138 80.272 6.31594 87.7333 11.151Z" fill="#272727" stroke="#95FF42" stroke-width="1.5" stroke-linejoin="round"/>
<path d="M1.04932 51.3407L1.16239 34.9078C1.10218 43.9476 6.70913 52.3428 16.063 58.4005C23.5242 63.2356 33.3671 66.5801 44.6018 67.5877C55.1113 68.5318 65.3323 67.3042 74.1994 64.4145L74.0863 80.8474C65.2193 83.7372 54.9982 84.9647 44.4887 84.0207C33.2441 83.0131 23.4112 79.6573 15.9499 74.8335C6.59611 68.7646 0.989105 60.3805 1.04932 51.3407Z" fill="#272727" stroke="#95FF42" stroke-width="1.5" stroke-linejoin="round"/>
<path d="M120.201 50.5846L120.088 67.0176C117.584 78.2764 106.701 87.4154 92.1815 92.1482L92.2946 75.7152C106.814 70.9936 117.697 61.8434 120.201 50.5846Z" fill="#272727" stroke="#95FF42" stroke-width="1.5" stroke-linejoin="round"/>
<path d="M120.201 50.5845C117.697 61.8432 106.814 70.9823 92.2946 75.7151L69.9983 46.0652L120.201 50.5845Z" fill="#272727" stroke="#95FF42" stroke-width="1.5" stroke-linejoin="round"/>
</g>
<defs>
<clipPath id="clip0_3585_7886">
<rect width="120.147" height="91.8318" fill="white" transform="matrix(0.999987 -0.00502963 -0.00446207 0.99999 0.775574 1.33911)"/>
</clipPath>
</defs>
</svg>
