<svg width="185" height="132" viewBox="0 0 185 132" fill="none" xmlns="http://www.w3.org/2000/svg">
<path d="M91.0574 67.0739L83.7512 16.7416C77.284 14.518 71.2082 14.5177 66.1062 16.7295L65.6354 16.9505C65.4085 17.0614 65.1646 17.1716 64.9377 17.2824L56.4068 21.3784L57.2403 24.5433C56.5478 25.6113 55.9202 26.7674 55.357 28.0288C46.9063 47.0008 56.0319 79.8622 75.7529 101.418C85.7611 112.356 96.5665 118.277 105.883 118.987L107.686 121.437L115.435 117.652C116.356 117.295 117.228 116.867 118.087 116.354L118.104 116.354C121.697 114.22 124.673 110.812 126.758 106.119C127.921 103.529 128.736 100.669 129.25 97.6256L91.0403 67.0732L91.0574 67.0739Z" fill="#272727"/>
<path d="M89.7766 66.7129L82.5206 17.124C70.3821 12.9858 59.5845 16.5725 54.356 28.2365C45.9825 46.9255 55.0378 79.3026 74.5949 100.544C94.152 121.786 116.807 123.861 125.181 105.172C126.334 102.621 127.141 99.803 127.649 96.8049L89.7603 66.6954L89.7766 66.7129Z" fill="#272727" stroke="#95FF42" stroke-width="2" stroke-linejoin="round"/>
<path d="M81.7582 71.5503L74.452 21.2179C62.2094 17.0207 51.3174 20.664 46.0407 32.5045C37.59 51.4765 46.7155 84.3379 66.4366 105.894C86.1576 127.45 109.009 129.55 117.459 110.578C118.623 107.988 119.437 105.128 119.951 102.085L81.7418 71.5325L81.7582 71.5503Z" fill="#272727"/>
<path d="M81.7582 71.5503L74.452 21.2179M81.7582 71.5503L81.7418 71.5325L119.951 102.085M81.7582 71.5503L90.0146 66.7125M74.452 21.2179C62.2094 17.0207 51.3174 20.664 46.0407 32.5045C37.59 51.4764 46.7155 84.3379 66.4366 105.894C86.1576 127.45 109.009 129.55 117.459 110.578C118.623 107.988 119.437 105.128 119.951 102.085M74.452 21.2179L82.3762 17.1207M119.951 102.085L127.137 98.7118" stroke="#95FF42" stroke-width="2" stroke-linejoin="round"/>
<path d="M134.311 50.0559C139.456 60.6477 142.488 71.8407 142.979 81.9579L133.68 86.4172L133.68 86.4343L94.7102 66.8977L87.5758 16.5483L96.8748 12.0719C104.238 14.5875 112.087 19.9463 119.503 28.0434C125.475 34.5775 130.482 42.1517 134.311 50.0559Z" fill="#272727"/>
<path d="M142.979 81.9579C142.488 71.8407 139.456 60.6477 134.311 50.0559C130.482 42.1517 125.475 34.5775 119.503 28.0434C112.087 19.9463 104.238 14.5875 96.8748 12.0719L87.5758 16.5483M142.979 81.9579L142.979 81.9408M142.979 81.9579L133.68 86.4172L133.68 86.4343M87.5758 16.5483C94.9386 19.0639 102.788 24.4227 110.204 32.5198C116.176 39.0539 121.183 46.628 125.013 54.5323C130.157 65.1241 133.189 76.3171 133.68 86.4343M87.5758 16.5483L94.7102 66.8977L133.68 86.4343" stroke="#95FF42" stroke-width="2" stroke-linejoin="round"/>
</svg>
