<svg width="200" height="110" viewBox="0 0 200 110" fill="none" xmlns="http://www.w3.org/2000/svg">
<path d="M65.2321 92.371V85.4806C64.1753 84.9551 63.1186 84.4296 62.1206 83.8456C60.4181 82.8821 58.8917 81.8603 57.4827 80.8092L50.115 81.9479C46.0642 82.5902 41.9253 81.1888 40.8392 78.8822L34.3814 65.0139C34.176 64.5176 34.1172 64.0213 34.176 63.5541C34.1466 63.4957 34.1172 63.4081 34.1172 63.4081V46.5326C34.1172 46.299 34.2934 46.1531 34.5282 46.1531L42.3656 46.9706C42.5711 46.9998 42.7766 46.8246 42.7766 46.591L43.0114 27.8469C43.0114 27.6425 43.1582 27.4674 43.3343 27.4674L81.083 22.504L125.113 19.0588C125.143 19.0588 125.231 19.0588 125.231 19.0588L133.039 15.9348C133.303 15.8472 133.567 16.0224 133.567 16.2851V29.5695C133.567 29.6863 133.773 29.8907 133.773 29.8907L156.639 42.7079C156.669 42.7371 156.727 42.7371 156.727 42.7371L164.212 44.6056C164.389 44.664 164.506 44.81 164.506 44.9852L164.623 60.4885L164.682 60.4593C165.152 62.5614 162.862 64.6344 159.164 65.1891L155.759 65.7147V79.6997C155.759 79.7581 155.7 79.7873 155.7 79.8457C155.935 81.1012 155.23 82.3858 153.557 83.3493L135.886 93.5096C132.921 95.203 128.137 95.203 125.172 93.5096L119.8 90.4148M65.2321 92.371C65.6137 94.0936 67.7271 95.6118 70.8093 96.0789L94.9673 99.7869C99.0181 100.4 103.157 99.0278 104.243 96.7212L106.21 92.4878M65.2321 92.371V75.1409M106.21 92.4878C110.848 92.1374 115.397 91.4659 119.8 90.4148M106.21 92.4878V75.1409M119.8 90.4148V73.2043" stroke="#95FF42" stroke-width="2" stroke-linejoin="round"/>
<path d="M148.597 25.8323L141.229 26.9709C139.821 25.9199 138.294 24.898 136.592 23.9345C134.889 22.971 133.128 22.0952 131.279 21.2777L133.245 17.0442C134.331 14.7377 131.924 12.3435 127.903 11.7304L103.745 8.02248C99.6941 7.40936 95.5552 8.78159 94.4692 11.0881L92.5025 15.3216C87.8646 15.6719 83.3148 16.3435 78.9117 17.3945L73.54 14.2997C70.5753 12.6063 65.7907 12.6063 62.826 14.2997L45.1551 24.4601C42.1904 26.1535 42.1904 28.9271 45.1551 30.6205L50.5268 33.7153C48.7069 36.2262 47.5034 38.8539 46.9163 41.5108L39.5486 42.6494C35.4978 43.2626 33.1201 45.6567 34.2062 47.9632L40.664 61.8315C41.7501 64.138 45.8889 65.5394 49.9397 64.8971L57.3075 63.7584C58.7165 64.8095 60.2428 65.8314 61.9454 66.7949C63.6185 67.7583 65.4091 68.6342 67.2584 69.4517L65.2917 73.6852C64.2056 75.9917 66.6126 78.3858 70.634 78.999L94.792 82.7069C98.8428 83.32 102.982 81.9478 104.068 79.6413L106.034 75.4078C110.672 75.0574 115.222 74.3859 119.625 73.3349L124.997 76.4297C127.962 78.1231 132.746 78.1231 135.711 76.4297L153.382 66.2693C156.347 64.5759 156.347 61.8023 153.382 60.1089L148.01 57.0141C149.83 54.5032 151.034 51.8755 151.621 49.2186L158.988 48.08C163.039 47.4668 165.417 45.0727 164.331 42.7662L157.873 28.8979C156.787 26.5914 152.648 25.19 148.597 25.8323Z" fill="#272727"/>
<path d="M57.3075 63.7584L49.9397 64.8971C45.8889 65.5394 41.7501 64.138 40.664 61.8315L34.2062 47.9632C33.1201 45.6567 35.4978 43.2626 39.5486 42.6494L46.9163 41.5108C47.5034 38.8539 48.7069 36.2262 50.5268 33.7153L45.1551 30.6205C42.1904 28.9271 42.1904 26.1535 45.1551 24.4601L62.826 14.2997C65.7907 12.6063 70.5753 12.6063 73.54 14.2997L78.9117 17.3945C83.3148 16.3435 87.8646 15.6719 92.5025 15.3216L94.4692 11.0881C95.5552 8.78159 99.6941 7.40936 103.745 8.02248L127.903 11.7304C131.924 12.3435 134.331 14.7377 133.245 17.0442L131.279 21.2777C133.128 22.0952 134.889 22.971 136.592 23.9345C138.294 24.898 139.82 25.9199 141.229 26.971L148.597 25.8323C152.648 25.19 156.787 26.5914 157.873 28.8979L164.331 42.7662C165.417 45.0727 163.039 47.4668 158.988 48.08L151.621 49.2186C151.034 51.8755 149.83 54.5032 148.01 57.0141L153.382 60.1089C156.347 61.8023 156.347 64.5759 153.382 66.2693L135.711 76.4297C132.746 78.1231 127.962 78.1231 124.997 76.4297L119.625 73.3349C115.222 74.3859 110.672 75.0575 106.034 75.4078L104.068 79.6413C102.982 81.9478 98.8428 83.32 94.792 82.7069L70.634 78.999C66.6126 78.3858 64.2056 75.9917 65.2917 73.6852L67.2584 69.4517C65.4091 68.6342 63.6185 67.7583 61.9454 66.7949C60.2428 65.8314 58.7165 64.8095 57.3075 63.7584ZM57.3075 63.7584V80.9508" stroke="#95FF42" stroke-width="2" stroke-linejoin="round"/>
<path d="M114.957 36.3722C123.617 41.3356 123.617 49.3938 114.957 54.3572C106.298 59.3206 92.2965 59.3206 83.6372 54.3572C74.9778 49.3938 74.9778 41.3356 83.6372 36.3722C92.2965 31.4088 106.298 31.4088 114.957 36.3722Z" stroke="#95FF42" stroke-width="2" stroke-linejoin="round"/>
<path d="M83.6075 54.2696C83.6075 54.2696 83.6075 54.2988 83.6075 54.3572C92.3255 59.3206 106.474 59.2622 115.075 54.182C115.075 54.1236 115.075 54.1528 115.075 54.0944C106.357 49.131 92.2081 49.1894 83.6075 54.2696Z" stroke="#95FF42" stroke-width="2" stroke-linejoin="round"/>
<path d="M132.54 79.4952H130.045V93.1884H132.54V79.4952Z" fill="#272727"/>
</svg>
