<svg width="121" height="85" viewBox="0 0 121 85" fill="none" xmlns="http://www.w3.org/2000/svg">
<path d="M30.0095 77.4108V71.1797C29.0538 70.7044 28.0982 70.2292 27.1957 69.7011C25.656 68.8298 24.2757 67.9057 23.0015 66.9552L16.3386 67.9849C12.6754 68.5658 8.9325 67.2984 7.95033 65.2126L2.11037 52.6711C1.92455 52.2223 1.87146 51.7734 1.92455 51.351C1.898 51.2981 1.87146 51.2189 1.87146 51.2189V35.9579C1.87146 35.7467 2.03073 35.6147 2.24309 35.6147L9.33068 36.354C9.5165 36.3804 9.70232 36.222 9.70232 36.0107L9.91468 19.0599C9.91468 18.8751 10.0474 18.7167 10.2067 18.7167L44.3439 14.2282L84.1619 11.1126C84.1884 11.1126 84.268 11.1126 84.268 11.1126L91.3291 8.28745C91.568 8.20824 91.8069 8.36666 91.8069 8.60429V20.6177C91.8069 20.7233 91.9927 20.9081 91.9927 20.9081L112.671 32.4991C112.698 32.5255 112.751 32.5255 112.751 32.5255L119.52 34.2153C119.679 34.2681 119.786 34.4001 119.786 34.5586L119.892 48.5786L119.945 48.5522C120.37 50.4533 118.299 52.3279 114.954 52.8295L111.875 53.3048V65.9519C111.875 66.0047 111.822 66.0311 111.822 66.0839C112.034 67.2192 111.397 68.381 109.884 69.2523L93.904 78.4406C91.2229 79.9719 86.896 79.9719 84.2149 78.4406L79.3572 75.6418M30.0095 77.4108C30.3546 78.9686 32.2658 80.3416 35.0531 80.764L56.8998 84.1172C60.5631 84.6717 64.306 83.4308 65.2881 81.3449L67.0667 77.5165M30.0095 77.4108V61.8292M67.0667 77.5165C71.2608 77.1996 75.3754 76.5924 79.3572 75.6418M67.0667 77.5165V61.8292M79.3572 75.6418V60.0779" stroke="#95FF42" stroke-width="1.5" stroke-linejoin="round"/>
<path d="M105.399 17.2381L98.7361 18.2678C97.462 17.3173 96.0816 16.3932 94.542 15.5219C93.0023 14.6506 91.4096 13.8585 89.7373 13.1192L91.5158 9.29072C92.498 7.20488 90.3213 5.03982 86.6846 4.48535L64.8378 1.13216C61.1745 0.577692 57.4317 1.81864 56.4495 3.90448L54.6709 7.73294C50.4768 8.04978 46.3623 8.65705 42.3805 9.60756L37.5227 6.80883C34.8416 5.27745 30.5147 5.27745 27.8337 6.80883L11.8534 15.9971C9.17231 17.5285 9.17231 20.0368 11.8534 21.5682L16.7112 24.3669C15.0654 26.6376 13.977 29.0139 13.4461 31.4165L6.78323 32.4463C3.11998 33.0007 0.969811 35.1658 1.95199 37.2516L7.79195 49.7931C8.77413 51.879 12.517 53.1463 16.1803 52.5655L22.8431 51.5357C24.1173 52.4862 25.4977 53.4104 27.0373 54.2817C28.5504 55.153 30.1696 55.9451 31.842 56.6843L30.0635 60.5128C29.0813 62.5986 31.258 64.7637 34.8947 65.3182L56.7415 68.6714C60.4047 69.2258 64.1476 67.9849 65.1298 65.899L66.9083 62.0706C71.1025 61.7537 75.217 61.1465 79.1988 60.196L84.0566 62.9947C86.7376 64.5261 91.0645 64.5261 93.7456 62.9947L109.726 53.8064C112.407 52.275 112.407 49.7667 109.726 48.2353L104.868 45.4366C106.514 43.1659 107.602 40.7897 108.133 38.387L114.796 37.3573C118.459 36.8028 120.609 34.6377 119.627 32.5519L113.787 20.0104C112.805 17.9246 109.062 16.6572 105.399 17.2381Z" fill="#272727"/>
<path d="M22.8431 51.5357L16.1803 52.5655C12.517 53.1463 8.77413 51.879 7.79195 49.7931L1.95199 37.2516C0.969811 35.1658 3.11998 33.0007 6.78323 32.4463L13.4461 31.4165C13.977 29.0139 15.0654 26.6376 16.7112 24.3669L11.8534 21.5682C9.17231 20.0368 9.17231 17.5285 11.8534 15.9971L27.8336 6.80883C30.5147 5.27745 34.8416 5.27745 37.5227 6.80883L42.3805 9.60756C46.3623 8.65705 50.4768 8.04978 54.6709 7.73294L56.4495 3.90448C57.4317 1.81864 61.1745 0.577692 64.8378 1.13216L86.6846 4.48535C90.3213 5.03982 92.498 7.20488 91.5158 9.29072L89.7373 13.1192C91.4096 13.8585 93.0023 14.6506 94.542 15.5219C96.0816 16.3932 97.462 17.3173 98.7361 18.2678L105.399 17.2381C109.062 16.6572 112.805 17.9245 113.787 20.0104L119.627 32.5519C120.609 34.6377 118.459 36.8028 114.796 37.3573L108.133 38.387C107.602 40.7897 106.514 43.1659 104.868 45.4366L109.726 48.2353C112.407 49.7667 112.407 52.275 109.726 53.8064L93.7456 62.9947C91.0645 64.5261 86.7376 64.5261 84.0566 62.9947L79.1988 60.196C75.217 61.1465 71.1025 61.7537 66.9083 62.0706L65.1298 65.899C64.1476 67.9849 60.4047 69.2258 56.7415 68.6714L34.8947 65.3182C31.258 64.7637 29.0813 62.5986 30.0635 60.5128L31.842 56.6843C30.1696 55.9451 28.5504 55.153 27.0373 54.2817C25.4977 53.4104 24.1173 52.4862 22.8431 51.5357ZM22.8431 51.5357V67.0832" stroke="#95FF42" stroke-width="1.5" stroke-linejoin="round"/>
<path d="M74.9776 26.7695C82.8084 31.258 82.8084 38.5453 74.9776 43.0338C67.1467 47.5223 54.4846 47.5223 46.6537 43.0338C38.8229 38.5453 38.8229 31.258 46.6537 26.7695C54.4846 22.2809 67.1467 22.2809 74.9776 26.7695Z" stroke="#95FF42" stroke-width="1.5" stroke-linejoin="round"/>
<path d="M46.627 42.9547C46.627 42.9547 46.627 42.9811 46.627 43.0339C54.5109 47.5224 67.3057 47.4696 75.0835 42.8755C75.0835 42.8227 75.0835 42.8491 75.0835 42.7963C67.1995 38.3077 54.4047 38.3605 46.627 42.9547Z" stroke="#95FF42" stroke-width="1.5" stroke-linejoin="round"/>
<path d="M90.878 65.7668H88.6217V78.1499H90.878V65.7668Z" fill="#272727"/>
</svg>
