<svg width="145" height="122" viewBox="0 0 145 122" fill="none" xmlns="http://www.w3.org/2000/svg">
<path d="M90.2529 39.3516C98.4148 62.9527 92.896 85.9191 77.9262 90.6485C62.9565 95.378 44.2046 80.0796 36.0427 56.4786C27.8808 32.8775 33.3997 9.91113 48.3694 5.18166C63.3391 0.452197 82.091 15.7506 90.2529 39.3516Z" fill="#272727" stroke="#95FF42" stroke-width="1.5" stroke-linejoin="round"/>
<ellipse cx="20.4242" cy="33.6443" rx="20.4242" ry="33.6443" transform="matrix(0.953543 -0.301258 0.326836 0.945081 32.6512 22.199)" fill="#272727" stroke="#95FF42" stroke-width="1.5" stroke-linejoin="round"/>
<path d="M48.2499 5.28583L58.4133 1.6836C73.3831 -3.04587 92.135 12.2526 100.297 35.8536C108.459 59.4546 102.94 82.421 87.97 87.1505L79.9868 89.9032" stroke="#95FF42" stroke-width="1.5" stroke-linejoin="round"/>
<path d="M92.6654 75.4445C90.1597 78.2769 89.1598 81.438 90.4319 82.5049L96.3051 87.6651L105.603 77.1889L99.5057 72.2477C98.2336 71.1808 95.1711 72.612 92.6654 75.4445Z" fill="#272727" stroke="#95FF42" stroke-width="1.5" stroke-linejoin="round"/>
<path d="M133.329 111.399C129.22 115.57 123.764 116.971 121.143 114.53C118.522 112.088 119.727 106.727 123.836 102.557C127.863 98.4694 133.183 97.0418 135.861 99.2845C135.916 99.3303 135.97 99.3776 136.022 99.4264C138.643 101.868 137.438 107.229 133.329 111.399Z" fill="#272727"/>
<path d="M121.143 114.53C118.522 112.088 119.727 106.727 123.836 102.557C127.863 98.4694 133.183 97.0418 135.861 99.2845L111.501 77.7666C108.879 75.3247 103.424 76.7261 99.3149 80.8967C95.2062 85.0673 94.0005 90.4278 96.6218 92.8696L121.143 114.53Z" fill="#272727"/>
<path d="M121.143 114.53C123.764 116.971 129.22 115.57 133.329 111.399C137.438 107.229 138.643 101.868 136.022 99.4264M121.143 114.53C118.522 112.088 119.727 106.727 123.836 102.557C127.863 98.4695 133.183 97.0418 135.861 99.2845M121.143 114.53L96.6218 92.8696C94.0005 90.4278 95.2062 85.0673 99.3149 80.8967C103.424 76.7261 108.879 75.3247 111.501 77.7666L135.861 99.2845M136.022 99.4264L135.861 99.2845M136.022 99.4264C135.97 99.3776 135.916 99.3303 135.861 99.2845" stroke="#95FF42" stroke-width="1.5" stroke-linejoin="round"/>
</svg>
