<svg width="171" height="137" viewBox="0 0 171 137" fill="none" xmlns="http://www.w3.org/2000/svg">
<path d="M154.59 31.3815C153.119 30.4266 151.423 29.6837 149.547 29.1527C141.042 26.7544 128.84 28.7416 117.053 35.2416C107.729 40.3809 100.505 47.3116 96.4642 54.2717C94.4339 57.7664 93.2019 61.2709 92.9161 64.5503C92.836 65.4508 92.8278 66.3347 92.8934 67.1974" stroke="#95FF42" stroke-width="1.5"/>
<path d="M85.3783 70.666L89.9908 78.5463L73.1947 87.1437L69.3465 80.4156" stroke="#95FF42" stroke-width="1.5"/>
<path d="M6.44201 111.427L11.0545 119.307C13.1538 122.89 20.0623 122.003 26.4094 118.498L64.5019 97.5103C67.8726 95.6602 70.4745 93.1542 71.9332 90.6383C72.6231 89.4539 73.0567 88.2694 73.1947 87.1436L68.9908 79.9654L65.7658 73.3618" stroke="#95FF42" stroke-width="1.5"/>
<mask id="path-4-outside-1_3842_7290" maskUnits="userSpaceOnUse" x="3.8525" y="13.8013" width="160" height="101" fill="black">
<rect fill="white" x="3.8525" y="13.8013" width="160" height="101"/>
<path d="M21.797 110.628C15.302 114.211 8.45228 114.005 6.52055 110.178C5.58425 108.337 5.94891 105.998 7.309 103.668C8.77751 101.152 11.3893 98.6363 14.76 96.7862L52.8524 75.7885C57.8 73.0671 62.9349 72.5385 65.9606 74.1341L83.0504 64.7169C82.3408 62.2109 82.2718 59.4895 82.7548 56.6507C83.3166 53.3126 84.6668 49.8276 86.6872 46.3427C91.418 38.2079 99.8644 30.0927 110.765 24.092C124.041 16.7697 137.74 14.3322 147.625 16.6424C153.391 17.9835 157.875 20.9399 160.182 25.5016C163.197 31.4436 162.005 39.0204 157.619 46.5679C152.878 54.7222 144.412 62.8374 133.512 68.8577C113.978 79.6258 93.4975 79.8216 85.6721 69.8562L68.5822 79.2734C68.4442 80.3992 68.0106 81.5836 67.3207 82.7681C65.862 85.2839 63.2503 87.79 59.8894 89.6401L21.797 110.628ZM89.6637 64.3645C95.0252 74.9172 113.909 75.4556 131.846 65.5686C141.16 60.4391 148.384 53.4986 152.435 46.5385C156.18 40.0972 157.195 33.6266 154.623 28.5558C152.79 24.9436 149.36 22.5061 144.945 21.2629C136.439 18.8646 124.238 20.8518 112.45 27.3518C103.127 32.4911 95.9023 39.4218 91.8615 46.3819C89.8312 49.8766 88.5992 53.3811 88.3134 56.6605C88.067 59.4308 88.5007 62.0445 89.6735 64.3645"/>
</mask>
<path d="M21.797 110.628L21.0731 109.314L21.0724 109.315L21.797 110.628ZM6.52055 110.178L7.85968 109.502L7.85747 109.498L6.52055 110.178ZM7.309 103.668L8.60442 104.424L8.60446 104.424L7.309 103.668ZM14.76 96.7862L15.4817 98.1011L15.4841 98.0998L14.76 96.7862ZM52.8524 75.7885L52.1295 74.4742L52.1283 74.4748L52.8524 75.7885ZM65.9606 74.1341L65.2609 75.4609L65.9762 75.8381L66.6845 75.4478L65.9606 74.1341ZM83.0504 64.7169L83.7744 66.0307L84.8185 65.4553L84.4937 64.3083L83.0504 64.7169ZM82.7548 56.6507L84.2335 56.9022L84.234 56.8996L82.7548 56.6507ZM86.6872 46.3427L85.3905 45.5886L85.3895 45.5904L86.6872 46.3427ZM110.765 24.092L111.488 25.406L111.489 25.4054L110.765 24.092ZM147.625 16.6424L147.284 18.1031L147.285 18.1034L147.625 16.6424ZM160.182 25.5016L158.843 26.1784L158.844 26.1805L160.182 25.5016ZM157.619 46.5679L158.916 47.3218L158.916 47.3215L157.619 46.5679ZM133.512 68.8577L134.236 70.1714L134.237 70.1708L133.512 68.8577ZM85.6721 69.8562L86.8518 68.9298L86.0646 67.9273L84.9481 68.5425L85.6721 69.8562ZM68.5822 79.2734L67.8583 77.9597L67.1866 78.3297L67.0933 79.0909L68.5822 79.2734ZM67.3207 82.7681L66.0245 82.0132L66.023 82.0158L67.3207 82.7681ZM59.8894 89.6401L59.166 88.3261L59.1656 88.3263L59.8894 89.6401ZM131.846 65.5686L131.123 64.2547L131.122 64.2549L131.846 65.5686ZM152.435 46.5385L153.731 47.293L153.732 47.2925L152.435 46.5385ZM154.623 28.5558L155.961 27.8772L155.961 27.877L154.623 28.5558ZM144.945 21.2629L144.537 22.7066L144.538 22.7068L144.945 21.2629ZM112.45 27.3518L113.174 28.6654L113.174 28.6653L112.45 27.3518ZM91.8615 46.3819L93.1585 47.1354L93.1587 47.135L91.8615 46.3819ZM88.3134 56.6605L89.8075 56.7934L89.8077 56.7907L88.3134 56.6605ZM21.0724 109.315C18.0136 111.002 14.9409 111.755 12.492 111.682C10.0034 111.609 8.47514 110.721 7.85967 109.502L5.18143 110.854C6.49769 113.462 9.36012 114.591 12.4031 114.681C15.4857 114.773 19.0854 113.837 22.5215 111.941L21.0724 109.315ZM7.85747 109.498C7.24677 108.297 7.37541 106.529 8.60442 104.424L6.01358 102.912C4.5224 105.466 3.92174 108.378 5.18362 110.858L7.85747 109.498ZM8.60446 104.424C9.91478 102.179 12.3098 99.8422 15.4817 98.1011L14.0382 95.4713C10.4688 97.4305 7.64023 100.125 6.01355 102.912L8.60446 104.424ZM15.4841 98.0998L53.5765 77.1021L52.1283 74.4748L14.0358 95.4726L15.4841 98.0998ZM53.5754 77.1028C55.8991 75.8246 58.2362 75.0794 60.3054 74.8318C62.3945 74.5818 64.1017 74.8496 65.2609 75.4609L66.6603 72.8073C64.7937 71.8229 62.4207 71.5573 59.949 71.853C57.4575 72.1512 54.7533 73.0309 52.1295 74.4742L53.5754 77.1028ZM66.6845 75.4478L83.7744 66.0307L82.3265 63.4032L65.2366 72.8203L66.6845 75.4478ZM84.4937 64.3083C83.8555 62.0545 83.7809 59.5632 84.2335 56.9022L81.276 56.3991C80.7628 59.4159 80.8261 62.3673 81.6072 65.1256L84.4937 64.3083ZM84.234 56.8996C84.7596 53.7762 86.0335 50.4609 87.9849 47.095L85.3895 45.5904C83.3001 49.1943 81.8735 52.849 81.2756 56.4017L84.234 56.8996ZM87.9839 47.0968C92.5553 39.236 100.783 31.299 111.488 25.406L110.041 22.7779C98.9453 28.8864 90.2806 37.1798 85.3905 45.5886L87.9839 47.0968ZM111.489 25.4054C124.553 18.2003 137.868 15.9025 147.284 18.1031L147.967 15.1818C137.612 12.7619 123.528 15.3391 110.04 22.7785L111.489 25.4054ZM147.285 18.1034C152.754 19.3755 156.792 22.1225 158.843 26.1784L161.52 24.8248C158.958 19.7572 154.028 16.5916 147.965 15.1814L147.285 18.1034ZM158.844 26.1805C161.535 31.4817 160.58 38.4873 156.322 45.8142L158.916 47.3215C163.43 39.5535 164.86 31.4055 161.519 24.8227L158.844 26.1805ZM156.322 45.814C151.741 53.6934 143.494 61.6311 132.787 67.5447L134.237 70.1708C145.331 64.0437 154.015 55.751 158.916 47.3218L156.322 45.814ZM132.788 67.5441C123.199 72.8301 113.432 75.4879 105.175 75.6323C96.8762 75.7773 90.3577 73.3944 86.8518 68.9298L84.4923 70.7826C88.8119 76.2834 96.4463 78.7853 105.227 78.6318C114.05 78.4776 124.291 75.6534 134.236 70.1714L132.788 67.5441ZM84.9481 68.5425L67.8583 77.9597L69.3061 80.5871L86.396 71.17L84.9481 68.5425ZM67.0933 79.0909C66.9855 79.971 66.6368 80.9619 66.0245 82.0132L68.6168 83.5231C69.3843 82.2054 69.903 80.8273 70.0711 79.4559L67.0933 79.0909ZM66.023 82.0158C64.7242 84.2558 62.3317 86.5833 59.166 88.3261L60.6128 90.9542C64.1688 88.9966 66.9998 86.3121 68.6183 83.5205L66.023 82.0158ZM59.1656 88.3263L21.0731 109.314L22.5208 111.942L60.6133 90.9539L59.1656 88.3263ZM88.3264 65.044C91.3586 71.0122 98.0855 73.9051 105.996 74.1309C113.946 74.3577 123.414 71.9292 132.57 66.8823L131.122 64.2549C122.341 69.095 113.399 71.3409 106.082 71.1321C98.7259 70.9222 93.3302 68.2696 91.001 63.6851L88.3264 65.044ZM132.57 66.8825C142.079 61.6452 149.521 54.5266 153.731 47.293L151.139 45.784C147.247 52.4706 140.241 59.233 131.123 64.2547L132.57 66.8825ZM153.732 47.2925C157.606 40.6299 158.858 33.5883 155.961 27.8772L153.285 29.2344C155.533 33.6649 154.755 39.5646 151.138 45.7845L153.732 47.2925ZM155.961 27.877C153.892 23.8004 150.061 21.1451 145.351 19.819L144.538 22.7068C148.659 23.8671 151.688 26.0869 153.285 29.2346L155.961 27.877ZM145.352 19.8192C136.343 17.2791 123.728 19.42 111.726 26.0382L113.174 28.6653C124.748 22.2835 136.535 20.45 144.537 22.7066L145.352 19.8192ZM111.726 26.0381C102.208 31.2845 94.765 38.3932 90.5643 45.6287L93.1587 47.135C97.0396 40.4504 104.045 33.6977 113.174 28.6654L111.726 26.0381ZM90.5645 45.6284C88.4531 49.2627 87.1286 52.979 86.8191 56.5302L89.8077 56.7907C90.0699 53.7832 91.2093 50.4905 93.1585 47.1354L90.5645 45.6284ZM86.8193 56.5276C86.5514 59.5395 87.0196 62.4396 88.3348 65.0413L91.0122 63.6878C89.9817 61.6494 89.5826 59.3221 89.8075 56.7934L86.8193 56.5276Z" fill="#95FF42" mask="url(#path-4-outside-1_3842_7290)"/>
<path d="M89.7648 78.1588C97.5903 88.1242 118.59 87.4959 138.124 76.7279C149.025 70.7075 157.491 62.5923 162.232 54.438C166.617 46.8905 169.045 39.9806 166.029 34.0386C165.891 33.7743 165.753 33.5198 165.605 33.2653L160.993 25.385C161.141 25.6395 161.279 25.894 161.416 26.1584" stroke="#95FF42" stroke-width="1.5"/>
</svg>
