<svg width="27" height="58" viewBox="0 0 27 58" fill="none" xmlns="http://www.w3.org/2000/svg">
<g clip-path="url(#clip0_5003_5969)">
<path fill-rule="evenodd" clip-rule="evenodd" d="M23 -7C23 -15.8366 30.1634 -23 39 -23H251C259.837 -23 267 -15.8366 267 -7V43C267 51.8366 259.837 59 251 59H39C33.6314 59 28.8803 56.3559 25.978 52.2988C22.7897 47.8418 18.5576 43 13.0776 43V43C9.00935 43 5.45526 45.5552 3.30984 49.0118C-3.3923 59.8097 -15.3565 67 -29 67C-49.9868 67 -67 49.9868 -67 29C-67 8.01318 -49.9868 -9 -29 -9C-12.3766 -9 1.75371 1.6741 6.91087 16.5422C8.16891 20.1692 11.3553 23 15.1942 23V23C19.5052 23 23 19.5052 23 15.1942V-7Z" fill="#272727"/>
</g>
<defs>
<clipPath id="clip0_5003_5969">
<rect width="27" height="58" fill="white"/>
</clipPath>
</defs>
</svg>
