<svg width="331" height="303" viewBox="0 0 331 303" fill="none" xmlns="http://www.w3.org/2000/svg">
<path d="M187.943 210.086C187.943 260.972 146.692 302.224 95.8057 302.224C44.9194 302.224 3.66797 260.972 3.66797 210.086C3.66797 159.2 44.9194 117.948 95.8057 117.948C146.692 117.948 187.943 159.2 187.943 210.086Z" fill="#C4B4FF"/>
<path d="M117.561 200.709C119.225 200.813 120.655 199.541 120.744 197.876L121.531 183.232C120.412 183.677 119.358 190.534 118.832 194.558C118.621 196.166 117.196 197.344 115.58 197.219L103.901 196.319L89.32 195.195L89.2501 195.713C89.0168 197.438 90.2972 199 92.0353 199.109L117.561 200.709Z" fill="#191919"/>
<path d="M73.2853 233.947L82.8269 175.102L64.2141 233.947L73.2853 233.947Z" fill="#191919"/>
<path d="M64.2141 233.947L70.3706 251.923L73.2853 233.947L64.2141 233.947Z" fill="#191919"/>
<path d="M64.2141 233.947L70.3706 251.923M64.2141 233.947L82.8269 175.102M64.2141 233.947L73.2853 233.947M70.3706 251.923L120.235 249.16M70.3706 251.923L73.2853 233.947M120.235 249.16C129.6 215.208 132.103 200.277 130.935 183.118C130.896 182.548 130.385 182.129 129.818 182.2L121.531 183.232M120.235 249.16L115.999 241M121.531 183.232L120.744 197.876C120.655 199.541 119.225 200.813 117.561 200.709L92.0353 199.109C90.2972 199 89.0168 197.438 89.2501 195.713L89.32 195.195M121.531 183.232C120.412 183.677 119.358 190.534 118.832 194.558C118.621 196.166 117.196 197.344 115.58 197.219L103.901 196.319L89.32 195.195M82.8269 175.102L90.5527 176.746C91.0574 176.854 91.3975 177.328 91.3379 177.84L89.32 195.195M82.8269 175.102L73.2853 233.947M80.4994 233.947L73.2853 233.947" stroke="#191919" stroke-linejoin="round"/>
<path d="M112.2 219.05C113.234 219.115 114.123 218.323 114.179 217.288L114.668 208.185C113.973 208.461 113.317 212.724 112.99 215.225C112.859 216.225 111.974 216.958 110.968 216.88L94.6435 215.622L94.6 215.943C94.455 217.016 95.251 217.987 96.3315 218.055L112.2 219.05Z" fill="#191919"/>
<path d="M79.2209 239.127C79.1006 239.508 79.1054 239.917 79.2347 240.294L82.8631 250.888L90.6068 203.131L79.2209 239.127Z" fill="#191919"/>
<path d="M82.8631 250.888L79.2347 240.294C79.1054 239.917 79.1006 239.508 79.2209 239.127L90.6068 203.131M82.8631 250.888L112.524 249.245C113.324 249.201 114.009 248.642 114.22 247.87C119.863 227.258 121.285 218.186 120.467 207.462L114.668 208.185M82.8631 250.888L90.6068 203.131M114.668 208.185L114.179 217.288C114.123 218.323 113.234 219.115 112.2 219.05L96.3315 218.055C95.251 217.987 94.455 217.016 94.6 215.943L94.6435 215.622M114.668 208.185C113.973 208.461 113.317 212.724 112.99 215.225C112.859 216.225 111.974 216.958 110.968 216.88L94.6435 215.622M90.6068 203.131L95.9633 204.27L94.6435 215.622" stroke="#191919" stroke-linejoin="round"/>
<path d="M180.829 209.582C180.829 256.662 142.663 294.828 95.5835 294.828C48.5038 294.828 10.3382 256.662 10.3382 209.582C10.3382 162.503 48.5038 124.337 95.5835 124.337C142.663 124.337 180.829 162.503 180.829 209.582Z" stroke="#262332" stroke-width="2.92641"/>
<path d="M170.909 209.582C170.909 251.184 137.183 284.91 95.5808 284.91C53.9783 284.91 20.2528 251.184 20.2528 209.582C20.2528 167.979 53.9783 134.254 95.5808 134.254C137.183 134.254 170.909 167.979 170.909 209.582Z" stroke="#262332" stroke-width="1.95094"/>
<path d="M91.2344 116.556C91.2344 165.073 52.0315 204.404 3.67236 204.404L91.2344 116.556Z" fill="#A490ED"/>
<path d="M0.203125 207.848C0.203125 155.172 43.6823 112.469 97.3166 112.469L0.203125 207.848Z" fill="#191919"/>
<path d="M330.502 19.5L326.032 12.0822L321.843 19.6618L330.502 19.5ZM141.235 110.157C149.742 70.2955 174.636 36.0288 207.825 17.2078C240.993 -1.60188 282.471 -5.00071 324.246 16.8989L324.942 15.5703C282.702 -6.57335 240.683 -3.15037 207.085 15.9031C173.506 34.9453 148.361 69.583 139.768 109.844L141.235 110.157Z" fill="#C4B4FF"/>
</svg>
