<svg width="283" height="176" viewBox="0 0 283 176" fill="none" xmlns="http://www.w3.org/2000/svg">
<path d="M124.478 114.723C124.478 148.462 97.1266 175.813 63.3874 175.813C29.6483 175.813 2.2973 148.462 2.2973 114.723C2.2973 80.984 29.6483 53.6331 63.3874 53.6331C97.1266 53.6331 124.478 80.984 124.478 114.723Z" fill="#C4B4FF"/>
<path d="M77.8115 108.506C78.9149 108.575 79.8629 107.732 79.9222 106.628L80.444 96.9183C79.7023 97.2135 79.0033 101.76 78.6543 104.428C78.5148 105.494 77.5701 106.275 76.4981 106.192L68.7548 105.595L59.0872 104.85L59.0408 105.193C58.8862 106.338 59.7351 107.373 60.8875 107.445L77.8115 108.506Z" fill="#191919"/>
<path d="M48.4557 130.544L54.7821 91.5281L42.4412 130.544L48.4557 130.544Z" fill="#191919"/>
<path d="M42.4412 130.544L46.5232 142.462L48.4557 130.544L42.4412 130.544Z" fill="#191919"/>
<path d="M42.4412 130.544L46.5232 142.462M42.4412 130.544L54.7821 91.5281M42.4412 130.544L48.4557 130.544M46.5232 142.462L79.5849 140.631M46.5232 142.462L48.4557 130.544M79.5849 140.631C85.7942 118.119 87.4539 108.22 86.6791 96.8428C86.6534 96.465 86.3145 96.1871 85.9388 96.2339L80.444 96.9183M79.5849 140.631L76.7764 135.22M80.444 96.9183L79.9222 106.628C79.8629 107.732 78.9149 108.575 77.8115 108.506L60.8875 107.445C59.7351 107.373 58.8862 106.338 59.0408 105.193L59.0872 104.85M80.444 96.9183C79.7023 97.2135 79.0033 101.76 78.6543 104.428C78.5148 105.494 77.5701 106.275 76.4981 106.192L68.7548 105.595L59.0872 104.85M54.7821 91.5281L59.9045 92.6181C60.2391 92.6893 60.4646 93.0034 60.4251 93.3432L59.0872 104.85M54.7821 91.5281L48.4557 130.544M53.2388 130.544L48.4557 130.544" stroke="#191919" stroke-width="0.66303" stroke-linejoin="round"/>
<path d="M74.2573 120.666C74.9432 120.709 75.5326 120.185 75.5694 119.499L75.8938 113.463C75.4327 113.646 74.9982 116.472 74.7812 118.131C74.6945 118.794 74.1072 119.279 73.4407 119.228L62.6168 118.394L62.5879 118.607C62.4918 119.318 63.0196 119.962 63.736 120.007L74.2573 120.666Z" fill="#191919"/>
<path d="M52.3912 133.979C52.3114 134.231 52.3146 134.502 52.4003 134.752L54.806 141.776L59.9404 110.112L52.3912 133.979Z" fill="#191919"/>
<path d="M54.806 141.776L52.4003 134.752C52.3146 134.502 52.3114 134.231 52.3912 133.979L59.9404 110.112M54.806 141.776L74.4724 140.687C75.0026 140.657 75.4565 140.287 75.5967 139.775C79.3381 126.109 80.2811 120.094 79.7389 112.984L75.8938 113.463M54.806 141.776L59.9404 110.112M75.8938 113.463L75.5694 119.499C75.5326 120.185 74.9432 120.709 74.2573 120.666L63.736 120.007C63.0196 119.962 62.4918 119.318 62.5879 118.607L62.6168 118.394M75.8938 113.463C75.4327 113.646 74.9982 116.472 74.7812 118.131C74.6945 118.794 74.1072 119.279 73.4407 119.228L62.6168 118.394M59.9404 110.112L63.4919 110.867L62.6168 118.394" stroke="#191919" stroke-width="0.66303" stroke-linejoin="round"/>
<path d="M119.76 114.389C119.76 145.605 94.4553 170.909 63.24 170.909C32.0248 170.909 6.71984 145.605 6.71984 114.389C6.71984 83.174 32.0248 57.8691 63.24 57.8691C94.4553 57.8691 119.76 83.174 119.76 114.389Z" stroke="#262332" stroke-width="1.9403"/>
<path d="M113.183 114.389C113.183 141.973 90.822 164.334 63.2383 164.334C35.6546 164.334 13.2936 141.973 13.2936 114.389C13.2936 86.8051 35.6546 64.4441 63.2383 64.4441C90.822 64.4441 113.183 86.8051 113.183 114.389Z" stroke="#262332" stroke-width="1.29353"/>
<path d="M60.3565 52.7101C60.3564 84.8784 34.3638 110.956 2.30018 110.956L60.3565 52.7101Z" fill="#A490ED"/>
<path d="M0 113.239C0 78.3132 28.828 50 64.3892 50L0 113.239Z" fill="#191919"/>
<path d="M138.867 124.434C137.661 123.588 137.37 121.925 138.216 120.719C139.062 119.514 140.725 119.223 141.931 120.069C143.136 120.915 143.428 122.578 142.581 123.784C141.735 124.989 140.072 125.28 138.867 124.434ZM261.519 26.2346C261.677 26.0085 261.989 25.9539 262.215 26.1125L265.898 28.6977C266.124 28.8564 266.179 29.1682 266.02 29.3942C265.862 29.6203 265.55 29.6749 265.324 29.5162L262.05 27.2183L259.752 30.4924C259.593 30.7184 259.281 30.773 259.055 30.6144C258.829 30.4557 258.775 30.1439 258.933 29.9179L261.519 26.2346ZM140.581 121.786C208.441 148.259 272.492 89.7258 261.435 26.6081L262.42 26.4355C273.608 90.3011 208.823 149.482 140.217 122.717L140.581 121.786Z" fill="#C4B4FF"/>
</svg>
