<svg width="313" height="428" viewBox="0 0 313 428" fill="none" xmlns="http://www.w3.org/2000/svg">
<path fill-rule="evenodd" clip-rule="evenodd" d="M312.5 84.6401C312.5 87.7582 310.702 90.6305 307.785 91.7313C301.897 93.9528 295.615 95.4248 289.043 96.0219C249.874 99.5809 215.235 70.7127 211.676 31.5431C210.847 22.4199 211.778 13.5426 214.187 5.24656C215.116 2.04991 218.14 0 221.468 0H291.929C303.29 0 312.5 9.21014 312.5 20.5714V84.6401ZM210.733 11.0109C211.8 5.55665 207.917 0 202.36 0H168.438C164.647 0 161.347 2.65781 160.775 6.40585C159.3 16.0731 158.959 26.0726 159.884 36.2489C166.042 104.023 225.976 153.973 293.75 147.815C298.04 147.425 302.258 146.82 306.396 146.011C310.002 145.306 312.5 142.077 312.5 138.403V104.293C312.5 98.4956 306.477 94.5723 300.862 96.0113C297.101 96.9748 293.215 97.6512 289.224 98.0137C248.955 101.673 213.344 71.9937 209.685 31.724C209.04 24.625 209.431 17.6708 210.733 11.0109ZM116.074 6.82686C116.501 2.89217 119.885 0 123.843 0H150.088C155.149 0 158.925 4.64383 158.307 9.6672C157.234 18.3774 157.066 27.3342 157.892 36.4298C164.15 105.304 225.057 156.065 293.931 149.807C296.825 149.544 299.686 149.185 302.512 148.733C307.635 147.913 312.5 151.721 312.5 156.908V183.224C312.5 187.095 309.731 190.431 305.897 190.966C303.206 191.342 300.491 191.655 297.755 191.904C205.631 200.274 124.164 132.378 115.794 40.2545C114.763 28.9116 114.889 17.7302 116.074 6.82686ZM113.823 9.21085C114.275 4.34445 110.544 0 105.657 0H73.0513C68.986 0 65.5508 3.04782 65.2201 7.09963C64.2118 19.4549 64.2468 32.0654 65.4069 44.8332C76.3057 164.785 182.381 253.19 302.333 242.291C303.417 242.193 304.498 242.087 305.577 241.973C309.552 241.553 312.5 238.153 312.5 234.156V201.493C312.5 196.514 307.999 192.755 303.056 193.353C301.358 193.559 299.651 193.74 297.936 193.896C204.712 202.366 122.273 133.659 113.802 40.4355C112.841 29.8577 112.874 19.4187 113.823 9.21085ZM21.0714 0H54.9423C59.7187 0 63.4188 4.15818 63.0735 8.92203C62.216 20.7545 62.3065 32.8132 63.4151 45.0141C74.4138 166.066 181.462 255.282 302.514 244.283C302.808 244.256 303.103 244.229 303.396 244.201C308.223 243.744 312.5 247.467 312.5 252.314V407.429C312.5 418.79 303.29 428 291.929 428H21.0714C9.71016 428 0.5 418.79 0.5 407.429V20.5714C0.5 9.21015 9.71014 0 21.0714 0Z" fill="#B3A2F0"/>
</svg>
