<svg width="313" height="428" viewBox="0 0 313 428" fill="none" xmlns="http://www.w3.org/2000/svg">
<path fill-rule="evenodd" clip-rule="evenodd" d="M0.5 20.5714C0.5 9.21015 9.71014 0 21.0714 0H291.929C303.29 0 312.5 9.21014 312.5 20.5714V168.358C312.5 173.393 307.904 177.169 302.924 176.422C285.833 173.858 268.164 173.282 250.186 174.915C129.134 185.914 39.9182 292.962 50.917 414.014C51.0609 415.598 51.2212 417.176 51.3978 418.748C51.9453 423.624 48.2047 428 43.2983 428H21.0714C9.71016 428 0.5 418.79 0.5 407.429V20.5714ZM250.367 176.907C269.379 175.179 288.042 175.947 306.033 178.939C309.802 179.565 312.5 182.868 312.5 186.689V219.618C312.5 224.849 307.561 228.668 302.426 227.673C287.096 224.703 271.096 223.818 254.764 225.302C161.54 233.772 92.8338 316.212 101.304 409.436C101.577 412.436 101.926 415.411 102.35 418.359C103.069 423.365 99.2904 428 94.2331 428H61.5035C57.5623 428 54.1924 425.131 53.7047 421.22C53.3993 418.772 53.1338 416.309 52.9088 413.833C42.01 293.881 130.415 187.806 250.367 176.907ZM306.498 230.563C310.049 231.352 312.5 234.552 312.5 238.191V264.853C312.5 270.396 306.989 274.27 301.626 272.875C288.018 269.335 273.579 268.045 258.771 269.391C189.897 275.649 139.136 336.555 145.394 405.43C145.773 409.601 146.353 413.706 147.122 417.736C148.116 422.939 144.284 428 138.987 428H112.584C108.786 428 105.491 425.333 104.872 421.586C104.201 417.528 103.674 413.416 103.296 409.255C94.9256 317.131 162.821 235.664 254.945 227.294C272.672 225.683 290.005 226.896 306.498 230.563ZM258.952 271.383C275.755 269.856 292.076 271.778 307.215 276.565C310.414 277.577 312.5 280.6 312.5 283.955V318.904C312.5 325.403 304.982 329.39 299.013 326.819C288.176 322.151 276.054 320.042 263.476 321.184C223.207 324.843 193.528 360.454 197.187 400.724C197.661 405.945 198.672 410.988 200.162 415.804C201.937 421.546 197.987 428 191.977 428H157.651C154.077 428 150.91 425.635 150.101 422.154C148.825 416.664 147.91 411.021 147.386 405.249C141.228 337.475 191.178 277.54 258.952 271.383ZM309.199 334.573C311.316 335.965 312.5 338.374 312.5 340.907V407.429C312.5 418.79 303.29 428 291.929 428H212.217C209.281 428 206.547 426.407 205.325 423.738C202.061 416.602 199.929 408.802 199.178 400.543C195.619 361.373 224.488 326.735 263.657 323.176C280.345 321.66 296.21 326.029 309.199 334.573Z" fill="#B3A2F0"/>
</svg>
