<svg width="80" height="80" viewBox="0 0 80 80" fill="none" xmlns="http://www.w3.org/2000/svg">
<g clip-path="url(#clip0_2313_6185)">
<mask id="mask0_2313_6185" style="mask-type:luminance" maskUnits="userSpaceOnUse" x="0" y="0" width="80" height="80">
<path d="M80 0H0V80H80V0Z" fill="white"/>
</mask>
<g mask="url(#mask0_2313_6185)">
<path d="M53.2894 22.0252C49.9197 19.7909 45.3853 18.6587 39.8088 18.6587H39.185V18.642H33.7285V10.0784H51.2861C53.9158 10.0784 56.062 8.08938 56.062 5.54457C56.062 2.99782 53.89 0.875 51.2861 0.875H28.9523C26.3126 0.875 24.1742 3.01169 24.1742 5.64643V23.1181C24.1742 25.7544 26.3126 27.8895 28.9523 27.8895H40.0044C47.4042 27.8895 49.7634 31.2773 49.7634 34.7734C49.7634 38.2142 47.9021 43.7338 40.1355 43.7338C33.7133 43.7338 29.8773 39.3933 29.0867 38.6864C26.7126 36.5588 24.315 36.7083 22.7252 38.1074C20.6999 39.8933 20.9501 42.4018 22.1741 44.2551C23.6302 46.4621 29.3117 53.308 40.1355 53.308C46.2826 53.308 51.7142 51.1071 55.4249 47.111C58.7211 43.5603 60.4093 38.8389 60.0542 34.1564C59.6558 28.8891 57.3162 24.6952 53.2894 22.0252Z" fill="#616161"/>
<path fill-rule="evenodd" clip-rule="evenodd" d="M39.3096 69.4783C39.5398 69.4783 39.7697 69.4759 39.9992 69.4712C40.2287 69.4759 40.4586 69.4783 40.6888 69.4783C53.217 69.4783 64.5275 62.3948 70.071 51.4615C71.2447 49.1479 73.9694 48.0751 76.426 48.9193C79.4458 49.9619 80.8119 53.4245 79.3626 56.2682C72.0399 70.6276 57.1657 79.9271 40.6888 79.9271C40.4587 79.9271 40.2287 79.9253 39.9992 79.9216C39.7697 79.9253 39.5397 79.9271 39.3096 79.9271C22.8327 79.9271 7.95849 70.6276 0.635856 56.2682C-0.813497 53.4245 0.552556 49.9619 3.57234 48.9193C6.02904 48.0751 8.75371 49.1479 9.92729 51.4615C15.4709 62.3948 26.7814 69.4783 39.3096 69.4783Z" fill="#616161"/>
</g>
</g>
<defs>
<clipPath id="clip0_2313_6185">
<rect width="80" height="80" fill="white"/>
</clipPath>
</defs>
</svg>
