<svg width="80" height="80" viewBox="0 0 80 80" fill="none" xmlns="http://www.w3.org/2000/svg">
<g clip-path="url(#clip0_2313_6164)">
<mask id="mask0_2313_6164" style="mask-type:luminance" maskUnits="userSpaceOnUse" x="0" y="0" width="80" height="80">
<path d="M80 0H0V80H80V0Z" fill="white"/>
</mask>
<g mask="url(#mask0_2313_6164)">
<path fill-rule="evenodd" clip-rule="evenodd" d="M77.1052 10.9137C77.459 11.5732 77.7776 12.251 78.0597 12.9442C77.1176 13.6609 75.9521 14.0206 74.7699 13.9594C74.0914 13.9938 73.413 13.8882 72.7771 13.6489C72.1413 13.4096 71.5615 13.0418 71.0741 12.5686C70.14 11.4968 69.6276 10.1221 69.6323 8.70048V8.06088V7.1269V3.15736C72.8065 4.9845 75.3976 7.6739 77.1052 10.9137ZM13.4431 11.868C12.3391 11.868 11.2802 12.3066 10.4995 13.0872C9.7188 13.8678 9.28024 14.9265 9.28024 16.0305C9.28024 17.1344 9.7188 18.1931 10.4995 18.9738C11.2802 19.7543 12.3391 20.1929 13.4431 20.1929C14.5472 20.1929 15.6061 19.7543 16.3868 18.9738C17.1674 18.1931 17.6061 17.1344 17.6061 16.0305C17.6061 14.9265 17.1674 13.8678 16.3868 13.0872C15.6061 12.3066 14.5472 11.868 13.4431 11.868ZM5.11734 34.0305C5.78871 33.9978 6.45962 34.1036 7.08842 34.3411C7.71722 34.5786 8.29048 34.9428 8.77256 35.4112C9.80208 36.5979 10.3332 38.1366 10.255 39.7056L10.3159 41.8274V42.8426V43.6548V45.0254L10.255 46.8934C10.3284 48.4411 9.8092 49.9586 8.80304 51.137C8.32288 51.6087 7.75017 51.9758 7.12106 52.2152C6.49197 52.4546 5.8201 52.561 5.1478 52.5279C4.46912 52.5636 3.79038 52.4585 3.15433 52.2191C2.51827 51.9798 1.93865 51.6114 1.45194 51.137C0.519923 50.0649 0.0109182 48.6896 0.0203074 47.269V46.6294V45.6954V40.8223V39.9188V39.7056C-0.0475707 38.1556 0.470809 36.6369 1.47225 35.4518C1.95509 34.9761 2.53042 34.6045 3.16262 34.36C3.79484 34.1155 4.4705 34.0034 5.1478 34.0305H5.11734ZM74.7395 34.0305C75.4162 33.9911 76.0935 34.0936 76.7282 34.3314C77.363 34.5691 77.941 34.937 78.4252 35.4112C79.44 36.6041 79.9564 38.142 79.867 39.7056L79.938 41.8274V42.8426V43.6548V45.0254L79.8771 46.8934C79.9454 48.4342 79.4265 49.9435 78.4252 51.1167C77.9477 51.5891 77.3769 51.9568 76.7493 52.1963C76.1216 52.4358 75.451 52.5418 74.7801 52.5076C74.1013 52.5446 73.4222 52.44 72.786 52.2006C72.1498 51.9611 71.5702 51.5921 71.0842 51.1167C70.1486 50.046 69.6358 48.6706 69.6425 47.2487V46.6091V45.6751V40.8223V39.9188V39.7056C69.5664 38.1544 70.0858 36.6328 71.0944 35.4518C71.5766 34.9751 72.1518 34.6029 72.7841 34.3583C73.4165 34.1138 74.0925 34.0022 74.7699 34.0305H74.7395ZM39.8421 27.4314C35.6995 27.4314 32.4199 28.4636 30.0034 30.5279C27.5869 32.5922 26.2974 35.533 26.135 39.3502V39.8173V41.3401V46.203V46.9746V47.1878C26.2771 51.0863 27.5463 54.0474 29.9425 56.071C32.3387 58.0947 35.6318 59.11 39.8218 59.1167C42.2218 59.1552 44.6058 58.7205 46.8378 57.8376C48.7831 57.0834 50.4809 55.8041 51.7419 54.1422C52.9607 52.4848 53.622 50.4835 53.6305 48.4264C53.6346 48.3022 53.6114 48.1787 53.5622 48.0646C53.513 47.9506 53.4393 47.8487 53.3462 47.7665C53.2357 47.6644 53.1039 47.5881 52.9603 47.5431H52.8182H46.2185C45.9599 47.5451 45.7082 47.6266 45.4976 47.7766C45.2922 47.9612 45.1442 48.2008 45.0711 48.467L45.0102 48.6802C44.7636 49.8662 44.101 50.9248 43.142 51.665C42.1502 52.2886 40.9924 52.5966 39.8218 52.5482C36.6032 52.5482 34.8974 50.8122 34.6842 47.3502V46.731V45.7766V44.1624V41.9797V40.3147V39.5736C34.7925 35.8782 36.5084 34.0305 39.8319 34.0305C40.9991 33.9761 42.1557 34.2732 43.1522 34.8833C44.1106 35.6499 44.7714 36.7271 45.0203 37.929C45.1045 38.2706 45.2799 38.583 45.528 38.8325C45.6801 38.9525 45.8633 39.0264 46.056 39.0457H46.2286H52.8283C53.0266 39.0185 53.2113 38.9298 53.3563 38.7918C53.4494 38.7096 53.5232 38.6078 53.5723 38.4938C53.6215 38.3797 53.6448 38.2562 53.6406 38.132C53.6336 36.0746 52.9722 34.0729 51.7521 32.4162C50.491 30.7543 48.7933 29.475 46.848 28.7208C44.6198 27.8358 42.2394 27.3976 39.8421 27.4314ZM55.9556 72.4366V79.9492H54.6864H53.336H51.0109C50.1327 79.9473 49.2878 79.6137 48.6451 79.0152C48.319 78.6473 48.0693 78.2182 47.9107 77.7527C47.7521 77.2874 47.6876 76.7951 47.7212 76.3046C47.6704 75.2721 48.0154 74.259 48.6858 73.4721C49.2359 72.8787 49.9906 72.5159 50.7977 72.4569H51.0922H55.9049L55.9556 72.4366ZM46.5434 0V19.2082C46.5838 19.4355 46.6938 19.6448 46.8582 19.8071C46.9884 19.9384 47.1487 20.036 47.3252 20.0914H47.4572H47.6298H53.661H53.8437C54.0797 20.0634 54.3004 19.9602 54.4732 19.797C54.6158 19.6659 54.718 19.4968 54.7677 19.3097V19.1675V0.0304575H55.387H56.575L57.6918 0.0812184L58.7072 0.142134C59.5499 0.203047 60.3216 0.284265 61.0425 0.375635V0.467006V1.18782V2.37563V8.06088V8.5584C61.1846 12.4907 62.4606 15.4687 64.8703 17.4924C67.2801 19.5161 70.5664 20.5313 74.7294 20.5381C76.3814 20.5536 78.0288 20.3626 79.6334 19.9695C79.6334 20.4264 79.7146 20.9035 79.7451 21.401L79.8061 22.4162V23.5229C79.8061 23.7158 79.8061 23.9086 79.8061 24.1015V25.3198C79.8061 25.7361 79.8061 26.1726 79.8061 26.6091V28.0609C78.1185 27.5839 76.3712 27.3514 74.6177 27.3706C70.5021 27.3706 67.2226 28.4196 64.779 30.5178C63.5846 31.5833 62.6269 32.8873 61.9676 34.3456C61.3083 35.804 60.962 37.3843 60.9511 38.9848V39.7056V40.8934V46.5786V47.0762C61.0933 51.0085 62.3692 53.9865 64.779 56.0102C67.1887 58.0338 70.475 59.049 74.6379 59.0558C76.332 59.0729 78.0213 58.8716 79.6639 58.4569C79.5919 61.7128 78.8741 64.9221 77.552 67.8985L77.2778 68.467L76.9732 69.0355C75.6529 71.494 73.837 73.6521 71.6402 75.3733C69.4434 77.0945 66.9135 78.3414 64.2104 79.0355V67.0457C64.1893 66.8078 64.085 66.5849 63.9159 66.4162C63.7823 66.281 63.6134 66.1861 63.4286 66.1422L63.195 66.1015H50.6454C48.6006 66.1143 46.5811 66.5534 44.7158 67.3909C43.0042 68.1635 41.5618 69.429 40.5731 71.0254C39.6254 72.6359 39.1405 74.4767 39.172 76.3452C39.1568 77.5849 39.3561 78.8179 39.7609 79.9898H26.0639H24.8962H23.7997H23.2717L22.2563 79.9391L21.3121 79.8782L20.4084 79.8173L19.5657 79.7259C18.6113 79.6243 17.7482 79.5026 16.9664 79.3604L16.3064 79.2284L15.687 79.0863C15.484 79.0863 15.281 78.9848 15.0982 78.9238L14.5296 78.7614L13.7274 78.4974L13.2198 78.3046V77.868C13.3281 74.1726 15.044 72.3249 18.3676 72.3249C19.5366 72.2658 20.6955 72.567 21.6878 73.1878L22.1243 73.4822C22.9175 74.015 23.5917 74.7063 24.1042 75.5127L24.2769 75.8274C24.7744 76.7614 25.2922 76.8426 25.6273 76.8426H26.0233C26.1104 76.8291 26.1956 76.8053 26.2771 76.7716L26.4802 76.6802L26.866 76.4771L27.3737 76.203L27.993 75.8477L29.0084 75.2487L29.8918 74.7005C30.2565 74.479 30.5475 74.1544 30.7282 73.7678C30.9089 73.3812 30.9711 72.9498 30.907 72.5279C30.7954 71.4416 28.3382 69.0863 26.0538 67.7563L25.5258 67.4518L25.0181 67.1675C23.1457 66.1656 21.0494 65.6556 18.926 65.6853H18.459H17.4436C14.2046 65.6845 11.0678 66.8198 8.57968 68.8934C7.24298 70.0318 6.21901 71.4924 5.6047 73.137C4.52462 71.9471 3.5969 70.6273 2.84297 69.2081L2.54851 68.6396L2.27438 67.9492C0.946288 64.9748 0.228159 61.7643 0.162455 58.5076C1.80508 58.9223 3.49431 59.1237 5.18841 59.1066C9.36144 59.1066 12.6309 58.0914 15.0271 56.0609C17.4233 54.0305 18.6823 51.0558 18.8346 47.1269V45.3401V44.2437V42.5686V40.8223V39.533C18.7128 35.6548 17.4267 32.6701 14.9763 30.5786C12.526 28.4873 9.26336 27.4382 5.18841 27.4314C3.43526 27.4082 1.68789 27.6373 0 28.1117V26.1726V25.0558V24.0406V23.0254L0.0507703 22.0812L0.111689 21.1777V20.7513L0.182762 19.929L0.263992 19.1574L0.365525 18.4162C0.365525 18.3046 0.365524 18.1827 0.416291 18.071L0.527979 17.3909C0.527979 17.1675 0.599056 16.9543 0.649823 16.7411L0.771664 16.132L0.913808 15.5533L1.06611 14.995L1.14734 14.731L1.30979 14.2132C1.30979 14.1218 1.37072 14.0406 1.39102 13.9594L1.57378 13.4619L1.7667 12.9848L1.85808 12.7513L2.0713 12.2944L2.28453 11.8376L2.5079 11.3909L2.73128 10.9442C4.55482 7.51024 7.36666 4.70226 10.8033 2.88325L11.4632 2.53807L11.9202 2.32487L12.3669 2.11167L12.6004 2.01015L13.0776 1.81726L13.3112 1.72589L13.8087 1.54314L14.3163 1.37056L14.8443 1.21827L15.4028 1.06599L15.9917 0.923856L16.6009 0.791879L17.2406 0.67005L17.9208 0.56853L18.2661 0.517766L19.0073 0.416243L19.789 0.335026L20.6115 0.263959L21.4746 0.192894L22.3985 0.142134H23.4138H24.4292H25.5156H30.5923C30.641 3.06586 30.3514 5.98542 29.7293 8.84264L29.6278 9.23856C28.9881 11.5533 27.8814 12.8426 26.3278 13.1066C26.0956 13.1347 25.8763 13.2292 25.6962 13.3786C25.5162 13.528 25.383 13.7262 25.3126 13.9493V14.1015V19.2792C25.3489 19.527 25.4668 19.7556 25.6476 19.929C25.7511 20.0383 25.8753 20.1261 26.013 20.187C26.1507 20.2481 26.2991 20.2811 26.4497 20.2842C29.7902 20.2234 32.3286 19.533 34.075 18.2538C35.9604 16.7162 37.235 14.5562 37.6693 12.1624C38.3309 8.81944 38.6506 5.41785 38.6237 2.01015V0H46.5434Z" fill="#616161"/>
</g>
</g>
<defs>
<clipPath id="clip0_2313_6164">
<rect width="80" height="80" fill="white"/>
</clipPath>
</defs>
</svg>
