<svg width="80" height="62" viewBox="0 0 80 62" fill="none" xmlns="http://www.w3.org/2000/svg">
<g clip-path="url(#clip0_2313_6170)">
<mask id="mask0_2313_6170" style="mask-type:luminance" maskUnits="userSpaceOnUse" x="0" y="0" width="80" height="62">
<path d="M80 0H0V62H80V0Z" fill="white"/>
</mask>
<g mask="url(#mask0_2313_6170)">
<path d="M64.8626 25.1355C64.1693 27.251 63.1281 29.3527 61.3705 30.7247C59.3975 32.262 56.7774 32.6796 54.2813 32.7989C53.0745 32.8586 51.8448 32.8678 50.6748 32.5465C48.252 31.8949 46.3479 29.8988 45.3475 27.5997C44.3381 25.3007 44.1408 22.7263 44.2554 20.2208C44.3977 17.137 45.0447 13.9524 46.9168 11.5019C48.7889 9.04685 52.634 8.14742 55.7083 8.33559C59.9114 8.59717 62.9488 11.222 64.6698 14.5627C66.3262 17.7795 65.9913 21.6984 64.8626 25.1355ZM78.6096 16.1367C77.2881 15.6595 74.3975 15.0767 71.9609 14.6912C71.52 13.7918 70.8868 12.7593 69.9188 11.4469C68.5147 9.54248 65.1833 6.40826 61.8753 4.40751C53.9418 -0.392466 44.6042 -1.22306 35.7989 1.67712C28.26 4.1597 22.8961 7.90426 19.6704 14.3287C17.9084 17.8483 16.5961 23.6074 16.5961 23.6074C11.6038 22.5749 7.2493 20.4227 1.42195 17.1692C-1.21184 24.438 -0.156488 34.9144 4.33564 40.6367C9.72713 47.5017 16.7429 50.7414 23.098 51.8015C18.7251 52.6091 13.9531 53.7151 13.9531 53.7151C13.9531 53.7151 18.1332 57.6477 27.8563 60.1487C36.0651 62.2505 42.7183 62.1631 46.5772 61.7961C50.9317 61.484 55.277 60.0614 59.526 57.2347C69.8915 50.3651 75.7234 36.6444 74.3975 24.1626C76.5954 22.0058 78.6921 19.8537 79.6372 18.2935C79.853 17.9401 80.0316 17.5639 79.995 17.2426C79.9448 16.6828 79.275 16.3753 78.6096 16.1367Z" fill="#616161"/>
<path d="M58.2734 23.6718C56.539 23.6718 55.1303 21.304 55.1303 18.3808C55.1303 15.4623 56.539 13.0944 58.2734 13.0944C60.0079 13.0944 61.4166 15.4623 61.4166 18.3808C61.4211 21.304 60.0079 23.6718 58.2734 23.6718ZM64.6699 14.5629C62.949 11.2221 59.9115 8.59272 55.7085 8.33573C52.6342 8.14304 48.789 9.04247 46.9169 11.5021C45.0448 13.9526 44.3978 17.1373 44.2556 20.2209C44.1409 22.7265 44.3382 25.3009 45.3477 27.5999C46.348 29.8989 48.2522 31.8951 50.6749 32.5467C51.845 32.8679 53.0747 32.8587 54.2814 32.7991C56.7776 32.6752 59.3976 32.2622 61.3707 30.7203C63.1232 29.3529 64.1694 27.2511 64.8628 25.1356C65.9914 21.6986 66.3263 17.7751 64.6699 14.5629Z" fill="#BBBBBB"/>
<path d="M61.4171 18.385C61.4171 21.3035 60.0084 23.676 58.274 23.676C56.5395 23.676 55.1309 21.3081 55.1309 18.385C55.1309 15.4665 56.5395 13.0986 58.274 13.0986C60.0084 13.0941 61.4171 15.4619 61.4171 18.385Z" fill="#616161"/>
</g>
</g>
<defs>
<clipPath id="clip0_2313_6170">
<rect width="80" height="62" fill="white"/>
</clipPath>
</defs>
</svg>
