<svg width="80" height="80" viewBox="0 0 80 80" fill="none" xmlns="http://www.w3.org/2000/svg">
<g clip-path="url(#clip0_2313_6179)">
<mask id="mask0_2313_6179" style="mask-type:luminance" maskUnits="userSpaceOnUse" x="0" y="0" width="80" height="80">
<path d="M80 0H0V80H80V0Z" fill="white"/>
</mask>
<g mask="url(#mask0_2313_6179)">
<path d="M40 0C17.9426 0 0 17.9426 0 40C0 62.0574 17.9426 80 40 80C62.0574 80 80 62.0574 80 40C80 17.9426 62.0574 0 40 0ZM55.3345 10.3654C56.661 10.3654 57.7628 10.3204 58.7296 10.2305C57.3581 14.4576 54.9972 17.1107 51.3322 18.5498C47.5098 20.0338 42.8555 20.0787 38.3811 20.1237C35.9753 20.1462 33.6594 20.1686 31.5234 20.416C35.3457 11.1973 42.181 10.2979 49.4885 10.2979C50.5002 10.2979 51.5121 10.3204 52.5014 10.3429C53.4682 10.3429 54.4126 10.3654 55.3345 10.3654ZM40 75.0984C20.6183 75.0984 4.90163 59.3817 4.90163 40C4.90163 20.6183 20.6183 4.90163 40 4.90163C43.6425 4.90163 47.1501 5.46374 50.4328 6.47554C50.1181 6.47554 49.8033 6.47554 49.466 6.47554C41.3715 6.47554 32.2653 7.68971 27.656 19.8089C27.4086 20.4834 27.3412 20.7307 27.1163 21.4727C26.959 21.9449 25.6998 26.9365 25.2726 28.8477L22.597 39.5953L22.7094 39.6402L29.9044 42.6982C35.8178 31.9056 48.769 36.8297 47.5098 46.0708C46.2732 55.1546 35.2782 59.5166 29.8594 50.7701C29.6122 50.3654 29.3648 49.9157 29.2299 49.4435L21.113 51.5346C21.3828 52.4339 22.0798 54.0754 22.4846 54.9073C26.3069 62.7318 34.8061 65.6099 42.4958 63.6987C49.5559 61.9449 56.2114 55.8291 57.2906 46.4755C58.887 32.5801 43.9573 23.4738 32.6701 32.67L34.896 24.0135C44.0472 23.6987 57.0208 25.3401 61.8999 12.6363C69.9269 19.0669 75.0758 28.9376 75.0758 40.045C75.0984 59.4042 59.3817 75.0984 40 75.0984Z" fill="#616161"/>
</g>
</g>
<defs>
<clipPath id="clip0_2313_6179">
<rect width="80" height="80" fill="white"/>
</clipPath>
</defs>
</svg>
