<svg width="80" height="80" viewBox="0 0 80 80" fill="none" xmlns="http://www.w3.org/2000/svg">
<g clip-path="url(#clip0_2311_6149)">
<mask id="mask0_2311_6149" style="mask-type:luminance" maskUnits="userSpaceOnUse" x="0" y="0" width="80" height="80">
<path d="M80 0H0V80H80V0Z" fill="white"/>
</mask>
<g mask="url(#mask0_2311_6149)">
<path d="M50.4741 25.2846L39.9997 35.7592L29.5285 25.2846C23.7431 19.5026 23.7431 10.1246 29.5285 4.3391C35.3105 -1.44637 44.6887 -1.44637 50.4741 4.3391C56.2561 10.1246 56.2561 19.5026 50.4741 25.2846Z" fill="#616161"/>
<path d="M29.5285 54.7152L40.0031 44.2407L50.4741 54.7152C56.2596 60.4972 56.2596 69.8788 50.4741 75.6608C44.6921 81.4465 35.3141 81.4465 29.5285 75.6608C23.7431 69.8788 23.7431 60.5006 29.5285 54.7152Z" fill="#616161"/>
<path d="M54.7147 50.4746L44.2402 40.0001L54.7147 29.5291C60.5002 23.7436 69.8783 23.7436 75.6603 29.5291C81.4458 35.3145 81.4458 44.6926 75.6603 50.4746C69.8783 56.2601 60.5002 56.2601 54.7147 50.4746Z" fill="#616161"/>
<path d="M25.2846 29.5291L35.7592 40.0036L25.2846 50.4746C19.5026 56.2601 10.1246 56.2601 4.3391 50.4746C-1.44637 44.6926 -1.44637 35.3145 4.3391 29.5291C10.1246 23.7436 19.5026 23.7436 25.2846 29.5291Z" fill="#616161"/>
</g>
</g>
<defs>
<clipPath id="clip0_2311_6149">
<rect width="80" height="80" fill="white"/>
</clipPath>
</defs>
</svg>
