<svg width="155" height="141" viewBox="0 0 155 141" fill="none" xmlns="http://www.w3.org/2000/svg">
<g clip-path="url(#clip0_2832_8825)">
<g filter="url(#filter0_f_2832_8825)">
<path d="M64.1197 75.324C75.1392 81.7149 84.4134 73.7629 87.6731 68.9881C89.2102 66.1116 89.064 59.3019 88.0235 53.7528C86.9831 48.2037 83.2066 46.2615 79.931 46.2615C77.3106 46.2615 72.9561 49.9198 71.1064 51.7489C70.0146 53.5601 67.2837 56.3039 65.0948 52.7894C62.906 49.275 60.2451 45.8564 57.0945 46.2615C54.8448 53.2861 53.1003 68.9331 64.1197 75.324Z" fill="#95FF42"/>
</g>
<path d="M64.1197 75.324C75.1392 81.7149 84.4134 73.7629 87.6731 68.9881C89.2102 66.1116 89.064 59.3019 88.0235 53.7528C86.9831 48.2037 83.2066 46.2615 79.931 46.2615C77.3106 46.2615 72.9561 49.9198 71.1064 51.7489C70.0146 53.5601 67.2837 56.3039 65.0948 52.7894C62.906 49.275 60.2451 45.8564 57.0945 46.2615C54.8448 53.2861 53.1003 68.9331 64.1197 75.324Z" fill="#A3FF5C"/>
<path fill-rule="evenodd" clip-rule="evenodd" d="M96.4396 22.7611C94.9652 19.0536 93.429 16.0429 92.5721 14.8046C92.5121 14.7179 92.437 14.6434 92.3506 14.5829C91.9012 14.2686 91.5764 14.102 91.2539 14.0446C90.9031 13.9822 90.4829 14.0381 89.8152 14.3357C89.1406 14.6364 88.2678 15.1586 87.0288 15.9667C86.1982 16.5084 85.2172 17.1691 84.0358 17.9648L84.0357 17.9649L84.0356 17.9649C83.4601 18.3525 82.837 18.7722 82.1605 19.2257C82.0964 19.2687 82.0231 19.2963 81.9465 19.3063C76.4935 20.0148 72.6019 20.8393 69.4382 22.2076C66.29 23.5692 63.837 25.4807 61.2859 28.4081C50.8139 40.4253 48.2087 52.8783 47.9256 57.9752C47.9154 58.1589 47.8051 58.3221 47.6385 58.4002C46.8507 58.7695 45.9746 59.1833 45.0366 59.6263L45.0363 59.6265C42.1379 60.9954 38.6488 62.6433 35.346 64.1206C33.1596 65.0986 31.0487 66.0046 29.239 66.7075C27.4412 67.4058 25.9037 67.9186 24.8801 68.09C24.4309 68.1652 24.1216 68.2497 23.8924 68.4489C22.1298 69.9816 20.6508 72.8368 19.4593 76.7892C18.2731 80.7239 17.3931 85.672 16.7782 91.309C15.5487 102.581 15.386 116.546 15.924 130.532C16.4618 144.516 17.6996 158.507 19.2663 169.826C20.0497 175.486 20.9145 180.472 21.8137 184.453C22.6387 188.104 23.4838 190.868 24.3028 192.531C24.4248 192.779 24.3392 193.083 24.0983 193.218C23.8573 193.352 23.5524 193.268 23.4294 193.02C22.5414 191.236 21.6694 188.352 20.8383 184.673C19.9308 180.656 19.0615 175.64 18.2757 169.963C16.7041 158.608 15.4637 144.585 14.9247 130.571C14.3857 116.559 14.5472 102.54 15.7841 91.2005C16.4025 85.5317 17.2911 80.5167 18.5018 76.5005C19.7072 72.5021 21.2532 69.4186 23.2363 67.6943C23.6969 67.2938 24.2626 67.1795 24.7149 67.1037C25.6264 66.9511 27.078 66.4741 28.877 65.7753C30.6641 65.0811 32.7578 64.1828 34.9377 63.2077C38.2302 61.7351 41.7051 60.0939 44.6022 58.7256C45.2364 58.426 45.8429 58.1396 46.4138 57.8708C46.7421 57.7162 46.9597 57.3978 46.993 57.0364C47.5202 51.3174 50.4464 39.3249 60.532 27.7512C63.1605 24.7349 65.7299 22.7219 69.0413 21.2897C72.2666 19.8948 76.1711 19.0622 81.4675 18.3605C81.6205 18.3403 81.7678 18.2851 81.8959 18.1991C82.4553 17.8236 82.9786 17.4711 83.4686 17.1411C84.6546 16.3424 85.6457 15.6749 86.4825 15.1291C87.7209 14.3214 88.6531 13.7589 89.408 13.4224C90.1698 13.0828 90.8038 12.9488 91.429 13.0601C92.0385 13.1685 92.567 13.4994 93.1319 13.9126C93.1718 13.9418 93.2071 13.9767 93.2368 14.0162C94.1444 15.2264 95.8088 18.4687 97.3688 22.3916C98.9338 26.327 100.422 31.0168 100.948 35.1425C101.593 40.188 103.044 46.2134 104.767 51.5173C106.498 56.8435 108.476 61.3605 110.144 63.4453C110.762 64.2176 112.12 65.3546 113.987 66.7183C115.839 68.0704 118.146 69.6132 120.618 71.1948C125.562 74.3576 131.149 77.6631 135.04 79.8887C135.66 80.2437 136.328 80.6719 136.812 81.3298C137.888 82.7924 138.679 85.0986 139.241 88.0169C139.805 90.9495 140.148 94.5576 140.292 98.6714C140.58 106.9 140.073 117.198 138.923 128.253C136.643 150.166 131.826 175.118 125.613 192.916C125.522 193.176 125.238 193.309 124.978 193.218C124.717 193.126 124.579 192.844 124.67 192.583C130.849 174.882 135.653 150.015 137.928 128.149C139.076 117.122 139.578 106.874 139.292 98.7064C139.149 94.6221 138.81 91.0697 138.259 88.2058C137.705 85.3277 136.948 83.2014 136.007 81.9224C135.655 81.4443 135.147 81.1019 134.543 80.7567C130.644 78.5259 125.042 75.2116 120.079 72.0372C117.599 70.4503 115.273 68.8951 113.398 67.5259C111.538 66.1682 110.075 64.9603 109.363 64.07C107.57 61.8288 105.547 57.1529 103.816 51.8263C102.079 46.4772 100.61 40.3898 99.9565 35.2691C99.445 31.262 97.9903 26.6605 96.4396 22.7611Z" fill="#272727"/>
<path d="M96.4396 22.7611L96.9042 22.5764V22.5764L96.4396 22.7611ZM91.2539 14.0446L91.1663 14.5369V14.5369L91.2539 14.0446ZM89.8152 14.3357L90.0187 14.7924L89.8152 14.3357ZM87.0288 15.9667L86.7557 15.5479V15.5479L87.0288 15.9667ZM84.0358 17.9648L83.7542 17.5516L83.7565 17.5501L84.0358 17.9648ZM84.0357 17.9649L84.3174 18.378L84.3115 18.382L84.3054 18.3859L84.0357 17.9649ZM84.0356 17.9649L83.7562 17.5501L83.7659 17.5439L84.0356 17.9649ZM69.4382 22.2076L69.6367 22.6665L69.4382 22.2076ZM61.2859 28.4081L60.909 28.0797L61.2859 28.4081ZM45.0366 59.6263L45.2502 60.0784L45.2472 60.0798L45.0366 59.6263ZM45.0363 59.6265L44.8228 59.1744L44.8257 59.173L45.0363 59.6265ZM35.346 64.1206L35.1419 63.6642V63.6642L35.346 64.1206ZM29.239 66.7075L29.4201 67.1735L29.239 66.7075ZM24.8801 68.09L24.9627 68.5831H24.9626L24.8801 68.09ZM23.8924 68.4489L23.5644 68.0716L23.5644 68.0716L23.8924 68.4489ZM19.4593 76.7892L19.938 76.9335L19.4593 76.7892ZM16.7782 91.309L16.2812 91.2548L16.7782 91.309ZM15.924 130.532L16.4236 130.513L15.924 130.532ZM19.2663 169.826L18.771 169.894L19.2663 169.826ZM21.8137 184.453L21.326 184.563L21.8137 184.453ZM20.8383 184.673L20.3506 184.783L20.8383 184.673ZM18.2757 169.963L18.771 169.894L18.2757 169.963ZM14.9247 130.571L14.4251 130.59L14.9247 130.571ZM15.7841 91.2005L15.2871 91.1463L15.7841 91.2005ZM18.5018 76.5005L18.0231 76.3562L18.5018 76.5005ZM23.2363 67.6943L22.9082 67.317L23.2363 67.6943ZM24.7149 67.1037L24.6324 66.6106L24.7149 67.1037ZM28.877 65.7753L28.6959 65.3092L28.877 65.7753ZM34.9377 63.2077L34.7336 62.7513L34.9377 63.2077ZM44.6022 58.7256L44.3886 58.2735L44.6022 58.7256ZM60.532 27.7512L60.909 28.0797L60.532 27.7512ZM69.0413 21.2897L68.8428 20.8308L69.0413 21.2897ZM83.4686 17.1411L83.748 17.5558V17.5558L83.4686 17.1411ZM86.4825 15.1291L86.2094 14.7103V14.7103L86.4825 15.1291ZM89.408 13.4224L89.2045 12.9657V12.9657L89.408 13.4224ZM91.429 13.0601L91.5166 12.5678V12.5678L91.429 13.0601ZM97.3688 22.3916L97.8334 22.2068L97.3688 22.3916ZM100.948 35.1425L101.444 35.0792L100.948 35.1425ZM104.767 51.5173L104.292 51.6718L104.767 51.5173ZM110.144 63.4453L109.753 63.7576H109.753L110.144 63.4453ZM113.987 66.7183L113.692 67.1221V67.1221L113.987 66.7183ZM120.618 71.1948L120.888 70.7736L120.618 71.1948ZM135.04 79.8887L135.288 79.4547H135.288L135.04 79.8887ZM136.812 81.3298L137.215 81.0334H137.215L136.812 81.3298ZM139.241 88.0169L139.732 87.9224H139.732L139.241 88.0169ZM140.292 98.6714L140.792 98.6539L140.292 98.6714ZM138.923 128.253L138.426 128.201L138.923 128.253ZM137.928 128.149L137.431 128.098L137.928 128.149ZM139.292 98.7064L138.793 98.7239L139.292 98.7064ZM138.259 88.2058L137.768 88.3003L138.259 88.2058ZM136.007 81.9224L136.409 81.6261H136.409L136.007 81.9224ZM134.543 80.7567L134.295 81.1907H134.295L134.543 80.7567ZM120.079 72.0372L119.81 72.4584H119.81L120.079 72.0372ZM113.398 67.5259L113.103 67.9297V67.9297L113.398 67.5259ZM109.363 64.07L108.973 64.3823H108.973L109.363 64.07ZM103.816 51.8263L104.292 51.6718L103.816 51.8263ZM99.9565 35.2691L100.453 35.2058L99.9565 35.2691ZM125.613 192.916L126.085 193.081L125.613 192.916ZM46.4138 57.8708L46.2008 57.4184L46.4138 57.8708ZM46.993 57.0364L46.4951 56.9905L46.993 57.0364ZM23.4294 193.02L22.9817 193.243L23.4294 193.02ZM24.3028 192.531L24.7513 192.31L24.3028 192.531ZM81.4675 18.3605L81.4019 17.8649L81.4675 18.3605ZM81.8959 18.1991L82.1746 18.6142L81.8959 18.1991ZM92.5721 14.8046L92.9833 14.5201L92.5721 14.8046ZM92.3506 14.5829L92.0641 14.9927L92.3506 14.5829ZM92.9833 14.5201C93.8728 15.8055 95.4255 18.8581 96.9042 22.5764L95.975 22.9459C94.5048 19.2491 92.9853 16.2803 92.161 15.0891L92.9833 14.5201ZM91.3415 13.5523C91.7738 13.6293 92.1715 13.8475 92.6372 14.1732L92.0641 14.9927C91.6308 14.6897 91.379 14.5747 91.1663 14.5369L91.3415 13.5523ZM89.6116 13.8791C90.3265 13.5604 90.8535 13.4655 91.3415 13.5523L91.1663 14.5369C90.9527 14.4989 90.6393 14.5158 90.0187 14.7924L89.6116 13.8791ZM86.7557 15.5479C87.9943 14.74 88.8968 14.1977 89.6116 13.8791L90.0187 14.7924C89.3844 15.0752 88.5413 15.5772 87.302 16.3855L86.7557 15.5479ZM83.7565 17.5501C84.9369 16.7551 85.9213 16.0921 86.7557 15.5479L87.302 16.3855C86.4752 16.9247 85.4976 17.5831 84.3151 18.3795L83.7565 17.5501ZM83.754 17.5517L83.7542 17.5517L84.3175 18.3779L84.3174 18.378L83.754 17.5517ZM83.7659 17.5439L83.766 17.5438L84.3054 18.3859L84.3053 18.3859L83.7659 17.5439ZM81.8821 18.8104C82.558 18.3572 83.1807 17.9379 83.7563 17.5502L84.3149 18.3796C83.7394 18.7672 83.1159 19.1872 82.439 19.641L81.8821 18.8104ZM69.2398 21.7486C72.4696 20.3518 76.418 19.5204 81.8821 18.8104L82.011 19.8021C76.569 20.5092 72.7341 21.3269 69.6367 22.6665L69.2398 21.7486ZM60.909 28.0797C63.4987 25.1078 66.0099 23.1455 69.2398 21.7486L69.6367 22.6665C66.57 23.9928 64.1752 25.8536 61.6629 28.7366L60.909 28.0797ZM47.4263 57.9475C47.7147 52.7562 50.3535 40.1925 60.909 28.0797L61.6629 28.7366C51.2742 40.6581 48.7027 53.0003 48.4248 58.003L47.4263 57.9475ZM44.8231 59.1742C45.7609 58.7313 46.6377 58.3172 47.4263 57.9475L47.8508 58.8529C47.0637 59.2219 46.1883 59.6353 45.2502 60.0784L44.8231 59.1742ZM44.8257 59.173L44.8261 59.1728L45.2472 60.0798L45.2468 60.08L44.8257 59.173ZM35.1419 63.6642C38.4391 62.1894 41.9236 60.5437 44.8228 59.1744L45.2498 60.0786C42.3523 61.4471 38.8584 63.0973 35.5502 64.577L35.1419 63.6642ZM29.058 66.2414C30.8564 65.5428 32.9587 64.6407 35.1419 63.6642L35.5502 64.577C33.3605 65.5564 31.2409 66.4663 29.4201 67.1735L29.058 66.2414ZM24.7975 67.5969C25.7651 67.4348 27.2596 66.9399 29.058 66.2414L29.4201 67.1735C27.6227 67.8717 26.0423 68.4023 24.9627 68.5831L24.7975 67.5969ZM23.5644 68.0716C23.9098 67.7713 24.3483 67.6721 24.7975 67.5969L24.9626 68.5831C24.5135 68.6584 24.3335 68.728 24.2205 68.8263L23.5644 68.0716ZM18.9806 76.6449C20.179 72.6695 21.6915 69.7001 23.5644 68.0716L24.2205 68.8263C22.5681 70.2631 21.1226 73.004 19.938 76.9335L18.9806 76.6449ZM16.2812 91.2548C16.8978 85.6018 17.7821 80.6203 18.9806 76.6449L19.938 76.9335C18.7641 80.8274 17.8884 85.7421 17.2753 91.3632L16.2812 91.2548ZM15.4243 130.551C14.8859 116.552 15.048 102.561 16.2812 91.2548L17.2753 91.3632C16.0495 102.601 15.8861 116.539 16.4236 130.513L15.4243 130.551ZM18.771 169.894C17.2018 158.558 15.9628 144.551 15.4243 130.551L16.4236 130.513C16.9609 144.482 18.1973 158.456 19.7616 169.757L18.771 169.894ZM21.326 184.563C20.4227 180.564 19.5556 175.563 18.771 169.894L19.7616 169.757C20.5438 175.409 21.4063 180.38 22.3014 184.342L21.326 184.563ZM23.8542 192.752C23.0077 191.033 22.1524 188.221 21.326 184.563L22.3014 184.342C23.1249 187.988 23.9598 190.703 24.7513 192.31L23.8542 192.752ZM21.326 184.563C22.1558 188.236 23.0174 191.07 23.877 192.798L22.9817 193.243C22.0654 191.402 21.183 188.468 20.3506 184.783L21.326 184.563ZM18.771 169.894C19.5556 175.563 20.4227 180.564 21.326 184.563L20.3506 184.783C19.439 180.748 18.5674 175.717 17.7804 170.032L18.771 169.894ZM15.4243 130.551C15.9628 144.551 17.2018 158.558 18.771 169.894L17.7804 170.032C16.2064 158.659 14.9647 144.619 14.4251 130.59L15.4243 130.551ZM16.2812 91.2548C15.048 102.561 14.8859 116.552 15.4243 130.551L14.4251 130.59C13.8856 116.565 14.0465 102.52 15.2871 91.1463L16.2812 91.2548ZM18.9805 76.6448C17.7821 80.6203 16.8978 85.6018 16.2812 91.2548L15.2871 91.1463C15.9071 85.4615 16.8001 80.4131 18.0231 76.3562L18.9805 76.6448ZM23.5644 68.0716C21.6915 69.7001 20.179 72.6695 18.9805 76.6448L18.0231 76.3562C19.2354 72.3347 20.8149 69.1371 22.9082 67.317L23.5644 68.0716ZM24.7975 67.5969C24.3477 67.6722 23.9096 67.7715 23.5644 68.0716L22.9082 67.317C23.4842 66.8162 24.1776 66.6867 24.6324 66.6106L24.7975 67.5969ZM29.058 66.2414C27.2597 66.9399 25.7651 67.4348 24.7975 67.5969L24.6324 66.6106C25.4877 66.4674 26.8963 66.0083 28.6959 65.3092L29.058 66.2414ZM35.1419 63.6642C32.9587 64.6407 30.8564 65.5428 29.058 66.2414L28.6959 65.3092C30.4719 64.6194 32.557 63.7249 34.7336 62.7513L35.1419 63.6642ZM44.8157 59.1777C41.9194 60.5456 38.4398 62.189 35.1419 63.6642L34.7336 62.7513C38.0205 61.2811 41.4908 59.6421 44.3886 58.2735L44.8157 59.1777ZM46.6267 58.3232C46.0562 58.5918 45.45 58.8781 44.8157 59.1777L44.3886 58.2735C45.0228 57.9739 45.6296 57.6873 46.2008 57.4184L46.6267 58.3232ZM60.909 28.0797C50.9033 39.5616 48.0101 51.4499 47.4909 57.0823L46.4951 56.9905C47.0303 51.1849 49.9894 39.0882 60.1551 27.4227L60.909 28.0797ZM69.2398 21.7486C66.0099 23.1455 63.4987 25.1078 60.909 28.0797L60.1551 27.4227C62.8222 24.362 65.4499 22.2982 68.8428 20.8308L69.2398 21.7486ZM81.5332 18.8562C76.2489 19.5563 72.4001 20.3819 69.2398 21.7486L68.8428 20.8308C72.1332 19.4078 76.0932 18.5682 81.4019 17.8649L81.5332 18.8562ZM83.748 17.5558C83.258 17.8858 82.7344 18.2385 82.1746 18.6142L81.6172 17.7839C82.1763 17.4087 82.6993 17.0564 83.1893 16.7264L83.748 17.5558ZM86.7557 15.5479C85.9226 16.0913 84.935 16.7564 83.748 17.5558L83.1893 16.7264C84.3742 15.9284 85.3687 15.2586 86.2094 14.7103L86.7557 15.5479ZM89.6116 13.8791C88.8968 14.1977 87.9943 14.74 86.7557 15.5479L86.2094 14.7103C87.4476 13.9027 88.4093 13.3201 89.2045 12.9657L89.6116 13.8791ZM91.3415 13.5523C90.8535 13.4655 90.3264 13.5604 89.6116 13.8791L89.2045 12.9657C90.0132 12.6052 90.7541 12.4321 91.5166 12.5678L91.3415 13.5523ZM92.8368 14.3162C92.2787 13.908 91.8297 13.6392 91.3415 13.5523L91.5166 12.5678C92.2474 12.6978 92.8553 13.0908 93.4271 13.509L92.8368 14.3162ZM96.9042 22.5764C95.3464 18.659 93.702 15.4698 92.8368 14.3162L93.6368 13.7162C94.5869 14.9831 96.2712 18.2784 97.8334 22.2068L96.9042 22.5764ZM100.453 35.2058C99.9334 31.1394 98.4621 26.4938 96.9042 22.5764L97.8334 22.2068C99.4056 26.1603 100.91 30.8942 101.444 35.0792L100.453 35.2058ZM104.292 51.6718C102.561 46.3453 101.101 40.2889 100.453 35.2058L101.444 35.0792C102.084 40.0871 103.527 46.0815 105.243 51.3628L104.292 51.6718ZM109.753 63.7576C108.023 61.5946 106.022 56.9981 104.292 51.6718L105.243 51.3628C106.973 56.6889 108.929 61.1263 110.534 63.1329L109.753 63.7576ZM113.692 67.1221C111.829 65.7615 110.419 64.589 109.753 63.7576L110.534 63.1329C111.105 63.8462 112.41 64.9477 114.282 66.3145L113.692 67.1221ZM120.349 71.616C117.872 70.0317 115.556 68.4828 113.692 67.1221L114.282 66.3145C116.122 67.6581 118.419 69.1946 120.888 70.7736L120.349 71.616ZM134.791 80.3227C130.896 78.0945 125.302 74.7846 120.349 71.616L120.888 70.7736C125.823 73.9306 131.402 77.2317 135.288 79.4547L134.791 80.3227ZM136.409 81.6261C135.991 81.058 135.403 80.6727 134.791 80.3227L135.288 79.4547C135.917 79.8148 136.665 80.2859 137.215 81.0334L136.409 81.6261ZM138.75 88.1113C138.192 85.2132 137.418 82.9969 136.409 81.6261L137.215 81.0334C138.359 82.588 139.166 84.9839 139.732 87.9224L138.75 88.1113ZM139.792 98.6889C139.649 94.5899 139.307 91.0096 138.75 88.1113L139.732 87.9224C140.302 90.8893 140.647 94.5253 140.792 98.6539L139.792 98.6889ZM138.426 128.201C139.575 117.16 140.079 106.887 139.792 98.6889L140.792 98.6539C141.081 106.913 140.572 117.236 139.42 128.305L138.426 128.201ZM125.141 192.751C131.338 175.001 136.148 150.091 138.426 128.201L139.42 128.305C137.138 150.242 132.315 175.234 126.085 193.081L125.141 192.751ZM138.426 128.201C136.148 150.09 131.338 174.999 125.142 192.748L124.198 192.418C130.36 174.766 135.158 149.939 137.431 128.098L138.426 128.201ZM139.792 98.6889C140.079 106.887 139.575 117.16 138.426 128.201L137.431 128.098C138.577 117.084 139.078 106.86 138.793 98.7239L139.792 98.6889ZM138.75 88.1114C139.307 91.0096 139.649 94.5899 139.792 98.6889L138.793 98.7239C138.65 94.6544 138.312 91.1298 137.768 88.3003L138.75 88.1114ZM136.409 81.6261C137.418 82.9969 138.192 85.2132 138.75 88.1114L137.768 88.3003C137.218 85.4422 136.477 83.4058 135.604 82.2187L136.409 81.6261ZM134.791 80.3227C135.403 80.6726 135.991 81.058 136.409 81.6261L135.604 82.2187C135.318 81.8307 134.89 81.5311 134.295 81.1907L134.791 80.3227ZM120.349 71.616C125.302 74.7846 130.896 78.0945 134.791 80.3227L134.295 81.1907C130.391 78.9573 124.781 75.6386 119.81 72.4584L120.349 71.616ZM113.692 67.1221C115.556 68.4828 117.872 70.0317 120.349 71.616L119.81 72.4584C117.325 70.8688 114.99 69.3075 113.103 67.9297L113.692 67.1221ZM109.753 63.7576C110.419 64.589 111.829 65.7615 113.692 67.1221L113.103 67.9297C111.247 66.5749 109.732 65.3316 108.973 64.3823L109.753 63.7576ZM104.292 51.6718C106.022 56.9981 108.023 61.5946 109.753 63.7576L108.973 64.3823C107.117 62.063 105.071 57.3076 103.341 51.9807L104.292 51.6718ZM100.453 35.2058C101.101 40.2889 102.561 46.3453 104.292 51.6718L103.341 51.9807C101.596 46.6091 100.119 40.4907 99.4606 35.3324L100.453 35.2058ZM96.9042 22.5764C98.4621 26.4938 99.9334 31.1394 100.453 35.2058L99.4606 35.3324C98.9566 31.3846 97.5185 26.8273 95.975 22.9459L96.9042 22.5764ZM124.811 193.689C124.295 193.507 124.015 192.943 124.198 192.418L125.142 192.748C125.142 192.749 125.142 192.748 125.142 192.747C125.142 192.746 125.142 192.745 125.142 192.745C125.142 192.745 125.142 192.745 125.142 192.745C125.142 192.745 125.142 192.745 125.144 192.746L124.811 193.689ZM93.4271 13.509C93.5069 13.5673 93.5775 13.6372 93.6368 13.7162L92.8368 14.3162L92.8368 14.3162L93.4271 13.509ZM126.085 193.081C125.901 193.608 125.327 193.871 124.811 193.689L125.144 192.746C125.146 192.747 125.146 192.747 125.146 192.747C125.146 192.747 125.146 192.747 125.145 192.747C125.145 192.747 125.144 192.748 125.143 192.749C125.142 192.75 125.141 192.752 125.141 192.751L126.085 193.081ZM46.2008 57.4184C46.3643 57.3415 46.4776 57.1806 46.4951 56.9905L47.4909 57.0823C47.4418 57.615 47.1199 58.091 46.6267 58.3232L46.2008 57.4184ZM24.3426 193.654C23.867 193.92 23.2394 193.761 22.9817 193.243L23.877 192.798C23.8757 192.795 23.8729 192.791 23.8685 192.787C23.8645 192.784 23.861 192.783 23.8588 192.782C23.8545 192.781 23.8526 192.782 23.854 192.781L24.3426 193.654ZM24.7513 192.31C24.9841 192.783 24.8285 193.382 24.3426 193.654L23.854 192.781C23.8546 192.781 23.8547 192.781 23.8546 192.781C23.8545 192.781 23.8545 192.781 23.8546 192.781C23.8548 192.781 23.8559 192.779 23.8568 192.776C23.8588 192.769 23.8585 192.761 23.8542 192.752L24.7513 192.31ZM48.4248 58.003C48.4044 58.3703 48.1839 58.6968 47.8508 58.8529L47.4263 57.9475V57.9475L48.4248 58.003ZM81.4019 17.8649C81.4796 17.8546 81.5538 17.8265 81.6172 17.7839L82.1746 18.6142C81.9818 18.7436 81.7614 18.826 81.5332 18.8562L81.4019 17.8649ZM82.439 19.641C82.3107 19.727 82.1642 19.7822 82.011 19.8021L81.8821 18.8104L81.8821 18.8104L82.439 19.641ZM92.161 15.0891C92.136 15.053 92.1037 15.0204 92.0641 14.9927L92.6372 14.1732C92.7704 14.2664 92.8883 14.3828 92.9833 14.5201L92.161 15.0891Z" fill="#95FF42"/>
<path d="M83.0781 46.231C77.8898 43.7823 69.7593 53.9753 67.5235 54.6796C64.663 53.5621 61.7705 46.231 57.7761 46.231C46.6194 46.231 50.7055 75.3248 54.6155 84.0015C57.776 91.0149 79.3884 95.6109 83.8158 82.0732C90.8652 60.5181 87.9702 48.5399 83.0781 46.231Z" stroke="#95FF42"/>
<path d="M101.347 103.404C115.039 91.5851 131.579 78.2957 132.314 78.2957L135.181 80.0945C135.802 80.4839 135.811 81.3886 135.206 81.8018C127.852 86.8229 112.541 99.1485 107.445 103.404C95.715 113.199 81.3739 130.57 54.3573 123.237C25.7267 115.465 23.7442 82.3183 24.6855 67.8872L28.3691 67.0815C26.52 98.9353 40.148 116.108 55.9501 119.382C78.2503 124.003 86.811 115.95 101.347 103.404Z" fill="#95FF42"/>
</g>
<defs>
<filter id="filter0_f_2832_8825" x="47.4199" y="38.2288" width="49.3965" height="47.4805" filterUnits="userSpaceOnUse" color-interpolation-filters="sRGB">
<feFlood flood-opacity="0" result="BackgroundImageFix"/>
<feBlend mode="normal" in="SourceGraphic" in2="BackgroundImageFix" result="shape"/>
<feGaussianBlur stdDeviation="4" result="effect1_foregroundBlur_2832_8825"/>
</filter>
<clipPath id="clip0_2832_8825">
<rect width="155" height="141" fill="white"/>
</clipPath>
</defs>
</svg>
