<svg width="232" height="95" viewBox="0 0 232 95" fill="none" xmlns="http://www.w3.org/2000/svg">
<rect x="6.10376" y="0.0187988" width="226.357" height="76.4608" rx="12" transform="rotate(4.53715 6.10376 0.0187988)" fill="#FEEEB7"/>
<path d="M26.6117 59.8893L25.8841 61.5369C23.7526 60.8903 22.3855 58.9912 22.5819 56.517C22.7917 53.8733 24.4535 52.4874 26.6905 52.6649C28.7071 52.825 30.2563 54.3633 31.976 57.6206L32.599 58.7955L33.071 52.8472L35.003 53.0005L34.262 62.3382L32.6859 62.2131L31.4332 59.9479C29.2406 55.9881 28.2434 54.8005 26.7012 54.6781C25.2777 54.5651 24.6012 55.5688 24.503 56.8059C24.3632 58.5683 25.4666 59.4915 26.6117 59.8893ZM29.3988 49.9113L23.4012 48.7703L24.0185 40.9918L25.9504 41.1451L25.465 47.2629L27.9854 47.7357C27.7283 47.3231 27.5623 46.4061 27.6497 45.3045C27.8797 42.4067 29.6865 40.9129 31.9913 41.0958C34.4485 41.2908 35.9676 43.4236 35.7591 46.0504C35.5762 48.3551 34.4847 50.0762 32.4801 50.838L31.7191 49.0382C32.8271 48.6145 33.6927 47.5917 33.8191 45.9988C33.9644 44.1685 33.1544 43.2004 31.8495 43.0969C30.4599 42.9866 29.5407 44.0392 29.4063 45.7338C29.3067 46.9879 29.6191 47.7801 30.1049 48.5349L29.3988 49.9113ZM30.1607 38.805C26.585 38.5212 24.1605 36.6235 24.4335 33.1833C24.7078 29.7262 27.267 28.2069 30.9784 28.5014C34.5541 28.7851 36.9786 30.6829 36.7056 34.1231C36.4393 37.4785 33.7365 39.0887 30.1607 38.805ZM30.3194 36.8053C32.9801 37.0164 34.6136 35.9864 34.7737 33.9698C34.9498 31.7497 33.4803 30.7122 30.8197 30.5011C28.1421 30.2886 26.5429 31.0997 26.3654 33.3366C26.1946 35.4889 27.6757 36.5955 30.3194 36.8053ZM31.8382 25.8321L30.2113 25.703L30.4574 22.6018L27.3392 22.3544L27.4737 20.6597L30.5919 20.9071L30.842 17.755L32.4689 17.8841L32.2188 21.0362L35.3709 21.2864L35.2364 22.981L32.0843 22.7309L31.8382 25.8321Z" fill="#191919"/>
<path d="M61.1506 28.9143L62.1772 29.377C61.55 30.5812 60.2729 31.2522 58.8075 31.1359C56.7241 30.9706 55.3482 29.3467 55.5151 27.2433C55.6805 25.1599 57.3267 23.7557 59.4301 23.9226C60.8556 24.0357 62.0476 24.9428 62.3805 26.1831L61.2938 26.478C60.9025 25.5943 60.267 25.1326 59.3399 25.059C57.9443 24.9483 56.8867 25.8876 56.7712 27.343C56.6573 28.7785 57.5719 29.8943 58.9475 30.0035C59.8846 30.0778 60.6894 29.6702 61.1506 28.9143ZM63.1229 27.847C63.2866 25.7835 64.9444 24.3602 67.0278 24.5255C69.0714 24.6877 70.5186 26.2972 70.3501 28.4205C70.184 30.5139 68.4987 31.905 66.4551 31.7428C64.3916 31.5791 62.9544 29.9703 63.1229 27.847ZM64.3789 27.9467C64.2642 29.3921 65.2294 30.502 66.5453 30.6064C67.911 30.7148 68.9794 29.7663 69.0941 28.3209C69.2088 26.8754 68.2336 25.7648 66.9377 25.6619C65.6118 25.5567 64.4936 26.5012 64.3789 27.9467ZM70.9304 26.0992L71.0206 24.9627L76.8722 25.4271L76.782 26.5635L74.4593 26.3792L73.9958 32.2208L72.7796 32.1243L73.2432 26.2827L70.9304 26.0992ZM78.7133 32.5952L77.4971 32.4987L78.0509 25.5206L80.9019 25.7468C83.2545 25.9335 83.7094 27.1533 83.6232 28.2399C83.5259 29.4661 82.6889 30.5332 80.4758 30.3576L78.9008 30.2326L78.7133 32.5952ZM80.8217 26.8841L79.1769 26.7535L78.991 29.0962L80.5959 29.2235C81.7423 29.3145 82.3094 28.868 82.3648 28.1702C82.4178 27.5023 82.0179 26.979 80.8217 26.8841ZM86.0198 33.2954C85.8304 33.2803 85.5827 33.2406 85.3865 33.1849L85.4791 32.0186C85.6845 32.085 85.9006 32.1423 86.0502 32.1542C86.3492 32.1779 86.5006 32.0395 86.8288 31.4435L84.1307 26.0031L85.6061 26.1201L87.5358 30.2457L89.7231 26.4468L90.9792 26.5465L87.7507 32.0885C87.1931 33.0474 86.7774 33.3555 86.0198 33.2954ZM89.9179 34.7382L90.1069 32.3557L90.8546 32.4151C91.4672 31.5207 91.8913 29.9694 92.0448 28.0355L92.1555 26.6399L97.08 27.0306L96.6165 32.8723L97.4937 32.9419L97.3046 35.3244L96.1483 35.2326L96.2472 33.9866L91.1731 33.5839L91.0742 34.83L89.9179 34.7382ZM93.2217 27.8681L93.2011 28.1272C93.0587 29.9216 92.642 31.634 92.1206 32.5155L95.4003 32.7758L95.7737 28.0706L93.2217 27.8681ZM103.512 34.563L103.747 31.5924L100.059 31.2997L99.8231 34.2703L98.6069 34.1738L99.1607 27.1958L100.377 27.2923L100.149 30.1632L103.837 30.4559L104.065 27.585L105.281 27.6815L104.728 34.6595L103.512 34.563ZM107.631 34.8899L106.604 34.8084L107.158 27.8304L108.374 27.9269L107.982 32.8614L112.242 28.2338L113.279 28.3161L112.725 35.2941L111.509 35.1976L111.9 30.2631L107.631 34.8899ZM114.611 35.4438L115.165 28.4657L116.381 28.5622L116.123 31.812L119.591 28.817L121.156 28.9412L117.82 31.7962L120.791 35.9343L119.216 35.8093L116.82 32.5094L116.012 33.2076L115.827 35.5403L114.611 35.4438ZM121.259 32.4603C121.423 30.3968 123.08 28.9735 125.164 29.1388C127.207 29.301 128.655 30.9105 128.486 33.0339C128.32 35.1273 126.635 36.5183 124.591 36.3561C122.528 36.1924 121.09 34.5837 121.259 32.4603ZM122.515 32.56C122.4 34.0055 123.365 35.1153 124.681 35.2197C126.047 35.3281 127.115 34.3796 127.23 32.9342C127.345 31.4887 126.37 30.3781 125.074 30.2753C123.748 30.1701 122.63 31.1146 122.515 32.56ZM129.661 36.6381L130.215 29.66L133.255 29.9013C135.129 30.05 135.65 30.8236 135.568 31.8504C135.51 32.588 135.12 33.0787 134.469 33.308C135.212 33.5575 135.625 34.1721 135.553 35.0693C135.44 36.5048 134.276 37.0043 132.641 36.8746L129.661 36.6381ZM132.912 33.8465L131.118 33.7041L130.962 35.658L132.697 35.7956C133.744 35.8787 134.245 35.6276 134.302 34.9098C134.353 34.2718 133.939 33.928 132.912 33.8465ZM133.02 30.966L131.345 30.8331L131.2 32.6674L132.974 32.8082C133.762 32.8707 134.249 32.5482 134.294 31.98C134.343 31.3619 134.027 31.0459 133.02 30.966ZM58.7768 46.0603L58.9706 43.618L57.256 43.4819L55.2679 45.7818L53.8423 45.6687L56.0357 43.1844C55.0602 42.8362 54.5406 42.0526 54.6229 41.0159C54.732 39.6402 55.7319 38.7967 57.596 38.9446L60.5467 39.1787L59.993 46.1568L58.7768 46.0603ZM57.1668 42.3312L59.0608 42.4815L59.2404 40.2187L57.446 40.0763C56.3694 39.9908 55.9319 40.4477 55.8789 41.1156C55.8306 41.7236 56.2497 42.2585 57.1668 42.3312ZM61.8642 46.3053L62.4179 39.3272L65.4583 39.5685C67.3324 39.7172 67.8529 40.4908 67.7714 41.5176C67.7129 42.2553 67.3228 42.7459 66.6726 42.9752C67.4152 43.2247 67.8279 43.8393 67.7567 44.7365C67.6428 46.172 66.4796 46.6715 64.8448 46.5418L61.8642 46.3053ZM65.1152 43.5137L63.3208 43.3713L63.1658 45.3252L64.9003 45.4628C65.947 45.5459 66.4485 45.2948 66.5054 44.577C66.556 43.939 66.1419 43.5952 65.1152 43.5137ZM65.2234 40.6332L63.5486 40.5003L63.4031 42.3346L65.1775 42.4754C65.965 42.5379 66.4521 42.2154 66.4972 41.6472C66.5462 41.0291 66.2302 40.7131 65.2234 40.6332ZM73.5883 47.2356L74.0519 41.394L71.4201 41.1852L71.3996 41.4444C71.0934 45.3022 70.2493 47.0911 68.7839 46.9748C68.6742 46.9661 68.4956 46.9419 68.3086 46.8969L68.4011 45.7306C68.4701 45.7461 68.5399 45.7516 68.5997 45.7564C69.4969 45.8276 69.9455 44.5992 70.2033 41.3494L70.3141 39.9538L75.3582 40.3541L74.8045 47.3322L73.5883 47.2356ZM80.9867 47.8227L81.1805 45.3804L79.4659 45.2444L77.4777 47.5443L76.0522 47.4312L78.2456 44.9469C77.2701 44.5986 76.7504 43.8151 76.8327 42.7783C76.9419 41.4026 77.9417 40.5591 79.8059 40.707L82.7566 40.9412L82.2029 47.9192L80.9867 47.8227ZM79.3766 44.0937L81.2707 44.244L81.4503 41.9811L79.6559 41.8387C78.5793 41.7533 78.1418 42.2101 78.0888 42.878C78.0405 43.4861 78.4595 44.0209 79.3766 44.0937ZM84.074 48.0677L84.6278 41.0897L85.8439 41.1862L85.6169 44.0472L86.6337 44.1279C87.0198 42.4231 88.4353 41.2714 90.2895 41.4186C92.3829 41.5847 93.6292 43.1983 93.4622 45.3017C93.2977 47.3752 91.7603 48.798 89.7168 48.6359C87.8526 48.488 86.5858 47.1335 86.5336 45.2635L85.5267 45.1836L85.2902 48.1642L84.074 48.0677ZM87.7502 44.8484C87.6339 46.3138 88.511 47.3966 89.797 47.4987C91.1029 47.6023 92.0867 46.7073 92.2062 45.202C92.3264 43.6868 91.4554 42.6547 90.1794 42.5534C88.8735 42.4498 87.8681 43.3631 87.7502 44.8484ZM94.0467 42.9807L94.1369 41.8443L99.9885 42.3086L99.8984 43.445L97.5757 43.2607L97.1121 49.1024L95.8959 49.0058L96.3595 43.1642L94.0467 42.9807ZM105.737 47.4996L106.764 47.9623C106.136 49.1664 104.859 49.8375 103.394 49.7212C101.31 49.5559 99.9345 47.932 100.101 45.8286C100.267 43.7451 101.913 42.3409 104.016 42.5079C105.442 42.621 106.634 43.5281 106.967 44.7683L105.88 45.0633C105.489 44.1796 104.853 43.7178 103.926 43.6443C102.531 43.5335 101.473 44.4728 101.358 45.9282C101.244 47.3637 102.158 48.4796 103.534 48.5887C104.471 48.6631 105.276 48.2555 105.737 47.4996ZM112.177 50.2978L112.371 47.8555L110.656 47.7194L108.668 50.0194L107.242 49.9062L109.436 47.422C108.46 47.0737 107.941 46.2901 108.023 45.2534C108.132 43.8777 109.132 43.0342 110.996 43.1821L113.947 43.4163L113.393 50.3943L112.177 50.2978ZM110.567 46.5688L112.461 46.7191L112.64 44.4562L110.846 44.3138C109.77 44.2283 109.332 44.6852 109.279 45.3531C109.231 45.9612 109.65 46.496 110.567 46.5688ZM117.353 50.7085L120.948 43.9618L122.015 44.0464L124.491 51.2749L123.215 51.1737L122.678 49.5963L119.378 49.3344L118.599 50.8074L117.353 50.7085ZM119.902 48.2926L122.324 48.4849L121.333 45.5572L119.902 48.2926ZM125.564 51.3601L126.117 44.382L127.333 44.4785L127.076 47.7283L130.543 44.7333L132.108 44.8574L128.772 47.7125L131.744 51.8505L130.169 51.7256L127.773 48.4256L126.965 49.1239L126.78 51.4566L125.564 51.3601ZM132.625 46.0421L132.716 44.9056L138.567 45.37L138.477 46.5064L136.154 46.3221L135.691 52.1637L134.475 52.0672L134.938 46.2256L132.625 46.0421ZM140.219 52.5231L139.192 52.4416L139.746 45.4635L140.962 45.56L140.571 50.4945L144.83 45.8669L145.867 45.9492L145.313 52.9273L144.097 52.8308L144.488 47.8963L140.219 52.5231ZM147.199 53.077L147.753 46.0989L150.793 46.3402C152.667 46.4889 153.188 47.2625 153.106 48.2892C153.048 49.0269 152.658 49.5176 152.008 49.7469C152.75 49.9964 153.163 50.611 153.092 51.5082C152.978 52.9437 151.815 53.4432 150.18 53.3135L147.199 53.077ZM150.45 50.2854L148.656 50.143L148.501 52.0968L150.235 52.2345C151.282 52.3175 151.783 52.0664 151.84 51.3487C151.891 50.7107 151.477 50.3669 150.45 50.2854ZM150.558 47.4049L148.883 47.272L148.738 49.1062L150.512 49.2471C151.3 49.3095 151.787 48.9871 151.832 48.4189C151.881 47.8008 151.565 47.4848 150.558 47.4049ZM159.322 54.039L159.558 51.0683L155.869 50.7756L155.634 53.7463L154.417 53.6498L154.971 46.6717L156.187 46.7682L155.959 49.6392L159.648 49.9319L159.876 47.0609L161.092 47.1574L160.538 54.1355L159.322 54.039ZM168.575 54.7732L169.129 47.7952L170.345 47.8917L169.791 54.8697L168.575 54.7732ZM165.255 51.0991L163.9 50.9915L163.721 53.2444L165.057 53.3504C166.133 53.4359 166.692 53.099 166.755 52.3015C166.811 51.5937 166.322 51.1838 165.255 51.0991ZM162.414 54.2844L162.968 47.3063L164.184 47.4028L163.99 49.8551L165.375 49.9651C167.25 50.1138 168.122 51.0056 168.012 52.3912C167.89 53.9264 166.771 54.6301 164.937 54.4845L162.414 54.2844ZM171.667 55.0186L172.221 48.0406L174.025 48.1837L175.469 53.3842L177.604 48.4677L179.359 48.6069L178.805 55.585L177.589 55.4885L178.021 50.0456L175.635 55.3335L174.907 55.2757L173.314 49.6922L172.884 55.1151L171.667 55.0186ZM181.704 55.815L180.677 55.7336L181.231 48.7555L182.447 48.852L182.055 53.7865L186.315 49.1589L187.351 49.2412L186.798 56.2193L185.582 56.1228L185.973 51.1883L181.704 55.815ZM58.7774 58.8203L59.8041 59.283C59.1768 60.4871 57.8998 61.1582 56.4344 61.0419C54.3509 60.8766 52.9751 59.2527 53.142 57.1493C53.3073 55.0658 54.9535 53.6617 57.0569 53.8286C58.4824 53.9417 59.6744 54.8488 60.0074 56.0891L58.9206 56.384C58.5293 55.5003 57.8938 55.0386 56.9667 54.965C55.5711 54.8543 54.5135 55.7935 54.398 57.249C54.2841 58.6845 55.1987 59.8003 56.5744 59.9095C57.5114 59.9838 58.3162 59.5762 58.7774 58.8203ZM65.8237 61.6666L66.2872 55.825L62.6786 55.5386L62.215 61.3803L60.9988 61.2838L61.5526 54.3057L67.5936 54.7851L67.0398 61.7631L65.8237 61.6666ZM69.9546 61.9944L68.9278 61.913L69.4815 54.9349L70.6977 55.0314L70.3062 59.9659L74.5656 55.3383L75.6023 55.4206L75.0486 62.3987L73.8324 62.3022L74.224 57.3677L69.9546 61.9944ZM76.9347 62.5483L77.4884 55.5703L78.7046 55.6668L78.4467 58.9166L81.9145 55.9215L83.4796 56.0457L80.1433 58.9007L83.1152 63.0388L81.5402 62.9138L79.1437 59.6139L78.336 60.3122L78.1508 62.6449L76.9347 62.5483ZM84.2309 63.1273L84.7846 56.1493L89.9883 56.5622L89.8981 57.6986L85.9106 57.3822L85.7706 59.1467L89.3892 59.4338L89.3038 60.5104L85.6852 60.2233L85.5372 62.0874L89.6244 62.4117L89.5342 63.5482L84.2309 63.1273ZM92.3344 63.7704L91.1182 63.6739L91.6719 56.6958L94.523 56.922C96.8756 57.1087 97.3305 58.3285 97.2443 59.4151C97.147 60.6413 96.31 61.7084 94.0969 61.5328L92.5219 61.4078L92.3344 63.7704ZM94.4428 58.0593L92.7979 57.9287L92.612 60.2714L94.217 60.3987C95.3634 60.4897 95.9305 60.0432 95.9859 59.3454C96.0389 58.6775 95.639 58.1542 94.4428 58.0593ZM96.7018 64.1169L100.297 57.3702L101.363 57.4548L103.839 64.6833L102.563 64.5821L102.026 63.0047L98.7269 62.7428L97.9479 64.2158L96.7018 64.1169ZM99.2509 61.701L101.673 61.8933L100.682 58.9656L99.2509 61.701ZM104.912 64.7685L105.466 57.7904L107.27 57.9336L108.714 63.1341L110.849 58.2176L112.604 58.3568L112.05 65.3349L110.834 65.2384L111.266 59.7955L108.88 65.0833L108.152 65.0256L106.559 59.442L106.129 64.865L104.912 64.7685ZM114.949 65.5649L113.922 65.4834L114.476 58.5054L115.692 58.6019L115.3 63.5364L119.56 58.9088L120.596 58.9911L120.043 65.9691L118.826 65.8726L119.218 60.9381L114.949 65.5649Z" fill="#191919"/>
</svg>
