<svg width="230" height="127" viewBox="0 0 230 127" fill="none" xmlns="http://www.w3.org/2000/svg">
<g clip-path="url(#clip0_2832_8965)">
<rect x="0.239502" y="51.0142" width="217.312" height="76.4608" rx="12" transform="rotate(-13.3923 0.239502 51.0142)" fill="#C4B4FF"/>
<path d="M33.8836 100.53L33.5544 102.303C31.6683 102.088 30.0287 100.854 29.4105 98.2571C28.8593 95.9418 29.624 93.9423 31.4762 93.5013C32.7331 93.2021 33.8285 93.6927 34.5254 94.785C34.4522 93.5966 35.0231 92.3248 36.71 91.9232C38.9757 91.3837 40.7893 92.9092 41.3878 95.4229C41.9863 97.9366 41.3445 100.012 39.4387 101.182L38.2811 99.6227C39.3119 98.8879 40.0467 97.7169 39.6135 95.8978C39.2316 94.2936 38.3488 93.5951 37.1912 93.8707C35.9674 94.1621 35.8099 95.3355 36.1642 96.8239L36.5225 98.3288L34.8026 98.7383L34.5073 97.498C34.1136 95.8442 33.1977 95.1535 32.2716 95.374C31.362 95.5906 30.9927 96.5348 31.3392 97.9901C31.7368 99.6604 32.8756 100.333 33.8836 100.53ZM33.842 90.2997C30.3525 91.1305 27.4616 90.0713 26.6623 86.7142C25.859 83.3405 27.8262 81.1071 31.448 80.2448C34.9374 79.414 37.8284 80.4732 38.6277 83.8303C39.4073 87.1048 37.3314 89.4689 33.842 90.2997ZM33.3774 88.3483C35.9738 87.7301 37.211 86.2472 36.7424 84.2792C36.2266 82.1128 34.509 81.578 31.9126 82.1962C29.2996 82.8184 28.0278 84.0823 28.5476 86.2653C29.0476 88.3656 30.7975 88.9625 33.3774 88.3483ZM35.667 75.5788L22.3927 69.0755L23.148 67.5501L36.3647 74.0321L35.667 75.5788ZM27.8911 78.8107C26.2373 79.2045 24.7686 78.1736 24.3591 76.4537C23.9536 74.7503 24.8001 73.1682 26.4539 72.7745C28.0912 72.3846 29.5599 73.4155 29.9654 75.1189C30.3749 76.8388 29.5283 78.4209 27.8911 78.8107ZM27.4895 77.1239C28.3164 76.927 28.6589 76.1639 28.4936 75.4693C28.3242 74.7582 27.6824 74.2644 26.8555 74.4613C26.0121 74.6621 25.6822 75.4047 25.8475 76.0993C26.0208 76.827 26.6461 77.3247 27.4895 77.1239ZM32.328 70.3623C30.6742 70.7561 29.222 69.7213 28.8125 68.0014C28.407 66.298 29.237 64.7198 30.8908 64.3261C32.528 63.9363 34.0132 64.9632 34.4188 66.6666C34.8283 68.3865 33.9652 69.9725 32.328 70.3623ZM31.9263 68.6755C32.7698 68.4747 33.0958 67.7155 32.9304 67.0209C32.7611 66.3098 32.1358 65.8121 31.2924 66.0129C30.4655 66.2098 30.119 66.9563 30.2844 67.6509C30.4576 68.3786 31.0994 68.8724 31.9263 68.6755Z" fill="#191919"/>
<path d="M53.7258 63.4133L54.845 63.5374C54.6189 64.8762 53.6105 65.9078 52.1804 66.2483C50.1473 66.7324 48.3383 65.6109 47.8496 63.5583C47.3655 61.5251 48.4995 59.6823 50.5522 59.1936C51.9433 58.8624 53.3566 59.3585 54.0552 60.436L53.112 61.0512C52.4677 60.3309 51.7209 60.0872 50.8162 60.3026C49.4543 60.6269 48.7372 61.8461 49.0753 63.2664C49.4089 64.6673 50.6226 65.4474 51.965 65.1277C52.8795 64.91 53.5197 64.2745 53.7258 63.4133ZM55.2737 61.7906C54.7943 59.7769 55.9334 57.9124 57.9666 57.4283C59.9608 56.9535 61.8332 58.0393 62.3266 60.1114C62.813 62.1543 61.6377 63.9966 59.6435 64.4714C57.6298 64.9509 55.7671 63.8627 55.2737 61.7906ZM56.4995 61.4988C56.8353 62.9094 58.0953 63.6682 59.3794 63.3624C60.7122 63.0451 61.4367 61.8138 61.1008 60.4033C60.765 58.9927 59.4952 58.2362 58.2306 58.5373C56.9368 58.8454 56.1636 60.0882 56.4995 61.4988ZM62.1641 57.7241L61.9 56.6151L67.6104 55.2555L67.8744 56.3645L65.6078 56.9042L66.9651 62.6049L65.7782 62.8874L64.421 57.1868L62.1641 57.7241ZM71.5687 61.5088L70.3819 61.7913L68.7606 54.9817L71.5428 54.3193C73.8386 53.7726 74.647 54.7932 74.8994 55.8535C75.1843 57.0501 74.7165 58.3231 72.5568 58.8373L71.0198 59.2032L71.5687 61.5088ZM71.8166 55.426L70.2115 55.8081L70.7558 58.0942L72.322 57.7213C73.4407 57.455 73.8428 56.8555 73.6807 56.1746C73.5255 55.5228 72.984 55.148 71.8166 55.426ZM78.7359 59.9257C78.5511 59.9697 78.3033 60.0081 78.0994 60.0155L77.8285 58.8774C78.0443 58.8774 78.2676 58.8653 78.4135 58.8306C78.7054 58.7611 78.8068 58.5827 78.9356 57.9147L74.6937 53.5691L76.1335 53.2263L79.2395 56.5574L80.1512 52.2697L81.3769 51.9778L80.0112 58.2446C79.7759 59.3286 79.4753 59.7496 78.7359 59.9257ZM82.8889 60.0985L82.3353 57.7735L83.0649 57.5997C83.3725 56.5602 83.2984 54.9537 82.8491 53.0665L82.5248 51.7045L87.3305 50.5603L88.6878 56.261L89.5438 56.0572L90.0974 58.3822L88.9689 58.6509L88.6794 57.4349L83.7278 58.6138L84.0173 59.8298L82.8889 60.0985ZM83.9173 52.5449L83.9775 52.7978C84.3944 54.5488 84.5251 56.3064 84.3004 57.3056L87.5009 56.5436L86.4077 51.9519L83.9173 52.5449ZM95.7684 55.747L95.0782 52.848L91.4788 53.705L92.1691 56.604L90.9822 56.8866L89.3609 50.0769L90.5477 49.7943L91.2148 52.596L94.8142 51.739L94.1471 48.9374L95.3339 48.6548L96.9553 55.4644L95.7684 55.747ZM99.7883 54.7899L98.7863 55.0285L97.165 48.2188L98.3518 47.9362L99.4984 52.7516L102.126 47.0376L103.138 46.7967L104.759 53.6063L103.573 53.8889L102.426 49.0735L99.7883 54.7899ZM106.6 53.1681L104.979 46.3585L106.165 46.0759L106.921 49.2472L109.298 45.3301L110.825 44.9664L108.53 48.7099L112.631 51.7321L111.094 52.098L107.798 49.6961L107.245 50.6092L107.787 52.8855L106.6 53.1681ZM112.007 48.283C111.527 46.2693 112.666 44.4047 114.699 43.9207C116.694 43.4458 118.566 44.5317 119.059 46.6038C119.546 48.6467 118.371 50.489 116.376 50.9638C114.363 51.4432 112.5 50.3551 112.007 48.283ZM113.232 47.9912C113.568 49.4017 114.828 50.1605 116.112 49.8548C117.445 49.5375 118.17 48.3062 117.834 46.8956C117.498 45.485 116.228 44.7286 114.963 45.0297C113.67 45.3377 112.896 46.5806 113.232 47.9912ZM121.287 49.6713L119.665 42.8617L122.632 42.1552C124.461 41.7198 125.195 42.2956 125.433 43.2976C125.605 44.0175 125.385 44.6044 124.837 45.0227C125.62 45.0315 126.202 45.4892 126.41 46.3647C126.744 47.7656 125.791 48.5989 124.195 48.9788L121.287 49.6713ZM123.52 46.0145L121.769 46.4314L122.223 48.3381L123.916 47.9351C124.937 47.6919 125.337 47.2986 125.171 46.5982C125.022 45.9756 124.522 45.7759 123.52 46.0145ZM122.737 43.2406L121.102 43.6297L121.529 45.4197L123.26 45.0074C124.029 44.8244 124.393 44.3677 124.261 43.8132C124.117 43.21 123.719 43.0067 122.737 43.2406ZM135.856 46.2025L134.498 40.5019L130.977 41.3403L132.334 47.041L131.147 47.3236L129.526 40.5139L135.421 39.1103L137.043 45.92L135.856 46.2025ZM140.072 45.1987L138.885 45.4813L137.264 38.6717L140.046 38.0092C142.342 37.4626 143.15 38.4831 143.403 39.5435C143.687 40.74 143.22 42.013 141.06 42.5272L139.523 42.8932L140.072 45.1987ZM140.32 39.1159L138.715 39.4981L139.259 41.7842L140.825 41.4113C141.944 41.1449 142.346 40.5455 142.184 39.8645C142.029 39.2127 141.487 38.838 140.32 39.1159ZM146.846 43.5859L145.844 43.8245L144.222 37.0149L145.409 36.7323L146.556 41.5477L149.184 35.8336L150.195 35.5927L151.817 42.4024L150.63 42.685L149.483 37.8696L146.846 43.5859ZM153.657 41.9642L152.036 35.1545L153.223 34.8719L154.58 40.5726L156.808 40.0422L155.45 34.3415L156.637 34.059L157.995 39.7596L160.222 39.2292L158.865 33.5286L160.052 33.246L161.673 40.0556L153.657 41.9642ZM167.901 38.5728L166.544 32.8722L163.975 33.4837L164.036 33.7366C164.932 37.5014 164.68 39.4632 163.25 39.8037C163.143 39.8291 162.965 39.8611 162.773 39.8759L162.502 38.7377C162.573 38.7313 162.641 38.715 162.699 38.7011C163.575 38.4927 163.623 37.1859 162.868 34.0145L162.544 32.6526L167.466 31.4806L169.088 38.2903L167.901 38.5728ZM171.93 37.6136L170.928 37.8521L169.307 31.0425L170.493 30.7599L171.64 35.5753L174.268 29.8612L175.28 29.6203L176.901 36.43L175.714 36.7126L174.568 31.8972L171.93 37.6136ZM52.5528 81.4556L50.9315 74.6459L52.1183 74.3634L52.8734 77.5347L55.2508 73.6176L56.7781 73.2539L54.4827 76.9974L58.5842 80.0196L57.0472 80.3855L53.7513 77.9836L53.1977 78.8967L53.7397 81.173L52.5528 81.4556ZM67.2757 77.9502L66.5855 75.0512L62.9861 75.9082L63.6764 78.8072L62.4895 79.0898L60.8682 72.2801L62.055 71.9975L62.7221 74.7992L66.3215 73.9422L65.6544 71.1405L66.8412 70.858L68.4626 77.6676L67.2757 77.9502ZM69.5154 77.4169L70.8588 69.8911L71.8997 69.6433L76.4807 75.7586L75.2355 76.055L74.2391 74.7195L71.0191 75.4862L70.7314 77.1274L69.5154 77.4169ZM71.197 74.3336L73.5609 73.7708L71.7163 71.2906L71.197 74.3336ZM77.5278 75.5093L75.9064 68.6996L77.6672 68.2804L80.6412 72.784L81.1596 67.4489L82.8717 67.0412L84.4931 73.8509L83.3062 74.1335L82.0416 68.8219L81.3995 74.5874L80.6894 74.7565L77.4546 69.9346L78.7146 75.2267L77.5278 75.5093ZM93.8448 71.6243L92.4876 65.9237L88.966 66.7621L90.3233 72.4628L89.1365 72.7453L87.5151 65.9357L93.4103 64.5321L95.0317 71.3417L93.8448 71.6243ZM95.6451 67.5978C95.1657 65.5841 96.3048 63.7196 98.3379 63.2355C100.332 62.7607 102.205 63.8465 102.698 65.9186C103.184 67.9615 102.009 69.8038 100.015 70.2786C98.0011 70.7581 96.1384 69.6699 95.6451 67.5978ZM96.8708 67.306C97.2067 68.7166 98.4667 69.4754 99.7508 69.1696C101.084 68.8523 101.808 67.621 101.472 66.2104C101.136 64.7999 99.8666 64.0434 98.602 64.3445C97.3081 64.6526 96.535 65.8954 96.8708 67.306ZM108.929 68.033L107.742 68.3156L106.12 61.5059L108.903 60.8435C111.198 60.2969 112.007 61.3174 112.259 62.3777C112.544 63.5743 112.076 64.8473 109.917 65.3615L108.38 65.7274L108.929 68.033ZM109.176 61.9502L107.571 62.3323L108.116 64.6184L109.682 64.2455C110.801 63.9792 111.203 63.3797 111.041 62.6988C110.885 62.047 110.344 61.6722 109.176 61.9502ZM114.7 66.6588L113.079 59.8491L118.157 58.6401L118.421 59.7491L114.53 60.6755L114.94 62.3974L118.471 61.5566L118.721 62.6073L115.19 63.448L115.623 65.2672L119.612 64.3176L119.876 65.4266L114.7 66.6588ZM121.421 65.0585L119.8 58.2489L120.987 57.9663L121.742 61.1377L124.119 57.2205L125.647 56.8569L123.351 60.6003L127.453 63.6225L125.916 63.9884L122.62 61.5865L122.066 62.4996L122.608 64.7759L121.421 65.0585ZM126.828 60.1734C126.349 58.1597 127.488 56.2952 129.521 55.8111C131.515 55.3363 133.388 56.4221 133.881 58.4942C134.367 60.5371 133.192 62.3794 131.198 62.8542C129.184 63.3336 127.321 62.2455 126.828 60.1734ZM128.054 59.8816C128.39 61.2921 129.65 62.0509 130.934 61.7452C132.267 61.4279 132.991 60.1966 132.655 58.786C132.319 57.3754 131.05 56.619 129.785 56.9201C128.491 57.2281 127.718 58.471 128.054 59.8816ZM136.108 61.5617L134.487 54.7521L136.248 54.3329L139.222 58.8365L139.74 53.5013L141.452 53.0937L143.074 59.9033L141.887 60.1859L140.622 54.8744L139.98 60.6399L139.27 60.809L136.035 55.9871L137.295 61.2792L136.108 61.5617ZM144.9 59.4684L143.279 52.6587L148.357 51.4497L148.621 52.5587L144.73 53.4852L145.14 55.207L148.671 54.3663L148.921 55.4169L145.39 56.2577L145.823 58.0768L149.812 57.1272L150.076 58.2362L144.9 59.4684ZM156.408 56.7286L155.717 53.8296L152.118 54.6866L152.808 57.5856L151.621 57.8682L150 51.0585L151.187 50.7759L151.854 53.5776L155.453 52.7206L154.786 49.9189L155.973 49.6364L157.594 56.446L156.408 56.7286ZM158.937 57.4114L158.383 55.0864L159.113 54.9126C159.42 53.8731 159.346 52.2666 158.897 50.3794L158.573 49.0174L163.378 47.8732L164.736 53.5739L165.592 53.3701L166.145 55.6951L165.017 55.9638L164.727 54.7477L159.776 55.9267L160.065 57.1427L158.937 57.4114ZM159.965 49.8578L160.025 50.1107C160.442 51.8617 160.573 53.6193 160.348 54.6185L163.549 53.8565L162.456 49.2648L159.965 49.8578ZM166.309 54.3712L167.652 46.8454L168.693 46.5975L173.274 52.7128L172.029 53.0093L171.033 51.6737L167.813 52.4404L167.525 54.0817L166.309 54.3712ZM167.99 51.2879L170.354 50.725L168.51 48.2448L167.99 51.2879ZM174.321 52.4635L172.7 45.6539L173.887 45.3713L175.244 51.0719L178.552 50.2844L177.194 44.5838L178.381 44.3012L179.738 50.0019L180.614 49.7934L181.168 52.1184L180.039 52.3871L179.75 51.1711L174.321 52.4635ZM183.061 50.3827L182.059 50.6212L180.438 43.8116L181.624 43.529L182.771 48.3444L185.399 42.6303L186.411 42.3895L188.032 49.1991L186.845 49.4817L185.699 44.6663L183.061 50.3827ZM190.874 48.5223L189.873 48.7609L188.251 41.9512L189.438 41.6687L190.585 46.4841L193.212 40.77L194.224 40.5291L195.846 47.3387L194.659 47.6213L193.512 42.8059L190.874 48.5223ZM53.9889 90.5092L53.7248 89.4002L59.4352 88.0406L59.6992 89.1496L57.4326 89.6893L58.7899 95.3899L57.603 95.6725L56.2458 89.9718L53.9889 90.5092ZM62.2067 94.5764L60.5854 87.7667L65.6634 86.5577L65.9275 87.6667L62.0362 88.5932L62.4462 90.315L65.9775 89.4743L66.2276 90.5249L62.6964 91.3657L63.1295 93.1848L67.118 92.2352L67.382 93.3442L62.2067 94.5764ZM68.9278 92.9761L67.3065 86.1665L68.4933 85.8839L69.2484 89.0553L71.6258 85.1381L73.1531 84.7745L70.8577 88.5179L74.9592 91.5401L73.4222 91.9061L70.1262 89.5042L69.5727 90.4172L70.1146 92.6936L68.9278 92.9761ZM77.5573 91.0449C77.3725 91.0889 77.1247 91.1273 76.9209 91.1347L76.6499 89.9966C76.8657 89.9966 77.089 89.9845 77.2349 89.9498C77.5268 89.8803 77.6282 89.7019 77.757 89.0339L73.5151 84.6883L74.9549 84.3455L78.0609 87.6767L78.9726 83.3889L80.1983 83.0971L78.8327 89.3638C78.5973 90.4478 78.2967 90.8688 77.5573 91.0449ZM82.883 89.6535L81.2617 82.8439L82.4485 82.5613L83.8058 88.2619L86.0335 87.7315L84.6763 82.0309L85.8631 81.7483L87.2204 87.449L89.4481 86.9186L88.0908 81.2179L89.2776 80.9353L90.6349 86.636L91.5007 86.4298L92.0543 88.7549L90.9258 89.0235L90.6363 87.8075L82.883 89.6535ZM93.9312 87.023L92.9292 87.2616L91.3078 80.452L92.4947 80.1694L93.6412 84.9848L96.2692 79.2707L97.2809 79.0298L98.9022 85.8395L97.7154 86.1221L96.5689 81.3067L93.9312 87.023ZM104.832 77.232L103.206 81.1552L106.531 84.0231L105.12 84.359L102.668 82.2188L101.443 85.2345L100.023 85.5727L101.718 81.5096L98.5086 78.7375L99.9192 78.4017L102.256 80.446L103.412 77.5702L104.832 77.232ZM110.461 83.0874L108.84 76.2778L110.026 75.9952L110.782 79.1666L113.159 75.2494L114.686 74.8858L112.391 78.6292L116.492 81.6514L114.955 82.0174L111.659 79.6154L111.106 80.5285L111.648 82.8049L110.461 83.0874ZM115.868 78.2023C115.388 76.1886 116.527 74.3241 118.56 73.84C120.555 73.3652 122.427 74.451 122.92 76.5231C123.407 78.566 122.232 80.4083 120.237 80.8831C118.224 81.3626 116.361 80.2744 115.868 78.2023ZM117.093 77.9105C117.429 79.3211 118.689 80.0798 119.973 79.7741C121.306 79.4568 122.031 78.2255 121.695 76.8149C121.359 75.4044 120.089 74.6479 118.824 74.949C117.531 75.257 116.757 76.4999 117.093 77.9105ZM129.298 78.6025L127.94 72.9019L125.372 73.5134L125.433 73.7663C126.329 77.5311 126.076 79.4929 124.646 79.8334C124.539 79.8588 124.362 79.8908 124.17 79.9056L123.899 78.7674C123.97 78.761 124.038 78.7447 124.096 78.7308C124.972 78.5224 125.02 77.2156 124.265 74.0442L123.941 72.6823L128.863 71.5103L130.485 78.32L129.298 78.6025ZM136.722 76.8349L135.365 71.1343L132.796 71.7457L132.857 71.9987C133.753 75.7634 133.501 77.7253 132.07 78.0657C131.963 78.0912 131.786 78.1232 131.594 78.138L131.323 76.9998C131.394 76.9933 131.462 76.9771 131.52 76.9632C132.396 76.7548 132.444 75.448 131.689 72.2766L131.365 70.9147L136.287 69.7427L137.909 76.5523L136.722 76.8349ZM139.749 76.1142L138.128 69.3046L143.206 68.0955L143.47 69.2045L139.578 70.131L139.988 71.8529L143.52 71.0121L143.77 72.0627L140.239 72.9035L140.672 74.7226L144.66 73.773L144.924 74.882L139.749 76.1142ZM146.47 74.514L144.849 67.7043L149.829 66.5184L150.094 67.6274L146.3 68.5307L147.657 74.2314L146.47 74.514Z" fill="#191919"/>
</g>
<defs>
<clipPath id="clip0_2832_8965">
<rect x="0.239502" y="51.0142" width="217.312" height="76.4608" rx="12" transform="rotate(-13.3923 0.239502 51.0142)" fill="white"/>
</clipPath>
</defs>
</svg>
