<svg width="223" height="224" viewBox="0 0 223 224" fill="none" xmlns="http://www.w3.org/2000/svg">
<path d="M171.194 61.6601C199.502 93.3075 196.794 141.91 165.147 170.218C133.499 198.525 84.8964 195.818 56.5889 164.171C28.2815 132.523 30.989 83.9202 62.6364 55.6127C94.2837 27.3052 142.887 30.0128 171.194 61.6601Z" fill="#C4B4FF"/>
<path d="M166.588 65.2165C192.828 94.5523 190.318 139.605 160.982 165.845C131.646 192.085 86.5933 189.575 60.3534 160.239C34.1136 130.904 36.6233 85.8506 65.9591 59.6108C95.2949 33.371 140.348 35.8807 166.588 65.2165Z" stroke="#262332" stroke-width="2.17052"/>
<path d="M160.388 70.7635C183.564 96.6742 181.347 136.467 155.437 159.644C129.526 182.82 89.7329 180.603 66.5566 154.692C43.3803 128.781 45.597 88.9885 71.5078 65.8122C97.4186 42.6359 137.212 44.8527 160.388 70.7635Z" stroke="#262332" stroke-width="1.44701"/>
<path fill-rule="evenodd" clip-rule="evenodd" d="M84.1411 99.5277C84.3751 99.4919 84.5613 99.4641 84.6924 99.4448C88.4792 94.5691 91.6456 91.3599 98.236 87.1367L98.6042 87.7112L98.2739 87.1142C105.123 83.3256 109.452 82.0667 115.542 81.0547C115.622 80.9486 115.735 80.798 115.878 80.6092C116.178 80.2117 116.612 79.6443 117.143 78.9636C118.206 77.6027 119.664 75.786 121.241 73.9671C122.815 72.1509 124.519 70.32 126.072 68.9374C126.848 68.2466 127.599 67.6561 128.288 67.2345C128.961 66.8227 129.644 66.5278 130.267 66.5241C130.982 66.5198 131.638 67.0046 132.197 67.599C132.779 68.2187 133.372 69.083 133.957 70.0866C135.131 72.0982 136.33 74.7654 137.403 77.4117C138.479 80.0625 139.436 82.7118 140.124 84.6969C140.468 85.6899 140.745 86.5176 140.936 87.0973C141.017 87.344 141.083 87.5459 141.132 87.6965C141.184 87.7071 141.242 87.7191 141.306 87.7325C141.626 87.7999 142.086 87.9029 142.651 88.0466C143.782 88.3336 145.337 88.7836 147.038 89.436C150.419 90.7326 154.468 92.8629 156.841 96.1827C159.373 99.7244 159.081 103.77 157.339 107.733C155.602 111.684 152.393 115.64 148.924 119.14C145.449 122.648 141.679 125.732 138.782 127.937C137.333 129.041 136.1 129.926 135.229 130.535C134.793 130.84 134.447 131.076 134.21 131.236L134.113 131.302C134.204 133.166 133.696 134.623 132.822 135.836C131.913 137.097 130.625 138.071 129.303 138.972C127.938 139.903 126.42 140.602 124.801 140.782C123.26 140.953 121.659 140.65 120.059 139.68L119.955 139.734C119.702 139.866 119.33 140.058 118.854 140.296C117.904 140.773 116.539 141.437 114.879 142.187C111.561 143.686 107.055 145.535 102.317 146.924C97.5876 148.31 92.5816 149.251 88.2798 148.9C83.965 148.547 80.2678 146.88 78.3567 142.968C76.5653 139.302 76.6169 134.727 77.0845 131.136C77.3197 129.33 77.6637 127.747 77.9489 126.617C78.0916 126.051 78.2197 125.597 78.3126 125.283C78.3311 125.221 78.3482 125.164 78.3637 125.113C78.2544 124.999 78.1082 124.845 77.9299 124.656C77.5108 124.212 76.9144 123.575 76.2046 122.8C74.7856 121.251 72.9104 119.149 71.09 116.942C69.2728 114.739 67.4969 112.416 66.2856 110.427C65.6813 109.434 65.203 108.502 64.9349 107.695C64.6778 106.92 64.5633 106.113 64.907 105.486C65.2065 104.94 65.7909 104.479 66.4732 104.083C67.1719 103.678 68.0487 103.298 69.0253 102.943C70.9803 102.235 73.4011 101.607 75.7475 101.086C78.0974 100.565 80.3887 100.146 82.0914 99.8586C82.9431 99.7146 83.6484 99.6032 84.1411 99.5277ZM85.4321 100.301C89.2096 95.4163 92.2795 92.2721 98.8227 88.0778C105.624 84.3171 109.85 83.1122 115.943 82.1124L116.166 82.0759L116.3 81.8946L115.854 81.5653C116.3 81.8946 116.3 81.8945 116.3 81.8945L116.3 81.894L116.301 81.8922L116.307 81.8847L116.33 81.8543L116.419 81.7346C116.497 81.6295 116.613 81.475 116.762 81.2782C117.06 80.8846 117.49 80.3218 118.017 79.6461C119.073 78.2943 120.519 76.4934 122.079 74.6934C123.641 72.8907 125.308 71.1014 126.809 69.7656C127.56 69.0972 128.256 68.554 128.867 68.1803C129.494 67.7969 129.962 67.6348 130.274 67.633C130.325 67.6327 130.384 67.6416 130.452 67.6625C129.286 72.7597 128.226 82.1748 132.167 84.6973C135.779 87.0087 138.536 88.2686 140.234 88.5288L140.277 88.6663L140.608 88.7245L140.608 88.7245L140.609 88.7247L140.614 88.7256L140.636 88.7295L140.665 88.7349L140.726 88.7464C140.805 88.7618 140.924 88.7853 141.077 88.8176C141.384 88.8822 141.829 88.9818 142.378 89.1213C143.478 89.4005 144.99 89.8381 146.641 90.4713C149.965 91.746 153.76 93.779 155.939 96.8276C155.965 96.8645 155.991 96.9015 156.017 96.9385C154.637 98.4311 151.027 101.251 144.911 103.348C140.999 104.688 137.246 103.987 133.848 103.351C129.899 102.613 126.429 101.964 123.747 104.715C118.756 109.833 123.788 116.475 130.251 120.122C134.841 122.712 137.073 125.695 137.826 127.271C136.514 128.264 135.397 129.064 134.593 129.627C134.162 129.928 133.822 130.16 133.589 130.318C133.473 130.396 133.384 130.456 133.324 130.495L133.257 130.54L133.24 130.551L133.236 130.554L133.235 130.555C133.235 130.555 133.235 130.555 133.539 131.018L133.235 130.555L132.959 130.736L132.986 131.065C133.135 132.824 132.693 134.117 131.922 135.187C131.136 136.279 129.99 137.162 128.678 138.056C127.408 138.922 126.061 139.526 124.678 139.68C123.308 139.832 121.869 139.547 120.387 138.576L120.11 138.395L119.82 138.552L119.84 138.59C119.82 138.552 119.82 138.552 119.819 138.552L119.818 138.552L119.814 138.555L119.797 138.564L119.725 138.602C119.662 138.636 119.567 138.686 119.442 138.751C119.194 138.881 118.827 139.069 118.357 139.305C117.418 139.776 116.067 140.433 114.422 141.176L114.306 141.229C113.277 139.79 111.747 136.424 111.653 131.21C111.519 123.79 108.069 116.204 101.194 118.16C97.498 119.212 96.4184 122.572 95.1896 126.397C94.1323 129.689 92.9645 133.324 89.9244 136.127C85.5193 140.189 81.5904 142.063 79.4715 142.716C79.4311 142.639 79.3917 142.561 79.353 142.482C77.708 139.114 77.7244 134.81 78.1841 131.28C78.4124 129.526 78.7468 127.987 79.0241 126.888C79.1627 126.338 79.2867 125.899 79.3758 125.599C79.4203 125.448 79.4561 125.333 79.4805 125.255C79.4927 125.217 79.502 125.188 79.5082 125.169L79.5151 125.147L79.5167 125.143L79.517 125.142L79.5171 125.142L79.6232 124.823L79.4401 124.633C80.2214 123.22 81.1095 120.155 80.7549 115.345C80.402 110.557 71.1638 106.95 66.2029 105.629C66.3992 105.447 66.6717 105.25 67.03 105.042C67.6491 104.683 68.4581 104.329 69.4032 103.986C71.2919 103.301 73.6589 102.686 75.9878 102.169C78.3132 101.653 80.5848 101.238 82.2762 100.952C83.1215 100.809 83.8211 100.699 84.309 100.624C84.5529 100.586 84.7439 100.558 84.8737 100.539L85.0213 100.518L85.0588 100.512L85.0681 100.511L85.0703 100.51L85.0709 100.51C85.071 100.51 85.071 100.51 84.9935 99.9614L85.071 100.51L85.2942 100.479L85.4321 100.301ZM79.3101 124.658L79.3101 124.658L78.991 124.966L79.3101 124.658ZM98.364 116.096C100.767 114.664 102.082 112.441 101.301 111.131C100.521 109.822 97.9398 109.921 95.5368 111.354C93.1337 112.786 91.8186 115.009 92.5993 116.319C93.38 117.628 95.9609 117.529 98.364 116.096ZM123.936 93.3528C124.717 94.6625 123.402 96.8855 120.999 98.3179C118.596 99.7504 116.015 99.85 115.234 98.5403C114.454 97.2306 115.769 95.0077 118.172 93.5752C120.575 92.1427 123.156 92.0432 123.936 93.3528ZM126.964 134.403C128.712 133.361 129.707 131.809 129.186 130.936C128.666 130.062 126.827 130.199 125.079 131.241C123.332 132.283 122.337 133.835 122.857 134.708C123.378 135.581 125.217 135.445 126.964 134.403ZM107.238 130.091C108.549 129.31 108.979 127.615 108.198 126.305C107.417 124.995 105.722 124.567 104.411 125.348C103.1 126.13 102.671 127.825 103.451 129.135C104.232 130.444 105.928 130.873 107.238 130.091ZM131.933 112.156C132.714 113.466 132.284 115.161 130.973 115.943C129.663 116.724 127.967 116.296 127.186 114.986C126.406 113.676 126.835 111.981 128.146 111.2C129.457 110.418 131.152 110.847 131.933 112.156Z" fill="black" fill-opacity="0.8"/>
<path d="M59.0168 57.2919C86.0064 87.4659 83.5046 133.735 53.4289 160.637L59.0168 57.2919Z" fill="#A490ED"/>
<path d="M53.1878 164.708C23.8845 131.947 27.1701 81.2022 60.5265 51.366L53.1878 164.708Z" fill="#181818"/>
</svg>
