<svg width="223" height="94" viewBox="0 0 223 94" fill="none" xmlns="http://www.w3.org/2000/svg">
<g clip-path="url(#clip0_2832_8909)">
<rect x="6.10156" y="0.0187988" width="217.312" height="76.4608" rx="12" transform="rotate(4.53715 6.10156 0.0187988)" fill="#FEEEB7"/>
<path d="M24.5052 60.9843L18.5077 59.8433L19.125 52.0648L21.0569 52.2181L20.5714 58.3358L23.0919 58.8087C22.8347 58.3961 22.6688 57.4791 22.7562 56.3775C22.9861 53.4796 24.793 51.9859 27.0977 52.1688C29.555 52.3638 31.074 54.4966 30.8656 57.1234C30.6827 59.4281 29.5911 61.1492 27.5866 61.911L26.8256 60.1111C27.9336 59.6875 28.7992 58.6647 28.9256 57.0717C29.0708 55.2415 28.2609 54.2734 26.956 54.1698C25.5663 54.0596 24.6472 55.1122 24.5127 56.8068C24.4132 58.0609 24.7255 58.8531 25.2113 59.6079L24.5052 60.9843ZM25.4235 49.4129L19.4259 48.2719L20.0432 40.4933L21.9751 40.6466L21.4897 46.7644L24.0101 47.2373C23.753 46.8246 23.587 45.9076 23.6744 44.8061C23.9044 41.9082 25.7112 40.4145 28.016 40.5973C30.4732 40.7923 31.9923 42.9252 31.7838 45.5519C31.6009 47.8567 30.5094 49.5777 28.5048 50.3395L27.7438 48.5397C28.8518 48.116 29.7174 47.0933 29.8438 45.5003C29.9891 43.6701 29.1791 42.7019 27.8742 42.5984C26.4846 42.4881 25.5654 43.5407 25.431 45.2354C25.3314 46.4894 25.6438 47.2816 26.1296 48.0364L25.4235 49.4129ZM31.4631 37.344L20.8355 27.0701L22.0237 25.8513L32.6031 36.0873L31.4631 37.344ZM23.0699 38.0252C21.3752 37.8907 20.2952 36.4578 20.4351 34.6953C20.5736 32.9498 21.8661 31.7052 23.5608 31.8397C25.2385 31.9728 26.3185 33.4057 26.18 35.1512C26.0402 36.9137 24.7476 38.1583 23.0699 38.0252ZM23.2071 36.2966C24.0544 36.3639 24.6153 35.7433 24.6718 35.0315C24.7296 34.3028 24.2709 33.6355 23.4236 33.5682C22.5593 33.4996 22.0168 34.1046 21.9603 34.8164C21.9011 35.562 22.3428 36.2281 23.2071 36.2966ZM29.8921 31.353C28.1974 31.2185 27.1344 29.7869 27.2742 28.0245C27.4127 26.2789 28.6883 25.0329 30.383 25.1674C32.0607 25.3006 33.1577 26.7348 33.0192 28.4803C32.8793 30.2428 31.5698 31.4861 29.8921 31.353ZM30.0293 29.6244C30.8936 29.693 31.4375 29.0711 31.4939 28.3593C31.5518 27.6306 31.1101 26.9646 30.2458 26.896C29.3985 26.8287 28.839 27.4324 28.7825 28.1441C28.7233 28.8898 29.1819 29.5572 30.0293 29.6244ZM28.1124 22.1893L26.4855 22.0602L26.7316 18.9589L23.6134 18.7115L23.7479 17.0168L26.8661 17.2643L27.1163 14.1122L28.7431 14.2413L28.493 17.3934L31.6451 17.6435L31.5106 19.3382L28.3585 19.088L28.1124 22.1893Z" fill="#191919"/>
<path d="M53.1733 28.2813L54.1999 28.7439C53.5727 29.9481 52.2956 30.6192 50.8302 30.5029C48.7468 30.3376 47.3709 28.7136 47.5378 26.6102C47.7032 24.5268 49.3494 23.1226 51.4528 23.2895C52.8783 23.4027 54.0703 24.3098 54.4032 25.55L53.3165 25.845C52.9252 24.9612 52.2897 24.4995 51.3626 24.426C49.967 24.3152 48.9094 25.2545 48.7939 26.7099C48.68 28.1454 49.5946 29.2613 50.9702 29.3704C51.9073 29.4448 52.7121 29.0372 53.1733 28.2813ZM55.1456 27.214C55.3093 25.1504 56.9671 23.7271 59.0505 23.8924C61.0941 24.0546 62.5413 25.6641 62.3728 27.7875C62.2067 29.8809 60.5214 31.2719 58.4778 31.1098C56.4143 30.946 54.9771 29.3373 55.1456 27.214ZM56.4016 27.3136C56.2869 28.7591 57.2521 29.8689 58.568 29.9733C59.9337 30.0817 61.0021 29.1332 61.1168 27.6878C61.2315 26.2423 60.2563 25.1317 58.9604 25.0289C57.6345 24.9237 56.5163 25.8682 56.4016 27.3136ZM62.9531 25.4661L63.0433 24.3297L68.8949 24.794L68.8047 25.9304L66.482 25.7461L66.0185 31.5878L64.8023 31.4913L65.2659 25.6496L62.9531 25.4661ZM70.736 31.9621L69.5198 31.8656L70.0736 24.8875L72.9246 25.1138C75.2772 25.3005 75.7321 26.5203 75.6459 27.6069C75.5486 28.833 74.7116 29.9001 72.4985 29.7245L70.9235 29.5995L70.736 31.9621ZM72.8444 26.251L71.1996 26.1205L71.0137 28.4631L72.6186 28.5905C73.765 28.6815 74.3321 28.2349 74.3875 27.5371C74.4405 26.8692 74.0406 26.3459 72.8444 26.251ZM78.0425 32.6623C77.8531 32.6473 77.6055 32.6076 77.4092 32.5519L77.5018 31.3855C77.7072 31.452 77.9233 31.5093 78.0729 31.5211C78.3719 31.5449 78.5233 31.4064 78.8515 30.8105L76.1534 25.37L77.6288 25.4871L79.5585 29.6127L81.7459 25.8138L83.0019 25.9135L79.7734 31.4554C79.2158 32.4143 78.8001 32.7224 78.0425 32.6623ZM81.9406 34.1052L82.1296 31.7227L82.8773 31.782C83.4899 30.8877 83.914 29.3363 84.0675 27.4024L84.1782 26.0068L89.1027 26.3976L88.6392 32.2392L89.5164 32.3088L89.3273 34.6913L88.171 34.5996L88.2699 33.3535L83.1958 32.9509L83.0969 34.1969L81.9406 34.1052ZM85.2444 27.235L85.2238 27.4942C85.0814 29.2885 84.6647 31.0009 84.1433 31.8825L87.423 32.1427L87.7964 27.4375L85.2444 27.235ZM95.5342 33.93L95.7699 30.9593L92.0815 30.6666L91.8458 33.6373L90.6296 33.5408L91.1834 26.5627L92.3995 26.6592L92.1717 29.5302L95.8601 29.8229L96.088 26.9519L97.3041 27.0484L96.7504 34.0265L95.5342 33.93ZM99.6535 34.2568L98.6268 34.1754L99.1805 27.1973L100.397 27.2938L100.005 32.2283L104.265 27.6007L105.301 27.683L104.748 34.6611L103.531 34.5646L103.923 29.6301L99.6535 34.2568ZM106.634 34.8107L107.187 27.8327L108.404 27.9292L108.146 31.179L111.613 28.1839L113.179 28.3081L109.842 31.1631L112.814 35.3012L111.239 35.1762L108.843 31.8763L108.035 32.5746L107.85 34.9073L106.634 34.8107ZM113.282 31.8273C113.445 29.7638 115.103 28.3404 117.187 28.5058C119.23 28.6679 120.677 30.2775 120.509 32.4008C120.343 34.4942 118.657 35.8853 116.614 35.7231C114.55 35.5593 113.113 33.9506 113.282 31.8273ZM114.538 31.927C114.423 33.3724 115.388 34.4822 116.704 34.5867C118.07 34.695 119.138 33.7466 119.253 32.3011C119.367 30.8557 118.392 29.745 117.096 29.6422C115.771 29.537 114.652 30.4815 114.538 31.927ZM121.684 36.005L122.237 29.027L125.278 29.2682C127.152 29.4169 127.672 30.1905 127.591 31.2173C127.532 31.955 127.142 32.4457 126.492 32.675C127.235 32.9245 127.647 33.5391 127.576 34.4362C127.462 35.8717 126.299 36.3713 124.664 36.2415L121.684 36.005ZM124.935 33.2134L123.14 33.0711L122.985 35.0249L124.72 35.1626C125.766 35.2456 126.268 34.9945 126.325 34.2768C126.375 33.6388 125.961 33.2949 124.935 33.2134ZM125.043 30.333L123.368 30.2001L123.223 32.0343L124.997 32.1751C125.784 32.2376 126.271 31.9151 126.317 31.3469C126.366 30.7289 126.05 30.4129 125.043 30.333ZM131.788 36.8069L132.342 29.8288L137.546 30.2417L137.455 31.3782L133.468 31.0617L133.328 32.8262L136.946 33.1133L136.861 34.19L133.242 33.9028L133.094 35.7669L137.182 36.0913L137.091 37.2277L131.788 36.8069ZM137.948 37.2956L141.114 33.8052L138.531 30.32L140.017 30.4378L142.43 33.6488L142.668 30.6482L143.885 30.7448L143.646 33.7553L146.516 30.9536L148.022 31.073L144.907 34.0459L147.498 38.0535L146.042 37.938L143.908 34.6188L143.552 34.9416L143.331 37.7228L142.115 37.6263L142.335 34.8451L142.015 34.4585L139.343 37.4064L137.948 37.2956ZM148.649 38.1448L149.203 31.1668L154.406 31.5797L154.316 32.7161L150.329 32.3997L150.189 34.1641L153.807 34.4513L153.722 35.5279L150.103 35.2408L149.955 37.1049L154.042 37.4292L153.952 38.5657L148.649 38.1448ZM155.536 38.6914L156.09 31.7133L161.194 32.1183L161.104 33.2547L157.216 32.9462L156.752 38.7879L155.536 38.6914ZM161.512 35.6546C161.676 33.5911 163.334 32.1678 165.417 32.3331C167.461 32.4953 168.908 34.1048 168.74 36.2281C168.574 38.3215 166.888 39.7126 164.845 39.5504C162.781 39.3867 161.344 37.7779 161.512 35.6546ZM162.768 35.7543C162.654 37.1997 163.619 38.3096 164.935 38.414C166.301 38.5223 167.369 37.5739 167.484 36.1284C167.598 34.683 166.623 33.5724 165.327 33.4695C164.001 33.3643 162.883 34.3088 162.768 35.7543ZM168.784 40.9966L168.973 38.6141L169.721 38.6734C170.334 37.7791 170.758 36.2278 170.911 34.2938L171.022 32.8982L175.947 33.289L175.483 39.1306L176.36 39.2002L176.171 41.5828L175.015 41.491L175.114 40.2449L170.04 39.8423L169.941 41.0884L168.784 40.9966ZM172.088 34.1264L172.068 34.3856C171.925 36.18 171.508 37.8924 170.987 38.7739L174.267 39.0341L174.64 34.3289L172.088 34.1264ZM182.378 40.8214L182.614 37.8507L178.925 37.558L178.69 40.5287L177.473 40.4322L178.027 33.4541L179.243 33.5506L179.016 36.4216L182.704 36.7143L182.932 33.8433L184.148 33.9398L183.594 40.9179L182.378 40.8214ZM185.319 37.5437C185.483 35.4802 187.14 34.0569 189.224 34.2222C191.267 34.3844 192.715 35.9939 192.546 38.1172C192.38 40.2107 190.695 41.6017 188.651 41.4395C186.588 41.2758 185.15 39.6671 185.319 37.5437ZM186.575 37.6434C186.46 39.0889 187.425 40.1987 188.741 40.3031C190.107 40.4115 191.175 39.463 191.29 38.0176C191.405 36.5721 190.43 35.4615 189.134 35.3587C187.808 35.2534 186.69 36.1979 186.575 37.6434ZM51.3279 45.4692L51.7914 39.6275L48.1828 39.3412L47.7192 45.1828L46.503 45.0863L47.0568 38.1082L53.0978 38.5876L52.544 45.5657L51.3279 45.4692ZM55.6482 45.812L54.432 45.7155L54.9858 38.7374L57.8368 38.9637C60.1894 39.1504 60.6443 40.3702 60.5581 41.4567C60.4608 42.6829 59.6238 43.75 57.4107 43.5744L55.8357 43.4494L55.6482 45.812ZM57.7566 40.1009L56.1118 39.9704L55.9259 42.313L57.5308 42.4404C58.6772 42.5313 59.2443 42.0848 59.2997 41.387C59.3527 40.7191 58.9528 40.1958 57.7566 40.1009ZM61.4109 42.7583C61.5747 40.6948 63.2325 39.2715 65.3159 39.4368C67.3595 39.599 68.8067 41.2085 68.6382 43.3318C68.4721 45.4252 66.7868 46.8163 64.7432 46.6541C62.6797 46.4903 61.2424 44.8816 61.4109 42.7583ZM62.667 42.858C62.5523 44.3034 63.5175 45.4133 64.8334 45.5177C66.1991 45.626 67.2675 44.6776 67.3822 43.2321C67.4969 41.7867 66.5217 40.6761 65.2258 40.5732C63.8999 40.468 62.7817 41.4125 62.667 42.858ZM75.8678 40.3945L73.1135 43.6267L75.3939 47.3789L73.9484 47.2642L72.274 44.473L70.1802 46.9652L68.7248 46.8497L71.5883 43.5057L69.3882 39.8803L70.8337 39.995L72.4279 42.6595L74.4124 40.279L75.8678 40.3945ZM76.0326 43.9186C76.1963 41.8551 77.8541 40.4317 79.9375 40.5971C81.9811 40.7592 83.4283 42.3688 83.2598 44.4921C83.0937 46.5855 81.4084 47.9765 79.3648 47.8144C77.3013 47.6506 75.8641 46.0419 76.0326 43.9186ZM77.2886 44.0182C77.1739 45.4637 78.1391 46.5735 79.455 46.678C80.8207 46.7863 81.8891 45.8379 82.0038 44.3924C82.1185 42.947 81.1433 41.8363 79.8474 41.7335C78.5215 41.6283 77.4033 42.5728 77.2886 44.0182ZM83.3046 49.2606L83.4936 46.8781L84.2413 46.9374C84.8539 46.0431 85.278 44.4917 85.4315 42.5578L85.5422 41.1622L90.4667 41.553L90.0032 47.3946L90.8804 47.4642L90.6913 49.8467L89.535 49.755L89.6339 48.5089L84.5598 48.1062L84.4609 49.3523L83.3046 49.2606ZM86.6084 42.3904L86.5878 42.6496C86.4454 44.4439 86.0287 46.1563 85.5073 47.0379L88.787 47.2981L89.1604 42.5929L86.6084 42.3904ZM96.4167 49.0471L96.6105 46.6048L94.8959 46.4688L92.9077 48.7687L91.4822 48.6556L93.6756 46.1713C92.7001 45.823 92.1804 45.0395 92.2627 44.0027C92.3719 42.6271 93.3717 41.7835 95.2359 41.9314L98.1866 42.1656L97.6329 49.1436L96.4167 49.0471ZM94.8066 45.3181L96.7007 45.4684L96.8802 43.2055L95.0859 43.0631C94.0093 42.9777 93.5718 43.4345 93.5188 44.1024C93.4705 44.7105 93.8895 45.2453 94.8066 45.3181ZM99.2698 43.3951L99.3599 42.2587L105.212 42.723L105.121 43.8595L102.799 43.6752L102.335 49.5168L101.119 49.4203L101.582 43.5786L99.2698 43.3951ZM108.571 46.5006C108.735 44.4371 110.392 43.0138 112.476 43.1791C114.519 43.3413 115.967 44.9508 115.798 47.0741C115.632 49.1676 113.947 50.5586 111.903 50.3964C109.84 50.2327 108.402 48.624 108.571 46.5006ZM109.827 46.6003C109.712 48.0458 110.677 49.1556 111.993 49.26C113.359 49.3684 114.427 48.4199 114.542 46.9745C114.657 45.529 113.682 44.4184 112.386 44.3155C111.06 44.2103 109.942 45.1548 109.827 46.6003ZM122.73 44.1132L122.641 45.2397L118.653 44.9233L118.526 46.5282L120.45 46.6809C122.185 46.8185 122.951 47.6518 122.847 48.9577C122.728 50.4629 121.578 51.0438 119.844 50.9062L116.973 50.6784L117.527 43.7003L122.73 44.1132ZM120.244 47.758L118.44 47.6148L118.278 49.6484L120.043 49.7884C120.97 49.862 121.533 49.5957 121.592 48.848C121.644 48.1901 121.201 47.8339 120.244 47.758ZM125.651 51.4874C125.462 51.4724 125.214 51.4327 125.018 51.377L125.111 50.2106C125.316 50.2771 125.532 50.3344 125.682 50.3462C125.981 50.37 126.132 50.2315 126.46 49.6356L123.762 44.1951L125.238 44.3122L127.167 48.4378L129.355 44.6389L130.611 44.7386L127.382 50.2805C126.825 51.2394 126.409 51.5475 125.651 51.4874ZM137.154 45.2578L136.601 52.2359L135.385 52.1394L135.607 49.3382C135.18 49.5351 134.328 49.648 133.641 49.5935C131.916 49.4566 131.047 48.5249 131.171 46.9599L131.343 44.7967L132.559 44.8932L132.403 46.857C132.323 47.8638 132.834 48.3858 134 48.4784C134.558 48.5227 135.179 48.4114 135.699 48.1818L135.938 45.1613L137.154 45.2578ZM137.675 52.3211L141.27 45.5744L142.336 45.659L144.812 52.8875L143.536 52.7863L142.999 51.2089L139.7 50.947L138.921 52.42L137.675 52.3211ZM140.224 49.9052L142.646 50.0974L141.655 47.1698L140.224 49.9052ZM145.885 52.9727L146.439 45.9946L147.655 46.0911L147.428 48.9521L148.445 49.0328C148.831 47.328 150.246 46.1764 152.101 46.3235C154.194 46.4896 155.44 48.1033 155.273 50.2067C155.109 52.2801 153.571 53.703 151.528 53.5408C149.664 53.3929 148.397 52.0384 148.345 50.1684L147.338 50.0885L147.101 53.0692L145.885 52.9727ZM149.561 49.7534C149.445 51.2188 150.322 52.3016 151.608 52.4036C152.914 52.5072 153.898 51.6123 154.017 50.107C154.138 48.5917 153.266 47.5596 151.99 47.4584C150.685 47.3547 149.679 48.2681 149.561 49.7534ZM156.452 53.8112L157.006 46.8332L158.222 46.9297L157.759 52.7713L160.042 52.9524L160.505 47.1108L161.721 47.2073L161.258 53.049L163.541 53.2301L164.004 47.3885L165.22 47.485L164.757 53.3266L165.644 53.397L165.455 55.7795L164.298 55.6878L164.397 54.4417L156.452 53.8112ZM167.774 54.7096L166.747 54.6281L167.301 47.6501L168.517 47.7466L168.125 52.6811L172.385 48.0535L173.421 48.1358L172.868 55.1138L171.651 55.0173L172.043 50.0828L167.774 54.7096ZM174.754 55.2635L175.308 48.2854L180.511 48.6984L180.421 49.8348L176.434 49.5184L176.293 51.2828L179.912 51.57L179.827 52.6466L176.208 52.3595L176.06 54.2236L180.147 54.5479L180.057 55.6844L174.754 55.2635ZM50.1413 60.4222L50.6048 54.5805L46.9962 54.2942L46.5326 60.1358L45.3165 60.0393L45.8702 53.0612L51.9112 53.5406L51.3575 60.5187L50.1413 60.4222ZM54.4616 60.765L53.2454 60.6685L53.7992 53.6904L56.6502 53.9167C59.0028 54.1033 59.4577 55.3232 59.3715 56.4097C59.2742 57.6359 58.4372 58.703 56.2241 58.5274L54.6491 58.4024L54.4616 60.765ZM56.57 55.0539L54.9252 54.9234L54.7393 57.266L56.3442 57.3933C57.4906 57.4843 58.0577 57.0378 58.1131 56.34C58.1661 55.6721 57.7662 55.1488 56.57 55.0539ZM60.2244 57.7113C60.3881 55.6478 62.0459 54.2244 64.1293 54.3898C66.1729 54.5519 67.6201 56.1615 67.4516 58.2848C67.2855 60.3782 65.6002 61.7693 63.5566 61.6071C61.4931 61.4433 60.0559 59.8346 60.2244 57.7113ZM61.4804 57.811C61.3657 59.2564 62.3309 60.3662 63.6468 60.4707C65.0125 60.579 66.0809 59.6306 66.1956 58.1851C66.3103 56.7397 65.3351 55.629 64.0392 55.5262C62.7133 55.421 61.5951 56.3655 61.4804 57.811ZM68.6264 61.889L69.1801 54.911L74.2841 55.316L74.1939 56.4524L70.3061 56.1439L69.8426 61.9855L68.6264 61.889ZM76.1263 62.4842L74.9101 62.3877L75.4639 55.4096L78.3149 55.6358C80.6675 55.8225 81.1225 57.0423 81.0362 58.1289C80.9389 59.3551 80.1019 60.4222 77.8888 60.2466L76.3138 60.1216L76.1263 62.4842ZM78.2347 56.7731L76.5899 56.6425L76.404 58.9852L78.0089 59.1125C79.1553 59.2035 79.7224 58.757 79.7778 58.0592C79.8308 57.3913 79.4309 56.868 78.2347 56.7731ZM80.4938 62.8307L84.0887 56.084L85.1554 56.1686L87.6313 63.3971L86.3553 63.2959L85.8184 61.7185L82.5188 61.4566L81.7398 62.9296L80.4938 62.8307ZM83.0429 60.4148L85.4652 60.607L84.4737 57.6794L83.0429 60.4148ZM88.7043 63.4823L89.258 56.5042L91.0623 56.6474L92.5055 61.8479L94.6411 56.9314L96.3956 57.0706L95.8418 64.0487L94.6257 63.9522L95.0576 58.5093L92.6718 63.7971L91.9441 63.7394L90.3508 58.1558L89.9205 63.5788L88.7043 63.4823ZM97.7139 64.1972L98.2676 57.2192L100.072 57.3623L101.515 62.5628L103.651 57.6463L105.405 57.7856L104.851 64.7636L103.635 64.6671L104.067 59.2242L101.681 64.5121L100.954 64.4543L99.3604 58.8708L98.93 64.2937L97.7139 64.1972ZM112.884 65.401L113.438 58.423L114.654 58.5195L114.1 65.4976L112.884 65.401ZM109.564 61.7269L108.209 61.6193L108.03 63.8723L109.366 63.9783C110.442 64.0637 111.001 63.7268 111.064 62.9293C111.12 62.2215 110.631 61.8116 109.564 61.7269ZM106.723 64.9122L107.277 57.9341L108.493 58.0306L108.299 60.4829L109.684 60.5929C111.558 60.7416 112.431 61.6334 112.321 63.019C112.199 64.5542 111.08 65.2579 109.245 65.1123L106.723 64.9122Z" fill="#191919"/>
</g>
<defs>
<clipPath id="clip0_2832_8909">
<rect x="6.10156" y="0.0187988" width="217.312" height="76.4608" rx="12" transform="rotate(4.53715 6.10156 0.0187988)" fill="white"/>
</clipPath>
</defs>
</svg>
