<svg width="293" height="145" viewBox="0 0 293 145" fill="none" xmlns="http://www.w3.org/2000/svg">
<path d="M0.14 40.39V39.2H8.232V40.39H4.816V49H3.542V40.39H0.14ZM7.83409 45.346C7.83409 43.176 9.40209 41.594 11.6981 41.594C13.9661 41.594 15.5621 43.176 15.5621 45.346C15.5621 47.544 13.9801 49.126 11.6841 49.126C9.44409 49.126 7.83409 47.544 7.83409 45.346ZM9.06609 45.346C9.06609 46.914 10.1441 48.02 11.6841 48.02C13.2521 48.02 14.3301 46.928 14.3301 45.346C14.3301 43.778 13.1961 42.7 11.6841 42.7C10.1721 42.7 9.06609 43.764 9.06609 45.346ZM22.1294 49V42.826H18.9934V43.26C18.9934 47.236 18.2094 49.126 16.5154 49.126C16.3754 49.126 16.2494 49.112 16.1514 49.098V47.964C16.2214 47.978 16.3334 47.978 16.4314 47.978C17.3974 47.978 17.8734 46.606 17.8734 43.26V41.72H23.3054V49H22.1294ZM25.5516 49V41.72H26.7276V43.988H28.6036C30.8996 43.988 31.5856 45.136 31.5856 46.48C31.5856 47.782 30.8156 49 28.4916 49H25.5516ZM28.4496 45.094H26.7276V47.894H28.4496C29.8636 47.894 30.3536 47.39 30.3536 46.494C30.3536 45.584 29.8216 45.094 28.4496 45.094ZM33.1532 49V41.72H34.3292V44.982L37.9412 41.72H39.5932L35.8272 45.066L39.7752 49H38.1232L34.9312 45.794L34.3292 46.354V49H33.1532ZM40.2364 45.346C40.2364 43.176 41.8044 41.594 44.1004 41.594C46.3684 41.594 47.9644 43.176 47.9644 45.346C47.9644 47.544 46.3824 49.126 44.0864 49.126C41.8464 49.126 40.2364 47.544 40.2364 45.346ZM41.4684 45.346C41.4684 46.914 42.5464 48.02 44.0864 48.02C45.6544 48.02 46.7324 46.928 46.7324 45.346C46.7324 43.778 45.5984 42.7 44.0864 42.7C42.5744 42.7 41.4684 43.764 41.4684 45.346ZM52.6827 42.826V41.72H59.1787V42.826H56.5047V49H55.3287V42.826H52.6827ZM63.4852 49.126C61.2592 49.126 59.7052 47.572 59.7052 45.346C59.7052 43.176 61.3152 41.552 63.4852 41.552C65.6412 41.552 67.1252 43.008 67.1252 45.136C67.1252 45.346 67.1112 45.584 67.0972 45.766H60.9092C60.9792 47.068 62.0572 48.02 63.4852 48.02C64.5492 48.02 65.2212 47.642 65.7812 46.746L66.8452 47.138C66.2572 48.426 65.0952 49.126 63.4852 49.126ZM63.4852 42.658C62.1692 42.658 61.1192 43.484 60.9652 44.66H65.9212C65.8792 43.554 64.8012 42.658 63.4852 42.658ZM72.2404 49.126C69.9304 49.126 68.4044 47.586 68.4044 44.772C68.4044 41.216 68.7964 39.984 69.9164 39.298C70.9664 38.654 72.0864 38.864 73.1924 38.864C74.0744 38.864 74.3544 38.752 74.3544 38.388H75.4044C75.4044 39.578 74.8724 39.97 73.2904 39.97C72.4644 39.97 71.3584 39.76 70.5184 40.25C69.8184 40.656 69.6084 41.37 69.5384 43.372C70.1964 42.364 71.2884 41.86 72.5204 41.86C74.5364 41.86 75.9364 43.218 75.9364 45.416C75.9364 47.488 74.4384 49.126 72.2404 49.126ZM72.2264 48.02C73.8784 48.02 74.7044 46.9 74.7044 45.486C74.7044 44.016 73.8504 42.966 72.2684 42.966C70.5324 42.966 69.6364 44.086 69.6364 45.248C69.6364 46.886 70.7004 48.02 72.2264 48.02ZM80.3328 41.72H83.2588V49H82.0828V46.424H80.3048L78.1488 49H76.7208L79.0448 46.242C77.9248 46.06 77.1828 45.178 77.1828 44.058C77.1828 42.812 77.9808 41.72 80.3328 41.72ZM78.4148 44.086C78.4148 44.814 79.0728 45.318 80.1648 45.318H82.0828V42.826H80.1928C78.9048 42.826 78.4148 43.344 78.4148 44.086ZM94.8726 49V45.85H90.6026V49H89.4266V41.72H90.6026V44.744H94.8726V41.72H96.0486V49H94.8726ZM99.014 43.974L97.95 43.582C98.412 42.308 99.574 41.594 101.142 41.594C103.116 41.594 104.11 42.63 104.11 44.702V49H102.934V47.74C102.556 48.524 101.436 49.126 100.26 49.126C98.748 49.126 97.726 48.258 97.726 46.956C97.726 45.29 99.168 44.66 102.934 44.66C102.934 43.316 102.36 42.7 101.114 42.7C100.022 42.7 99.308 43.134 99.014 43.974ZM100.498 48.02C101.926 48.02 102.934 47.138 102.934 45.892V45.626C99.938 45.626 98.958 45.962 98.958 46.956C98.958 47.614 99.546 48.02 100.498 48.02ZM106.188 49V41.72H108.008L110.094 47.278L112.11 41.72H113.86V49H112.684V43.092L110.458 49H109.674L107.364 43.092V49H106.188ZM2.17 64H1.12V56.72H2.296V62.18L6.762 56.72H7.812V64H6.636V58.554L2.17 64ZM19.4176 64V60.85H15.1476V64H13.9716V56.72H15.1476V59.744H19.4176V56.72H20.5936V64H19.4176ZM26.0789 64.126C23.8529 64.126 22.2989 62.572 22.2989 60.346C22.2989 58.176 23.9089 56.552 26.0789 56.552C28.2349 56.552 29.7189 58.008 29.7189 60.136C29.7189 60.346 29.7049 60.584 29.6909 60.766H23.5029C23.5729 62.068 24.6509 63.02 26.0789 63.02C27.1429 63.02 27.8149 62.642 28.3749 61.746L29.4389 62.138C28.8509 63.426 27.6889 64.126 26.0789 64.126ZM26.0789 57.658C24.7629 57.658 23.7129 58.484 23.5589 59.66H28.5149C28.4729 58.554 27.3949 57.658 26.0789 57.658ZM34.306 64L37.008 60.248L34.46 56.72H35.93L37.89 59.492L39.864 56.72H41.292L38.716 60.234L41.432 64H39.962L37.848 60.976L35.706 64H34.306ZM42.6962 64V56.72H45.7202C47.7222 56.72 48.7022 57.196 48.7022 58.582C48.7022 59.296 48.2402 59.94 47.4842 60.164C48.4502 60.374 48.9402 61.032 48.9402 61.914C48.9402 63.272 47.8622 64 45.9442 64H42.6962ZM45.9582 60.836H43.8722V62.894H45.8182C47.0642 62.894 47.7082 62.586 47.7082 61.872C47.7082 61.13 47.1482 60.836 45.9582 60.836ZM45.6782 57.826H43.8722V59.73H46.0842C46.9522 59.73 47.4702 59.394 47.4702 58.736C47.4702 57.966 46.7282 57.826 45.6782 57.826ZM51.5179 58.974L50.4539 58.582C50.9159 57.308 52.0779 56.594 53.6459 56.594C55.6199 56.594 56.6139 57.63 56.6139 59.702V64H55.4379V62.74C55.0599 63.524 53.9399 64.126 52.7639 64.126C51.2519 64.126 50.2299 63.258 50.2299 61.956C50.2299 60.29 51.6719 59.66 55.4379 59.66C55.4379 58.316 54.8639 57.7 53.6179 57.7C52.5259 57.7 51.8119 58.134 51.5179 58.974ZM53.0019 63.02C54.4299 63.02 55.4379 62.138 55.4379 60.892V60.626C52.4419 60.626 51.4619 60.962 51.4619 61.956C51.4619 62.614 52.0499 63.02 53.0019 63.02ZM57.6455 57.826V56.72H64.1415V57.826H61.4675V64H60.2915V57.826H57.6455ZM66.1195 58.974L65.0555 58.582C65.5175 57.308 66.6795 56.594 68.2475 56.594C70.2215 56.594 71.2155 57.63 71.2155 59.702V64H70.0395V62.74C69.6615 63.524 68.5415 64.126 67.3655 64.126C65.8535 64.126 64.8315 63.258 64.8315 61.956C64.8315 60.29 66.2735 59.66 70.0395 59.66C70.0395 58.316 69.4655 57.7 68.2195 57.7C67.1275 57.7 66.4135 58.134 66.1195 58.974ZM67.6035 63.02C69.0315 63.02 70.0395 62.138 70.0395 60.892V60.626C67.0435 60.626 66.0635 60.962 66.0635 61.956C66.0635 62.614 66.6515 63.02 67.6035 63.02ZM78.3618 64V57.826H75.2258V58.26C75.2258 62.236 74.4418 64.126 72.7478 64.126C72.6078 64.126 72.4818 64.112 72.3838 64.098V62.964C72.4538 62.978 72.5658 62.978 72.6638 62.978C73.6298 62.978 74.1058 61.606 74.1058 58.26V56.72H79.5378V64H78.3618ZM81.2521 60.346C81.2521 58.176 82.8201 56.594 85.1161 56.594C87.3841 56.594 88.9801 58.176 88.9801 60.346C88.9801 62.544 87.3981 64.126 85.1021 64.126C82.8621 64.126 81.2521 62.544 81.2521 60.346ZM82.4841 60.346C82.4841 61.914 83.5621 63.02 85.1021 63.02C86.6701 63.02 87.7481 61.928 87.7481 60.346C87.7481 58.778 86.6141 57.7 85.1021 57.7C83.5901 57.7 82.4841 58.764 82.4841 60.346ZM91.1185 61.298V54.2H92.3505V61.298H91.1185ZM90.8525 63.202C90.8525 62.824 91.2025 62.418 91.7205 62.418C92.2105 62.418 92.5605 62.824 92.5605 63.202C92.5605 63.636 92.2105 64.028 91.7205 64.028C91.2025 64.028 90.8525 63.636 90.8525 63.202Z" fill="#C4B4FF"/>
<path d="M139.465 111.075C105.671 130.832 54.7193 123.033 49.0002 83" stroke="#C4B4FF" stroke-width="1.2"/>
<circle cx="220.476" cy="72.4758" r="72.4758" fill="#C4B4FF"/>
<path d="M203.8 53.9253C205.486 50.027 208.18 41.8798 205.468 40.4777C202.079 38.725 188.43 52.8426 181.719 53.6868C191.662 57.2291 200.437 55.4145 203.8 53.9253Z" fill="#191919"/>
<path d="M213.111 38.2997C210.94 39.3977 215.411 44.6939 217.918 47.2047C218.949 44.0027 219.536 41.3477 219.7 39.0998C218.408 38.3756 215.281 37.2018 213.111 38.2997Z" fill="#191919"/>
<path d="M255.568 117.647C240.703 104.691 236.651 98.6557 236.367 83.5685C232.501 85.6002 229.507 88.3498 227.258 91.2171C226.719 105.692 225.507 114.101 239.316 123.972C243.722 123.509 251.093 120.635 255.568 117.647Z" fill="#191919"/>
<path d="M248.121 80.3179C247.18 80.3852 246.268 80.4892 245.385 80.6269C244.64 80.7431 243.916 80.8832 243.212 81.0455C247.092 92.4757 252.79 98.4632 269.85 102.703C272.83 97.1127 273.131 90.9047 272.817 87.6439C272.612 85.5176 272.363 83.5532 272.084 81.7242C261.944 82.7871 256.967 80.5874 248.717 74.2711C248.513 76.2182 248.332 78.2332 248.121 80.3179Z" fill="#191919"/>
<path d="M267.603 47.039C267.776 46.2135 266.936 45.523 266.185 45.9076C257.9 50.1514 253.755 55.0897 251.495 60.812C257.55 65.635 261.238 67.1321 268.68 66.3887C267.029 60.0136 265.954 54.8681 267.603 47.039Z" fill="#191919"/>
<path d="M236.483 51.9535C235.25 50.8854 233.101 52.5692 231.431 58.6317C233.501 59.5911 234.638 59.9493 236.484 59.0387C236.626 55.5186 237.28 52.6441 236.483 51.9535Z" fill="#191919"/>
<path d="M212.173 57.2481C209.975 58.0755 207.722 59.2666 207.766 60.3493C207.802 61.2446 210.055 61.1746 213.065 61.0185C214.579 59.2805 213.102 57.7807 212.173 57.2481Z" fill="#191919"/>
<path d="M219.246 52.5629C220.595 51.3889 221.407 49.9529 219.424 48.2424C218.252 47.8235 216.285 49.2733 216.165 50.594C216.042 51.9602 217.552 52.6858 219.246 52.5629Z" fill="#191919"/>
<path d="M196.407 64.3653C197.207 63.976 197.885 63.6703 198.407 63.4682C202.994 61.6897 204.534 59.1317 201.487 58.352C200.738 58.1605 198.413 58.0448 195.29 58.3384C194.459 59.72 193.564 62.8012 196.407 64.3653Z" fill="#191919"/>
<path d="M191.635 73.8393C192.736 70.201 194.188 66.9512 196.306 67.0636C198.424 67.1761 197.069 70.6122 196.425 75.6549C193.834 76.4091 192.152 74.7588 191.635 73.8393Z" fill="#191919"/>
<path d="M178.078 39.9656C180.023 35.0139 182 28.7456 177.47 22.9836C174.896 25.8315 175.97 35.9824 178.078 39.9656Z" fill="#191919"/>
<path d="M209.296 25.5158C210.739 26.1999 212.043 26.8687 213.201 27.5584C213.139 24.3409 211.018 17.2287 209.482 16.7075C207.518 20.6922 208.539 24.24 209.296 25.5158Z" fill="#191919"/>
<path d="M221.921 101.955C222.56 99.134 224.236 95.0694 227.258 91.2171M172.543 77.4681C165.333 114.886 210.265 127.903 222.302 121.241C228.453 123.777 234.144 124.515 239.316 123.972M172.543 77.4681C168.697 77.9173 169.054 73.1963 170.286 68.3782C171.72 62.7707 175.771 55.5666 179.043 52.6109M172.543 77.4681C178.691 76.7501 190.616 67.1809 196.407 64.3653M179.043 52.6109C177.82 52.0031 175.506 49.817 176.027 45.9354C176.236 44.3729 177.154 42.3178 178.078 39.9656M179.043 52.6109C179.942 53.0145 180.835 53.3718 181.719 53.6868M177.47 22.9836C182 28.7456 180.023 35.0139 178.078 39.9656M177.47 22.9836C174.896 25.8315 175.97 35.9824 178.078 39.9656M177.47 22.9836C178.591 21.9959 185.27 23.7361 188.83 25.8896C193.773 23.7961 197.241 22.2204 202.238 23.0981M209.296 25.5158C206.555 24.2175 204.27 23.455 202.238 23.0981M209.296 25.5158C210.739 26.1999 212.043 26.8687 213.201 27.5584M209.296 25.5158C208.539 24.24 207.518 20.6922 209.482 16.7075M217.918 47.2047C215.411 44.6939 210.94 39.3977 213.111 38.2997C215.281 37.2018 218.408 38.3756 219.7 39.0998M217.918 47.2047C218.949 44.0027 219.536 41.3477 219.7 39.0998M217.918 47.2047C218.539 47.5612 219.035 47.9071 219.424 48.2424M203.8 53.9253C205.824 54.7739 210.501 56.3094 216.091 54.3473C217.602 53.8168 219.078 52.6887 219.246 52.5629M203.8 53.9253C205.486 50.027 208.18 41.8798 205.468 40.4777C202.079 38.725 188.43 52.8426 181.719 53.6868M203.8 53.9253C200.437 55.4145 191.662 57.2291 181.719 53.6868M219.7 39.0998C220.119 33.3949 217.824 30.3113 213.201 27.5584M202.238 23.0981C203.476 20.5684 206.657 15.7487 209.482 16.7075M209.482 16.7075C211.018 17.2287 213.139 24.3409 213.201 27.5584M219.246 52.5629C222.668 54.5205 229.729 59.1999 230.6 62.2567M219.246 52.5629C220.595 51.3889 221.407 49.9529 219.424 48.2424M219.246 52.5629C217.552 52.6858 216.042 51.9602 216.165 50.594C216.285 49.2733 218.252 47.8235 219.424 48.2424M230.6 62.2567C230.204 64.5743 230.075 66.0561 230.051 70.1297M230.6 62.2567C230.857 60.9062 231.136 59.7009 231.431 58.6317M245.385 80.6269C246.268 80.4892 247.18 80.3852 248.121 80.3179C248.332 78.2332 248.513 76.2182 248.717 74.2711M245.385 80.6269C244.953 76.8506 243.893 73.0371 238.18 70.1741C236.53 67.2691 236.368 61.9231 236.484 59.0387M245.385 80.6269C244.64 80.7431 243.916 80.8832 243.212 81.0455M181.698 61.8509C186.476 59.6655 191.478 58.6969 195.29 58.3384M217.774 55.7955C216.02 56.0251 214.018 56.5538 212.173 57.2481M224.846 61.6704C221.568 60.5072 216.749 60.8274 213.065 61.0185M186.603 86.153C189.266 83.1026 190.465 77.7054 191.635 73.8393M204.13 108.032C212.88 93.4434 201.552 84.6416 197.436 83.5887C197.148 82.0016 196.25 77.0247 196.425 75.6549M251.495 60.812C253.755 55.0897 257.9 50.1514 266.185 45.9076C266.936 45.523 267.776 46.2135 267.603 47.039C265.954 54.8681 267.029 60.0136 268.68 66.3887M251.495 60.812C257.55 65.635 261.238 67.1321 268.68 66.3887M251.495 60.812C249.884 64.8895 249.23 69.3651 248.717 74.2711M268.68 66.3887C269.769 70.5921 271.108 75.33 272.084 81.7242M248.717 74.2711C256.967 80.5874 261.944 82.7871 272.084 81.7242M272.084 81.7242C272.363 83.5532 272.612 85.5176 272.817 87.6439C273.131 90.9047 272.83 97.1127 269.85 102.703M243.212 81.0455C247.092 92.4757 252.79 98.4632 269.85 102.703M243.212 81.0455C240.676 81.6294 238.401 82.4996 236.367 83.5685M269.85 102.703C266.352 108.302 262.281 113.165 255.568 117.647M236.367 83.5685C236.651 98.6557 240.703 104.691 255.568 117.647M236.367 83.5685C232.501 85.6002 229.507 88.3498 227.258 91.2171M255.568 117.647C251.093 120.635 243.722 123.509 239.316 123.972M227.258 91.2171C226.719 105.692 225.507 114.101 239.316 123.972M195.29 58.3384C198.413 58.0448 200.738 58.1605 201.487 58.352C204.534 59.1317 202.994 61.6897 198.407 63.4682C197.885 63.6703 197.207 63.976 196.407 64.3653M195.29 58.3384C194.459 59.72 193.564 62.8012 196.407 64.3653M212.173 57.2481C209.975 58.0755 207.722 59.2666 207.766 60.3493C207.802 61.2446 210.055 61.1746 213.065 61.0185M212.173 57.2481C213.102 57.7807 214.579 59.2804 213.065 61.0185M191.635 73.8393C192.736 70.201 194.188 66.9512 196.306 67.0636C198.424 67.1761 197.069 70.6122 196.425 75.6549M191.635 73.8393C192.152 74.7588 193.834 76.4091 196.425 75.6549M231.431 58.6317C233.101 52.5692 235.25 50.8854 236.483 51.9535C237.28 52.6441 236.626 55.5186 236.484 59.0387M231.431 58.6317C233.501 59.5911 234.638 59.9493 236.484 59.0387" stroke="#191919" stroke-linecap="round"/>
<rect x="201.818" y="43.9121" width="3.2863" height="3.2863" rx="1.64315" transform="rotate(14.3485 201.818 43.9121)" fill="#C4B4FF"/>
<rect width="1.76618" height="1.93015" rx="0.88309" transform="matrix(0.937801 -0.347174 0.347227 0.937781 215.926 41.2129)" fill="#C4B4FF"/>
<ellipse cx="196.605" cy="35.1161" rx="2.62904" ry="1.31452" transform="rotate(-15.6515 196.605 35.1161)" fill="#191919"/>
<ellipse cx="215.975" cy="34.9825" rx="1.64315" ry="0.985891" transform="rotate(14.3485 215.975 34.9825)" fill="#191919"/>
</svg>
