<svg width="445" height="220" viewBox="0 0 445 220" fill="none" xmlns="http://www.w3.org/2000/svg">
<g clip-path="url(#clip0_2365_44581)">
<rect width="445" height="220" fill="#171717"/>
<path fill-rule="evenodd" clip-rule="evenodd" d="M408.5 211C408.5 215.41 405.43 220 401.02 220H16C7.16345 220 0 212.837 0 204V16C0 7.16344 7.16344 0 16 0H429C437.837 0 445 7.16344 445 16V177.36C445 183.118 438.258 187 432.5 187C419.245 187 408.5 197.745 408.5 211Z" fill="#272727"/>
<rect y="204" width="18" height="16" fill="#272727"/>
<rect y="204" width="18" height="16" fill="#272727"/>
<rect y="204" width="18" height="16" fill="#272727"/>
<rect width="18" height="16" fill="#272727"/>
<rect width="18" height="16" fill="#272727"/>
<rect width="18" height="16" fill="#272727"/>
<rect x="427" width="18" height="16" fill="#272727"/>
<rect x="427" width="18" height="16" fill="#272727"/>
<rect x="427" width="18" height="16" fill="#272727"/>
</g>
<defs>
<clipPath id="clip0_2365_44581">
<rect width="445" height="220" fill="white"/>
</clipPath>
</defs>
</svg>
