<svg width="1440" height="174" viewBox="0 0 1440 174" fill="none" xmlns="http://www.w3.org/2000/svg">
<path fill-rule="evenodd" clip-rule="evenodd" d="M844.37 0H669.822C665.033 23.833 643.982 41.7839 618.739 41.7839C593.589 41.7839 572.6 23.9645 567.71 0.262146C562.82 23.9645 541.831 41.7839 516.68 41.7839C491.437 41.7839 470.387 23.833 465.598 0H357.197C352.408 23.833 331.357 41.7839 306.114 41.7839C280.871 41.7839 259.82 23.833 255.031 0H252.986C248.197 23.833 227.146 41.7839 201.903 41.7839C176.66 41.7839 155.609 23.833 150.82 0H-3.88419C0.904751 23.833 21.9553 41.7839 47.1985 41.7839L97.6922 41.7839C126.469 41.7839 149.797 65.112 149.797 93.8887C149.797 122.665 126.469 145.993 97.6922 145.993H-36V174H1539V0H1446.51V41.7839L1444.9 41.7839C1473.67 41.7839 1497 65.112 1497 93.8887C1497 122.665 1473.67 145.993 1444.9 145.993H1292.34C1263.57 145.993 1240.24 122.665 1240.24 93.8887C1240.24 65.112 1263.57 41.7839 1292.34 41.7839L1394.4 41.7839C1419.65 41.7839 1440.7 23.833 1445.49 0H1239.22C1234.43 23.833 1213.38 41.7839 1188.13 41.7839C1162.89 41.7839 1141.84 23.833 1137.05 0H1135C1130.22 23.8329 1109.17 41.7839 1083.92 41.7839C1058.68 41.7839 1037.63 23.8329 1032.84 0H1030.8C1026.01 23.833 1004.96 41.7839 979.716 41.7839C954.472 41.7839 933.422 23.833 928.633 0H926.587C921.798 23.833 900.748 41.7839 875.505 41.7839L875.503 41.7839C904.279 41.7839 927.607 65.112 927.607 93.8887C927.607 122.665 904.279 145.993 875.503 145.993H722.948C694.172 145.993 670.844 122.665 670.844 93.8887C670.844 65.112 694.172 41.7839 722.948 41.7839L823.4 41.7839C823.4 24.6795 831.642 9.49995 844.37 0ZM358.219 93.8887C358.219 65.112 381.547 41.7839 410.323 41.7839H514.533C543.169 41.7839 566.409 64.884 566.636 93.466C566.863 64.884 590.103 41.7839 618.739 41.7839C647.516 41.7839 670.844 65.112 670.844 93.8887C670.844 122.665 647.516 145.993 618.739 145.993C590.103 145.993 566.863 122.893 566.636 94.3113C566.409 122.893 543.169 145.993 514.533 145.993H410.323C381.547 145.993 358.219 122.665 358.219 93.8887ZM358.219 93.8887C358.219 122.665 334.891 145.993 306.114 145.993C277.337 145.993 254.009 122.665 254.009 93.8887C254.009 65.112 277.337 41.7839 306.114 41.7839C334.891 41.7839 358.219 65.112 358.219 93.8887ZM1083.92 41.7839C1112.7 41.7839 1136.03 65.1119 1136.03 93.8886C1136.03 122.665 1112.7 145.993 1083.92 145.993C1055.28 145.993 1032.04 122.891 1031.82 94.3074C1031.59 122.891 1008.35 145.993 979.716 145.993C950.939 145.993 927.611 122.665 927.611 93.8887C927.611 65.112 950.939 41.7839 979.716 41.7839C1008.35 41.7839 1031.59 64.886 1031.82 93.4699C1032.04 64.886 1055.28 41.7839 1083.92 41.7839ZM1240.24 93.8887C1240.24 65.112 1216.91 41.7839 1188.13 41.7839C1159.36 41.7839 1136.03 65.112 1136.03 93.8887C1136.03 122.665 1159.36 145.993 1188.13 145.993C1216.91 145.993 1240.24 122.665 1240.24 93.8887ZM-36 41.7839L-4.90625 41.7839V0H-36V41.7839ZM254.008 93.8887C254.008 65.112 230.68 41.7839 201.903 41.7839C173.126 41.7839 149.798 65.112 149.798 93.8887C149.798 122.665 173.126 145.993 201.903 145.993C230.68 145.993 254.008 122.665 254.008 93.8887Z" fill="#272727"/>
</svg>
