<svg width="109" height="110" viewBox="0 0 109 110" fill="none" xmlns="http://www.w3.org/2000/svg">
<path d="M108.262 56.2905C108.262 85.6338 84.4741 109.421 55.1308 109.421C25.7875 109.421 2 85.6338 2 56.2905C2 26.9472 25.7875 3.1597 55.1308 3.1597C84.4741 3.1597 108.262 26.9472 108.262 56.2905Z" fill="#C4B4FF"/>
<path d="M104.25 56C104.25 83.2001 82.2 105.25 55 105.25C27.8 105.25 5.75 83.2001 5.75 56C5.75 28.8 27.8 6.75003 55 6.75003C82.2 6.75003 104.25 28.8 104.25 56Z" stroke="#262332" stroke-width="1.5"/>
<path d="M98.5 56C98.5 80.0244 79.0244 99.5 55 99.5C30.9756 99.5 11.5 80.0244 11.5 56C11.5 31.9756 30.9756 12.5 55 12.5C79.0244 12.5 98.5 31.9756 98.5 56Z" stroke="#262332"/>
<path fill-rule="evenodd" clip-rule="evenodd" d="M45.9724 35.6866C46.1095 35.776 46.2181 35.8474 46.2945 35.8979C50.4914 35.1312 53.601 34.937 58.9414 35.7981L58.8663 36.2636L58.9713 35.8039C64.2449 37.0083 67.0548 38.3543 70.6579 40.6389C70.7477 40.6208 70.8752 40.5953 71.0358 40.5638C71.3739 40.4976 71.8585 40.4051 72.4461 40.2994C73.6206 40.0882 75.2085 39.8241 76.8586 39.6136C78.5063 39.4034 80.2272 39.2451 81.6643 39.2485C82.3822 39.2503 83.0413 39.2923 83.5905 39.3926C84.1269 39.4905 84.6147 39.6534 84.9373 39.9385C85.3074 40.2656 85.4218 40.8174 85.4357 41.381C85.4503 41.9687 85.3574 42.6869 85.1966 43.4736C84.8743 45.0505 84.263 46.9768 83.5968 48.8344C82.9293 50.6953 82.2017 52.5008 81.6414 53.8402C81.3611 54.5102 81.1224 55.0642 80.9538 55.4508C80.882 55.6154 80.8229 55.7496 80.7786 55.8497C80.8006 55.8792 80.825 55.9122 80.8517 55.9484C80.9854 56.1305 81.1749 56.3956 81.4001 56.7302C81.8501 57.3988 82.4439 58.3472 83.0196 59.4671C84.1638 61.6927 85.2675 64.6552 84.9605 67.4586C84.633 70.4495 82.6188 72.3988 79.8956 73.6374C77.1804 74.8724 73.7049 75.4313 70.3055 75.6364C66.8995 75.842 63.5367 75.6938 61.0284 75.4951C59.7734 75.3956 58.7306 75.2833 58.0009 75.1958C57.636 75.152 57.3493 75.1144 57.1535 75.0877L57.0733 75.0767C56.2611 76.0792 55.3281 76.5952 54.3193 76.8172C53.2701 77.0481 52.1579 76.9562 51.0613 76.8114C49.9298 76.662 48.8256 76.3224 47.909 75.6694C47.036 75.0475 46.3515 74.154 45.974 72.9169L45.8957 72.8971C45.7041 72.8484 45.4242 72.7757 45.0696 72.6794C44.3603 72.4869 43.3514 72.2 42.1508 71.8216C39.751 71.0653 36.578 69.9416 33.4976 68.4738C30.4232 67.009 27.4109 65.1875 25.3569 63.0245C23.2968 60.8551 22.1607 58.2928 22.9785 55.3973C23.7452 52.6833 25.8793 50.3509 27.7745 48.7167C28.7281 47.8945 29.6343 47.238 30.3022 46.7868C30.6364 46.5611 30.9115 46.3865 31.1038 46.2678C31.142 46.2442 31.177 46.2228 31.2085 46.2037C31.205 46.0943 31.2005 45.9477 31.1957 45.7682C31.1843 45.3465 31.1708 44.7435 31.1622 44.0173C31.145 42.5655 31.1476 40.6189 31.2266 38.6435C31.3056 36.6716 31.4613 34.6566 31.7538 33.074C31.8997 32.2844 32.0829 31.5837 32.3168 31.0444C32.5411 30.5272 32.8541 30.0585 33.3198 29.8941C33.7258 29.7508 34.239 29.7826 34.773 29.893C35.3197 30.006 35.9465 30.2142 36.6127 30.4818C37.9462 31.0175 39.4822 31.8095 40.9308 32.6223C42.3816 33.4362 43.7546 34.2764 44.7642 34.9127C45.2692 35.231 45.6838 35.4985 45.9724 35.6866ZM46.2813 36.6795C50.4774 35.9041 53.5073 35.6989 58.81 36.5531C64.0461 37.7497 66.778 39.0761 70.3772 41.3684L70.5085 41.4521L70.661 41.4204L70.583 41.0452L70.6611 41.4203L70.6615 41.4203L70.663 41.42L70.6694 41.4186L70.695 41.4134L70.796 41.3928C70.8849 41.3748 71.0157 41.3486 71.1831 41.3158C71.5178 41.2503 71.9986 41.1585 72.5817 41.0536C73.7484 40.8438 75.3226 40.5821 76.9556 40.3737C78.591 40.1651 80.2741 40.0115 81.6625 40.0148C82.3572 40.0165 82.9661 40.0575 83.4528 40.1464C83.9523 40.2376 84.2683 40.37 84.4298 40.5127C84.4562 40.5361 84.4826 40.5679 84.5076 40.6096C81.559 42.6983 76.6747 47.0593 77.5429 50.1746C78.3385 53.0296 79.178 54.9487 79.9325 55.8647L79.8916 55.9555L80.0352 56.1379L80.0353 56.138L80.0357 56.1385L80.0379 56.1413L80.0473 56.1534C80.0558 56.1644 80.0687 56.1811 80.0857 56.2034C80.1196 56.248 80.1699 56.3148 80.234 56.402C80.3622 56.5766 80.5456 56.8331 80.7643 57.158C81.202 57.8083 81.7793 58.7305 82.3381 59.8174C83.4629 62.0053 84.4807 64.8008 84.1987 67.3752C84.1953 67.4066 84.1917 67.4378 84.1878 67.4689C82.7892 67.6019 79.6302 67.3907 75.5151 65.6532C72.8824 64.5415 71.2725 62.4509 69.8149 60.5579C68.121 58.3582 66.6327 56.4254 63.9836 56.6063C59.0549 56.943 58.5864 62.6829 60.2351 67.539C61.406 70.9877 61.1819 73.5522 60.8436 74.7113C59.7098 74.6179 58.7653 74.5157 58.0921 74.4349C57.7316 74.3917 57.449 74.3546 57.257 74.3285C57.1609 74.3154 57.0875 74.305 57.0384 74.2979L56.9829 74.2899L56.9692 74.2878L56.9659 74.2874L56.9652 74.2872C56.9651 74.2872 56.965 74.2872 56.908 74.6661L56.965 74.2872L56.7392 74.2532L56.6019 74.4356C55.8681 75.41 55.0446 75.8729 54.1546 76.0688C53.2461 76.2687 52.2493 76.1953 51.1616 76.0517C50.1089 75.9126 49.1366 75.603 48.3536 75.0452C47.5777 74.4925 46.9676 73.6824 46.6516 72.4994L46.5926 72.2787L46.3705 72.2256L46.2814 72.5982C46.3705 72.2256 46.3705 72.2256 46.3704 72.2256L46.3697 72.2254L46.3664 72.2246L46.3529 72.2213L46.2986 72.208C46.2503 72.1961 46.1784 72.1782 46.0845 72.1544C45.8966 72.1066 45.6207 72.035 45.2703 71.9399C44.5694 71.7496 43.5705 71.4655 42.3811 71.0907L42.2995 71.065C42.4325 69.8502 43.1954 67.4114 45.5492 64.6822C48.8986 60.7987 50.6167 55.302 46.1739 53.1416C43.786 51.9805 41.6815 53.2142 39.2863 54.6182C37.2252 55.8265 34.9488 57.1609 32.0914 57.2041C27.9484 57.2669 25.0606 56.4206 23.6691 55.7807C23.6838 55.7225 23.6995 55.6641 23.716 55.6056C24.42 53.1134 26.4118 50.9036 28.275 49.2971C29.2005 48.499 30.0816 47.8606 30.7311 47.4219C31.0557 47.2027 31.3219 47.0337 31.5062 46.9199C31.5984 46.863 31.67 46.82 31.7182 46.7914C31.7423 46.7771 31.7605 46.7664 31.7725 46.7595L31.7858 46.7518L31.7889 46.75L31.7895 46.7497L31.7895 46.7496L31.9911 46.6344L31.9841 46.4529C33.0376 46.0849 34.9074 44.9154 36.9412 42.2741C38.9654 39.6452 35.8685 33.5305 33.9218 30.5646C34.1065 30.5616 34.3377 30.5855 34.6179 30.6434C35.1025 30.7436 35.6823 30.9339 36.327 31.1929C37.6153 31.7104 39.118 32.4839 40.5559 33.2906C41.9915 34.096 43.3527 34.929 44.3556 35.561C44.8569 35.8769 45.2681 36.1423 45.5539 36.3286C45.6967 36.4217 45.8082 36.495 45.8838 36.545L45.9698 36.602L45.9915 36.6165L45.9969 36.6201L45.9982 36.621L45.9985 36.6212L46.2116 36.3027L45.9986 36.6212L46.1281 36.7078L46.2813 36.6795ZM31.9061 46.4052L31.9061 46.4052L31.5992 46.4171L31.9061 46.4052ZM45.6644 50.7738C47.5622 51.1431 49.2637 50.604 49.465 49.5697C49.6663 48.5354 48.291 47.3976 46.3932 47.0283C44.4955 46.659 42.7939 47.1981 42.5926 48.2324C42.3914 49.2667 43.7666 50.4045 45.6644 50.7738ZM69.3166 50.8414C69.1153 51.8757 67.4137 52.4148 65.516 52.0455C63.6182 51.6762 62.2429 50.5384 62.4442 49.5041C62.6455 48.4698 64.3471 47.9307 66.2448 48.3C68.1426 48.6693 69.5178 49.8071 69.3166 50.8414ZM51.9624 73.3803C53.3426 73.6489 54.5702 73.3076 54.7044 72.6181C54.8386 71.9285 53.8285 71.1518 52.4483 70.8833C51.0681 70.6147 49.8405 70.956 49.7063 71.6455C49.5721 72.335 50.5822 73.1117 51.9624 73.3803ZM43.7899 62.0717C44.825 62.2731 45.8273 61.5979 46.0286 60.5636C46.2299 59.5293 45.5539 58.5276 44.5187 58.3261C43.4836 58.1247 42.4813 58.7999 42.28 59.8342C42.0788 60.8685 42.7547 61.8702 43.7899 62.0717ZM64.7709 64.2106C64.5696 65.2449 63.5673 65.9201 62.5322 65.7186C61.497 65.5172 60.821 64.5155 61.0223 63.4812C61.2236 62.4469 62.2259 61.7717 63.261 61.9731C64.2962 62.1746 64.9722 63.1763 64.7709 64.2106Z" fill="black" fill-opacity="0.8"/>
<path d="M52.4922 2.35681C52.4922 30.334 29.8861 53.014 2 53.014L52.4922 2.35681Z" fill="#A490ED"/>
<path d="M0 55C0 24.6243 25.0721 0 56 0L0 55Z" fill="#272727"/>
</svg>
