<svg width="122" height="166" viewBox="0 0 122 166" fill="none" xmlns="http://www.w3.org/2000/svg">
<path d="M134.379 52.4562C151.815 79.5533 143.983 115.654 116.886 133.09C89.7886 150.526 53.6875 142.694 36.2518 115.597C18.816 88.4997 26.648 52.3987 53.7451 34.9629C80.8421 17.5271 116.943 25.3591 134.379 52.4562Z" fill="#C4B4FF"/>
<path d="M130.501 54.5722C146.664 79.69 139.404 113.154 114.286 129.316C89.1679 145.479 55.7038 138.219 39.5415 113.101C23.3792 87.983 30.6392 54.5189 55.7571 38.3566C80.8749 22.1944 114.339 29.4543 130.501 54.5722Z" stroke="#262332" stroke-width="1.64716"/>
<path d="M125.193 57.9884C139.468 80.1737 133.056 109.731 110.87 124.006C88.6851 138.281 59.1279 131.869 44.8526 109.684C30.5773 87.4985 36.9897 57.9413 59.175 43.6661C81.3603 29.3908 110.917 35.8031 125.193 57.9884Z" stroke="#262332" stroke-width="1.0981"/>
<path fill-rule="evenodd" clip-rule="evenodd" d="M64.6132 70.4435C64.7929 70.4445 64.9357 70.446 65.0363 70.4472C68.4563 67.2453 71.2125 65.2183 76.6557 62.8402L76.863 63.3147L76.6868 62.8278C82.2723 60.8064 85.6669 60.3798 90.3517 60.3485C90.4238 60.2784 90.5265 60.1791 90.6561 60.0546C90.9289 59.7926 91.3215 59.4192 91.8012 58.9725C92.7604 58.0795 94.0698 56.8921 95.4685 55.7172C96.8651 54.5441 98.3603 53.3753 99.6894 52.5246C100.353 52.0996 100.987 51.7467 101.554 51.513C102.107 51.2847 102.655 51.1454 103.122 51.217C103.658 51.2991 104.091 51.7407 104.439 52.2529C104.802 52.7868 105.143 53.5053 105.462 54.3273C106.101 55.975 106.681 58.1171 107.17 60.2284C107.659 62.3434 108.06 64.4431 108.339 66.0129C108.478 66.7981 108.587 67.4515 108.661 67.9088C108.692 68.1034 108.717 68.2625 108.736 68.3812L108.812 68.4098L108.862 68.429C109.094 68.5177 109.426 68.6498 109.833 68.825C110.646 69.1751 111.758 69.698 112.955 70.39C115.334 71.7654 118.113 73.8453 119.496 76.6166C120.97 79.5732 120.269 82.57 118.49 85.332C116.716 88.0857 113.839 90.6671 110.822 92.8764C107.799 95.09 104.605 96.9514 102.171 98.2583C100.953 98.9121 99.9231 99.4281 99.1973 99.7809C98.8343 99.9573 98.5472 100.093 98.3505 100.185L98.27 100.222C98.1156 101.63 97.5606 102.661 96.7609 103.466C95.9293 104.302 94.8476 104.878 93.7489 105.396C92.6152 105.931 91.3938 106.273 90.1593 106.215C88.9836 106.159 87.8206 105.741 86.7369 104.823L86.6528 104.851C86.447 104.92 86.1454 105.019 85.7606 105.141C84.9913 105.385 83.8891 105.719 82.5555 106.083C79.89 106.811 76.2923 107.658 72.5755 108.133C68.866 108.607 65.002 108.715 61.8201 107.938C58.6286 107.159 56.0569 105.468 55.0916 102.308C54.1869 99.3464 54.7718 95.9245 55.5509 93.2893C55.9429 91.9633 56.3896 90.8186 56.7384 90.0052C56.9128 89.5982 57.0631 89.2734 57.1701 89.0496C57.1914 89.0051 57.211 88.9645 57.2287 88.9281C57.1605 88.8292 57.0693 88.6965 56.9582 88.5336C56.6971 88.151 56.3263 87.6021 55.8868 86.9366C55.0083 85.6062 53.854 83.807 52.7532 81.9359C51.6544 80.0681 50.6009 78.1148 49.9306 76.4795C49.5962 75.6637 49.3491 74.9077 49.2445 74.2708C49.1443 73.6599 49.1549 73.0411 49.4873 72.6125C49.777 72.2389 50.2699 71.9634 50.8286 71.748C51.4006 71.5275 52.1031 71.3473 52.8773 71.1986C54.427 70.9009 56.3161 70.7196 58.1367 70.6094C59.9601 70.4989 61.7272 70.459 63.0376 70.4467C63.6931 70.4405 64.235 70.4412 64.6132 70.4435ZM65.4884 71.1768C68.9026 67.9674 71.5786 65.9776 76.983 63.6155C82.5293 61.6092 85.8402 61.2108 90.5259 61.189L90.697 61.1882L90.8189 61.0683L90.524 60.7683L90.819 61.0682L90.8193 61.0679L90.8205 61.0667L90.8256 61.0617L90.8461 61.0417L90.9272 60.9626C90.9986 60.8932 91.1038 60.7913 91.2389 60.6616C91.5091 60.4022 91.8985 60.0317 92.3747 59.5884C93.3274 58.7013 94.6256 57.5242 96.0097 56.3616C97.396 55.1971 98.859 54.0552 100.143 53.2333C100.786 52.822 101.372 52.4981 101.875 52.291C102.39 52.0784 102.76 52.0129 102.994 52.0487C103.033 52.0546 103.076 52.0684 103.124 52.0922C101.642 55.7733 99.7239 62.7018 102.377 65.0626C104.807 67.2257 106.722 68.499 107.963 68.8969L107.98 69.006L108.221 69.0891L108.221 69.0891L108.222 69.0894L108.225 69.0906L108.241 69.0962L108.267 69.1053L108.306 69.1196C108.364 69.1406 108.45 69.1723 108.561 69.2149C108.783 69.2999 109.105 69.4277 109.5 69.5979C110.291 69.9383 111.372 70.4469 112.534 71.1186C114.872 72.4706 117.473 74.4473 118.743 76.9922C118.758 77.023 118.773 77.0539 118.788 77.0848C117.576 78.0385 114.533 79.7214 109.699 80.5623C106.607 81.1002 103.879 80.1261 101.408 79.2442C98.5364 78.2193 96.0135 77.3189 93.6748 79.0601C89.3234 82.2996 92.3014 87.8785 96.7094 91.3832C99.84 93.8722 101.157 96.3737 101.533 97.645C100.431 98.2322 99.4988 98.6987 98.8294 99.024C98.4708 99.1983 98.1878 99.332 97.9949 99.422C97.8985 99.4669 97.8245 99.501 97.7749 99.5237L97.719 99.5492L97.7051 99.5554L97.7018 99.5569L97.701 99.5573C97.7009 99.5573 97.7009 99.5573 97.8733 99.9411L97.7009 99.5573L97.4721 99.6601L97.4537 99.9102C97.3551 101.246 96.8697 102.163 96.1641 102.873C95.444 103.597 94.4798 104.121 93.3901 104.635C92.3354 105.132 91.2536 105.424 90.199 105.374C89.1541 105.325 88.1093 104.939 87.1145 104.035L86.929 103.866L86.6923 103.949L86.8314 104.346C86.6923 103.949 86.6923 103.949 86.6922 103.949L86.6914 103.949L86.6879 103.95L86.6736 103.955L86.6154 103.975C86.5638 103.993 86.4868 104.019 86.3858 104.053C86.184 104.121 85.8867 104.218 85.5065 104.339C84.7462 104.58 83.655 104.911 82.334 105.271L82.2448 105.296C81.6458 104.095 80.9011 101.389 81.453 97.4705C82.2384 91.8941 80.5588 85.7973 75.1725 86.4422C72.2774 86.7889 71.0671 89.1785 69.6895 91.8984C68.5042 94.2388 67.195 96.8237 64.5819 98.5616C60.7923 101.082 57.6219 102.016 55.9571 102.252C55.9361 102.189 55.9159 102.126 55.8964 102.062C55.0656 99.3426 55.5919 96.1184 56.3579 93.5278C56.7384 92.2409 57.1726 91.1278 57.5118 90.3367C57.6812 89.9414 57.8266 89.6272 57.9293 89.4126C57.9806 89.3054 58.0211 89.2231 58.0487 89.168C58.0624 89.1405 58.0729 89.1198 58.0798 89.1062L58.0875 89.0912L58.0893 89.0878L58.0897 89.0871L58.0897 89.087L58.2073 88.8609L58.0926 88.6968C58.8467 87.7298 59.8771 85.5394 60.1855 81.8945C60.4926 78.2641 53.9993 74.4576 50.4393 72.8755C50.6084 72.7625 50.8368 72.6467 51.1313 72.5331C51.6382 72.3377 52.2868 72.1689 53.036 72.025C54.5332 71.7374 56.3805 71.5588 58.1876 71.4493C59.992 71.3401 61.7439 71.3004 63.0456 71.2881C63.6961 71.282 64.2336 71.2827 64.6082 71.2849C64.7954 71.2861 64.9419 71.2876 65.0415 71.2888L65.1547 71.2903L65.1834 71.2908L65.1905 71.2909L65.1923 71.2909L65.1927 71.2909L65.2002 70.8702L65.1928 71.2909L65.3638 71.294L65.4884 71.1768ZM57.9905 88.7013L57.9905 88.7013L57.7164 88.893L57.9905 88.7013ZM73.2929 84.5589C75.2648 83.7723 76.5159 82.2633 76.0871 81.1886C75.6584 80.1139 73.7123 79.8804 71.7404 80.667C69.7685 81.4536 68.5175 82.9625 68.9462 84.0373C69.3749 85.112 71.321 85.3455 73.2929 84.5589ZM95.1751 70.5673C95.6038 71.642 94.3528 73.1509 92.3809 73.9375C90.409 74.7242 88.4629 74.4906 88.0342 73.4159C87.6054 72.3412 88.8564 70.8323 90.8284 70.0456C92.8003 69.259 94.7464 69.4926 95.1751 70.5673ZM92.5419 101.692C93.976 101.12 94.9069 100.075 94.6211 99.3589C94.3353 98.6424 92.941 98.5253 91.5069 99.0974C90.0727 99.6695 89.1419 100.714 89.4277 101.431C89.7135 102.147 91.1078 102.264 92.5419 101.692ZM78.2774 96.1057C79.353 95.6766 79.8774 94.4576 79.4487 93.3829C79.02 92.3082 77.8005 91.7848 76.7249 92.2138C75.6493 92.6429 75.1249 93.862 75.5536 94.9367C75.9823 96.0114 77.2018 96.5348 78.2774 96.1057ZM98.9195 85.6144C99.3482 86.6891 98.8238 87.9082 97.7483 88.3373C96.6727 88.7663 95.4532 88.2429 95.0245 87.1682C94.5957 86.0935 95.1201 84.8744 96.1957 84.4454C97.2713 84.0163 98.4908 84.5397 98.9195 85.6144Z" fill="black" fill-opacity="0.8"/>
<path d="M50.8311 35.7899C67.4552 61.6255 60.056 96.0019 34.3046 112.572L50.8311 35.7899Z" fill="#A490ED"/>
<path d="M33.638 115.593C15.5888 87.5431 24.1098 49.9059 52.6702 31.5285L33.638 115.593Z" fill="#272727"/>
</svg>
