<svg width="575" height="64" viewBox="0 0 575 64" fill="none" xmlns="http://www.w3.org/2000/svg">
<path fill-rule="evenodd" clip-rule="evenodd" d="M321.382 0H257.662C255.917 8.68379 248.259 15.2286 239.067 15.2534C249.548 15.2819 258.035 23.787 258.035 34.2743C258.035 44.7793 249.519 53.2953 239.014 53.2953C228.559 53.2953 220.075 44.8608 219.994 34.4254C219.913 44.8608 211.428 53.2953 200.973 53.2953H162.931C152.426 53.2953 143.91 44.7793 143.91 34.2743C143.91 23.7693 152.426 15.2534 162.931 15.2534H200.973C211.428 15.2534 219.913 23.6878 219.994 34.1233C220.075 23.7054 228.531 15.2818 238.961 15.2534C229.803 15.2287 222.167 8.73187 220.386 0.0957896C218.601 8.74844 210.939 15.2535 201.757 15.2535C192.542 15.2535 184.858 8.70038 183.109 0H143.537C141.793 8.68376 134.134 15.2285 124.942 15.2534C135.423 15.2819 143.91 23.787 143.91 34.2743C143.91 44.7793 135.395 53.2953 124.89 53.2953C114.385 53.2953 105.869 44.7793 105.869 34.2743C105.869 23.787 114.356 15.2819 124.837 15.2534C115.645 15.2285 107.986 8.68376 106.242 0H105.495C103.75 8.68376 96.0916 15.2285 86.8999 15.2534C97.3806 15.2819 105.868 23.787 105.868 34.2743C105.868 44.7793 97.3521 53.2953 86.8471 53.2953C76.3421 53.2953 67.8261 44.7793 67.8261 34.2743C67.8261 23.787 76.3136 15.2819 86.7943 15.2534C77.6026 15.2285 69.944 8.68376 68.1992 0H11.7239C13.4687 8.68364 21.1271 15.2283 30.3187 15.2534H48.8046C59.3096 15.2534 67.8256 23.7693 67.8256 34.2743C67.8256 44.7793 59.3096 53.2953 48.8046 53.2953H0V63.5191H574.958V0H541.193V15.2534H540.658C551.139 15.2821 559.626 23.787 559.626 34.2743C559.626 44.7793 551.11 53.2953 540.605 53.2953H484.915C474.41 53.2953 465.894 44.7793 465.894 34.2743C465.894 23.7693 474.41 15.2534 484.915 15.2534H522.225C531.417 15.2283 539.075 8.68364 540.82 0H465.521C463.776 8.68379 456.117 15.2286 446.926 15.2534C457.406 15.2819 465.894 23.787 465.894 34.2743C465.894 44.7793 457.378 53.2953 446.873 53.2953C436.368 53.2953 427.852 44.7793 427.852 34.2743C427.852 23.787 436.339 15.2819 446.82 15.2534C437.628 15.2286 429.97 8.68379 428.225 0H427.478C425.733 8.68379 418.075 15.2286 408.883 15.2534C419.364 15.2819 427.851 23.787 427.851 34.2743C427.851 44.7793 419.335 53.2953 408.83 53.2953C398.375 53.2953 389.89 44.8603 389.81 34.4244C389.729 44.8603 381.244 53.2953 370.789 53.2953C360.284 53.2953 351.768 44.7793 351.768 34.2743C351.768 23.787 360.256 15.2819 370.737 15.2534C361.545 15.2286 353.886 8.68379 352.142 0H351.395C349.649 8.68877 341.983 15.236 332.784 15.2534C343.272 15.2737 351.767 23.7819 351.767 34.2743C351.767 44.7793 343.251 53.2953 332.746 53.2953H277.056C266.551 53.2953 258.035 44.7793 258.035 34.2743C258.035 23.7693 266.551 15.2534 277.056 15.2534L313.726 15.2534C313.726 9.00935 316.735 3.46797 321.382 0ZM389.437 0C387.693 8.68379 380.034 15.2286 370.842 15.2534C381.273 15.2818 389.729 23.706 389.81 34.1243C389.89 23.706 398.347 15.2818 408.777 15.2534C399.586 15.2286 391.927 8.68378 390.182 0H389.437ZM0 15.2534H11.3508V0H0V15.2534Z" fill="#272727"/>
</svg>
