<svg width="164" height="168" viewBox="0 0 164 168" fill="none" xmlns="http://www.w3.org/2000/svg">
<path d="M143.798 68.3265C154.409 102.109 135.626 138.097 101.844 148.708C68.062 159.32 32.0738 140.537 21.4621 106.755C10.8505 72.9727 29.6338 36.9845 63.4158 26.3728C97.1978 15.7612 133.186 34.5445 143.798 68.3265Z" fill="#C4B4FF"/>
<circle cx="82.3742" cy="87.2538" r="55.5096" transform="rotate(-17.4386 82.3742 87.2538)" stroke="#2A1E54" stroke-width="2.41346"/>
<circle cx="82.375" cy="87.2534" r="50.8082" transform="rotate(-17.4386 82.375 87.2534)" stroke="#2A1E54"/>
<path d="M52.0866 108.505C44.8652 102.483 46.1149 97.6516 51.5981 90.5995C51.5649 89.3263 53.45 84.2913 55.0381 80.3401C52.8187 71.8585 56.8305 62.0117 58.3783 60.3411C59.9262 58.6706 64.063 61.3923 71.9053 68.5279C82.7959 67.0019 93.2281 68.5413 97.0829 69.5017C100.674 63.34 112.24 56.4592 113.13 61.204C114.823 70.2234 115.481 78.4283 114.02 81.9468C116.214 84.2186 119.794 89.016 121.271 96.5464C123.188 106.317 100.608 115.716 81.6306 115.512C66.0338 115.345 59.3079 114.528 52.0866 108.505Z" fill="#6B59AC"/>
<path d="M76.7777 81.2098C74.2831 80.809 72.0678 83.1827 71.272 84.4197C69.2317 83.5801 64.7814 82.6094 61.7012 85.0575C56.1022 89.5074 53.1955 98.8419 60.4283 101.742C67.8811 104.731 68.5755 95.63 74.235 93.8522C79.8944 92.0745 87.8417 103.494 95.7312 101.016C103.547 98.5611 100.907 91.0997 95.9952 85.8325C92.066 81.6186 84.5489 83.0127 81.2815 84.2364C80.8197 83.3945 79.2723 81.6105 76.7777 81.2098Z" fill="#2A1E54"/>
<path d="M69.5424 92.2838C69.617 93.1034 69.2168 93.9153 68.4543 94.5647C67.6925 95.2135 66.5866 95.6813 65.3156 95.797C64.0446 95.9127 62.8724 95.6523 62.006 95.1518C61.1388 94.6508 60.5985 93.9245 60.5239 93.1049C60.4493 92.2852 60.8495 91.4733 61.612 90.824C62.3738 90.1752 63.4797 89.7074 64.7507 89.5917C66.0216 89.476 67.1938 89.7363 68.0603 90.2369C68.9275 90.7379 69.4677 91.4642 69.5424 92.2838Z" stroke="#C4B4FF" stroke-width="0.548617"/>
<ellipse cx="67.3781" cy="81.3011" rx="3.18445" ry="1.96518" transform="rotate(12.5614 67.3781 81.3011)" fill="#2A1E54"/>
<ellipse cx="88.3555" cy="80.1363" rx="3.18445" ry="1.96518" transform="rotate(-17.4386 88.3555 80.1363)" fill="#2A1E54"/>
<path d="M87.6776 91.4054C88.8788 90.8307 91.9157 90.1926 94.4531 92.238" stroke="#C4B4FF" stroke-width="1.09723" stroke-linecap="round"/>
<path d="M72.4169 95.6079C71.6223 96.0944 73.7282 97.2686 74.8805 97.7949C75.7224 97.3331 77.3554 96.2477 77.1522 95.6009C76.8982 94.7924 73.4103 94.9998 72.4169 95.6079Z" fill="#2A1E54"/>
<path d="M74.8805 97.7949C73.9685 99.5423 72.3545 99.727 71.189 99.507C70.7777 99.4294 70.3457 99.7455 70.4037 100.16C70.7887 102.91 72.0358 107.107 75.7029 107.012C78.5706 106.937 80.2124 102.571 80.2706 98.955C80.2777 98.5085 79.7568 98.2852 79.3769 98.5199C77.1291 99.9084 75.9038 98.53 74.8805 97.7949Z" fill="#2A1E54"/>
<path d="M74.8805 97.7949C73.9685 99.5423 72.3545 99.727 71.189 99.507C70.7777 99.4294 70.3457 99.7455 70.4037 100.16C70.7887 102.91 72.0358 107.107 75.7029 107.012C78.5706 106.937 80.2124 102.571 80.2706 98.955C80.2777 98.5085 79.7568 98.2852 79.3769 98.5199C77.1291 99.9084 75.9038 98.53 74.8805 97.7949ZM74.8805 97.7949C73.7282 97.2686 71.6223 96.0944 72.4169 95.6079C73.4103 94.9998 76.8982 94.7924 77.1522 95.6009C77.3554 96.2477 75.7224 97.3331 74.8805 97.7949Z" stroke="#C4B4FF" stroke-width="0.548617"/>
<ellipse cx="65.0346" cy="92.6939" rx="2.58862" ry="1.82726" transform="rotate(-5.20198 65.0346 92.6939)" fill="#C4B4FF"/>
<path d="M59.7378 23.9378C39.4757 28.3293 25.0375 44.9851 22.5527 64.4056L78.5343 23.6401C72.4896 22.5181 66.1248 22.5535 59.7378 23.9378Z" fill="#191919"/>
<path d="M41.3423 64.0725C61.6044 59.681 76.0425 43.0251 78.5274 23.6047L22.5458 64.3701C28.5905 65.4922 34.9553 65.4568 41.3423 64.0725Z" fill="#D9CFFF"/>
</svg>
