<svg width="329" height="74" viewBox="0 0 329 74" fill="none" xmlns="http://www.w3.org/2000/svg">
<path fill-rule="evenodd" clip-rule="evenodd" d="M37 74C54.1096 74 68.5069 62.3867 72.739 46.6127C73.5812 43.4739 76.2502 41 79.5 41C82.7498 41 85.4188 43.4739 86.261 46.6127C90.4931 62.3867 104.89 74 122 74C139.11 74 153.507 62.3867 157.739 46.6127C158.581 43.4739 161.25 41 164.5 41C167.75 41 170.419 43.4739 171.261 46.6127C175.493 62.3867 189.89 74 207 74C224.11 74 238.507 62.3867 242.739 46.6127C243.581 43.4739 246.25 41 249.5 41C252.75 41 255.419 43.4739 256.261 46.6127C260.493 62.3867 274.89 74 292 74C312.435 74 329 57.4345 329 37C329 16.5655 312.435 0 292 0C274.89 0 260.493 11.6133 256.261 27.3873C255.419 30.5261 252.75 33 249.5 33C246.25 33 243.581 30.5261 242.739 27.3873C238.507 11.6133 224.11 0 207 0C189.89 0 175.493 11.6133 171.261 27.3873C170.419 30.5261 167.75 33 164.5 33C161.25 33 158.581 30.5261 157.739 27.3873C153.507 11.6133 139.11 0 122 0C104.89 0 90.4931 11.6133 86.261 27.3873C85.4188 30.5261 82.7498 33 79.5 33C76.2502 33 73.5812 30.5261 72.739 27.3873C68.5069 11.6133 54.1096 0 37 0C16.5655 0 0 16.5655 0 37C0 57.4345 16.5655 74 37 74Z" fill="#272727"/>
</svg>
