<svg width="260" height="56" viewBox="0 0 260 56" fill="none" xmlns="http://www.w3.org/2000/svg">
<path fill-rule="evenodd" clip-rule="evenodd" d="M28 56C39.915 56 50.0917 48.5578 54.1353 38.0682C55.4322 34.7039 58.3944 32 62 32C65.6056 32 68.5678 34.7039 69.8647 38.0682C73.9083 48.5578 84.085 56 96 56C107.915 56 118.092 48.5578 122.135 38.0682C123.432 34.7039 126.394 32 130 32C133.606 32 136.568 34.7039 137.865 38.0682C141.908 48.5578 152.085 56 164 56C175.915 56 186.092 48.5578 190.135 38.0682C191.432 34.7039 194.394 32 198 32C201.606 32 204.568 34.7039 205.865 38.0682C209.908 48.5578 220.085 56 232 56C247.464 56 260 43.464 260 28C260 12.536 247.464 0 232 0C220.085 0 209.908 7.44225 205.865 17.9318C204.568 21.2961 201.606 24 198 24C194.394 24 191.432 21.2961 190.135 17.9318C186.092 7.44225 175.915 0 164 0C152.085 0 141.908 7.44225 137.865 17.9318C136.568 21.2961 133.606 24 130 24C126.394 24 123.432 21.2961 122.135 17.9318C118.092 7.44225 107.915 0 96 0C84.085 0 73.9083 7.44225 69.8647 17.9318C68.5678 21.2961 65.6056 24 62 24C58.3944 24 55.4322 21.2961 54.1353 17.9318C50.0917 7.44225 39.915 0 28 0C12.536 0 0 12.536 0 28C0 43.464 12.536 56 28 56Z" fill="#191919"/>
<rect width="56" height="56" rx="28" fill="#191919"/>
<rect x="68" width="56" height="56" rx="28" fill="#191919"/>
<rect x="136" width="56" height="56" rx="28" fill="#191919"/>
<rect x="204" width="56" height="56" rx="28" fill="#191919"/>
</svg>
