<svg width="1446" height="158" viewBox="0 0 1446 158" fill="none" xmlns="http://www.w3.org/2000/svg">
<g clip-path="url(#clip0_2334_8178)">
<path fill-rule="evenodd" clip-rule="evenodd" d="M1446 58.0205C1446 51.9693 1438.11 48.1179 1432.19 49.3604C1430.19 49.7796 1428.12 50 1426 50C1409.43 50 1396 36.5685 1396 20C1396 17.8776 1396.22 15.8067 1396.64 13.8089C1397.88 7.88654 1394.03 0 1387.98 0H1337.67C1330.81 0 1327.72 9.31896 1332.84 13.9074C1364.55 42.3814 1386.01 82.4463 1390.17 128.243C1390.85 135.72 1391.05 143.129 1390.79 150.441C1390.65 154.521 1393.85 158 1397.93 158H1430C1438.84 158 1446 150.837 1446 142V58.0205ZM1043.12 151.555C1043.28 155.199 1046.34 158 1049.98 158H1080.17C1081.1 158 1081.82 157.194 1081.74 156.267C1075 82.1572 1129.62 16.6209 1203.73 9.88735C1277.84 3.15377 1343.38 57.7727 1350.11 131.882C1350.68 138.08 1350.81 144.217 1350.54 150.266C1350.35 154.411 1353.58 158 1357.73 158H1381.89C1385.54 158 1388.59 155.195 1388.74 151.547C1389.06 143.937 1388.88 136.217 1388.18 128.424C1383.31 74.9 1354.56 29.296 1313.39 1.18257C1312.25 0.404588 1310.9 0 1309.52 0H1122.29C1120.91 0 1119.55 0.405802 1118.41 1.18513C1070.46 33.9751 1040.41 90.0378 1043.12 151.555ZM1315.31 149.99C1315.06 154.236 1318.31 158 1322.57 158H1341.65C1345.24 158 1348.26 155.292 1348.46 151.714C1348.83 145.258 1348.72 138.695 1348.12 132.063C1341.49 59.0537 1276.92 5.24551 1203.91 11.8791C1130.9 18.5128 1077.1 83.0763 1083.73 156.086C1083.83 157.175 1084.75 158 1085.84 158H1112.4C1115.02 158 1117.02 155.687 1116.79 153.082C1111.81 98.3297 1152.17 49.9111 1206.92 44.9363C1261.67 39.9615 1310.09 80.3143 1315.06 135.067C1315.52 140.105 1315.6 145.089 1315.31 149.99ZM1306.43 158C1309.91 158 1312.89 155.442 1313.17 151.97C1313.61 146.494 1313.59 140.905 1313.07 135.248C1308.2 81.5953 1260.75 42.0532 1207.1 46.9281C1153.45 51.8029 1113.9 99.2487 1118.78 152.901C1119.05 155.835 1121.56 158 1124.51 158H1150.62C1155.09 158 1158.37 153.794 1157.96 149.341C1155.05 117.328 1178.65 89.0188 1210.66 86.1101C1242.67 83.2014 1270.98 106.795 1273.89 138.808C1274.21 142.325 1274.21 145.797 1273.91 149.196C1273.52 153.722 1276.84 158 1281.39 158H1306.43ZM1159.95 149.16C1160.06 150.342 1160.2 151.512 1160.38 152.669C1160.87 155.833 1163.71 158 1166.91 158H1264.96C1268.16 158 1270.99 155.838 1271.48 152.677C1272.16 148.244 1272.32 143.657 1271.9 138.989C1269.09 108.076 1241.75 85.2932 1210.84 88.1019C1179.93 90.9106 1157.14 118.247 1159.95 149.16ZM1094.15 0C1101.02 0 1104.1 9.31603 1099 13.9085C1061.59 47.5657 1039.08 96.907 1041.08 150.426C1041.23 154.51 1038.02 158 1033.94 158H551C542.163 158 535 150.837 535 142V16C535 7.16345 542.163 0 551 0H1094.15Z" fill="#013E14"/>
<circle cx="1426" cy="20" r="20" fill="#95FF42"/>
<path d="M1422 24L1430 16M1430 16H1422M1430 16V24" stroke="#191919" stroke-width="1.5"/>
</g>
<rect width="911" height="158" rx="16" fill="#013E14"/>
<defs>
<clipPath id="clip0_2334_8178">
<rect x="535" width="911" height="158" rx="16" fill="white"/>
</clipPath>
</defs>
</svg>
