<svg width="122" height="102" viewBox="0 0 122 102" fill="none" xmlns="http://www.w3.org/2000/svg">
<path d="M4.26054 71.4219C-3.97727 58.6576 0.300263 51.8231 12.1993 43.6175C12.7662 41.641 18.1246 34.8008 22.4976 29.4856C23.1851 15.3538 34.1669 2.13378 37.3705 0.310318C40.5741 -1.51314 45.6467 4.67787 54.3038 19.4567C71.8778 22.3742 87.255 29.7896 92.7469 33.1326C101.29 25.3828 122.507 20.3824 121.579 28.118C119.816 42.8229 116.85 55.7739 112.884 60.4845C115.172 65.0432 118.376 74.1605 117.003 86.4688C115.221 102.438 75.7579 105.99 46.5236 96.4979C22.4976 88.6968 12.4984 84.1861 4.26054 71.4219Z" fill="#303030"/>
<path d="M55.6759 41.3435C52.0146 39.52 47.4381 42.1033 45.6074 43.6228C42.8614 41.3435 36.4541 37.6967 30.5046 39.9761C19.6899 44.1194 10.6649 57.0853 20.4362 65.0486C30.5046 73.2542 35.9966 59.5783 45.6074 59.5783C55.2182 59.5783 61.9574 81.0039 75.3551 81.0039C88.627 81.0039 88.1695 68.2396 83.1353 57.7547C79.1079 49.3668 66.8122 47.8776 61.1677 48.1816C60.8626 46.662 59.3371 43.1669 55.6759 41.3435Z" fill="#272727"/>
<path d="M38.899 54.8377C38.6366 56.0429 37.6908 57.0499 36.244 57.661C34.7993 58.2713 32.9107 58.4555 30.9298 58.0276C28.9489 57.5996 27.3066 56.6526 26.2455 55.5011C25.1828 54.3478 24.7409 53.041 25.0033 51.8359C25.2657 50.6307 26.2114 49.6237 27.6582 49.0126C29.1029 48.4023 30.9915 48.2181 32.9724 48.646C34.9534 49.074 36.5957 50.0209 37.6568 51.1725C38.7194 52.3258 39.1614 53.6325 38.899 54.8377Z" stroke="#303030" stroke-width="1.34136"/>
<ellipse cx="5.15417" cy="3.17449" rx="5.15417" ry="3.17449" transform="matrix(0.866872 0.498531 -0.501471 0.865174 38.2266 31.6133)" fill="#272727"/>
<ellipse cx="74.0928" cy="45.271" rx="5.15921" ry="3.17137" fill="#272727"/>
<path d="M67.5762 62.3073C69.7119 62.0034 74.7156 62.4897 77.6446 66.866" stroke="#303030" stroke-width="2.68271" stroke-linecap="round"/>
<path d="M41.9471 61.4014C40.4826 61.7661 43.1675 64.5925 44.693 65.9601C46.2186 65.6562 49.2696 64.7748 49.2696 63.6808C49.2696 62.3132 43.7777 60.9456 41.9471 61.4014Z" fill="#272727"/>
<path d="M44.693 65.9601C42.7245 67.9209 40.5079 67.7952 38.8491 67.1328C37.9003 66.754 36.6495 67.1858 36.5084 68.1976C35.891 72.6257 36.093 79.012 41.4893 80.5478C45.7346 81.756 50.1501 76.4668 52.1634 71.1861C52.5522 70.1662 51.5098 69.27 50.429 69.4225C46.9639 69.9114 45.8285 67.4681 44.693 65.9601Z" fill="#272727"/>
<path d="M44.693 65.9601C42.7245 67.9209 40.5079 67.7952 38.8491 67.1328C37.9003 66.754 36.6495 67.1858 36.5084 68.1976C35.891 72.6257 36.093 79.012 41.4893 80.5478C45.7346 81.756 50.1501 76.4668 52.1634 71.1861C52.5522 70.1662 51.5098 69.27 50.429 69.4225C46.9639 69.9114 45.8285 67.4681 44.693 65.9601ZM44.693 65.9601C43.1675 64.5925 40.4826 61.7661 41.9471 61.4014C43.7777 60.9456 49.2696 62.3132 49.2696 63.6808C49.2696 64.7748 46.2186 65.6562 44.693 65.9601Z" stroke="#272727" stroke-width="1.34136"/>
<ellipse cx="4.19315" cy="2.94933" rx="4.19315" ry="2.94933" transform="matrix(0.977452 0.211157 -0.212744 0.977108 28.4785 49.5645)" fill="#303030"/>
</svg>
