<svg width="1123" height="707" viewBox="0 0 1123 707" fill="none" xmlns="http://www.w3.org/2000/svg">
<path fill-rule="evenodd" clip-rule="evenodd" d="M694 260C685.163 260 678 267.163 678 276V691C678 699.837 685.163 707 694 707H1069.79C1075.4 707 1079.06 698.62 1077.73 693.164C1077.25 691.188 1077 689.124 1077 687C1077 672.641 1088.64 661 1103 661C1105.12 661 1107.19 661.255 1109.16 661.735C1114.62 663.061 1123 659.402 1123 653.787V276C1123 267.163 1115.84 260 1107 260H694Z" fill="#272727"/>
<path fill-rule="evenodd" clip-rule="evenodd" d="M16 260C7.16344 260 0 267.163 0 276V691C0 699.837 7.16345 707 16 707H391.787C397.402 707 401.061 698.62 399.735 693.164C399.255 691.188 399 689.124 399 687C399 672.641 410.641 661 425 661C427.124 661 429.188 661.255 431.164 661.735C436.62 663.061 445 659.402 445 653.787V276C445 267.163 437.837 260 429 260H16Z" fill="#272727"/>
<path fill-rule="evenodd" clip-rule="evenodd" d="M309 260C300.163 260 293 267.163 293 276V691C293 699.837 300.163 707 309 707H684.787C690.402 707 694.061 698.62 692.735 693.164C692.255 691.188 692 689.124 692 687C692 672.641 703.641 661 718 661C720.124 661 722.188 661.255 724.164 661.735C729.62 663.061 738 659.402 738 653.787V276C738 267.163 730.837 260 722 260H309Z" fill="#272727"/>
<path fill-rule="evenodd" clip-rule="evenodd" d="M694 0C685.163 0 678 7.16345 678 16V431C678 439.837 685.163 447 694 447H1069.79C1075.4 447 1079.06 438.62 1077.73 433.164C1077.25 431.188 1077 429.124 1077 427C1077 412.641 1088.64 401 1103 401C1105.12 401 1107.19 401.255 1109.16 401.735C1114.62 403.061 1123 399.402 1123 393.787V16C1123 7.16344 1115.84 0 1107 0H694Z" fill="#272727"/>
<path fill-rule="evenodd" clip-rule="evenodd" d="M16 0C7.16344 0 0 7.16345 0 16V431C0 439.837 7.16345 447 16 447H391.787C397.402 447 401.061 438.62 399.735 433.164C399.255 431.188 399 429.124 399 427C399 412.641 410.641 401 425 401C427.124 401 429.188 401.255 431.164 401.735C436.62 403.061 445 399.402 445 393.787V16C445 7.16344 437.837 0 429 0H16Z" fill="#272727"/>
<path fill-rule="evenodd" clip-rule="evenodd" d="M309 0C300.163 0 293 7.16345 293 16V431C293 439.837 300.163 447 309 447H684.787C690.402 447 694.061 438.62 692.735 433.164C692.255 431.188 692 429.124 692 427C692 412.641 703.641 401 718 401C720.124 401 722.188 401.255 724.164 401.735C729.62 403.061 738 399.402 738 393.787V16C738 7.16344 730.837 0 722 0H309Z" fill="#272727"/>
</svg>
