<svg width="1655" height="538" viewBox="0 0 1655 538" fill="none" xmlns="http://www.w3.org/2000/svg">
<path fill-rule="evenodd" clip-rule="evenodd" d="M993 0C984.163 0 977 7.16346 977 16V522C977 530.837 984.163 538 993 538H1602.29C1607.9 538 1611.56 529.62 1610.23 524.164C1609.75 522.188 1609.5 520.124 1609.5 518C1609.5 503.641 1621.14 492 1635.5 492C1637.61 492 1639.66 492.252 1641.63 492.727C1647 494.025 1655 490.465 1655 484.937V16C1655 7.16344 1647.84 0 1639 0H993Z" fill="#333333"/>
<path fill-rule="evenodd" clip-rule="evenodd" d="M440 0C431.163 0 424 7.16346 424 16V522C424 530.837 431.163 538 440 538H1049.29C1054.9 538 1058.56 529.62 1057.23 524.164C1056.75 522.188 1056.5 520.124 1056.5 518C1056.5 503.641 1068.14 492 1082.5 492C1084.61 492 1086.66 492.252 1088.63 492.727C1094 494.025 1102 490.465 1102 484.937V16C1102 7.16344 1094.84 0 1086 0H440Z" fill="#333333"/>
<path fill-rule="evenodd" clip-rule="evenodd" d="M16 0C7.16344 0 0 7.16346 0 16V522C0 530.837 7.16342 538 16 538H625.287C630.902 538 634.561 529.62 633.235 524.164C632.755 522.188 632.5 520.124 632.5 518C632.5 503.641 644.141 492 658.5 492C660.611 492 662.664 492.252 664.63 492.727C670.002 494.025 678 490.465 678 484.937V16C678 7.16344 670.837 0 662 0H16Z" fill="#333333"/>
</svg>
