<svg width="20" height="20" viewBox="0 0 20 20" fill="none" xmlns="http://www.w3.org/2000/svg">
<g clip-path="url(#clip0_1098_337)">
<path d="M5.88932 9.08128C6.26091 8.70969 6.26091 8.10722 5.88932 7.73563C5.51773 7.36404 4.91526 7.36404 4.54367 7.73563L5.88932 9.08128ZM12.194 15.386C12.5656 15.0144 12.5656 14.4119 12.194 14.0404C11.8225 13.6688 11.22 13.6688 10.8484 14.0404L12.194 15.386ZM13.8507 11.0381C13.4791 11.4097 13.4791 12.0122 13.8507 12.3837C14.2223 12.7553 14.8247 12.7553 15.1963 12.3837L13.8507 11.0381ZM7.54593 4.73337C7.17434 5.10496 7.17434 5.70743 7.54593 6.07902C7.91752 6.45061 8.51999 6.45061 8.89158 6.07902L7.54593 4.73337ZM5.89469 12.6893C5.5231 13.0609 5.5231 13.6634 5.89469 14.035C6.26628 14.4066 6.86874 14.4066 7.24033 14.035L5.89469 12.6893ZM13.8453 7.43004C14.2169 7.05845 14.2169 6.45598 13.8453 6.08439C13.4737 5.7128 12.8712 5.7128 12.4996 6.08439L13.8453 7.43004ZM4.08796 16.7424L3.63762 16.2921L2.29197 17.6377L2.74231 18.088L4.08796 16.7424ZM3.63762 11.3329L5.88932 9.08128L4.54367 7.73563L2.29197 9.98733L3.63762 11.3329ZM10.8484 14.0404L8.14638 16.7424L9.49203 18.088L12.194 15.386L10.8484 14.0404ZM2.74231 18.088C4.60619 19.9519 7.62815 19.9519 9.49203 18.088L8.14638 16.7424C7.02568 17.8631 5.20866 17.8631 4.08796 16.7424L2.74231 18.088ZM3.63762 16.2921C2.2682 14.9226 2.2682 12.7024 3.63762 11.3329L2.29197 9.98733C0.17937 12.0999 0.17937 15.5251 2.29197 17.6377L3.63762 16.2921ZM15.652 3.37698L16.1024 3.82732L17.448 2.48167L16.9977 2.03133L15.652 3.37698ZM16.1024 8.78643L13.8507 11.0381L15.1963 12.3837L17.448 10.132L16.1024 8.78643ZM8.89158 6.07902L11.5936 3.37698L10.2479 2.03134L7.54593 4.73337L8.89158 6.07902ZM16.9977 2.03133C15.1338 0.167452 12.1118 0.167452 10.2479 2.03134L11.5936 3.37698C12.7143 2.25628 14.5313 2.25628 15.652 3.37698L16.9977 2.03133ZM16.1024 3.82732C17.4718 5.19674 17.4718 7.41701 16.1024 8.78643L17.448 10.132C19.5606 8.01948 19.5606 4.59427 17.448 2.48167L16.1024 3.82732ZM7.24033 14.035L13.8453 7.43004L12.4996 6.08439L5.89469 12.6893L7.24033 14.035Z" fill="white"/>
</g>
<defs>
<clipPath id="clip0_1098_337">
<rect width="20" height="20" fill="white"/>
</clipPath>
</defs>
</svg>
