<svg width="24" height="25" viewBox="0 0 24 25" fill="none" xmlns="http://www.w3.org/2000/svg">
<g id="icon_filter_24 ">
<path id="Shape" d="M12 2.5C12.3797 2.5 12.6935 2.78215 12.7431 3.14823L12.75 3.25L12.7508 13.0807C14.323 13.4244 15.5 14.8247 15.5 16.5C15.5 18.1753 14.323 19.5756 12.7508 19.9193L12.75 21.75C12.75 22.1642 12.4142 22.5 12 22.5C11.6203 22.5 11.3065 22.2178 11.2569 21.8518L11.25 21.75L11.2502 19.9195C9.67749 19.5762 8.5 18.1756 8.5 16.5C8.5 14.8244 9.67749 13.4238 11.2502 13.0805L11.25 3.25C11.25 2.83579 11.5858 2.5 12 2.5ZM5.25 2.5C5.6297 2.5 5.94349 2.78215 5.99315 3.14823L6 3.25L6.00066 6.08712C7.43368 6.42594 8.5 7.71345 8.5 9.25C8.5 10.7866 7.43368 12.0741 6.00066 12.4129L6 21.75C6 22.1642 5.66421 22.5 5.25 22.5C4.8703 22.5 4.55651 22.2178 4.50685 21.8518L4.5 21.75L4.50034 12.4131C3.06682 12.0747 2 10.7869 2 9.25C2 7.71309 3.06682 6.42534 4.50034 6.08688L4.5 3.25C4.5 2.83579 4.83579 2.5 5.25 2.5ZM18.75 2.5C19.1297 2.5 19.4435 2.78215 19.4932 3.14823L19.5 3.25L19.5007 6.08712C20.9337 6.42594 22 7.71345 22 9.25C22 10.7866 20.9337 12.0741 19.5007 12.4129L19.5 21.75C19.5 22.1642 19.1642 22.5 18.75 22.5C18.3703 22.5 18.0565 22.2178 18.0068 21.8518L18 21.75L18.0004 12.4131C16.5668 12.0747 15.5 10.7869 15.5 9.25C15.5 7.71309 16.5668 6.42534 18.0004 6.08688L18 3.25C18 2.83579 18.3358 2.5 18.75 2.5ZM12 14.5C10.8954 14.5 10 15.3954 10 16.5C10 17.6046 10.8954 18.5 12 18.5C13.1046 18.5 14 17.6046 14 16.5C14 15.3954 13.1046 14.5 12 14.5ZM5.25 7.5C4.2835 7.5 3.5 8.2835 3.5 9.25C3.5 10.2165 4.2835 11 5.25 11C6.2165 11 7 10.2165 7 9.25C7 8.2835 6.2165 7.5 5.25 7.5ZM18.75 7.5C17.7835 7.5 17 8.2835 17 9.25C17 10.2165 17.7835 11 18.75 11C19.7165 11 20.5 10.2165 20.5 9.25C20.5 8.2835 19.7165 7.5 18.75 7.5Z" fill="white"/>
</g>
</svg>
