<svg width="16" height="16" viewBox="0 0 16 16" fill="none" xmlns="http://www.w3.org/2000/svg">
<g id="Gren Star">
<path id="Star" d="M7.80237 1.2734C7.83741 1.04763 8.16259 1.04763 8.19763 1.2734L9.05237 6.78067C9.06573 6.86674 9.13326 6.93427 9.21933 6.94763L14.7266 7.80237C14.9524 7.83741 14.9524 8.16259 14.7266 8.19763L9.21933 9.05237C9.13326 9.06573 9.06573 9.13326 9.05237 9.21933L8.19763 14.7266C8.16259 14.9524 7.83741 14.9524 7.80237 14.7266L6.94763 9.21933C6.93427 9.13326 6.86674 9.06573 6.78067 9.05237L1.2734 8.19763C1.04763 8.16259 1.04763 7.83741 1.2734 7.80237L6.78067 6.94763C6.86674 6.93427 6.93427 6.86674 6.94763 6.78067L7.80237 1.2734Z" fill="#95FF42"/>
</g>
</svg>
