<svg width="25" height="24" viewBox="0 0 25 24" fill="none" xmlns="http://www.w3.org/2000/svg">
<path d="M12.5 2C12.8797 2 13.1935 2.28215 13.2431 2.64823L13.25 2.75L13.2508 12.5807C14.823 12.9244 16 14.3247 16 16C16 17.6753 14.823 19.0756 13.2508 19.4193L13.25 21.25C13.25 21.6642 12.9142 22 12.5 22C12.1203 22 11.8065 21.7178 11.7569 21.3518L11.75 21.25L11.7502 19.4195C10.1775 19.0762 9 17.6756 9 16C9 14.3244 10.1775 12.9238 11.7502 12.5805L11.75 2.75C11.75 2.33579 12.0858 2 12.5 2ZM5.75 2C6.1297 2 6.44349 2.28215 6.49315 2.64823L6.5 2.75L6.50066 5.58712C7.93368 5.92594 9 7.21345 9 8.75C9 10.2866 7.93368 11.5741 6.50066 11.9129L6.5 21.25C6.5 21.6642 6.16421 22 5.75 22C5.3703 22 5.05651 21.7178 5.00685 21.3518L5 21.25L5.00034 11.9131C3.56682 11.5747 2.5 10.2869 2.5 8.75C2.5 7.21309 3.56682 5.92534 5.00034 5.58688L5 2.75C5 2.33579 5.33579 2 5.75 2ZM19.25 2C19.6297 2 19.9435 2.28215 19.9932 2.64823L20 2.75L20.0007 5.58712C21.4337 5.92594 22.5 7.21345 22.5 8.75C22.5 10.2866 21.4337 11.5741 20.0007 11.9129L20 21.25C20 21.6642 19.6642 22 19.25 22C18.8703 22 18.5565 21.7178 18.5068 21.3518L18.5 21.25L18.5004 11.9131C17.0668 11.5747 16 10.2869 16 8.75C16 7.21309 17.0668 5.92534 18.5004 5.58688L18.5 2.75C18.5 2.33579 18.8358 2 19.25 2ZM12.5 14C11.3954 14 10.5 14.8954 10.5 16C10.5 17.1046 11.3954 18 12.5 18C13.6046 18 14.5 17.1046 14.5 16C14.5 14.8954 13.6046 14 12.5 14ZM5.75 7C4.7835 7 4 7.7835 4 8.75C4 9.7165 4.7835 10.5 5.75 10.5C6.7165 10.5 7.5 9.7165 7.5 8.75C7.5 7.7835 6.7165 7 5.75 7ZM19.25 7C18.2835 7 17.5 7.7835 17.5 8.75C17.5 9.7165 18.2835 10.5 19.25 10.5C20.2165 10.5 21 9.7165 21 8.75C21 7.7835 20.2165 7 19.25 7Z" fill="white"/>
</svg>
