<svg width="248" height="231" viewBox="0 0 248 231" fill="none" xmlns="http://www.w3.org/2000/svg">
<path d="M21.8982 152.496C26.9802 236.98 130.831 240.26 153.065 219.298C167.697 221.37 180.348 219.826 191.18 215.81C200.406 212.389 214.684 202.147 222.669 193.254C234.646 179.914 240.73 167.21 245.176 153.235C248.512 139.566 245.742 126.042 243.271 119.199C241.659 114.736 240.041 110.646 238.434 106.864C232.816 93.6419 227.325 84.184 222.669 75.7384C215.271 62.3212 209.979 51.4584 209.622 32.1152C209.606 31.2718 208.624 30.8077 207.979 31.3526C191.051 45.6756 184.405 59.0846 182.62 73.1975C181.399 82.8581 182.456 92.8486 184.052 103.688C184.685 107.99 185.403 112.426 186.098 117.028C184.11 117.69 182.205 118.416 180.38 119.199C177.371 111.311 172.992 103.688 159.123 100.672C153.974 95.329 150.682 83.9148 149.344 77.644C147.712 69.9913 147.536 63.4462 145.441 62.3988C142.201 60.7788 138.502 65.5853 138.246 79.5497C138.201 82.0125 138.263 84.7601 138.454 87.8075C134.896 81.7094 117.127 75.5266 108.687 73.1975C110.944 69.9287 111.9 66.3918 106.691 63.803C105.67 63.2954 104.411 62.8243 102.879 62.3988C103.336 54.941 103.136 48.9054 102.254 43.9775C100.014 31.4713 93.3777 26.0992 81.916 22.7197C80.0103 15.8308 71.5319 1.69408 67.9405 1.41783C61.3338 0.909659 57.1411 13.0319 55.8706 19.1565C44.6332 20.0187 38.0388 25.318 28.5547 32.5435C19.7084 29.8693 4.38009 29.8006 2.50982 32.5435C-1.46023 40.0882 6.43768 61.3401 13.166 68.751C12.4719 74.3211 11.6294 79.2481 12.0386 82.7258C13.0553 91.3647 19.2381 94.7949 22.2024 95.4301C16.7888 103.591 12.0386 121.322 12.0386 134.178C12.0386 145.225 13.8691 155.58 21.8982 152.496Z" fill="#191919" stroke="#C4B4FF" stroke-linecap="round"/>
<path d="M76.1988 84.6314C77.6811 75.3149 78.9939 56.3007 72.3873 54.7762C64.129 52.8705 42.5304 90.7615 28.5548 96.2719C51.8996 98.4214 69.7817 89.6871 76.1988 84.6314Z" fill="#C4B4FF"/>
<path d="M87.6334 45.8831C83.5677 49.4403 96.1034 58.3757 102.879 62.3988C103.336 54.941 103.136 48.9054 102.254 43.9775C99.0743 43.1305 91.699 42.3259 87.6334 45.8831Z" fill="#C4B4FF"/>
<path d="M222.669 193.254C183.55 173.556 171.509 162.801 162.593 130.492C155.393 136.992 150.464 144.557 147.203 151.965C154.012 183.409 156.031 202.169 191.18 215.81C200.406 212.389 214.684 202.147 222.669 193.254Z" fill="#C4B4FF"/>
<path d="M186.098 117.028C184.11 117.69 182.205 118.416 180.38 119.199C178.842 119.859 177.36 120.559 175.934 121.296C190.575 143.756 206.133 153.503 245.176 153.235C248.512 139.566 245.742 126.042 243.271 119.199C241.659 114.736 240.041 110.646 238.434 106.864C217.202 114.732 205.281 112.738 184.052 103.688C184.685 107.99 185.404 112.426 186.098 117.028Z" fill="#C4B4FF"/>
<path d="M209.622 32.1152C209.606 31.2718 208.624 30.8077 207.979 31.3526C191.051 45.6756 184.405 59.0846 182.62 73.1975C198.305 80.2428 207.066 81.4342 222.669 75.7384C215.272 62.3212 209.979 51.4584 209.622 32.1152Z" fill="#C4B4FF"/>
<path d="M145.441 62.3988C142.201 60.7788 138.502 65.5853 138.246 79.5497C143.228 80.4748 145.872 80.6199 149.344 77.644C147.712 69.9913 147.536 63.4462 145.441 62.3988Z" fill="#C4B4FF"/>
<path d="M96.0463 87.1723C91.7704 90.163 87.5778 93.9664 88.2686 96.2719C88.8399 98.1783 93.649 96.7877 100.04 94.7949C102.342 90.2214 98.3367 87.8075 96.0463 87.1723Z" fill="#C4B4FF"/>
<path d="M108.687 73.1975C110.944 69.9287 111.9 66.3918 106.691 63.803C103.938 63.5467 100.504 67.7489 100.974 70.6566C101.46 73.6645 105.109 74.3945 108.687 73.1975Z" fill="#C4B4FF"/>
<path d="M66.0366 111.166C67.545 109.888 68.8353 108.857 69.8463 108.135C78.7398 101.782 80.6456 95.4301 73.6578 95.4301C71.9414 95.4301 66.8759 96.4606 60.3175 98.8115C59.2889 102.242 59.0597 109.365 66.0366 111.166Z" fill="#C4B4FF"/>
<path d="M60.9843 134.178C61.3507 125.744 62.6855 117.951 67.3053 117.028C71.925 116.104 70.8995 124.244 72.2899 135.449C67.1299 138.498 62.6029 135.872 60.9843 134.178Z" fill="#C4B4FF"/>
<path d="M13.166 68.751C14.6272 57.0249 15.4301 42.4485 2.50985 32.5435C-1.4602 40.0882 6.43771 61.3401 13.166 68.751Z" fill="#C4B4FF"/>
<path d="M72.3873 20.4743C75.8708 21.1516 79.0449 21.8731 81.9161 22.7197C80.0103 15.8308 71.5319 1.69408 67.9405 1.41783C65.9077 11.0731 70.058 18.1452 72.3873 20.4743Z" fill="#C4B4FF"/>
<path d="M141.63 178.009C141.452 171.586 142.822 161.917 147.203 151.965M21.8982 152.496C26.9803 236.98 130.831 240.26 153.065 219.298C167.697 221.37 180.348 219.826 191.18 215.81M21.8982 152.496C13.8691 155.58 12.0387 145.225 12.0387 134.178C12.0387 121.322 16.7888 103.591 22.2024 95.4301M21.8982 152.496C34.7327 147.567 55.1271 120.411 66.0366 111.166M22.2024 95.4301C19.2381 94.7949 13.0553 91.3647 12.0387 82.7258C11.6294 79.2481 12.472 74.3211 13.166 68.751M22.2024 95.4301C24.3602 95.8036 26.4791 96.0808 28.5548 96.2719M2.50985 32.5435C15.4301 42.4485 14.6272 57.0249 13.166 68.751M2.50985 32.5435C-1.46019 40.0882 6.43771 61.3401 13.166 68.751M2.50985 32.5435C4.38013 29.8006 19.7085 29.8693 28.5548 32.5435C38.0389 25.318 44.6333 20.0187 55.8707 19.1565M72.3873 20.4743C65.7766 19.1889 60.4398 18.8059 55.8707 19.1565M72.3873 20.4743C75.8708 21.1516 79.0449 21.8731 81.9161 22.7197M72.3873 20.4743C70.058 18.1452 65.9077 11.0731 67.9405 1.41783M102.879 62.3988C96.1034 58.3757 83.5677 49.4403 87.6334 45.8831C91.699 42.3259 99.0743 43.1305 102.254 43.9775M102.879 62.3988C103.336 54.941 103.136 48.9054 102.254 43.9775M102.879 62.3988C104.411 62.8243 105.67 63.2954 106.691 63.803M76.1988 84.6314C81.0219 85.3433 91.9307 86.0732 102.879 78.774C105.839 76.8008 108.395 73.5607 108.687 73.1975M76.1988 84.6314C77.6811 75.3149 78.9939 56.3007 72.3873 54.7762C64.129 52.8705 42.5304 90.7615 28.5548 96.2719M76.1988 84.6314C69.7817 89.6871 51.8996 98.4214 28.5548 96.2719M102.254 43.9775C100.014 31.4713 93.3777 26.0992 81.9161 22.7197M55.8707 19.1565C57.1412 13.0319 61.3339 0.909659 67.9405 1.41783M67.9405 1.41783C71.5319 1.69408 80.0103 15.8308 81.9161 22.7197M108.687 73.1975C117.127 75.5266 134.896 81.7094 138.454 87.8075M108.687 73.1975C110.944 69.9287 111.9 66.3918 106.691 63.803M108.687 73.1975C105.109 74.3945 101.46 73.6645 100.974 70.6566C100.504 67.7489 103.938 63.5467 106.691 63.803M138.454 87.8075C138.877 93.0126 139.416 96.2719 141.605 105.051M138.454 87.8075C138.263 84.7601 138.201 82.0125 138.246 79.5497M180.38 119.199C182.205 118.416 184.11 117.69 186.098 117.028C185.404 112.426 184.685 107.99 184.052 103.688M180.38 119.199C177.371 111.311 172.992 103.688 159.123 100.672C153.974 95.329 150.682 83.9148 149.344 77.644M180.38 119.199C178.842 119.859 177.36 120.559 175.934 121.296M33.0015 113.851C42.0806 106.519 52.3114 101.681 60.3175 98.8115M107.299 80.9638C103.649 82.4236 99.6341 84.6629 96.0463 87.1723M125.749 89.7132C118.057 89.014 107.863 92.3556 100.04 94.7949M56.9345 163.445C60.9843 155.416 60.595 143.142 60.9843 134.178M106.691 200.876C117.49 164.669 88.2686 151.965 78.8321 151.965C77.3394 148.708 72.6676 138.493 72.2899 135.449M182.62 73.1975C184.405 59.0846 191.051 45.6756 207.979 31.3526C208.624 30.8077 209.606 31.2718 209.622 32.1152C209.979 51.4584 215.272 62.3212 222.669 75.7384M182.62 73.1975C198.305 80.2428 207.066 81.4342 222.669 75.7384M182.62 73.1975C181.399 82.8581 182.456 92.8486 184.052 103.688M222.669 75.7384C227.325 84.184 232.816 93.6419 238.434 106.864M184.052 103.688C205.281 112.738 217.202 114.732 238.434 106.864M238.434 106.864C240.041 110.646 241.659 114.736 243.271 119.199C245.742 126.042 248.512 139.566 245.176 153.235M175.934 121.296C190.575 143.756 206.133 153.503 245.176 153.235M175.934 121.296C170.799 123.948 166.382 127.073 162.593 130.492M245.176 153.235C240.73 167.21 234.646 179.914 222.669 193.254M162.593 130.492C171.509 162.801 183.55 173.556 222.669 193.254M162.593 130.492C155.393 136.992 150.464 144.557 147.203 151.965M222.669 193.254C214.684 202.147 200.406 212.389 191.18 215.81M147.203 151.965C154.012 183.409 156.031 202.169 191.18 215.81M60.3175 98.8115C66.8759 96.4606 71.9414 95.4301 73.6578 95.4301C80.6456 95.4301 78.7398 101.782 69.8463 108.135C68.8353 108.857 67.545 109.888 66.0366 111.166M60.3175 98.8115C59.2889 102.242 59.0597 109.365 66.0366 111.166M96.0463 87.1723C91.7704 90.163 87.5778 93.9664 88.2686 96.2719C88.8399 98.1783 93.649 96.7877 100.04 94.7949M96.0463 87.1723C98.3367 87.8075 102.342 90.2214 100.04 94.7949M60.9843 134.178C61.3507 125.744 62.6855 117.951 67.3052 117.028C71.925 116.104 70.8995 124.244 72.2899 135.449M60.9843 134.178C62.6029 135.872 67.1299 138.498 72.2899 135.449M138.246 79.5497C138.502 65.5853 142.201 60.7788 145.441 62.3988C147.536 63.4462 147.712 69.9913 149.344 77.644M138.246 79.5497C143.228 80.4748 145.872 80.6199 149.344 77.644" stroke="#C4B4FF" stroke-linecap="round"/>
<rect x="66.4229" y="64.1758" width="7.29921" height="7.29921" rx="3.64961" fill="#191919"/>
<rect width="3.92287" height="4.28705" rx="1.96143" transform="matrix(0.822511 -0.568749 0.568795 0.822479 95.2949 50.6021)" fill="#191919"/>
<ellipse cx="50.3636" cy="48.1176" rx="5.83937" ry="2.91968" transform="rotate(-30 50.3636 48.1176)" fill="#191919"/>
<ellipse cx="91.9699" cy="37.1683" rx="3.64961" ry="2.18976" fill="#191919"/>
</svg>
