<svg width="125" height="61" viewBox="0 0 125 61" fill="none" xmlns="http://www.w3.org/2000/svg">
<g clip-path="url(#clip0_462_5137)">
<g clip-path="url(#clip1_462_5137)">
<rect x="5" y="-2" width="121" height="50" rx="10" transform="rotate(6.13979 5 -2)" fill="#FFEFB7"/>
<path d="M29.1018 30.9347C28.9719 30.9208 28.8244 30.8955 28.6594 30.859C28.5026 30.8327 28.3561 30.7982 28.2199 30.7554L28.3951 29.1268C28.5396 29.1799 28.6799 29.2278 28.8161 29.2706C28.9626 29.3052 29.0869 29.3279 29.189 29.3389C29.2911 29.3499 29.3853 29.3459 29.4719 29.3271C29.5594 29.299 29.6442 29.2518 29.7265 29.1855C29.8097 29.11 29.8959 29.0066 29.9851 28.8754C30.0743 28.7442 30.1815 28.5774 30.3065 28.3749L26.7437 20.6556L28.8038 20.8772L31.3428 26.7263L34.5526 21.4956L36.3065 21.6842L31.5714 29.3136C31.3664 29.6482 31.172 29.9277 30.9883 30.152C30.8056 30.367 30.6181 30.5393 30.4258 30.6688C30.2345 30.789 30.0287 30.8702 29.8083 30.9122C29.5971 30.9552 29.3616 30.9627 29.1018 30.9347ZM35.1512 29.9803L35.9585 30.0671C36.6632 29.1009 37.1089 27.7502 37.2956 26.0149L37.4753 24.3445L42.9875 24.9375L42.3616 30.7559L43.4334 30.8712L43.107 33.9057L41.6315 33.747L41.8052 32.1323L36.4739 31.5588L36.3002 33.1735L34.8247 33.0148L35.1512 29.9803ZM38.7154 26.1676C38.6715 26.5759 38.6095 26.9776 38.5294 27.3726C38.4587 27.7687 38.3714 28.1441 38.2675 28.4991C38.1646 28.8447 38.0498 29.1703 37.923 29.4758C37.8066 29.7731 37.6807 30.0271 37.5454 30.2378L40.8026 30.5882L41.2757 26.1896L38.7423 25.9171L38.7154 26.1676ZM45.5104 27.2647C45.7914 26.5721 46.2349 26.0706 46.8409 25.7603C47.4479 25.4408 48.1876 25.3279 49.0599 25.4217C50.0714 25.5305 50.809 25.8727 51.2728 26.4483C51.7365 27.0239 51.9135 27.822 51.8037 28.8428L51.3395 33.1579L49.7527 32.9872L49.8829 31.7762C49.6647 32.147 49.3323 32.4445 48.8858 32.6687C48.4402 32.8836 47.9112 32.9581 47.2987 32.8922C46.5007 32.8064 45.9009 32.5353 45.4994 32.0791C45.1072 31.6239 44.946 31.0715 45.0159 30.4219C45.1037 29.6053 45.5578 29.0486 46.3783 28.752C47.208 28.4564 48.5003 28.3983 50.2552 28.5777C50.368 27.529 49.9001 26.9483 48.8514 26.8355C47.8399 26.7267 47.1557 27.0662 46.7988 27.8538L45.5104 27.2647ZM47.8243 31.5407C48.4553 31.6085 48.9791 31.4959 49.3955 31.2028C49.8119 30.9096 50.0495 30.4893 50.1084 29.9418L50.1324 29.7191C49.5292 29.6542 49.0122 29.6174 48.5813 29.6086C48.1597 29.6007 47.8094 29.6288 47.5303 29.6926C47.2512 29.7565 47.0433 29.8561 46.9067 29.9916C46.7711 30.1179 46.6918 30.2877 46.6689 30.5011C46.6389 30.7795 46.7263 31.0142 46.9311 31.2052C47.1368 31.3869 47.4346 31.4987 47.8243 31.5407ZM59.4304 28.1425L56.8692 27.867L56.8272 28.2567C56.6196 30.1869 56.2679 31.5806 55.772 32.4379C55.2761 33.2951 54.5781 33.6753 53.678 33.5784C53.6038 33.5705 53.5068 33.5553 53.3872 33.5331C53.2758 33.5211 53.1979 33.5033 53.1535 33.4798L53.3123 32.0043C53.3391 32.0166 53.4036 32.0282 53.5056 32.0392C53.7562 32.0661 53.973 32.0143 54.156 31.8838C54.3493 31.745 54.5191 31.5192 54.6654 31.2064C54.8126 30.8843 54.9374 30.466 55.0397 29.9513C55.1513 29.4376 55.246 28.8188 55.3239 28.095L55.5186 26.2855L61.1421 26.8904L60.3635 34.1286L58.8045 33.9609L59.4304 28.1425ZM66.4615 34.9536C65.8861 34.8917 65.3718 34.7425 64.9185 34.506C64.4745 34.2705 64.1034 33.9677 63.8053 33.5977C63.5071 33.2277 63.2902 32.8007 63.1545 32.3168C63.0189 31.8328 62.9815 31.3078 63.0424 30.7417C63.1003 30.2035 63.247 29.7124 63.4825 29.2683C63.718 28.8243 64.0207 28.4532 64.3907 28.1551C64.7607 27.857 65.1924 27.6406 65.6856 27.5059C66.1798 27.3619 66.7146 27.3209 67.29 27.3828C67.8004 27.4377 68.2693 27.5726 68.6968 27.7875C69.1335 28.0035 69.4978 28.2821 69.7896 28.6232C70.0815 28.9644 70.2963 29.3677 70.4339 29.8331C70.5819 30.2902 70.6264 30.7925 70.5675 31.34C70.5426 31.572 70.5012 31.8257 70.4434 32.1011L64.6111 31.4737C64.5986 32.0262 64.7785 32.4915 65.1509 32.8694C65.5325 33.2484 66.0342 33.4714 66.656 33.5383C67.1571 33.5922 67.58 33.5438 67.9248 33.3931C68.2705 33.2332 68.5593 32.992 68.7911 32.6696L70.0795 33.2588C69.7312 33.8785 69.2453 34.3378 68.6218 34.6368C67.9982 34.9358 67.2781 35.0414 66.4615 34.9536ZM67.1094 28.7996C66.5248 28.7367 66.017 28.8323 65.586 29.0863C65.1643 29.3413 64.8899 29.7107 64.7627 30.1946L69.0361 30.6543C69.0528 30.412 69.0113 30.1869 68.9116 29.9791C68.8222 29.763 68.6875 29.5748 68.5076 29.4147C68.338 29.2462 68.1319 29.1114 67.8894 29.0102C67.6478 28.8997 67.3878 28.8295 67.1094 28.7996ZM77.9377 33.0199L74.2629 32.6246L73.944 35.5895L72.385 35.4218L73.1636 28.1836L74.7226 28.3513L74.4157 31.2048L78.0905 31.6001L78.3974 28.7466L79.9564 28.9143L79.1778 36.1525L77.6188 35.9848L77.9377 33.0199ZM82.7089 29.2104L84.268 29.3781L83.9325 32.4961L87.4277 29.718L89.4461 29.9351L85.6809 32.8672L88.8066 37.1883L86.8301 36.9757L84.3507 33.5831L83.7633 34.069L83.4893 36.6163L81.9303 36.4486L82.7089 29.2104ZM90.5863 32.1135C90.8673 31.421 91.3108 30.9195 91.9168 30.6092C92.5238 30.2896 93.2634 30.1768 94.1357 30.2706C95.1472 30.3794 95.8849 30.7216 96.3486 31.2972C96.8124 31.8727 96.9894 32.6709 96.8796 33.6917L96.4154 38.0068L94.8285 37.8361L94.9588 36.6251C94.7406 36.9959 94.4082 37.2934 93.9616 37.5176C93.5161 37.7325 92.9871 37.807 92.3746 37.7411C91.5766 37.6553 90.9768 37.3842 90.5753 36.928C90.183 36.4728 90.0219 35.9204 90.0918 35.2708C90.1796 34.4541 90.6337 33.8975 91.4542 33.6009C92.2839 33.3053 93.5762 33.2472 95.3311 33.4266C95.4439 32.3779 94.9759 31.7972 93.9273 31.6844C92.9158 31.5756 92.2316 31.9151 91.8746 32.7027L90.5863 32.1135ZM92.9002 36.3896C93.5312 36.4574 94.0549 36.3448 94.4714 36.0517C94.8878 35.7585 95.1254 35.3382 95.1843 34.7907L95.2083 34.568C94.6051 34.5031 94.0881 34.4662 93.6572 34.4574C93.2356 34.4496 92.8853 34.4777 92.6062 34.5415C92.3271 34.6054 92.1192 34.705 91.9826 34.8405C91.847 34.9668 91.7677 35.1366 91.7448 35.35C91.7148 35.6284 91.8022 35.8631 92.007 36.0541C92.2127 36.2358 92.5104 36.3476 92.9002 36.3896Z" fill="black"/>
<path d="M23.8419 6.68409L24.5 -2.78237e-07L3 16.5L10.4284 17.4177C17.1213 18.2445 23.181 13.3954 23.8419 6.68409Z" fill="#D8C88F"/>
<path d="M1.66838 5.74815L-0.000179837 18.8565L33 -6.50006L19.4363 -8.11878C10.7106 -9.16013 2.77801 -2.96919 1.66838 5.74815Z" fill="#191919"/>
</g>
</g>
<defs>
<clipPath id="clip0_462_5137">
<rect width="125" height="61" fill="white"/>
</clipPath>
<clipPath id="clip1_462_5137">
<rect x="5" y="-2" width="121" height="50" rx="10" transform="rotate(6.13979 5 -2)" fill="white"/>
</clipPath>
</defs>
</svg>
