<svg width="415" height="74" viewBox="0 0 415 74" fill="none" xmlns="http://www.w3.org/2000/svg">
<path fill-rule="evenodd" clip-rule="evenodd" d="M80 41C76.7502 41 74.0812 43.4739 73.239 46.6127C69.0069 62.3867 54.6096 74 37.5 74C17.0655 74 0.5 57.4345 0.5 37C0.5 16.5655 17.0655 0 37.5 0C54.6096 0 69.0069 11.6133 73.239 27.3873C74.0812 30.5261 76.7502 33 80 33C83.2498 33 85.9188 30.5261 86.761 27.3873C90.9931 11.6133 105.39 0 122.5 0C139.61 0 154.007 11.6133 158.239 27.3873C159.081 30.5261 161.75 33 165 33C168.25 33 170.919 30.5261 171.761 27.3873C175.993 11.6133 190.39 0 207.5 0C224.61 0 239.007 11.6133 243.239 27.3873C244.081 30.5261 246.75 33 250 33C253.25 33 255.919 30.5261 256.761 27.3873C260.993 11.6133 275.39 0 292.5 0C309.61 0 324.007 11.6133 328.239 27.3873C329.081 30.5261 331.75 33 335 33C338.25 33 340.919 30.5261 341.761 27.3873C345.993 11.6133 360.39 0 377.5 0C397.935 0 414.5 16.5655 414.5 37C414.5 57.4345 397.935 74 377.5 74C360.39 74 345.993 62.3867 341.761 46.6127C340.919 43.4739 338.25 41 335 41C331.75 41 329.081 43.4739 328.239 46.6127C324.007 62.3867 309.61 74 292.5 74C275.39 74 260.993 62.3867 256.761 46.6127C255.919 43.4739 253.25 41 250 41C246.75 41 244.081 43.4739 243.239 46.6127C239.007 62.3867 224.61 74 207.5 74C190.39 74 175.993 62.3867 171.761 46.6127C170.919 43.4739 168.25 41 165 41C161.75 41 159.081 43.4739 158.239 46.6127C154.007 62.3867 139.61 74 122.5 74C105.39 74 90.9931 62.3867 86.761 46.6127C85.9188 43.4739 83.2498 41 80 41Z" fill="#95FF42"/>
</svg>
