<svg width="40" height="40" viewBox="0 0 40 40" fill="none" xmlns="http://www.w3.org/2000/svg">
<circle cx="20" cy="20" r="20" fill="#95FF42"/>
<path fill-rule="evenodd" clip-rule="evenodd" d="M29.8251 25.3961C29.3124 24.3655 28.6367 23.424 27.8241 22.6078C27.5523 22.3013 27.2677 22.0063 26.9711 21.7236L26.9352 21.6888C26.8251 21.582 26.7164 21.4738 26.6091 21.3642C27.72 19.8225 28.6706 18.1718 29.4462 16.4377L29.4773 16.3681L29.499 16.2947C29.6018 15.9532 29.7186 15.3041 29.3039 14.7171C28.8741 14.1113 28.187 14.0022 27.726 14.0022H25.6081C25.1646 13.982 24.7261 14.1024 24.3554 14.346C23.9846 14.5897 23.7005 14.9441 23.5439 15.3587C23.0881 16.4421 22.5174 17.4736 21.8416 18.4358V15.9589C21.8416 15.639 21.8114 15.1028 21.4674 14.6513C21.0564 14.1094 20.4617 14.0022 20.0488 14.0022H16.6876C16.249 13.9921 15.8234 14.1508 15.4988 14.4453C15.1741 14.7399 14.9755 15.1477 14.9439 15.5845L14.9411 15.6268V15.6691C14.9411 16.1254 15.122 16.4621 15.2672 16.6738C15.3322 16.7688 15.401 16.8554 15.4453 16.9099L15.4548 16.9222C15.5019 16.9805 15.533 17.019 15.5641 17.0623C15.647 17.1733 15.7649 17.3464 15.7988 17.7923V19.178C15.1241 18.0504 14.5709 16.8546 14.1484 15.6108L14.1408 15.5901L14.1333 15.5703C14.0183 15.2703 13.8345 14.8338 13.4659 14.5008C13.0361 14.1104 12.5272 14.0022 12.0644 14.0022H9.9153C9.44684 14.0022 8.88224 14.1113 8.46092 14.5544C8.04713 14.9909 8 15.5139 8 15.7905V15.9165L8.02639 16.0388C8.62144 18.7958 9.84765 21.378 11.6091 23.5833C12.4144 24.8508 13.5077 25.9109 14.8003 26.6778C16.0929 27.4447 17.5484 27.8967 19.0488 27.9972L19.0874 28H19.127C19.8113 28 20.5248 27.9407 21.0612 27.5842C21.7841 27.1026 21.8416 26.3641 21.8416 25.9953V24.9248C22.0273 25.0753 22.2573 25.2766 22.5391 25.5476C22.8803 25.8881 23.1518 26.1835 23.3846 26.4412L23.509 26.5786C23.69 26.7799 23.8681 26.9784 24.0302 27.1411C24.2338 27.3453 24.4855 27.5701 24.8003 27.7366C25.1425 27.9163 25.5016 27.9981 25.8824 27.9981H28.0324C28.4858 27.9981 29.1352 27.8909 29.5923 27.3622C30.09 26.7865 30.0523 26.08 29.8958 25.573L29.8676 25.4817L29.8251 25.3961Z" fill="black"/>
</svg>
