<svg width="40" height="40" viewBox="0 0 40 40" fill="none" xmlns="http://www.w3.org/2000/svg">
<circle cx="20" cy="20" r="20" fill="#95FF42"/>
<path fill-rule="evenodd" clip-rule="evenodd" d="M22.0053 8.90332H21.7713C20.9653 9.04389 20.2516 9.45429 19.6643 10.0171C19.5798 10.0986 19.515 10.1742 19.4701 10.2436C19.4354 10.2977 19.4431 10.3048 19.4932 10.2648C19.9833 9.87502 21.6465 8.6846 22.2289 9.2862C22.2731 9.33194 22.3067 9.39696 22.3387 9.45875C22.3469 9.47464 22.355 9.49032 22.3631 9.50541C22.6166 9.97357 22.1727 10.6991 21.8868 11.1665C21.8512 11.2246 21.8181 11.2787 21.789 11.3279C21.7805 11.342 21.7681 11.3484 21.7517 11.3471C21.5977 11.3356 21.444 11.3223 21.2907 11.3072C20.0074 11.1799 18.7447 11.1795 17.4968 11.5446C17.2117 11.6282 16.9527 11.7575 16.6942 11.8995C16.2977 12.1177 15.8432 12.3695 15.3307 12.6549C15.2911 12.6769 15.2549 12.6721 15.2221 12.6407C15.0403 12.4657 14.8509 12.2821 14.6539 12.0897C14.574 12.0117 14.4842 11.9475 14.3846 11.897C13.9308 11.667 13.4758 11.4385 13.0197 11.2114C13.002 11.2026 12.9917 11.208 12.9887 11.2276C12.9815 11.2781 12.9555 11.3167 12.9106 11.3436C12.8942 11.3534 12.8934 11.3646 12.9081 11.377L14.8491 13.0201C14.8504 13.0212 14.8515 13.0227 14.8521 13.0243C14.8528 13.0259 14.8531 13.0276 14.853 13.0294C14.8528 13.0311 14.8522 13.0328 14.8513 13.0342C14.8504 13.0357 14.8491 13.0369 14.8476 13.0378L14.5625 13.2098C14.5598 13.2114 14.5567 13.2121 14.5536 13.2118C14.5505 13.2116 14.5476 13.2104 14.5453 13.2084C13.7727 12.5788 12.9853 12.1708 12.0274 11.926C11.9715 11.9117 11.9211 11.9169 11.8683 11.9224L11.8683 11.9224C11.8542 11.9239 11.8399 11.9254 11.8254 11.9265C11.7972 11.9285 11.7949 11.9374 11.8185 11.9531C12.4902 12.4069 13.1744 12.8484 13.871 13.2777C13.9205 13.3078 13.9724 13.3745 14.0268 13.4777C14.0343 13.4918 14.0307 13.5025 14.016 13.5097C13.7669 13.6274 13.5896 13.8029 13.4034 13.9871L13.4034 13.9871L13.4034 13.9871C13.2592 14.1298 13.1097 14.2777 12.9175 14.4081C12.904 14.4173 12.8901 14.4184 12.8757 14.4116C12.2112 14.0911 11.5398 13.7933 10.8325 13.579C10.8148 13.5734 10.803 13.5795 10.7971 13.5971L10.7603 13.7082C10.7576 13.7164 10.7577 13.7252 10.7605 13.7333C10.7634 13.7414 10.7688 13.7483 10.776 13.753L12.2938 14.7291C12.301 14.7337 12.3011 14.7382 12.2942 14.7428L12.1168 14.8623C12.1034 14.8714 12.0939 14.8834 12.0883 14.8981C11.916 15.3444 11.742 15.7902 11.5663 16.2355C11.5404 16.3017 11.5011 16.3553 11.4484 16.3962C11.2482 16.551 11.013 16.668 10.7847 16.7817L10.7847 16.7817C10.6352 16.8561 10.4886 16.929 10.3568 17.0101C9.95077 17.2601 9.71551 17.6353 9.65096 18.1357C9.64866 18.1524 9.63949 18.1633 9.62343 18.1686C9.56813 18.187 9.51522 18.2024 9.46376 18.2174L9.46375 18.2174L9.46373 18.2174L9.4637 18.2174C9.31853 18.2598 9.18495 18.2987 9.04199 18.3912C9.02462 18.4024 9.01496 18.4181 9.01299 18.4384L9.00021 18.5574C8.9989 18.5721 9.00365 18.5842 9.01447 18.5937L9.08377 18.6532C9.08587 18.6551 9.08744 18.6575 9.08829 18.6602C9.08913 18.6629 9.08923 18.6658 9.08857 18.6685C9.0879 18.6712 9.0865 18.6736 9.08453 18.6755C9.08255 18.6774 9.08008 18.6787 9.07738 18.6793L9.01791 18.6915C9.01408 18.6923 9.01053 18.694 9.0076 18.6966C9.00467 18.6992 9.00247 18.7025 9.00122 18.7062C8.99997 18.7099 8.99972 18.7138 9.00049 18.7176C9.00127 18.7215 9.00303 18.725 9.00562 18.7279C9.11227 18.8537 9.30445 18.8773 9.46419 18.8931C9.50023 18.897 9.50236 18.8901 9.47058 18.8724L9.13783 18.6891C9.11752 18.6779 9.11883 18.6706 9.14176 18.667C9.29282 18.6447 9.44486 18.6391 9.59788 18.6503C9.61557 18.6519 9.6295 18.6601 9.63965 18.6748L9.78071 18.8877C9.79218 18.9047 9.78776 18.9127 9.76744 18.9117L9.59591 18.9039C9.56019 18.9022 9.55839 18.9093 9.5905 18.925C9.92374 19.0872 10.2675 19.223 10.6217 19.3325C10.6303 19.3351 10.6396 19.3354 10.6485 19.3333C10.6574 19.3311 10.6656 19.3266 10.6723 19.3202L10.7907 19.2061C10.8124 19.1855 10.8083 19.1753 10.7785 19.1757C10.3823 19.1816 10.114 18.7427 10.0682 18.3986C10.0663 18.3835 10.0728 18.3768 10.0879 18.3785C10.3536 18.4027 10.5686 18.5184 10.7328 18.7255C10.737 18.731 10.7418 18.7322 10.747 18.7289L10.7475 18.7284C10.7531 18.7248 10.7542 18.7201 10.7509 18.7142C10.5607 18.3662 10.253 18.2458 9.86918 18.2286C9.85215 18.2279 9.84477 18.2192 9.84707 18.2025C9.95815 17.4195 10.6428 16.9806 11.3171 16.7079C11.3784 16.6829 11.4068 16.7036 11.4022 16.7698C11.3915 16.928 11.3832 17.0883 11.3748 17.2499C11.339 17.9402 11.302 18.6523 11.0797 19.3099C10.9322 19.7479 10.6779 19.9219 10.3337 20.1574L10.2501 20.2147C9.42487 20.7834 9.77285 21.847 10.3577 22.4304C10.4474 22.5198 10.5415 22.6075 10.6362 22.6958C11.0432 23.075 11.4607 23.4641 11.5771 24.0346C11.5804 24.0523 11.5742 24.0653 11.5585 24.0735C10.1488 24.8142 10.8301 27.0397 11.903 27.717C12.51 28.1003 13.1411 27.9136 13.5667 27.3557C13.5713 27.3498 13.57 27.3472 13.5628 27.3478C13.5566 27.3485 13.552 27.3524 13.549 27.3596C13.5461 27.3675 13.5413 27.3739 13.5348 27.3788C13.3267 27.5364 13.1057 27.6731 12.8718 27.7887C12.7948 27.8271 12.7189 27.8444 12.6442 27.8408C11.6499 27.7951 10.5529 26.2931 10.9529 25.3366C10.9759 25.2826 10.9967 25.227 11.0154 25.17C11.0213 25.1526 11.0313 25.1495 11.0453 25.1607L11.4061 25.4433C11.4113 25.4473 11.4155 25.4524 11.4186 25.4583C11.4216 25.4641 11.4234 25.4705 11.4238 25.477C11.4241 25.4836 11.4231 25.4902 11.4207 25.4963C11.4184 25.5024 11.4147 25.508 11.41 25.5126C11.0291 25.8792 11.1608 26.4386 11.4577 26.8092C11.9512 27.4255 12.6393 27.3154 13.1932 26.8298C13.2063 26.8183 13.2209 26.8159 13.2369 26.8224L13.7299 27.02C13.7491 27.0277 13.7658 27.043 13.781 27.057C13.7958 27.0706 13.8092 27.083 13.8223 27.0859C13.851 27.092 13.8806 27.0986 13.9107 27.1054C14.2263 27.1759 14.6097 27.2615 14.8771 27.0313C14.6123 27.0362 14.3512 26.9953 14.0936 26.9084C14.0789 26.9035 14.0754 26.8942 14.0833 26.8804L14.4392 26.2528C14.4473 26.238 14.4596 26.2294 14.476 26.2267C14.6503 26.1979 14.7801 26.2561 14.8653 26.4012L14.8662 26.403L14.8669 26.4048C14.8673 26.4062 14.8675 26.4077 14.8675 26.4091C14.8675 26.4119 14.8668 26.4147 14.8654 26.4172C14.8645 26.4188 14.8634 26.4202 14.862 26.4215L14.8596 26.4232C14.8572 26.4248 14.8544 26.4256 14.8515 26.4258L14.7837 26.4292C14.7657 26.4302 14.7557 26.4396 14.7537 26.4572L14.7341 26.647C14.7324 26.662 14.7391 26.6707 14.7542 26.673L15.0948 26.7227C15.1004 26.7233 15.1055 26.7258 15.1095 26.7297C15.1135 26.7337 15.1161 26.7388 15.1169 26.7443C15.1182 26.7525 15.1179 26.7602 15.1159 26.7674C15.112 26.7818 15.1168 26.7924 15.1302 26.7993L15.6222 27.0559C15.6318 27.0609 15.64 27.0683 15.646 27.0772C15.652 27.0862 15.6558 27.0965 15.6568 27.1073C15.6579 27.1181 15.6563 27.1289 15.6521 27.1389C15.648 27.1489 15.6414 27.1577 15.633 27.1645C15.3932 27.3581 15.1799 27.5782 14.9667 27.7983C14.7063 28.067 14.446 28.3357 14.1374 28.556C14.1076 28.5769 14.0999 28.5707 14.1143 28.5373L14.1511 28.4518C14.1539 28.4453 14.154 28.438 14.1515 28.4314C14.1491 28.4248 14.1442 28.4195 14.1379 28.4164C14.0694 28.3849 14.004 28.3859 13.9418 28.4193C13.9336 28.4238 13.9264 28.43 13.9209 28.4374C13.9153 28.4449 13.9113 28.4535 13.9093 28.4626L13.8449 28.7624C13.8426 28.7731 13.8425 28.7842 13.8448 28.7949C13.847 28.8057 13.8515 28.8158 13.858 28.8247C13.8645 28.8335 13.8727 28.8409 13.8822 28.8464C13.8918 28.8518 13.9023 28.8552 13.9132 28.8563C14.324 28.8964 14.9769 28.2041 15.3386 27.8205C15.3885 27.7675 15.4329 27.7205 15.4703 27.6821C15.511 27.6405 15.5229 27.6475 15.5062 27.7032C15.4259 27.9666 15.2633 28.1994 15.0944 28.4413C14.955 28.6409 14.8114 28.8467 14.706 29.0809C14.6992 29.0959 14.7016 29.1095 14.7134 29.1217L14.7483 29.158C14.7538 29.1638 14.7613 29.1672 14.7692 29.1677C14.7771 29.1681 14.7849 29.1656 14.7911 29.1605C15.342 28.7113 15.719 27.9465 15.8596 27.2682C15.8625 27.2535 15.8715 27.2473 15.8866 27.2495L16.5079 27.3523C16.5103 27.3527 16.5126 27.3537 16.5145 27.3552C16.5152 27.3559 16.5159 27.3566 16.5166 27.3574L16.5175 27.3586L16.5187 27.3611C16.5193 27.3626 16.5196 27.3642 16.5197 27.3659L16.5195 27.3685C16.5192 27.371 16.5182 27.3733 16.5167 27.3754C15.5619 28.6287 14.513 29.8001 13.3701 30.8896C13.0802 31.1658 12.7636 31.4235 12.4206 31.6627C12.3852 31.6876 12.3739 31.6793 12.3866 31.6377C12.4692 31.3686 12.5915 31.1067 12.7136 30.8453C12.7965 30.6678 12.8793 30.4906 12.9494 30.3116C12.952 30.305 12.9502 30.3001 12.944 30.2968L12.8054 30.2295C12.7998 30.2269 12.7954 30.2282 12.7921 30.2334C12.7231 30.349 12.6481 30.4634 12.5724 30.5788L12.5724 30.5788C12.3188 30.9656 12.0574 31.3643 11.9866 31.8598C11.9843 31.8772 11.9892 31.8923 12.0013 31.905L12.1497 32.0549C12.1629 32.068 12.1783 32.072 12.1959 32.0667C12.521 31.9665 12.8038 31.8179 13.0443 31.6209C13.5833 31.1796 14.1005 30.6684 14.5959 30.0875C14.7946 29.8545 14.991 29.617 15.1879 29.379C15.7162 28.7403 16.2478 28.0975 16.8357 27.5268C16.8639 27.4992 16.8762 27.505 16.8726 27.544C16.7536 28.7796 16.3191 29.8771 15.4143 30.7967C15.2716 30.9415 15.1272 31.0841 14.9828 31.2266C14.5291 31.6746 14.0757 32.1222 13.6763 32.6393C13.6632 32.656 13.6664 32.66 13.6857 32.6511C13.7778 32.6095 13.8654 32.5597 13.9486 32.5017C14.5339 32.0945 14.992 31.5284 15.455 30.9562C15.8369 30.4843 16.2221 30.0082 16.6848 29.6137C16.686 29.6127 16.6875 29.6121 16.689 29.6119C16.6906 29.6118 16.6921 29.6121 16.6935 29.6128C16.6949 29.6136 16.696 29.6147 16.6967 29.6161C16.6974 29.6174 16.6977 29.619 16.6976 29.6205C16.6193 30.5724 16.4807 31.5136 16.2818 32.4442C16.1761 32.9382 15.9918 33.7049 15.5947 34.0367C15.576 34.0524 15.5788 34.0609 15.603 34.0622C15.7864 34.0721 15.9933 33.7452 16.0586 33.6179C16.2261 33.2929 16.3462 32.9508 16.4189 32.5917C16.4889 32.2458 16.5474 31.8984 16.606 31.5511L16.606 31.5511L16.606 31.551L16.606 31.551L16.606 31.551L16.606 31.551L16.606 31.551L16.606 31.5509L16.606 31.5509L16.606 31.5509C16.6647 31.2029 16.7233 30.855 16.7934 30.5087C16.8502 30.2276 16.877 29.9368 16.9036 29.6482L16.9036 29.6481C16.9139 29.537 16.9241 29.4261 16.936 29.3163C16.9435 29.2478 16.9674 29.1854 17.0077 29.129C17.376 28.6117 17.7478 28.0897 18.1229 27.5631C18.1718 27.4946 18.2113 27.4997 18.2414 27.5784C18.4095 28.0192 18.9757 28.2881 19.4239 28.2724C19.5893 28.2665 19.7512 28.194 19.9099 28.123L19.91 28.123C19.9499 28.1051 19.9895 28.0874 20.029 28.0708C20.0444 28.0643 20.0598 28.064 20.0752 28.0699L21.1933 28.4881C21.2084 28.4937 21.2169 28.5045 21.2189 28.5206C21.25 28.8142 21.2692 29.1887 21.2764 29.6441C21.2936 30.69 20.9569 31.5369 20.3067 32.3208C20.252 32.387 20.2605 32.3965 20.3322 32.3493C21.3988 31.6509 21.6981 29.6997 21.3806 28.6012C21.3793 28.5969 21.3792 28.5923 21.3801 28.5879C21.3811 28.5835 21.3831 28.5794 21.386 28.576C21.389 28.5726 21.3927 28.5699 21.3969 28.5683C21.4011 28.5667 21.4056 28.5662 21.4101 28.5668C22.0053 28.6449 23.3127 28.7855 23.5383 27.9976C23.5468 27.9678 23.5406 27.9643 23.5196 27.9873L23.4934 28.0163C23.3596 28.1643 23.2947 28.2361 23.1038 28.3308C23.0314 28.3669 22.95 28.3847 22.8595 28.3844C22.5335 28.3838 22.2248 28.3284 21.9169 28.2731L21.9168 28.2731C21.7699 28.2467 21.6232 28.2204 21.475 28.2001C21.4612 28.1981 21.4511 28.1909 21.4445 28.1785C21.2528 27.7974 21.0606 27.4171 20.868 27.0377C20.8531 27.0088 20.8306 26.9871 20.8076 26.965L20.8076 26.9649C20.7927 26.9506 20.7776 26.9361 20.7643 26.9193C20.7518 26.9039 20.7553 26.8947 20.7746 26.8917C21.518 26.7794 22.1437 26.4555 22.7903 26.1207L22.7908 26.1205L22.7913 26.1202L22.7915 26.1201L22.7921 26.1198L22.7928 26.1195C22.8953 26.0664 22.9983 26.0131 23.1023 25.9603C23.1124 25.9552 23.1241 25.954 23.1351 25.9569C23.146 25.9598 23.1556 25.9666 23.1618 25.9761L23.3068 26.1923L23.3076 26.1933L23.3086 26.194C23.3093 26.1944 23.3101 26.1947 23.311 26.1947C23.3118 26.1947 23.3126 26.1944 23.3134 26.194C23.3141 26.1936 23.3147 26.193 23.3152 26.1923C23.3178 26.1881 23.3206 26.1838 23.3235 26.1796C23.3284 26.172 23.3353 26.1684 23.3441 26.1687L23.7236 26.1776C23.727 26.1777 23.7303 26.1768 23.7331 26.1749C23.7359 26.173 23.738 26.1702 23.7391 26.167C23.7402 26.1638 23.7403 26.1603 23.7393 26.1571C23.7382 26.1539 23.7362 26.151 23.7334 26.1491C23.675 26.1045 23.5905 26.1 23.5042 26.0954C23.38 26.0887 23.2522 26.0818 23.1928 25.9554C23.1852 25.939 23.1879 25.9246 23.2006 25.9122C23.5457 25.575 24.0765 25.6158 24.4549 25.8655C24.8367 26.1175 25.0012 26.4686 24.9484 26.9188C24.9432 26.9656 24.9484 26.9668 24.9641 26.9222C25.2045 26.2543 24.6859 25.6129 24.0131 25.5578C23.8843 25.5473 23.7367 25.5675 23.5702 25.6183C23.548 25.6251 23.5445 25.6199 23.5599 25.6025C23.6276 25.5266 23.6959 25.4521 23.7638 25.3781C24.0873 25.0251 24.4024 24.6814 24.6063 24.2293C24.6112 24.2185 24.6186 24.2091 24.628 24.2019C24.6373 24.1947 24.6483 24.1899 24.66 24.1879C24.6716 24.1859 24.6835 24.1868 24.6948 24.1905C24.706 24.1942 24.7161 24.2006 24.7243 24.2091L26.7375 26.3236C26.7556 26.3426 26.7799 26.3543 26.8061 26.3567C26.8322 26.359 26.8583 26.3518 26.8795 26.3363L26.9262 26.3019C26.9796 26.2629 26.985 26.2182 26.9424 26.1678L25.0266 23.8936C25.0239 23.8904 25.0221 23.8867 25.0213 23.8827C25.0204 23.8788 25.0206 23.8746 25.0217 23.8707C25.0228 23.8668 25.0249 23.8632 25.0277 23.8602C25.0305 23.8573 25.034 23.8551 25.0379 23.8538C25.1127 23.8293 25.1777 23.7899 25.2411 23.7515C25.2976 23.7172 25.3529 23.6836 25.4129 23.6621C25.6188 23.5879 25.784 23.6252 26.0248 23.7112C26.0407 23.7171 26.0557 23.7186 26.0713 23.7201C26.0855 23.7216 26.1002 23.723 26.1162 23.7279C26.2873 23.7825 26.4574 23.8402 26.6274 23.8979L26.6275 23.8979L26.6276 23.898C27.0851 24.0532 27.5429 24.2085 28.0237 24.3045C28.3445 24.3684 28.6592 24.3698 28.9679 24.3089C28.9849 24.3053 28.9982 24.2961 29.0077 24.2814C29.0873 24.1582 29.1037 24.0269 29.0569 23.8877C29.0506 23.8693 29.0573 23.86 29.077 23.8597C30.1554 23.8466 31.2049 23.668 32.2256 23.3239C32.4972 23.2322 32.7423 23.1129 32.9608 22.9661C33.0179 22.9278 33.0126 22.9155 32.9451 22.9293C31.8268 23.1599 30.6863 23.2866 29.5238 23.3092C28.5076 23.3287 27.584 23.2183 26.639 23.1053C26.4203 23.0792 26.2005 23.0529 25.9781 23.0281C25.9584 23.0258 25.9534 23.0159 25.9629 22.9986L26.3236 22.3503C26.3283 22.3419 26.335 22.335 26.3431 22.3302C26.3512 22.3253 26.3604 22.3228 26.3698 22.3227C27.4973 22.3105 28.6499 22.2721 29.77 22.1085C30.2738 22.0352 30.9865 21.8883 31.3718 21.5309C31.3856 21.5182 31.3867 21.5044 31.3753 21.4897L31.2642 21.3402C31.2527 21.3248 31.2375 21.3158 31.2185 21.3132L30.7284 21.2424C30.6924 21.2372 30.67 21.2523 30.6611 21.2876L30.6326 21.3992C30.6254 21.4284 30.6367 21.4446 30.6665 21.4479L30.986 21.4818C31.0387 21.4874 31.0392 21.4964 30.9875 21.5088C30.0313 21.7375 29.0642 21.9002 28.0861 21.9969C27.6281 22.0421 27.0658 22.0799 26.619 21.9546C26.5731 21.9415 26.5479 21.9114 26.5433 21.8642C26.5273 21.7015 26.5362 21.5399 26.5452 21.3776L26.5452 21.3775C26.5513 21.2668 26.5574 21.1557 26.5556 21.0439C26.5556 21.0272 26.5636 21.0162 26.5797 21.0109C27.9682 20.5681 29.0559 19.4976 29.2186 17.9966C29.2628 17.5893 29.3033 17.2695 29.34 17.0372C29.3423 17.0211 29.3416 17.0052 29.338 16.9895L29.2888 16.7835C29.2849 16.7662 29.2918 16.7568 29.3095 16.7555L29.4281 16.7457L29.3595 16.9472C29.3585 16.9495 29.3591 16.9513 29.3614 16.9526C29.3644 16.9546 29.3668 16.9583 29.3688 16.9639L29.3692 16.9648L29.3697 16.9653C29.3702 16.9657 29.3708 16.9659 29.3714 16.9659C29.3721 16.9659 29.3727 16.9657 29.3733 16.9653C29.3739 16.965 29.3744 16.9645 29.3747 16.9639L29.4666 16.782C29.4751 16.765 29.4712 16.7516 29.4548 16.7417C29.4457 16.7364 29.4372 16.7372 29.4294 16.7442L29.6073 16.4533C29.6165 16.4382 29.6297 16.426 29.6455 16.4181C29.6613 16.4102 29.6791 16.4069 29.6968 16.4085C29.8236 16.4203 29.918 16.474 30.0154 16.5295C30.072 16.5616 30.1296 16.5944 30.1952 16.6199C30.2243 16.631 30.2283 16.6253 30.207 16.6027C30.0831 16.4723 29.935 16.3808 29.7626 16.3284C29.7469 16.3235 29.7322 16.3258 29.7184 16.3353C29.6841 16.3591 29.6506 16.384 29.6174 16.4087L29.6173 16.4087L29.6173 16.4088L29.6173 16.4088L29.6173 16.4088L29.6172 16.4088C29.4559 16.5287 29.2998 16.6448 29.0839 16.611C29.0403 16.6042 28.9976 16.5971 28.9554 16.59C28.644 16.5378 28.3646 16.4909 28.0365 16.6385C28.0293 16.6417 28.0212 16.6427 28.0134 16.6413C28.0056 16.6399 27.9984 16.6362 27.9928 16.6307C27.845 16.4845 27.7133 16.3286 27.583 16.1742C27.3048 15.8447 27.0324 15.5222 26.6225 15.3164C26.5815 15.2958 26.554 15.2756 26.5399 15.256C26.5114 15.2157 26.5166 15.177 26.5556 15.14C26.7545 14.9516 26.9509 14.7607 27.1449 14.5674C27.1479 14.5644 27.1479 14.5615 27.1449 14.5585V14.558C27.141 14.5538 27.1364 14.5541 27.1312 14.559L26.5374 15.1213C26.5296 15.1288 26.5196 15.1338 26.5089 15.1357C26.4981 15.1375 26.487 15.1361 26.477 15.1316L25.9855 14.9109C25.9761 14.9068 25.968 14.9002 25.962 14.892C25.9559 14.8837 25.9522 14.874 25.951 14.8638C25.9499 14.8535 25.9514 14.8432 25.9555 14.8337C25.9595 14.8242 25.966 14.8159 25.9742 14.8097C26.4686 14.4342 27.0968 14.2331 27.7357 14.357C27.8045 14.3701 27.8487 14.4103 27.8684 14.4774L27.8851 14.5354C27.9048 14.6026 27.8797 14.6355 27.8099 14.6342C27.7408 14.6329 27.6856 14.6219 27.6443 14.6013C27.6437 14.6009 27.643 14.6007 27.6422 14.6006L27.6411 14.6005C27.64 14.6006 27.639 14.601 27.6381 14.6017C27.6373 14.6024 27.6367 14.6034 27.6363 14.6044C27.636 14.6055 27.6361 14.6066 27.6364 14.6077C27.6384 14.6136 27.6425 14.6173 27.6487 14.619C27.6726 14.6253 27.6955 14.6327 27.7181 14.64C27.7672 14.6557 27.8152 14.6711 27.8704 14.6755C27.8851 14.6768 27.8987 14.6734 27.9112 14.6652C27.9682 14.6278 27.9954 14.5751 27.9928 14.5069C27.9921 14.4902 27.9865 14.4751 27.976 14.4617C27.8627 14.3165 27.7136 14.2395 27.5288 14.2307C27.5065 14.2297 27.5016 14.22 27.514 14.2017L27.5981 14.0793C27.6227 14.0433 27.6158 14.0356 27.5774 14.0562C27.4827 14.1067 27.369 14.1506 27.2363 14.1879C26.9224 14.2757 26.6149 14.3749 26.3138 14.4853L26.3128 14.4857C26.312 14.4859 26.3112 14.4859 26.3104 14.4857C26.3092 14.4854 26.3082 14.4846 26.3076 14.4836C26.3071 14.4825 26.3069 14.4813 26.3072 14.4801L26.3079 14.4787L26.3087 14.4779L26.3094 14.4774C26.5574 14.2857 26.8053 14.0906 27.053 13.892C27.0737 13.8753 27.0909 13.8496 27.1046 13.8149C27.1118 13.7965 27.1069 13.7924 27.0899 13.8026L25.7014 14.6308C25.6857 14.6403 25.6686 14.6442 25.6503 14.6426C25.4304 14.6216 25.2276 14.5498 25.0418 14.4273C24.9743 14.3824 24.9065 14.339 24.8383 14.297C24.8249 14.2889 24.8247 14.2803 24.8378 14.2715L26.4966 13.1499C26.5127 13.1391 26.5186 13.1243 26.5143 13.1056L26.5006 13.0462C26.4956 13.0249 26.4839 13.0198 26.4652 13.0309L24.5405 14.1535C24.5247 14.1627 24.5061 14.1655 24.4884 14.1614L23.9074 14.0184C23.892 14.0148 23.8851 14.0051 23.8868 13.9894L23.9403 13.4718C23.9423 13.4541 23.9502 13.4399 23.9639 13.4291C25.4597 12.255 26.9554 11.0807 28.4508 9.90598C28.462 9.89713 28.4861 9.88927 28.5231 9.88239C28.5265 9.88179 28.5297 9.88043 28.5324 9.87841C28.5352 9.87639 28.5375 9.87376 28.5391 9.87073C28.5407 9.8677 28.5416 9.86434 28.5417 9.86091C28.5419 9.85748 28.5412 9.85407 28.5398 9.85093L28.4897 9.73936C28.486 9.7312 28.4796 9.7246 28.4716 9.72073C28.4636 9.71686 28.4545 9.71598 28.4459 9.71823C28.3063 9.75329 28.1898 9.80358 28.0965 9.86912C27.9079 10.0013 27.7162 10.1327 27.5248 10.2639L27.5248 10.2639L27.5247 10.264L27.5246 10.264L27.5245 10.2641L27.5243 10.2642C27.1891 10.494 26.8544 10.7234 26.5379 10.9558C26.3854 11.0678 26.2336 11.1812 26.0818 11.2948L26.0817 11.2948C25.5955 11.6583 25.1083 12.0225 24.5926 12.3394C24.4982 12.3974 24.4893 12.3863 24.566 12.306C24.7761 12.0864 24.9961 11.8543 25.2261 11.6095C25.4571 11.3644 25.638 11.0594 25.7687 10.6943C25.772 10.6851 25.7732 10.6753 25.7723 10.6655C25.7713 10.6557 25.7681 10.6463 25.763 10.638C25.7579 10.6296 25.7511 10.6224 25.7429 10.617C25.7347 10.6117 25.7254 10.6082 25.7156 10.6069L25.5918 10.5901C25.578 10.5885 25.5659 10.5921 25.5554 10.601L25.3102 10.8123C25.2784 10.8395 25.2816 10.8447 25.32 10.828L25.5667 10.7194C25.5887 10.7099 25.5954 10.7163 25.5869 10.7386C25.524 10.907 25.4365 11.0784 25.3244 11.2527C24.9427 11.8487 24.4954 12.3722 23.9826 12.823C23.9551 12.8473 23.9135 12.8761 23.8578 12.9095C23.8401 12.9204 23.8275 12.9161 23.8199 12.8968L23.7791 12.7935C23.7765 12.787 23.7754 12.7799 23.776 12.7728C23.7765 12.7657 23.7786 12.7589 23.7821 12.7527C24.1728 12.104 24.4456 11.3643 24.335 10.5892C24.3327 10.5725 24.3242 10.5597 24.3095 10.5508C24.2436 10.5118 24.1777 10.473 24.1119 10.4343C23.9945 10.3661 23.8953 10.3806 23.7717 10.3986L23.7526 10.4014C23.7274 10.405 23.7267 10.4114 23.7506 10.4206L24.1517 10.5759C24.1665 10.5816 24.1795 10.5915 24.189 10.6043C24.1984 10.617 24.2041 10.6323 24.2053 10.6481C24.2428 11.2152 24.0484 11.6844 23.8444 12.177L23.8444 12.1771L23.8443 12.1772L23.8443 12.1773L23.8442 12.1774L23.8442 12.1775L23.8441 12.1776L23.8441 12.1778L23.844 12.1778C23.805 12.272 23.7657 12.367 23.7275 12.4637C23.7143 12.4986 23.6887 12.5227 23.6543 12.5306C23.6462 12.5323 23.6377 12.5311 23.6304 12.5272C23.623 12.5234 23.6172 12.5171 23.614 12.5095L23.6106 12.5013C23.5396 12.3298 23.4725 12.1674 23.2576 12.1394C23.2502 12.1384 23.2433 12.135 23.2379 12.1298C23.2326 12.1245 23.2292 12.1177 23.2282 12.1104L23.2114 12.0003C23.2099 11.9904 23.2116 11.9802 23.2164 11.9713C23.2865 11.8382 23.3805 11.7273 23.4985 11.6385C23.5162 11.6254 23.5304 11.6284 23.5412 11.6474C23.5639 11.6877 23.5756 11.7303 23.5766 11.7752C23.5773 11.7932 23.5833 11.7953 23.5948 11.7815C23.6662 11.6973 23.6625 11.6264 23.5835 11.5687C23.5653 11.5554 23.5429 11.5493 23.5203 11.5515C23.4978 11.5536 23.4767 11.564 23.4611 11.5805L23.1131 11.9501C23.0909 11.9737 23.0669 11.9759 23.0414 11.9565C22.7036 11.7032 22.3295 11.5263 21.9193 11.4257C21.9023 11.4214 21.8978 11.4116 21.906 11.3962C21.9744 11.2669 22.0603 11.1289 22.1497 10.9851L22.1497 10.9851L22.1498 10.985L22.1498 10.985L22.1498 10.9849C22.4059 10.5731 22.6913 10.1142 22.6796 9.67891C22.6682 9.23099 22.4434 8.97246 22.0053 8.90332ZM21.4042 11.8754C21.1943 11.8528 20.9628 11.7732 20.7893 11.64C20.7641 11.6207 20.7674 11.613 20.7992 11.6169L21.5133 11.7078C21.5185 11.7085 21.5234 11.7105 21.5276 11.7137C21.5318 11.7168 21.5351 11.7209 21.5373 11.7257C21.5394 11.7304 21.5402 11.7356 21.5398 11.7407C21.5393 11.7459 21.5374 11.7508 21.5344 11.755L21.4696 11.8459C21.4535 11.8685 21.4317 11.8784 21.4042 11.8754ZM20.9083 12.2244C20.7625 12.303 20.6081 12.3584 20.4453 12.3905C20.4266 12.3941 20.4263 12.399 20.4443 12.4053C20.534 12.437 20.7403 12.3672 20.8791 12.3202C20.9122 12.309 20.9414 12.2991 20.9643 12.2922C20.9703 12.2903 20.9752 12.2861 20.9782 12.2805C20.9811 12.2749 20.9818 12.2684 20.98 12.2622C20.9699 12.2262 20.9758 12.1946 20.9977 12.1674C21.0108 12.1516 21.0253 12.1502 21.041 12.1629C21.111 12.2196 21.1856 12.2762 21.2617 12.3339L21.2617 12.3339C21.5759 12.5721 21.9156 12.8296 22.0584 13.1912C22.0656 13.2092 22.06 13.2151 22.0417 13.2089C21.6334 13.0703 21.2202 12.9548 20.8021 12.8624C20.3873 12.7704 20.0226 12.6574 19.7282 12.4112C19.6889 12.3784 19.6943 12.3671 19.7444 12.3772C19.9341 12.4169 20.1256 12.4274 20.319 12.4087C20.3727 12.4035 20.3727 12.3971 20.319 12.3895L18.0787 12.0701C18.0743 12.0692 18.0703 12.067 18.0674 12.0636C18.0645 12.0602 18.0628 12.0559 18.0626 12.0515C18.0625 12.047 18.0638 12.0426 18.0665 12.039C18.0691 12.0354 18.0729 12.0329 18.0772 12.0317C18.7509 11.8807 19.4082 11.849 20.0491 11.9369C20.3545 11.9788 20.5886 12.0442 20.7515 12.133C20.8196 12.1703 20.8721 12.1988 20.9088 12.2185C20.912 12.2205 20.9119 12.2224 20.9083 12.2244ZM17.0343 12.1089C17.2718 12.0352 17.5094 11.9618 17.7469 11.8887C17.7679 11.8821 17.7814 11.8805 17.7873 11.8838C17.8125 11.8972 17.8131 11.9118 17.7892 11.9275C17.7678 11.9412 17.747 11.955 17.7265 11.9686C17.6139 12.0434 17.5104 12.1121 17.3636 12.1241C17.2466 12.134 17.129 12.1423 17.0107 12.1492C17.0086 12.1493 17.0066 12.1488 17.0048 12.1478C17.003 12.1468 17.0015 12.1454 17.0005 12.1436C16.9996 12.1417 16.9991 12.1397 16.9993 12.1377C16.9994 12.1356 17.0001 12.1336 17.0013 12.132C17.0099 12.1208 17.0208 12.1131 17.0343 12.1089ZM23.0311 12.6648L22.9854 12.7213C22.9673 12.7432 22.9716 12.7491 22.9981 12.739L23.1534 12.6785C23.1715 12.6717 23.1877 12.6744 23.2021 12.6869L23.3874 12.8447C23.4018 12.8571 23.4072 12.8727 23.4036 12.8914C23.3689 13.0675 23.2073 13.2512 23.0779 13.3983L23.0778 13.3984L23.0777 13.3985C23.0552 13.4241 23.0336 13.4486 23.0139 13.4718C23.0023 13.4855 22.9875 13.4961 22.9709 13.5028C22.9543 13.5095 22.9363 13.512 22.9184 13.5102C22.9005 13.5085 22.8833 13.5024 22.8683 13.4925C22.8533 13.4827 22.8408 13.4693 22.832 13.4536C22.488 12.8363 22.0142 12.3104 21.331 12.0745C21.25 12.0466 21.2492 12.0166 21.3285 11.9845L21.4976 11.9167C21.5687 11.8882 21.639 11.8895 21.7084 11.9206L22.9913 12.4962C23.0065 12.503 23.02 12.5133 23.0307 12.5262C23.0414 12.5392 23.0489 12.5544 23.0528 12.5707C23.0566 12.587 23.0567 12.6039 23.0529 12.6202C23.0491 12.6366 23.0417 12.6518 23.0311 12.6648ZM15.691 12.8565C15.7411 12.8227 15.8032 12.7868 15.8773 12.7488C16.1414 12.6125 16.4183 12.505 16.7079 12.4264C16.7292 12.4205 16.7354 12.4277 16.7266 12.448L16.5113 12.9361C16.508 12.9435 16.5025 12.9496 16.4956 12.9538C16.4886 12.9579 16.4806 12.9598 16.4725 12.9592L15.7033 12.9036C15.6525 12.9 15.6484 12.8843 15.691 12.8565ZM17.9229 12.4475C17.7356 12.476 17.5479 12.537 17.3862 12.6372C17.3626 12.6523 17.3429 12.6481 17.3272 12.6245L17.2903 12.5699C17.2756 12.5476 17.2795 12.5294 17.3021 12.5154C17.4702 12.4112 17.742 12.4053 17.9229 12.4343C17.9517 12.4388 17.9517 12.4433 17.9229 12.4475ZM18.2316 12.5001C18.246 12.4968 18.2584 12.4906 18.2689 12.4814C18.2703 12.4801 18.2713 12.4784 18.2718 12.4765C18.2723 12.4746 18.2722 12.4726 18.2716 12.4707C18.271 12.4689 18.2698 12.4672 18.2683 12.466C18.2668 12.4648 18.265 12.464 18.263 12.4637L18.0836 12.4465C18.0787 12.4462 18.0763 12.4433 18.0763 12.4377V12.4372C18.0766 12.4297 18.0805 12.4256 18.088 12.4249C18.4665 12.3994 18.9949 12.4465 19.3094 12.6844C19.3156 12.6893 19.3228 12.6926 19.3306 12.6943L19.3728 12.7026C19.3895 12.7062 19.391 12.7129 19.3773 12.7228C19.1037 12.9222 18.8737 13.0179 18.5186 13.1655L18.3923 13.2182C18.2583 13.2746 18.1208 13.3622 17.9799 13.4812C17.9675 13.4916 17.9542 13.4929 17.9401 13.4851C17.6339 13.3194 17.3749 13.1017 17.2849 12.7586C17.2811 12.7441 17.2829 12.7287 17.2899 12.7154C17.3092 12.6784 17.3398 12.6674 17.3818 12.6825C17.3908 12.6857 17.4006 12.6864 17.4103 12.6844C17.6845 12.6235 17.9583 12.562 18.2316 12.5001ZM17.0328 12.8624L17.1365 12.7208C17.1375 12.7193 17.1391 12.7181 17.1408 12.7176C17.1426 12.717 17.1445 12.717 17.1462 12.7176C17.148 12.7182 17.1494 12.7194 17.1504 12.721C17.1514 12.7225 17.1519 12.7244 17.1517 12.7262L17.1468 12.8461C17.1465 12.8582 17.1416 12.8696 17.1331 12.8783C17.1247 12.8869 17.1132 12.8921 17.1011 12.8928L17.0505 12.8953C17.0213 12.8969 17.0154 12.8859 17.0328 12.8624ZM16.9982 12.9644C16.9999 12.9677 17.0006 12.9713 17.0004 12.9749L16.9895 13.1356C16.9894 13.1384 16.9886 13.1411 16.9873 13.1436C16.9861 13.146 16.9843 13.1482 16.9821 13.1499C16.9799 13.1516 16.9774 13.1529 16.9747 13.1535C16.972 13.1542 16.9692 13.1543 16.9664 13.1538L16.7738 13.1189C16.7699 13.1182 16.7664 13.1163 16.7636 13.1135C16.7608 13.1107 16.7589 13.1072 16.7582 13.1033C16.7574 13.0994 16.7579 13.0954 16.7594 13.0918C16.761 13.0882 16.7636 13.0852 16.7669 13.083L16.9704 12.9567C16.9735 12.9548 16.977 12.9538 16.9806 12.9538C16.9843 12.9537 16.9878 12.9547 16.991 12.9566C16.9941 12.9585 16.9966 12.9612 16.9982 12.9644ZM21.5015 13.492C21.2312 13.5097 20.9048 13.5082 20.7707 13.2536C20.7651 13.2431 20.7682 13.238 20.78 13.2384C21.0198 13.2428 21.3315 13.2988 21.5084 13.4733C21.5202 13.4844 21.5179 13.4907 21.5015 13.492ZM17.2618 14.2051C17.2504 14.2907 17.2279 14.2934 17.1945 14.2135C17.0703 13.9156 17.0089 13.6039 17.0102 13.2782C17.0103 13.2747 17.0113 13.2712 17.0133 13.2683C17.0152 13.2653 17.0178 13.263 17.021 13.2615C17.0241 13.26 17.0276 13.2595 17.031 13.2599C17.0343 13.2603 17.0375 13.2617 17.0402 13.2639C17.2928 13.4708 17.2992 13.924 17.2618 14.2051ZM14.8831 13.7518C14.8836 13.7482 14.8851 13.7449 14.8874 13.7421L15.0948 13.5047C15.0974 13.5012 15.1013 13.4987 15.1056 13.4978C15.11 13.4968 15.1145 13.4975 15.1184 13.4997C15.1222 13.5019 15.1252 13.5054 15.1266 13.5096C15.1281 13.5138 15.1279 13.5183 15.1263 13.5224L15.0545 13.7475C15.0535 13.751 15.0514 13.7541 15.0486 13.7563C15.0458 13.7586 15.0424 13.76 15.0388 13.7603L14.9026 13.7721C14.899 13.7724 14.8954 13.7716 14.8923 13.7699C14.8892 13.7681 14.8866 13.7654 14.885 13.7622C14.8833 13.759 14.8827 13.7554 14.8831 13.7518ZM15.9677 13.7515C15.9645 13.7544 15.9603 13.7562 15.9559 13.7564L15.6964 13.7775C15.6934 13.7778 15.6904 13.7773 15.6876 13.7761C15.6848 13.775 15.6823 13.7732 15.6803 13.7709C15.6784 13.7686 15.677 13.7658 15.6763 13.7629C15.6755 13.7599 15.6755 13.7569 15.6763 13.7539L15.7387 13.517C15.7398 13.5129 15.7422 13.5093 15.7456 13.5067C15.749 13.5041 15.7531 13.5027 15.7574 13.5028H16.184C16.1878 13.5028 16.1915 13.5039 16.1947 13.5061C16.1978 13.5082 16.2003 13.5112 16.2017 13.5148C16.2031 13.5183 16.2034 13.5222 16.2027 13.5259C16.2019 13.5296 16.2 13.5331 16.1972 13.5357L15.9677 13.7515ZM20.1927 13.7441C19.5807 13.7711 19.014 13.8124 18.4405 14.042C18.4231 14.0488 18.409 14.0446 18.3982 14.0292L18.3554 13.9668C18.344 13.95 18.3472 13.9371 18.3653 13.9279C18.8738 13.6671 19.4148 13.5265 19.9882 13.5062C19.9921 13.5061 19.9959 13.5068 19.9996 13.5083C20.0032 13.5098 20.0066 13.5121 20.0093 13.5151L20.1986 13.7313C20.1995 13.7325 20.2 13.7338 20.2002 13.7353C20.2004 13.7367 20.2002 13.7382 20.1996 13.7395C20.1989 13.7409 20.198 13.742 20.1968 13.7428C20.1955 13.7436 20.1941 13.7441 20.1927 13.7441ZM16.2176 13.9847C16.2174 13.9828 16.2177 13.9808 16.2184 13.979C16.2472 13.9014 16.2942 13.8381 16.3594 13.7893C16.3632 13.7865 16.3675 13.7846 16.3721 13.7839C16.3767 13.7832 16.3814 13.7836 16.3859 13.7851C16.3903 13.7866 16.3942 13.7891 16.3974 13.7925C16.4006 13.7959 16.4029 13.8001 16.4042 13.8046L16.4627 14.013C16.4635 14.0162 16.4636 14.0197 16.4628 14.023C16.462 14.0263 16.4603 14.0294 16.458 14.0319C16.4557 14.0344 16.4528 14.0362 16.4496 14.0373C16.4464 14.0384 16.4429 14.0386 16.4396 14.038L16.2282 13.9967C16.2263 13.9964 16.2245 13.9956 16.223 13.9944C16.2214 13.9933 16.2201 13.9918 16.2192 13.9902C16.2183 13.9885 16.2177 13.9866 16.2176 13.9847ZM23.584 14.0105C23.5788 14.0059 23.5735 14.002 23.5683 13.9987C23.548 13.9846 23.5344 13.9772 23.5275 13.9766C23.5068 13.9749 23.4865 13.9767 23.4665 13.982C23.4171 13.9948 23.411 13.9836 23.4483 13.9486L23.6002 13.8051C23.6026 13.8029 23.6056 13.8015 23.6087 13.8011C23.6119 13.8006 23.6151 13.8011 23.618 13.8025C23.6208 13.8039 23.6231 13.8061 23.6246 13.8089C23.6261 13.8116 23.6267 13.8147 23.6263 13.8178L23.6086 14.0002C23.6069 14.0195 23.5987 14.0229 23.584 14.0105ZM18.7398 14.6452C18.7187 14.5339 18.6967 14.4183 18.6203 14.3398C18.6186 14.338 18.6174 14.3358 18.6167 14.3334C18.616 14.331 18.6159 14.3285 18.6164 14.326C18.6169 14.3236 18.6179 14.3213 18.6195 14.3193C18.621 14.3173 18.623 14.3158 18.6253 14.3147C19.2082 14.0592 19.9557 14.0469 20.5839 14.0479C20.6032 14.0479 20.6144 14.0574 20.6173 14.0764L20.7392 14.8372C20.7415 14.8497 20.7363 14.8552 20.7235 14.8539C20.0747 14.7772 19.4529 14.7153 18.7983 14.7856C18.7809 14.7876 18.7699 14.7802 18.7653 14.7635C18.7552 14.726 18.7476 14.6859 18.7398 14.6452ZM21.3061 14.0508C21.3083 14.0499 21.3108 14.0495 21.3133 14.0498L22.2953 14.183C22.2981 14.1834 22.3008 14.1846 22.303 14.1865C22.3052 14.1884 22.3068 14.1908 22.3075 14.1936C22.3083 14.1964 22.3083 14.1993 22.3074 14.2021C22.3065 14.2048 22.3049 14.2072 22.3027 14.2091L21.5566 14.85C21.5547 14.8516 21.5525 14.8526 21.5501 14.8531C21.5477 14.8536 21.5453 14.8536 21.5429 14.8529C21.5406 14.8522 21.5385 14.8509 21.5367 14.8492C21.536 14.8485 21.5353 14.8477 21.5347 14.8468L21.5338 14.8452L21.533 14.8431L21.2975 14.069C21.2968 14.0666 21.2966 14.0641 21.2971 14.0617C21.2976 14.0593 21.2986 14.057 21.3002 14.0551C21.3017 14.0532 21.3038 14.0517 21.3061 14.0508ZM15.5211 14.9466C15.5164 14.9529 15.5103 14.958 15.5033 14.9616C15.4312 14.9969 15.3689 15.0448 15.3165 15.1051C15.3021 15.1215 15.2899 15.12 15.2801 15.1006C15.1277 14.8072 15.1199 14.3801 15.1494 14.068C15.1507 14.0526 15.159 14.0461 15.1744 14.0483L15.6409 14.1172C15.6612 14.1201 15.6695 14.1317 15.6659 14.1521L15.5303 14.9252C15.5289 14.933 15.5258 14.9403 15.5211 14.9466ZM13.6301 16.1942C13.0634 15.8335 13.2207 14.8544 13.6729 14.4681C13.7543 14.3988 13.8595 14.368 13.964 14.3374C13.9877 14.3305 14.0113 14.3236 14.0346 14.3162C14.0546 14.31 14.0627 14.317 14.0587 14.3373C14.0221 14.526 13.9927 14.7169 13.9632 14.908L13.9632 14.908C13.8968 15.3379 13.8303 15.7687 13.6822 16.177C13.6804 16.1819 13.6774 16.1864 13.6736 16.19C13.6698 16.1936 13.6653 16.1964 13.6603 16.198C13.6553 16.1997 13.65 16.2002 13.6448 16.1995C13.6396 16.1989 13.6346 16.1971 13.6301 16.1942ZM14.4834 14.3359L14.7424 14.3142C14.7456 14.314 14.7487 14.3145 14.7517 14.3156C14.7547 14.3167 14.7573 14.3184 14.7596 14.3207C14.7618 14.3229 14.7635 14.3256 14.7646 14.3286C14.7658 14.3315 14.7662 14.3347 14.766 14.3378C14.7421 14.6222 14.7807 14.8893 14.82 15.1614L14.82 15.1614C14.8365 15.2754 14.8531 15.3902 14.8653 15.5076C14.8672 15.5246 14.8605 15.5369 14.8451 15.5445L14.0961 15.9244C14.0784 15.9332 14.0704 15.9278 14.072 15.9082C14.1241 15.3734 14.2507 14.857 14.4519 14.359C14.4575 14.3449 14.468 14.3372 14.4834 14.3359ZM16.1265 14.3241L16.9266 14.6386C16.9368 14.6426 16.9366 14.6462 16.9261 14.6494C16.7773 14.6973 16.6233 14.7213 16.4682 14.7454L16.4682 14.7454L16.4682 14.7454L16.4682 14.7454L16.4682 14.7454L16.4682 14.7454L16.4681 14.7454L16.4681 14.7454L16.4681 14.7454C16.3159 14.7691 16.1627 14.7929 16.0124 14.8397C15.998 14.8439 15.9895 14.8387 15.9869 14.8239L15.9422 14.5536C15.9395 14.5375 15.9431 14.5231 15.953 14.5104L16.0891 14.3344C16.0933 14.3288 16.0992 14.3247 16.106 14.3228C16.1128 14.3209 16.12 14.3214 16.1265 14.3241ZM18.1239 14.5851C18.121 14.5851 18.1181 14.5844 18.1156 14.5831L17.8418 14.4371C17.8389 14.4355 17.8364 14.4331 17.8349 14.4301C17.8333 14.4271 17.8326 14.4238 17.8329 14.4204C17.8332 14.4171 17.8345 14.4139 17.8366 14.4113C17.8387 14.4087 17.8416 14.4067 17.8448 14.4057L18.121 14.3182C18.1243 14.3171 18.1279 14.3172 18.1312 14.3182C18.1346 14.3193 18.1375 14.3213 18.1397 14.3241L18.3176 14.5502C18.3196 14.5527 18.3209 14.5556 18.3213 14.5588C18.3217 14.562 18.3212 14.5652 18.3199 14.5681C18.3185 14.571 18.3164 14.5735 18.3138 14.5753C18.3111 14.5771 18.308 14.5781 18.3048 14.5782L18.1239 14.5851ZM21.0446 14.3321C21.0505 14.3345 21.0555 14.3387 21.0587 14.3442L21.1811 14.5472C21.1837 14.5513 21.1852 14.5561 21.1855 14.561L21.1988 14.8293C21.1991 14.8352 21.1976 14.8411 21.1944 14.8461C21.1913 14.8511 21.1867 14.855 21.1812 14.8572C21.1758 14.8595 21.1698 14.86 21.164 14.8587C21.1583 14.8574 21.1531 14.8544 21.1491 14.85L21.0233 14.7124C21.0188 14.7074 21.0161 14.7009 21.0159 14.6942L21.0056 14.36C21.0053 14.3536 21.0071 14.3473 21.0108 14.3421C21.0145 14.3369 21.0199 14.3331 21.026 14.3313C21.0321 14.3295 21.0386 14.3298 21.0446 14.3321ZM22.5828 14.5772L22.3877 14.5418C22.3693 14.5385 22.3669 14.5305 22.3803 14.5177L22.5695 14.3314C22.5712 14.3299 22.5733 14.3288 22.5756 14.3284C22.5778 14.3279 22.5802 14.3281 22.5823 14.3289C22.5845 14.3297 22.5864 14.3312 22.5877 14.333C22.5891 14.3348 22.59 14.337 22.5902 14.3393L22.6074 14.5546C22.6087 14.5726 22.6005 14.5801 22.5828 14.5772ZM23.9514 14.6191C23.9508 14.6232 23.949 14.6271 23.9462 14.6303L23.7718 14.8323C23.7695 14.8349 23.7666 14.837 23.7633 14.8383C23.76 14.8395 23.7565 14.84 23.753 14.8396C23.7495 14.8392 23.7462 14.838 23.7433 14.836C23.7404 14.8341 23.738 14.8314 23.7364 14.8284L23.6813 14.7251C23.6797 14.722 23.6788 14.7186 23.6788 14.7151C23.6788 14.7116 23.6797 14.7081 23.6813 14.705L23.7324 14.6072C23.7342 14.6036 23.737 14.6007 23.7404 14.5986C23.7437 14.5965 23.7476 14.5954 23.7516 14.5954L23.9295 14.5944C23.9337 14.5943 23.9378 14.5954 23.9414 14.5977C23.945 14.5999 23.9478 14.6031 23.9496 14.6069C23.9514 14.6107 23.952 14.6149 23.9514 14.6191ZM24.1674 14.5925C24.1769 14.5914 24.1865 14.5926 24.1954 14.5959L24.9769 14.8859C24.9873 14.8897 24.9964 14.8964 25.0033 14.9051C25.0101 14.9138 25.0145 14.9243 25.0158 14.9353C25.0171 14.9463 25.0154 14.9575 25.0108 14.9676C25.0062 14.9777 24.9989 14.9863 24.9897 14.9925L24.8162 15.1095C24.8083 15.1148 24.7992 15.1181 24.7897 15.1192C24.7802 15.1204 24.7706 15.1192 24.7616 15.1159L23.9782 14.8264C23.9677 14.8226 23.9584 14.8159 23.9515 14.8071C23.9445 14.7984 23.9402 14.7878 23.9388 14.7767C23.9375 14.7656 23.9393 14.7544 23.944 14.7442C23.9487 14.7341 23.9561 14.7254 23.9654 14.7192L24.1409 14.6023C24.1488 14.597 24.1579 14.5936 24.1674 14.5925ZM25.9791 14.6568C25.9496 14.7086 25.9101 14.7591 25.8606 14.8082C25.8577 14.8112 25.8546 14.8113 25.8513 14.8087L25.8365 14.7954C25.828 14.7882 25.8279 14.7808 25.8361 14.7733L25.9693 14.649C25.9896 14.6303 25.9928 14.6329 25.9791 14.6568ZM16.2 15.1153C16.1287 15.1166 16.0574 15.118 15.9869 15.1252C15.9666 15.1272 15.9551 15.1182 15.9525 15.0982L15.9436 15.0338C15.9404 15.0105 15.9502 14.9964 15.9731 14.9915C16.2929 14.9217 16.6165 14.8801 16.9438 14.8667C16.9737 14.8654 16.9755 14.8721 16.9492 14.8868C16.866 14.9344 16.7831 14.9801 16.7005 15.024C16.5422 15.1087 16.3714 15.112 16.2 15.1153ZM16.473 15.6339C16.4538 15.3921 16.9345 14.9822 17.11 14.876C17.1168 14.8718 17.1245 14.8691 17.1325 14.868C17.1404 14.8669 17.1485 14.8674 17.1563 14.8696C17.164 14.8717 17.1713 14.8755 17.1775 14.8806C17.1837 14.8857 17.1889 14.892 17.1925 14.8991L17.2653 15.0417C17.2688 15.0484 17.2708 15.0558 17.2713 15.0634C17.2718 15.071 17.2706 15.0786 17.268 15.0857C17.2654 15.0928 17.2613 15.0993 17.256 15.1048C17.2507 15.1102 17.2443 15.1145 17.2373 15.1174C16.9506 15.2343 16.7066 15.41 16.5054 15.6442C16.503 15.6469 16.4999 15.6488 16.4964 15.6498C16.493 15.6507 16.4893 15.6506 16.4859 15.6496C16.4824 15.6485 16.4794 15.6464 16.4771 15.6436C16.4748 15.6409 16.4734 15.6375 16.473 15.6339ZM22.5838 15.164C22.5356 15.2024 22.4809 15.2081 22.4196 15.1813C22.3944 15.1701 22.3954 15.1622 22.4226 15.1577L22.5695 15.1326C22.5735 15.1318 22.5776 15.1323 22.5812 15.1341C22.5848 15.136 22.5876 15.1389 22.5893 15.1426C22.5909 15.1463 22.5913 15.1504 22.5903 15.1543C22.5893 15.1582 22.587 15.1616 22.5838 15.164ZM25.6768 15.1827L25.8007 15.6246C25.8089 15.6541 25.8003 15.6603 25.7751 15.6433C25.7518 15.6278 25.721 15.6091 25.6861 15.5879L25.686 15.5879C25.5405 15.4996 25.3246 15.3688 25.2949 15.251C25.2913 15.237 25.2951 15.2252 25.3062 15.2157C25.4048 15.1331 25.5174 15.111 25.6439 15.1493C25.6517 15.1517 25.6589 15.1561 25.6646 15.1619C25.6704 15.1677 25.6745 15.1749 25.6768 15.1827ZM12.9981 16.6169L12.9986 16.6833C12.9989 16.7403 12.9743 16.7545 12.9248 16.726C12.6309 16.5589 12.3144 16.4778 11.9753 16.4827C11.9693 16.4829 11.9635 16.4816 11.9581 16.4791C11.9527 16.4766 11.948 16.4728 11.9444 16.4681C11.9408 16.4634 11.9383 16.4579 11.9372 16.4521C11.936 16.4463 11.9363 16.4403 11.9379 16.4346C12.0318 16.095 12.2027 15.7904 12.3736 15.4858L12.3736 15.4858C12.3958 15.4461 12.4181 15.4063 12.4402 15.3665C12.4927 15.2723 12.5615 15.2179 12.6424 15.1539L12.6452 15.1518C12.6652 15.1357 12.6737 15.1405 12.6707 15.166C12.6236 15.5589 12.663 15.9454 12.7892 16.3255C12.8147 16.4026 12.8585 16.4326 12.9239 16.4768C12.973 16.5106 12.9977 16.5573 12.9981 16.6169ZM15.9439 15.194C15.9461 15.1922 15.9487 15.1908 15.9515 15.1901L16.156 15.1365C16.1599 15.1355 16.1641 15.1357 16.168 15.1371C16.1719 15.1386 16.1752 15.1411 16.1775 15.1445C16.1799 15.1479 16.1812 15.1519 16.1812 15.156C16.1812 15.1601 16.1799 15.1641 16.1776 15.1675L16.04 15.3665C16.038 15.3695 16.0352 15.3718 16.032 15.3733C16.0288 15.3749 16.0252 15.3755 16.0217 15.3752C16.0181 15.3749 16.0147 15.3737 16.0118 15.3716C16.0089 15.3696 16.0066 15.3668 16.0051 15.3636L15.9382 15.2176C15.9371 15.215 15.9365 15.2121 15.9366 15.2092C15.9366 15.2063 15.9373 15.2034 15.9385 15.2008C15.9398 15.1982 15.9416 15.1959 15.9439 15.194ZM25.8208 15.4167C25.8185 15.4032 25.8236 15.3995 25.8361 15.4054L26.0503 15.5032C26.0573 15.5063 26.0634 15.511 26.0682 15.5169C26.073 15.5228 26.0763 15.5297 26.0778 15.5371C26.0794 15.5446 26.0792 15.5523 26.0773 15.5596C26.0753 15.5669 26.0716 15.5737 26.0666 15.5794L26.0164 15.6354C25.9922 15.6619 25.9668 15.6632 25.9403 15.6393C25.8744 15.58 25.8346 15.5058 25.8208 15.4167ZM26.1034 15.5307C26.0929 15.5133 26.0956 15.4983 26.1113 15.4855C26.3214 15.3193 26.449 15.4323 26.5923 15.5591C26.6367 15.5985 26.6827 15.6391 26.733 15.6732C26.8552 15.756 26.9531 15.8899 27.0449 16.0157L27.045 16.0158L27.045 16.0158L27.0451 16.0159L27.0452 16.016L27.0452 16.016C27.0723 16.0531 27.0988 16.0894 27.1253 16.1235C27.1361 16.1372 27.1346 16.1495 27.1208 16.1603C27.0692 16.2026 27.0201 16.2129 26.9577 16.177C26.784 16.0777 26.6097 15.9799 26.4347 15.8836C26.275 15.7956 26.1929 15.6772 26.1034 15.5307ZM23.2036 15.426C23.197 15.4175 23.1992 15.4144 23.21 15.4167C23.2477 15.4249 23.2781 15.4435 23.3014 15.4727C23.3161 15.4917 23.3124 15.4968 23.2901 15.4879C23.2527 15.4732 23.2239 15.4526 23.2036 15.426ZM15.4988 15.669C15.5033 15.6718 15.5069 15.6758 15.5091 15.6806L15.6581 15.9942C15.6666 16.0119 15.6677 16.0299 15.6615 16.0483L15.6183 16.176C15.612 16.1951 15.5999 16.2003 15.5819 16.1918C15.3627 16.0866 15.3838 15.8703 15.4595 15.6821C15.4615 15.6772 15.4648 15.6729 15.4691 15.6699C15.4734 15.6669 15.4786 15.6652 15.4838 15.665C15.4891 15.6649 15.4943 15.6662 15.4988 15.669ZM14.418 16.4282C14.3387 16.477 14.3169 16.4585 14.3526 16.3726C14.4854 16.0538 14.7088 15.8227 15.0231 15.6791C15.0335 15.6743 15.0449 15.6721 15.0564 15.6727C15.0678 15.6733 15.0789 15.6767 15.0888 15.6825C15.0987 15.6884 15.107 15.6965 15.113 15.7063C15.119 15.7161 15.1225 15.7272 15.1233 15.7386L15.1336 15.8934C15.1376 15.9541 15.1137 16.0003 15.0619 16.032L14.418 16.4282ZM26.4182 17.3295C26.4653 17.3475 26.5118 17.3653 26.5512 17.3871C26.5638 17.394 26.5746 17.4038 26.5827 17.4156C26.5907 17.4275 26.5959 17.4411 26.5977 17.4553C26.5996 17.4696 26.598 17.484 26.5931 17.4976C26.5883 17.5111 26.5803 17.5232 26.5699 17.5331L26.2774 17.8088C26.2597 17.8255 26.2442 17.8239 26.2307 17.8039C25.9945 17.4579 25.7817 17.1481 25.5923 16.8745C25.5166 16.7647 25.4278 16.6657 25.3259 16.5776C25.05 16.3381 24.7743 16.0986 24.4987 15.859C24.4846 15.8466 24.4849 15.8346 24.4997 15.8232L24.6712 15.688C24.6856 15.6768 24.7015 15.6747 24.7189 15.6816C25.2335 15.8915 25.8267 16.1839 26.1452 16.6572C26.2052 16.746 26.2135 16.8604 26.1703 17.0003C26.1056 17.2101 26.2648 17.2709 26.4182 17.3295ZM21.7689 16.1372C21.7361 16.19 21.6893 16.21 21.6283 16.1972C21.4956 16.1697 21.3804 16.1102 21.2828 16.0188C21.2796 16.0157 21.2773 16.0119 21.276 16.0077C21.2748 16.0034 21.2747 15.9989 21.2757 15.9946C21.2768 15.9904 21.2789 15.9864 21.282 15.9832C21.285 15.98 21.2889 15.9777 21.2931 15.9765C21.4452 15.9336 21.5969 15.93 21.7482 15.9657C21.761 15.9687 21.7728 15.9748 21.7827 15.9832C21.7927 15.9917 21.8005 16.0024 21.8054 16.0145C21.8104 16.0265 21.8125 16.0396 21.8114 16.0525C21.8104 16.0655 21.8062 16.078 21.7994 16.0891L21.7689 16.1372ZM23.1309 16.3406C23.1272 16.3461 23.1218 16.3503 23.1156 16.3525L22.7819 16.4754C22.7777 16.4768 22.7732 16.4774 22.7688 16.477C22.7644 16.4765 22.7601 16.4752 22.7563 16.4729L22.6379 16.4041C22.6342 16.402 22.6311 16.3993 22.6286 16.3959C22.6261 16.3926 22.6243 16.3888 22.6233 16.3847C22.6224 16.3807 22.6222 16.3765 22.623 16.3723C22.6237 16.3682 22.6252 16.3643 22.6275 16.3609L22.7249 16.2178C22.7284 16.2127 22.7334 16.2088 22.7392 16.2066C22.745 16.2044 22.7513 16.204 22.7573 16.2055L23.1122 16.294C23.1186 16.2955 23.1244 16.299 23.1287 16.304C23.133 16.309 23.1355 16.3153 23.1359 16.322C23.1363 16.3286 23.1345 16.3351 23.1309 16.3406ZM27.3745 16.3751L27.1793 16.3063C27.1765 16.3052 27.1741 16.3034 27.1723 16.301C27.1705 16.2986 27.1694 16.2957 27.1691 16.2928C27.1688 16.2898 27.1694 16.2869 27.1708 16.2843C27.1722 16.2818 27.1743 16.2797 27.1769 16.2783L27.2757 16.2257C27.2841 16.2212 27.294 16.2201 27.3032 16.2226C27.3125 16.2252 27.3204 16.2312 27.3253 16.2395L27.3931 16.3525C27.4082 16.3774 27.402 16.3849 27.3745 16.3751ZM14.3816 16.7894C14.7026 16.6916 15.0216 16.4577 15.2678 16.2139C15.2692 16.2125 15.2709 16.2115 15.2727 16.2109C15.2746 16.2104 15.2766 16.2104 15.2786 16.2109C15.2805 16.2114 15.2823 16.2124 15.2838 16.2138C15.2852 16.2151 15.2863 16.2169 15.287 16.2188L15.3991 16.5545C15.4027 16.5643 15.4012 16.5733 15.3946 16.5815L15.0845 16.9969C15.0727 17.0123 15.0575 17.0173 15.0388 17.0121L14.3821 16.8214C14.3461 16.8109 14.3459 16.8003 14.3816 16.7894ZM22.0143 16.2288C22.0164 16.2311 22.0179 16.2339 22.0186 16.237L22.0707 16.4557C22.0749 16.4724 22.0685 16.4788 22.0515 16.4749L21.8205 16.4228C21.8159 16.4218 21.8117 16.4195 21.8084 16.4162C21.805 16.4129 21.8027 16.4087 21.8016 16.4041C21.8006 16.3995 21.8008 16.3947 21.8023 16.3902C21.8038 16.3857 21.8065 16.3816 21.8102 16.3785L21.9891 16.2272C21.9915 16.2251 21.9943 16.2238 21.9974 16.2232C22.0005 16.2226 22.0036 16.2228 22.0066 16.2238C22.0096 16.2248 22.0122 16.2265 22.0143 16.2288ZM26.4667 16.2769L26.4667 16.277L26.4668 16.277C26.4847 16.2874 26.5039 16.2986 26.5271 16.3112C26.5713 16.3348 26.621 16.3805 26.5984 16.437C26.5925 16.4518 26.5823 16.4623 26.5679 16.4685C26.561 16.4714 26.5533 16.4719 26.5461 16.47C26.5389 16.468 26.5326 16.4637 26.5281 16.4577L26.3816 16.2586C26.36 16.2288 26.3656 16.2222 26.3983 16.239C26.4227 16.2514 26.4436 16.2635 26.4667 16.2769ZM12.5626 16.891C12.2189 17.116 11.8982 17.326 11.7187 17.7321C11.7121 17.7466 11.7076 17.7556 11.7049 17.7592C11.6813 17.7906 11.6707 17.7877 11.673 17.7503L11.7487 16.5388C11.7492 16.5305 11.7515 16.5223 11.7556 16.5151C11.7596 16.5078 11.7652 16.5015 11.772 16.4966C11.7788 16.4918 11.7866 16.4885 11.7948 16.487C11.803 16.4856 11.8114 16.4859 11.8195 16.4882L12.7155 16.731C12.721 16.7324 12.7259 16.7354 12.7298 16.7396C12.7336 16.7438 12.7361 16.749 12.7371 16.7546C12.738 16.7602 12.7373 16.766 12.735 16.7712C12.7328 16.7764 12.729 16.7809 12.7243 16.784C12.6701 16.8206 12.6161 16.856 12.5626 16.891ZM27.3494 16.7663L27.1552 16.8116C27.1097 16.822 27.099 16.8473 27.1233 16.8872L27.1444 16.9221C27.1573 16.9433 27.1774 16.9592 27.201 16.967C27.2247 16.9749 27.2504 16.9741 27.2737 16.9649C27.314 16.9485 27.3466 16.9415 27.3715 16.9438C27.3921 16.9457 27.3946 16.9536 27.3789 16.9674L27.022 17.2765C27.0099 17.287 27.0003 17.2852 26.993 17.2711L26.6136 16.5452C26.6111 16.5404 26.6098 16.5351 26.6097 16.5298C26.6097 16.5244 26.6109 16.5191 26.6132 16.5143C26.6155 16.5095 26.619 16.5053 26.6232 16.502C26.6275 16.4987 26.6324 16.4965 26.6377 16.4955C26.8081 16.4628 26.9638 16.5035 27.1256 16.5457C27.1682 16.5568 27.2112 16.5681 27.255 16.5781C27.2737 16.5824 27.2881 16.5927 27.2983 16.6091L27.3676 16.7231C27.3817 16.7457 27.3756 16.7601 27.3494 16.7663ZM23.3889 16.523L23.2857 16.7216C23.2752 16.7419 23.2613 16.7445 23.2439 16.7295L23.1707 16.6646C23.1523 16.6485 23.1536 16.6343 23.1746 16.6218L23.3702 16.5054C23.3971 16.489 23.4033 16.4949 23.3889 16.523ZM26.5713 16.9654C26.5962 17.0005 26.5892 17.0086 26.5502 16.99C26.4614 16.948 26.3941 16.8836 26.3482 16.7968C26.3403 16.7821 26.3431 16.7693 26.3566 16.7585C26.3805 16.7398 26.4011 16.7414 26.4185 16.7634C26.4771 16.8371 26.5281 16.9045 26.5713 16.9654ZM15.6571 16.845C15.6283 16.8895 15.5963 16.9341 15.5612 16.9787C15.5526 16.9896 15.5414 16.9984 15.5287 17.0043C15.516 17.0102 15.5021 17.013 15.488 17.0126L15.4423 17.0111C15.436 17.011 15.4298 17.0089 15.4247 17.0053C15.4195 17.0016 15.4156 16.9964 15.4134 16.9905C15.4112 16.9845 15.4109 16.9781 15.4125 16.9719C15.414 16.9658 15.4174 16.9602 15.4222 16.9561L15.6217 16.7742C15.6351 16.7618 15.6466 16.7634 15.6561 16.7791C15.6623 16.7893 15.6659 16.8006 15.6669 16.813C15.6676 16.8232 15.6643 16.8338 15.6571 16.845ZM25.2507 17.3896C25.5836 17.942 25.6318 18.5326 25.3952 19.1614C25.3883 19.1791 25.3765 19.1837 25.3598 19.1752L24.4992 18.7284C24.4922 18.7247 24.4865 18.7191 24.4827 18.7122C24.479 18.7053 24.4773 18.6974 24.478 18.6896C24.536 18.0506 24.569 17.423 24.537 16.7791C24.536 16.7565 24.5457 16.75 24.566 16.7595C24.8491 16.8918 25.0773 17.1019 25.2507 17.3896ZM28.471 17.8181L27.9574 16.8823C27.9518 16.8722 27.9546 16.8655 27.9657 16.8622C28.1751 16.8003 29.105 16.5629 29.0082 17.0745C28.9566 17.3478 28.6941 17.6373 28.4897 17.8211C28.4883 17.8223 28.4867 17.8232 28.485 17.8237L28.4831 17.8241C28.482 17.8242 28.4808 17.8242 28.4796 17.824C28.4779 17.8237 28.4762 17.8231 28.4747 17.822C28.4732 17.821 28.4719 17.8197 28.471 17.8181ZM26.7085 20.3602C27.923 20.0437 28.6592 19.2548 28.5717 17.9464C28.5688 17.8978 28.5722 17.8722 28.6032 17.8324L29.1812 17.0897C29.2556 16.9941 29.2808 17.0057 29.2569 17.1246C29.1897 17.4602 29.107 17.8244 29.0087 18.2172C28.8072 19.0258 28.527 19.6637 27.8025 20.1434C27.4169 20.3987 27.0637 20.6141 26.7429 20.7898C26.7278 20.7976 26.7142 20.7958 26.7021 20.7844C26.5915 20.6792 26.6233 20.5738 26.6589 20.4556L26.6589 20.4556L26.6589 20.4556C26.6652 20.4345 26.6717 20.4131 26.6775 20.3912C26.6821 20.3748 26.6924 20.3644 26.7085 20.3602ZM24.1212 18.3269L23.6956 17.3699C23.6904 17.3581 23.6882 17.3452 23.6892 17.3323C23.6901 17.3195 23.6942 17.3071 23.701 17.2962L23.846 17.0627C23.8538 17.0503 23.8632 17.0491 23.874 17.0593C24.2225 17.3783 24.279 17.8855 24.1443 18.3254C24.1378 18.3463 24.1301 18.3468 24.1212 18.3269ZM27.1636 17.304L27.6389 17.0445C27.671 17.0268 27.6782 17.034 27.6605 17.0662C27.5602 17.2474 27.4329 17.4077 27.2786 17.5473C27.2714 17.5539 27.2657 17.5529 27.2614 17.5444L27.1552 17.3301C27.1497 17.3186 27.1525 17.3099 27.1636 17.304ZM27.8478 18.5067C27.8389 18.5035 27.8161 18.511 27.7794 18.5294C27.7742 18.532 27.7744 18.5343 27.7799 18.5362L27.7971 18.5416C27.7999 18.5425 27.8023 18.5442 27.8041 18.5465C27.8059 18.5487 27.8071 18.5515 27.8073 18.5543C27.8076 18.5572 27.807 18.5601 27.8056 18.5627C27.8042 18.5652 27.8021 18.5673 27.7996 18.5687L27.2 18.8783C27.1964 18.8801 27.1924 18.881 27.1883 18.8809C27.1843 18.8807 27.1804 18.8796 27.1769 18.8775C27.1734 18.8755 27.1705 18.8726 27.1684 18.8691C27.1664 18.8656 27.1652 18.8617 27.1651 18.8577L27.1484 17.9823C27.148 17.9604 27.1549 17.9409 27.169 17.9238L27.6635 17.3399C27.7152 17.2786 27.757 17.2847 27.7888 17.3581C27.8986 17.6117 28.0137 17.8783 28.1343 18.1578C28.1841 18.2734 28.2093 18.3801 28.21 18.4777C28.2159 19.1103 27.8773 19.4381 27.3361 19.7114C27.3042 19.7275 27.2678 19.7467 27.2284 19.7675L27.2284 19.7676C27.0457 19.8641 26.7987 19.9947 26.6362 19.998C26.6338 19.998 26.6314 19.9975 26.6293 19.9964C26.6271 19.9952 26.6253 19.9936 26.624 19.9915C26.6227 19.9894 26.6219 19.987 26.6217 19.9846C26.6216 19.9833 26.6217 19.982 26.6219 19.9807C26.6221 19.9795 26.6225 19.9784 26.6229 19.9773C26.7917 19.6277 26.9578 19.2815 27.1213 18.9388C27.1328 18.9145 27.1515 18.9022 27.1774 18.9019C27.1911 18.9016 27.2042 18.8988 27.2167 18.8936L27.8527 18.6242C27.9507 18.5823 27.949 18.5431 27.8478 18.5067ZM13.2517 17.5891C13.2576 17.5917 13.2591 17.596 13.2561 17.6019C12.9145 18.2959 12.7317 18.9673 12.6594 19.7016C12.6575 19.7189 12.648 19.7262 12.6309 19.7232C12.5467 19.7085 12.4641 19.6939 12.3832 19.6795C12.1802 19.6441 12.191 19.2764 12.2107 19.1324C12.2788 18.6442 12.4381 18.1869 12.6884 17.7606C12.7592 17.6402 13.1185 17.5326 13.2517 17.5891ZM14.0056 17.9622L13.5849 17.6786C13.5413 17.6494 13.5374 17.654 13.5731 17.6923L13.9619 18.1126C13.9664 18.1173 13.9695 18.1233 13.971 18.1297C13.9724 18.1362 13.9722 18.143 13.9703 18.1494C13.9372 18.2605 13.9085 18.3408 13.8842 18.3903C13.8454 18.4698 13.8087 18.544 13.7739 18.6143C13.5675 19.0316 13.431 19.3075 13.3284 19.7085C13.3251 19.7212 13.3169 19.7271 13.3038 19.7262L13.0831 19.7085C13.0758 19.7079 13.0689 19.7052 13.0632 19.7007C13.0575 19.6962 13.0533 19.6902 13.0512 19.6834C12.8927 19.1982 13.1608 18.486 13.3715 17.9261L13.3715 17.9261L13.3716 17.9259L13.3716 17.9258C13.4176 17.8035 13.4609 17.6885 13.4965 17.5847C13.5017 17.5703 13.5119 17.5639 13.5269 17.5655L13.8926 17.6078C13.908 17.6094 13.9185 17.6175 13.9241 17.6319L14.0415 17.9337C14.0602 17.9812 14.0482 17.9907 14.0056 17.9622ZM15.0742 17.7095C15.0594 17.704 15.046 17.6951 15.0339 17.683C15.0178 17.6669 14.9995 17.6541 14.9811 17.6412C14.9629 17.6284 14.9446 17.6156 14.9282 17.5994C14.9098 17.5817 14.913 17.5763 14.9375 17.5832C15.0018 17.6019 15.0516 17.6389 15.0869 17.6943C15.0981 17.7123 15.0938 17.7174 15.0742 17.7095ZM26.1099 17.6861C26.1114 17.6871 26.1124 17.6886 26.1128 17.6904L26.3487 18.7687C26.349 18.77 26.3489 18.7713 26.3484 18.7725C26.348 18.7737 26.3472 18.7748 26.3462 18.7756L26.1619 18.9093C26.1609 18.91 26.1597 18.9104 26.1585 18.9105C26.1578 18.9105 26.1571 18.9105 26.1564 18.9103L26.1549 18.9098C26.1538 18.9092 26.1529 18.9084 26.1522 18.9074C26.1515 18.9063 26.1511 18.9051 26.1511 18.9039L26.0862 17.6938C26.0862 17.6931 26.0862 17.6923 26.0864 17.6916L26.0865 17.6913L26.0871 17.6898L26.0877 17.6889C26.0888 17.6876 26.0904 17.6867 26.0921 17.6864L26.1049 17.685C26.1067 17.6847 26.1085 17.6851 26.1099 17.6861ZM14.6241 17.841C14.6271 17.84 14.6303 17.8399 14.6333 17.8408L14.8279 17.8958C14.8312 17.8968 14.8341 17.8988 14.8361 17.9015C14.8382 17.9043 14.8393 17.9076 14.8392 17.911V18.0786C14.8393 18.0816 14.8385 18.0844 14.8369 18.0869C14.8354 18.0894 14.8333 18.0915 14.8306 18.0928C14.828 18.0941 14.8251 18.0947 14.8222 18.0944C14.8193 18.0942 14.8165 18.0932 14.8142 18.0914L14.706 18.0089C14.7045 18.0076 14.7031 18.0061 14.7021 18.0044L14.6156 17.8639C14.614 17.8612 14.6133 17.8581 14.6135 17.855C14.6137 17.8518 14.6148 17.8489 14.6167 17.8464C14.6186 17.8439 14.6212 17.842 14.6241 17.841ZM26.358 18.0772C26.3207 17.969 26.4804 17.8698 26.5723 17.8413C26.5735 17.8409 26.5748 17.8408 26.5761 17.8409C26.5774 17.8411 26.5786 17.8415 26.5797 17.8421C26.5808 17.8428 26.5818 17.8436 26.5825 17.8447C26.5833 17.8457 26.5838 17.8469 26.5841 17.8481L26.6087 17.9607C26.6123 17.9777 26.6075 17.992 26.5944 18.0034C26.541 18.0503 26.4807 18.0842 26.4136 18.1052C26.4025 18.1086 26.3905 18.1076 26.3801 18.1024C26.3698 18.0972 26.3618 18.0881 26.358 18.0772ZM23.1515 18.0256C23.1613 17.9735 23.1788 17.9253 23.2041 17.8811C23.2254 17.8434 23.2477 17.8429 23.2709 17.8796L23.3928 18.0732C23.4053 18.0926 23.4 18.1001 23.3771 18.0958L23.1726 18.0565C23.1549 18.0533 23.1479 18.0429 23.1515 18.0256ZM13.5353 19.6652C13.5389 19.4575 13.5872 19.2604 13.6803 19.0739C13.8336 18.7672 13.9979 18.4571 14.1733 18.1435C14.2044 18.0881 14.2339 18.089 14.2617 18.146L14.3025 18.2286C14.3258 18.2764 14.325 18.3237 14.3001 18.3706C14.2113 18.5389 14.109 18.7033 14.0064 18.8682L14.0064 18.8682C13.8402 19.1353 13.6734 19.4034 13.5628 19.6903C13.5624 19.6915 13.5616 19.6926 13.5605 19.6934C13.5595 19.6943 13.5582 19.6948 13.5569 19.6949C13.5555 19.6951 13.5541 19.6949 13.5528 19.6943C13.5521 19.694 13.5513 19.6935 13.5507 19.693L13.5495 19.6917L13.5387 19.676C13.5364 19.6727 13.5353 19.6691 13.5353 19.6652ZM14.881 18.2949C14.8745 18.2671 14.9077 18.2117 14.9808 18.1288C14.9867 18.122 14.994 18.1165 15.0023 18.1127C15.0105 18.1089 15.0194 18.1069 15.0285 18.1067C15.0375 18.1066 15.0465 18.1084 15.0549 18.1119C15.0633 18.1154 15.0709 18.1207 15.0771 18.1273L15.1017 18.1534C15.1273 18.1799 15.1274 18.2066 15.1022 18.2335L15.0073 18.3352C14.9983 18.3449 14.9868 18.3517 14.974 18.3549C14.9612 18.3582 14.9476 18.3577 14.9346 18.3536C14.9216 18.3494 14.9098 18.3418 14.9004 18.3315C14.8909 18.3211 14.8842 18.3085 14.881 18.2949ZM26.7979 19.1604L26.7281 19.0587C26.7268 19.0566 26.7248 19.0551 26.7226 19.0542C26.7203 19.0533 26.7178 19.0531 26.7154 19.0537C26.713 19.0543 26.7109 19.0556 26.7093 19.0575C26.7077 19.0593 26.7067 19.0617 26.7065 19.0641C26.6996 19.1277 26.6909 19.1626 26.6805 19.1688C26.6343 19.1973 26.6203 19.1876 26.6387 19.1398C26.6547 19.0985 26.6788 19.0646 26.7109 19.0381C26.7237 19.0276 26.728 19.0145 26.7237 18.9987C26.6634 18.7671 26.627 18.5316 26.6146 18.2924C26.6143 18.2849 26.6171 18.279 26.6229 18.2748L26.8451 18.1116C26.8463 18.1106 26.8477 18.11 26.8492 18.1098C26.8507 18.1096 26.8523 18.1099 26.8537 18.1105C26.8551 18.1112 26.8563 18.1122 26.8572 18.1135C26.8581 18.1148 26.8587 18.1164 26.8589 18.118C26.8943 18.465 26.8826 18.8105 26.824 19.1545C26.8236 19.1574 26.8223 19.1601 26.8204 19.1623C26.8184 19.1644 26.8158 19.1659 26.813 19.1665C26.8115 19.1669 26.8101 19.167 26.8086 19.1668C26.8072 19.1667 26.8058 19.1664 26.8045 19.1658C26.8018 19.1648 26.7995 19.1629 26.7979 19.1604ZM12.0741 18.3829C12.0475 18.5349 12.0064 18.6806 11.9507 18.8198C11.9471 18.829 11.9458 18.8388 11.9468 18.8493L11.9467 18.8496L11.9463 18.85L11.9453 18.8498H11.9448H11.9438L12.0136 18.3952C12.0143 18.3899 12.0167 18.3849 12.0204 18.381C12.0241 18.3771 12.029 18.3745 12.0342 18.3735L12.0593 18.3686C12.0711 18.3663 12.076 18.3711 12.0741 18.3829ZM23.1637 18.653C23.1681 18.651 23.1729 18.6506 23.1775 18.6517L23.6268 18.7653C23.6299 18.766 23.6329 18.7676 23.6354 18.7697C23.6378 18.7718 23.6398 18.7745 23.641 18.7776L23.6823 18.8818C23.6837 18.8854 23.684 18.8893 23.6833 18.8931C23.6825 18.897 23.6807 18.9005 23.678 18.9033C23.6753 18.9061 23.6719 18.9081 23.6682 18.9091C23.6644 18.9101 23.6604 18.91 23.6567 18.9088L23.293 18.7869C23.2919 18.7865 23.2908 18.786 23.2898 18.7854L23.2876 18.7839L23.1598 18.6881C23.1561 18.6852 23.1534 18.6811 23.1523 18.6765C23.1512 18.6718 23.1518 18.667 23.1538 18.6627C23.1559 18.6584 23.1594 18.655 23.1637 18.653ZM26.1369 18.9722L26.3045 18.9167C26.3182 18.9121 26.3261 18.9168 26.328 18.9309C26.368 19.2019 26.3331 19.4619 26.2234 19.7109C26.2225 19.7129 26.2211 19.7147 26.2195 19.7161C26.2178 19.7175 26.2158 19.7186 26.2137 19.7191C26.2116 19.7197 26.2094 19.7198 26.2072 19.7194C26.2062 19.7192 26.2053 19.7189 26.2043 19.7185L26.203 19.7179L26.2012 19.7168C26.0467 19.6048 26.0764 19.3355 26.0989 19.1313L26.0989 19.1312C26.104 19.0854 26.1086 19.0429 26.1108 19.0061C26.1112 18.9984 26.1139 18.9911 26.1186 18.985C26.1232 18.979 26.1296 18.9745 26.1369 18.9722ZM14.8788 19.4382C14.8786 19.4372 14.8787 19.4361 14.879 19.4352L14.9788 19.2027C14.9837 19.1909 14.9916 19.1886 15.0024 19.1958L15.115 19.2705C15.1327 19.2827 15.1343 19.2966 15.1199 19.3123C15.0566 19.3805 14.9785 19.424 14.8854 19.443C14.8844 19.4432 14.8834 19.4431 14.8824 19.4427C14.8815 19.4423 14.8807 19.4417 14.88 19.4409L14.8792 19.4396L14.8788 19.4382ZM24.4417 19.1934L24.48 19.9808C24.4801 19.9817 24.4799 19.9827 24.4796 19.9836C24.4793 19.9845 24.4788 19.9854 24.4782 19.9861L24.4768 19.9873L24.4759 19.9879C24.475 19.9883 24.4741 19.9886 24.4731 19.9886H24.4707C24.4397 19.9901 24.4086 19.9827 24.3792 19.9667C24.3497 19.9508 24.3225 19.9266 24.299 19.8955C24.2755 19.8645 24.2563 19.8272 24.2424 19.7858C24.2285 19.7445 24.2202 19.6998 24.218 19.6544L24.2126 19.5433C24.2082 19.4517 24.2288 19.3627 24.2698 19.2958C24.3108 19.2289 24.3689 19.1896 24.4313 19.1865L24.4338 19.186L24.4348 19.186L24.4368 19.1864C24.4377 19.1867 24.4386 19.1873 24.4393 19.188C24.4401 19.1887 24.4407 19.1895 24.4411 19.1904L24.4416 19.1923L24.4417 19.1934ZM24.9415 19.3231C25.0374 19.4136 25.1101 19.447 25.2364 19.4956C25.2518 19.5015 25.2617 19.5127 25.2659 19.5291C25.3087 19.6942 25.2119 19.8382 25.1175 19.9758C25.1077 19.9903 25.0939 19.9971 25.0762 19.9965L24.8285 19.9857C24.7816 19.9834 24.758 19.9588 24.7577 19.9119L24.7533 19.2248C24.7533 19.2022 24.7633 19.1963 24.7833 19.2071C24.8409 19.2392 24.8937 19.2779 24.9415 19.3231ZM11.5344 19.5173L11.5963 19.7026C11.5996 19.7124 11.5962 19.7176 11.586 19.7183L11.4267 19.7281C11.411 19.7291 11.4041 19.7216 11.4061 19.7055C11.4153 19.6236 11.4269 19.561 11.441 19.5178C11.4718 19.4231 11.5029 19.4229 11.5344 19.5173ZM14.0695 19.9596C14.0794 19.901 14.109 19.8541 14.1585 19.819C14.1732 19.8088 14.1844 19.7942 14.1905 19.7773C14.198 19.7563 14.2109 19.7394 14.2293 19.7266C14.2329 19.7244 14.2365 19.7244 14.2401 19.7266L14.2509 19.7345C14.2581 19.7394 14.2591 19.7456 14.2539 19.7532L14.1 19.9724C14.0979 19.9756 14.0947 19.9779 14.0911 19.9789C14.0875 19.98 14.0836 19.9798 14.08 19.9783C14.0765 19.9768 14.0735 19.9741 14.0716 19.9708C14.0697 19.9674 14.069 19.9634 14.0695 19.9596ZM25.5682 19.9744C25.5561 19.9727 25.551 19.9658 25.553 19.9537C25.5693 19.8623 25.6173 19.7932 25.697 19.7463C25.712 19.7375 25.7238 19.7407 25.7323 19.7561L25.7992 19.8761C25.8061 19.8887 25.8095 19.903 25.8088 19.9174C25.8082 19.9317 25.8036 19.9457 25.7956 19.9576C25.7876 19.9696 25.7764 19.9792 25.7634 19.9852C25.7503 19.9913 25.7358 19.9937 25.7215 19.9921L25.5682 19.9744ZM11.9006 23.2202C11.327 22.8875 11.1304 22.1635 11.1564 21.5363C11.1584 21.4928 11.1517 21.4913 11.1363 21.5319C11.0562 21.7423 11.1176 22.1316 11.1658 22.3365C11.1844 22.4171 11.1669 22.4258 11.1132 22.3626C10.6988 21.8765 10.8895 20.8389 11.0562 20.2948C11.0722 20.2434 11.0847 20.2442 11.0935 20.2973C11.1118 20.4039 11.1287 20.5124 11.1457 20.6217C11.2057 21.008 11.2674 21.4046 11.4007 21.7678C11.576 22.2459 11.7487 22.725 11.9187 23.205C11.9266 23.2266 11.9205 23.2317 11.9006 23.2202ZM11.6151 20.2726C11.6208 20.2756 11.6254 20.2803 11.6283 20.286L12.1896 21.3486C12.1934 21.3561 12.1946 21.3647 12.1928 21.373C12.191 21.3812 12.1864 21.3886 12.1797 21.3938C12.0143 21.5226 11.8835 21.6802 11.7875 21.8666C11.7857 21.8703 11.7829 21.8734 11.7795 21.8757C11.7761 21.878 11.7722 21.8794 11.7681 21.8797C11.764 21.8801 11.7599 21.8794 11.7561 21.8777C11.7524 21.876 11.7492 21.8734 11.7467 21.8701C11.4948 21.5252 11.4521 20.9972 11.4154 20.5429L11.4154 20.5428C11.4098 20.4734 11.4043 20.4056 11.3982 20.3405C11.3976 20.3335 11.3983 20.3264 11.4004 20.3196C11.4025 20.3129 11.406 20.3066 11.4105 20.3012C11.4151 20.2957 11.4207 20.2912 11.427 20.288C11.4334 20.2847 11.4403 20.2827 11.4474 20.282L11.5963 20.2688C11.6028 20.2682 11.6094 20.2695 11.6151 20.2726ZM12.7269 20.9502L12.7297 20.9672C12.7327 20.9842 12.7269 20.9972 12.7125 21.006L12.6162 21.065C12.5959 21.0778 12.5769 21.076 12.5592 21.0596C12.3393 20.8538 12.2213 20.5991 12.2053 20.2953C12.2046 20.2806 12.2117 20.2747 12.2264 20.2776C12.6268 20.3569 12.6694 20.6098 12.7269 20.9502ZM13.2319 20.7683C13.2285 20.7666 13.2257 20.7638 13.2242 20.7603L13.0143 20.2953C13.013 20.2922 13.0126 20.2887 13.0133 20.2854C13.014 20.2821 13.0157 20.279 13.0181 20.2767C13.0206 20.2743 13.0237 20.2728 13.027 20.2722C13.0304 20.2717 13.0338 20.2722 13.0369 20.2737L13.1681 20.3361C13.1709 20.3374 13.1733 20.3394 13.175 20.342L13.2541 20.4624C13.256 20.4652 13.2571 20.4684 13.2571 20.4718L13.2561 20.7534C13.2561 20.7572 13.2548 20.7609 13.2524 20.7639C13.25 20.7669 13.2467 20.7689 13.2429 20.7697C13.2392 20.7705 13.2353 20.77 13.2319 20.7683ZM10.5965 20.2874C10.5967 20.2879 10.5967 20.2884 10.5966 20.2889L10.4447 21.2754C10.4352 21.3363 10.421 21.3375 10.402 21.2788C10.3436 21.0976 10.3215 20.9021 10.3356 20.6924C10.3489 20.5008 10.4423 20.3872 10.5927 20.2865C10.5931 20.2861 10.5936 20.286 10.5941 20.2859C10.5946 20.2859 10.5951 20.286 10.5955 20.2863C10.5959 20.2866 10.5963 20.287 10.5965 20.2874ZM23.6834 20.7939C23.683 20.7911 23.6833 20.7884 23.6843 20.7858L23.7605 20.5651C23.7641 20.5547 23.7709 20.5455 23.7798 20.5389C23.7887 20.5322 23.7995 20.5285 23.8105 20.528C23.8216 20.5276 23.8325 20.5306 23.8418 20.5365C23.8511 20.5424 23.8584 20.551 23.8627 20.5612L23.9325 20.7239C23.939 20.7393 23.9349 20.7508 23.9202 20.7583C23.8511 20.7943 23.7777 20.8112 23.7 20.8089C23.6973 20.8089 23.6946 20.8081 23.6922 20.8068C23.6898 20.8055 23.6877 20.8037 23.6862 20.8014C23.6847 20.7992 23.6837 20.7966 23.6834 20.7939ZM25.5236 20.5648C25.5229 20.5678 25.5213 20.5705 25.519 20.5725L25.2738 20.804C25.2721 20.8056 25.2701 20.8068 25.2678 20.8075C25.2656 20.8081 25.2633 20.8083 25.261 20.8079L25.0423 20.7735C25.0399 20.7732 25.0376 20.7723 25.0356 20.7708C25.0336 20.7694 25.032 20.7676 25.0309 20.7654C25.0298 20.7632 25.0292 20.7608 25.0293 20.7584C25.0293 20.756 25.0299 20.7536 25.031 20.7514L25.1376 20.546C25.1389 20.5434 25.1409 20.5413 25.1433 20.5398C25.1458 20.5384 25.1486 20.5376 25.1514 20.5376L25.5092 20.546C25.5123 20.5461 25.5152 20.547 25.5177 20.5488C25.5202 20.5506 25.5221 20.5531 25.5231 20.5559C25.5242 20.5588 25.5244 20.5619 25.5236 20.5648ZM26.0499 20.803L25.7024 20.8119C25.6998 20.8117 25.6974 20.8126 25.6956 20.8143C25.6947 20.8152 25.6939 20.8163 25.6935 20.8175L25.6929 20.8197L25.6928 20.821C25.6928 20.8235 25.6938 20.826 25.6956 20.8279C25.6965 20.8288 25.6975 20.8296 25.6987 20.8301C25.6999 20.8307 25.7011 20.831 25.7024 20.831L26.0317 20.8458C26.0464 20.8464 26.0551 20.854 26.0577 20.8684C26.1231 21.212 26.0076 21.5526 25.8852 21.8676C25.879 21.8837 25.8672 21.8915 25.8498 21.8912L25.0334 21.8711C25.0291 21.871 25.0248 21.8698 25.021 21.8676C25.0172 21.8655 25.014 21.8624 25.0116 21.8586C25.0093 21.8549 25.0079 21.8506 25.0076 21.8462C25.0073 21.8417 25.0081 21.8373 25.0098 21.8332L25.1288 21.5703C25.1314 21.5647 25.1298 21.5609 25.1239 21.559L25.1101 21.554C25.1039 21.5517 25.0998 21.5473 25.0978 21.5408L25.0133 21.241C25.0109 21.2327 25.0115 21.2239 25.015 21.216C25.0185 21.2081 25.0247 21.2016 25.0325 21.1977L25.2438 21.0881C25.2743 21.0724 25.2838 21.0807 25.2723 21.1132C25.2458 21.1895 25.2264 21.256 25.2143 21.3127C25.2042 21.3615 25.2086 21.363 25.2276 21.3171L25.4301 20.8335C25.4332 20.8257 25.4388 20.8192 25.446 20.8148C25.4532 20.8105 25.4615 20.8086 25.4699 20.8094L25.5421 20.8158C25.5618 20.8178 25.5665 20.8102 25.5564 20.7932C25.5492 20.7807 25.5457 20.768 25.5461 20.7549C25.5464 20.7375 25.5544 20.7249 25.5702 20.717L25.9339 20.5416C25.943 20.5372 25.9529 20.5347 25.963 20.5343C25.9731 20.5339 25.9832 20.5356 25.9926 20.5392C26.002 20.5429 26.0105 20.5484 26.0177 20.5555C26.0248 20.5626 26.0304 20.571 26.0341 20.5804C26.059 20.6436 26.0725 20.7092 26.0744 20.777C26.0748 20.794 26.0666 20.8027 26.0499 20.803ZM24.4854 21.5905C24.485 21.5858 24.4859 21.581 24.4879 21.5767L24.5842 21.3658C24.5865 21.3609 24.5902 21.3568 24.5947 21.3539C24.5993 21.3509 24.6046 21.3494 24.61 21.3494C24.6154 21.3494 24.6207 21.3509 24.6253 21.3539C24.6299 21.3568 24.6335 21.3609 24.6358 21.3658L24.7312 21.5771C24.7331 21.5815 24.734 21.5863 24.7336 21.591C24.7333 21.5958 24.7317 21.6004 24.7292 21.6044C24.7266 21.6084 24.723 21.6117 24.7188 21.614C24.7146 21.6163 24.7099 21.6175 24.7051 21.6174L24.5139 21.617C24.5091 21.617 24.5044 21.6158 24.5002 21.6135C24.496 21.6112 24.4925 21.6079 24.4899 21.6039C24.4873 21.5999 24.4857 21.5953 24.4854 21.5905ZM23.6907 21.5265L23.7334 21.411C23.741 21.3907 23.7469 21.391 23.7511 21.412C23.7623 21.4661 23.7526 21.5134 23.7221 21.554C23.7195 21.5573 23.7162 21.5581 23.7123 21.5565L23.701 21.5511C23.6898 21.5462 23.6864 21.538 23.6907 21.5265ZM15.1405 21.8632C15.1384 21.8587 15.1379 21.8537 15.139 21.8489L15.1907 21.6356C15.1917 21.631 15.1943 21.6268 15.198 21.6238C15.2016 21.6207 15.2062 21.619 15.211 21.6188C15.2157 21.6187 15.2204 21.6201 15.2243 21.6228C15.2282 21.6256 15.231 21.6296 15.2324 21.6342L15.3936 22.1281C15.3948 22.1316 15.395 22.1354 15.3943 22.139C15.3935 22.1427 15.3919 22.1461 15.3895 22.1489C15.3871 22.1517 15.384 22.1538 15.3805 22.1551C15.377 22.1564 15.3732 22.1567 15.3696 22.1561L15.2845 22.1414C15.2812 22.1408 15.278 22.1394 15.2753 22.1374C15.2725 22.1353 15.2703 22.1327 15.2688 22.1296L15.1405 21.8632ZM12.2141 22.9184L12.6879 21.9477C12.6988 21.9255 12.6919 21.9156 12.6673 21.9182C12.643 21.9209 12.6275 21.9302 12.6206 21.9463C12.5233 22.1766 12.4261 22.4052 12.3291 22.6319C12.3095 22.6774 12.2882 22.6783 12.2652 22.6344L12.2308 22.5695C12.2089 22.5275 12.2041 22.4838 12.2166 22.4383C12.2631 22.2692 12.3108 22.0898 12.3596 21.9001C12.3887 21.7868 12.4602 21.7307 12.5422 21.6663C12.5531 21.6578 12.5642 21.6491 12.5754 21.6401C12.5905 21.6279 12.6034 21.6297 12.6142 21.6455L12.7155 21.7919C12.7204 21.7988 12.7237 21.8067 12.7251 21.815C12.7265 21.8232 12.7261 21.8316 12.7238 21.8396L12.715 21.8745C12.7107 21.8899 12.7132 21.904 12.7223 21.9168C12.7756 21.9942 12.8318 22.0674 12.8874 22.1398C13.0496 22.3509 13.2062 22.5548 13.2655 22.8344C13.2665 22.8395 13.2663 22.8449 13.2649 22.8499C13.2634 22.855 13.2607 22.8596 13.2571 22.8634L12.6555 23.4925C12.6427 23.506 12.629 23.5069 12.6142 23.4955C12.4337 23.3533 12.2998 23.1755 12.2127 22.9622C12.2068 22.9474 12.2073 22.9329 12.2141 22.9184ZM13.9943 22.1424C13.9059 22.0955 13.8446 22.0257 13.8105 21.933C13.8096 21.9306 13.8093 21.9281 13.8095 21.9255C13.8098 21.923 13.8107 21.9205 13.812 21.9184C13.8134 21.9162 13.8153 21.9143 13.8175 21.913C13.8197 21.9116 13.8222 21.9107 13.8248 21.9104L13.9811 21.8956C13.9945 21.8943 14.0052 21.8992 14.013 21.9104C14.0645 21.9834 14.0718 22.0565 14.0351 22.1296C14.0263 22.1476 14.0127 22.1519 13.9943 22.1424ZM24.4653 22.1723C24.4738 22.1733 24.4767 22.1779 24.4741 22.1861L24.4196 22.3655C24.415 22.3796 24.4058 22.3893 24.392 22.3945C24.2705 22.4378 24.1464 22.4425 24.02 22.4088C24.0033 22.4045 23.9924 22.394 23.9875 22.3773L23.9492 22.248C23.9469 22.2405 23.9476 22.2323 23.9513 22.2253C23.955 22.2183 23.9613 22.2131 23.9688 22.2107C24.1304 22.1599 24.2959 22.1471 24.4653 22.1723ZM15.3907 22.6968C15.3884 22.6982 15.3859 22.699 15.3833 22.6992L15.313 22.7051C15.3099 22.7055 15.3068 22.7049 15.304 22.7035C15.3012 22.7021 15.2989 22.7 15.2973 22.6973L15.1587 22.4658C15.1573 22.4634 15.1565 22.4607 15.1564 22.4579C15.1563 22.4551 15.1569 22.4524 15.1582 22.4499C15.1595 22.4474 15.1614 22.4453 15.1637 22.4438C15.166 22.4423 15.1687 22.4414 15.1715 22.4412L15.2713 22.4328C15.2746 22.4325 15.278 22.4333 15.2809 22.4349C15.2838 22.4366 15.2861 22.4391 15.2875 22.4422L15.3966 22.6761C15.3977 22.6785 15.3982 22.6811 15.3981 22.6837C15.398 22.6863 15.3973 22.6889 15.396 22.6912C15.3947 22.6934 15.3929 22.6953 15.3907 22.6968ZM25.7953 22.4908L25.5107 22.9651C25.5087 22.9681 25.5061 22.9705 25.5029 22.9721C25.4998 22.9736 25.4964 22.9743 25.493 22.974L25.3102 22.9587C25.2892 22.9571 25.2789 22.9456 25.2792 22.9243L25.29 22.4594C25.2907 22.4414 25.3 22.433 25.318 22.4343L25.783 22.4677C25.7994 22.4691 25.8035 22.4768 25.7953 22.4908ZM14.8449 22.6948C14.8399 22.6973 14.8344 22.6981 14.8289 22.6973L14.6264 22.6678C14.6196 22.6667 14.6135 22.663 14.6094 22.6575C14.6053 22.652 14.6034 22.6451 14.6043 22.6383L14.623 22.4633C14.6235 22.4582 14.6254 22.4533 14.6286 22.4492C14.6319 22.4452 14.6362 22.4422 14.6411 22.4406C14.646 22.439 14.6513 22.4388 14.6562 22.4401C14.6612 22.4415 14.6657 22.4442 14.6692 22.4481L14.8525 22.653C14.8562 22.6571 14.8586 22.6622 14.8593 22.6677C14.86 22.6731 14.859 22.6787 14.8564 22.6835C14.8538 22.6884 14.8498 22.6923 14.8449 22.6948ZM22.2894 22.7071C22.3356 22.7268 22.3413 22.7674 22.3066 22.829C22.2973 22.8456 22.2902 22.8619 22.2834 22.8774C22.2637 22.9226 22.2471 22.9608 22.1881 22.9784C22.1803 22.9808 22.1718 22.9803 22.1642 22.9772C22.1566 22.9741 22.1503 22.9684 22.1464 22.9612L22.0874 22.8506C22.0779 22.8333 22.0815 22.8192 22.0982 22.8084L22.2486 22.7105C22.2547 22.7067 22.2615 22.7044 22.2686 22.7038C22.2757 22.7032 22.2828 22.7044 22.2894 22.7071ZM14.8345 22.915C14.8312 22.9164 14.8275 22.9165 14.824 22.9155L14.6962 22.8732C14.6927 22.872 14.6897 22.8696 14.6879 22.8663L14.6156 22.7528C14.6133 22.7497 14.6122 22.7458 14.6125 22.7419C14.6129 22.738 14.6147 22.7344 14.6176 22.7318C14.6204 22.7291 14.6242 22.7276 14.6281 22.7276C14.632 22.7276 14.6358 22.7291 14.6387 22.7317L14.8387 22.8885C14.8415 22.8908 14.8434 22.894 14.844 22.8976C14.8447 22.9011 14.8441 22.9048 14.8424 22.908C14.8406 22.9111 14.8379 22.9136 14.8345 22.915ZM21.8264 23.204L21.909 22.9991C21.9129 22.9894 21.9202 22.9815 21.9295 22.9768C21.9388 22.9721 21.9495 22.9709 21.9596 22.9735L22.0628 23C22.0668 23.0011 22.0704 23.0032 22.0733 23.0062C22.0761 23.0092 22.0781 23.0129 22.079 23.0169C22.0798 23.0209 22.0796 23.025 22.0782 23.0288C22.0768 23.0326 22.0744 23.0359 22.0712 23.0384L21.8456 23.2183C21.821 23.2379 21.8146 23.2332 21.8264 23.204ZM14.2661 23.3077L14.2888 23.4645C14.2933 23.4983 14.2847 23.502 14.2627 23.4758L14.0946 23.2753C14.0766 23.2536 14.0813 23.2455 14.1089 23.2507L14.2352 23.2753C14.2532 23.2786 14.2635 23.2894 14.2661 23.3077ZM13.7838 23.7832C13.7813 23.7845 13.7785 23.7851 13.7756 23.785L13.0418 23.7653C13.0386 23.7652 13.0355 23.7642 13.0328 23.7624C13.0302 23.7605 13.0282 23.7579 13.027 23.7549C13.0258 23.7519 13.0256 23.7486 13.0263 23.7455C13.027 23.7424 13.0287 23.7395 13.031 23.7373L13.52 23.2581C13.5219 23.2562 13.5241 23.2549 13.5266 23.2541C13.529 23.2533 13.5317 23.2531 13.5342 23.2536C13.5368 23.254 13.5392 23.255 13.5412 23.2566C13.5433 23.2581 13.545 23.2602 13.5461 23.2625L13.7909 23.7614C13.7922 23.7639 13.7928 23.7667 13.7926 23.7696C13.7925 23.7724 13.7916 23.7752 13.7901 23.7776C13.7885 23.78 13.7864 23.7819 13.7838 23.7832ZM14.7424 23.4217C14.7405 23.4229 14.7383 23.4236 14.736 23.4237L14.6205 23.436C14.6184 23.4362 14.6162 23.436 14.6142 23.4353C14.6121 23.4346 14.6103 23.4334 14.6087 23.4319C14.6072 23.4304 14.606 23.4286 14.6052 23.4266C14.6045 23.4246 14.6041 23.4224 14.6043 23.4203L14.6141 23.262C14.6142 23.2596 14.6149 23.2573 14.6162 23.2552C14.6174 23.2532 14.6191 23.2515 14.6211 23.2502C14.6231 23.2489 14.6254 23.2482 14.6278 23.248C14.6302 23.2479 14.6326 23.2483 14.6348 23.2492L14.8417 23.3343C14.8443 23.3353 14.8465 23.337 14.8482 23.3392C14.8499 23.3415 14.8508 23.3441 14.851 23.3469C14.8513 23.3497 14.8507 23.3525 14.8494 23.3549C14.8481 23.3574 14.8461 23.3594 14.8437 23.3608L14.7424 23.4217ZM22.6433 23.3711C22.6957 23.3141 22.7601 23.2772 22.8364 23.2605C22.8617 23.255 22.872 23.265 22.8674 23.2905L22.8354 23.4699C22.8335 23.481 22.8288 23.4915 22.8219 23.5004C22.815 23.5093 22.8061 23.5163 22.7958 23.521C22.7855 23.5256 22.7743 23.5277 22.763 23.527C22.7518 23.5263 22.7409 23.5229 22.7312 23.5171L22.657 23.4714C22.6487 23.4664 22.6417 23.4596 22.6364 23.4516C22.631 23.4435 22.6276 23.4343 22.6263 23.4247C22.625 23.4151 22.6258 23.4053 22.6287 23.396C22.6317 23.3868 22.6366 23.3782 22.6433 23.3711ZM23.9806 24.0437C23.978 24.0409 23.9762 24.0374 23.9752 24.0337C23.9099 23.7732 23.9821 23.3883 24.2416 23.2507C24.2593 23.2412 24.2721 23.2458 24.28 23.2645L24.4697 23.7112C24.4722 23.7172 24.4726 23.7238 24.4708 23.7299C24.469 23.7361 24.4651 23.7415 24.4599 23.7451L24.0126 24.0474C24.0093 24.0496 24.0056 24.051 24.0017 24.0515C23.9978 24.052 23.9938 24.0515 23.9901 24.0502C23.9865 24.0488 23.9832 24.0466 23.9806 24.0437ZM21.8387 23.7535C22.0186 23.7068 22.1611 23.6591 22.3243 23.5338C22.3371 23.524 22.3516 23.5196 22.368 23.5205C22.4395 23.5258 22.4986 23.5368 22.5455 23.5535C22.6208 23.581 22.6197 23.6052 22.542 23.6262C22.5142 23.6338 22.4751 23.6458 22.4292 23.6599C22.2465 23.7161 21.9559 23.8054 21.8392 23.781C21.7999 23.7728 21.7997 23.7637 21.8387 23.7535ZM15.5348 23.6404C15.5205 23.6341 15.5059 23.6276 15.489 23.6237C15.4474 23.6136 15.4195 23.5903 15.4054 23.554C15.4038 23.55 15.4036 23.5456 15.4047 23.5415C15.4058 23.5373 15.4083 23.5337 15.4117 23.5311C15.4151 23.5284 15.4192 23.527 15.4235 23.527C15.4278 23.5269 15.432 23.5283 15.4354 23.5309L15.5878 23.6419C15.6078 23.6567 15.6055 23.6616 15.5809 23.6567C15.5644 23.6534 15.5497 23.647 15.5348 23.6404ZM23.1643 23.7805C23.1528 23.7786 23.1487 23.7722 23.152 23.7614C23.1779 23.6729 23.2249 23.5974 23.293 23.5348C23.3035 23.5252 23.3172 23.5199 23.3314 23.5198C23.3456 23.5197 23.3595 23.5248 23.3702 23.5343L23.3815 23.5441C23.4169 23.5753 23.4175 23.6072 23.3835 23.64C23.3726 23.6505 23.3613 23.6625 23.3496 23.6751C23.2991 23.7293 23.2401 23.7925 23.1643 23.7805ZM15.4241 23.7933L15.6478 23.8892C15.6525 23.8912 15.6567 23.8945 15.6597 23.8987C15.6628 23.9029 15.6647 23.9078 15.6652 23.913C15.6657 23.9182 15.6648 23.9234 15.6626 23.9281C15.6604 23.9328 15.657 23.9369 15.6527 23.9398L15.1449 24.2951C15.1252 24.3089 15.101 24.3147 15.0771 24.3113C15.0532 24.308 15.0315 24.2957 15.0162 24.277C14.9388 24.1816 14.8913 24.072 14.8736 23.9481C14.8707 23.9268 14.8795 23.9137 14.9002 23.9088L15.3863 23.7899C15.3991 23.7869 15.4117 23.7881 15.4241 23.7933ZM17.2972 23.7928L18.3284 24.0548C18.3363 24.0568 18.3379 24.061 18.3333 24.0676L18.1731 24.3148C18.1706 24.3186 18.1671 24.3217 18.163 24.3236C18.1589 24.3255 18.1544 24.3262 18.15 24.3256C17.8295 24.2887 17.4412 24.1133 17.2805 23.8145C17.279 23.8119 17.2783 23.809 17.2785 23.8061C17.2787 23.8031 17.2798 23.8003 17.2816 23.798C17.2834 23.7957 17.2858 23.794 17.2886 23.793C17.2914 23.7921 17.2944 23.792 17.2972 23.7928ZM29.0091 24.0525C29.0083 24.0526 29.0075 24.0526 29.0067 24.0523L28.5452 23.8754C28.5016 23.8587 28.5031 23.8475 28.5496 23.842L28.9713 23.7894C28.9907 23.7871 29.0008 23.7956 29.0018 23.8149L29.0131 24.0474C29.0131 24.0482 29.013 24.049 29.0127 24.0497C29.0123 24.0504 29.0118 24.0511 29.0112 24.0515C29.0106 24.052 29.0098 24.0524 29.0091 24.0525ZM15.9357 24.5271C15.9348 24.5294 15.9333 24.5314 15.9313 24.533L15.5529 24.8594C15.55 24.8618 15.5462 24.8631 15.5424 24.8629C15.5386 24.8627 15.5349 24.8611 15.5322 24.8584L15.1479 24.4701C15.1464 24.4687 15.1453 24.4669 15.1445 24.465L15.1439 24.4632L15.1435 24.4613L15.1434 24.4589C15.1434 24.4569 15.1439 24.4548 15.1448 24.453C15.1456 24.4511 15.1469 24.4494 15.1484 24.448L15.8247 23.8071C15.8267 23.8051 15.8293 23.8038 15.8321 23.8033C15.8348 23.8027 15.8377 23.8029 15.8403 23.8039C15.843 23.8048 15.8453 23.8065 15.8471 23.8087C15.8488 23.811 15.8499 23.8136 15.8502 23.8164L15.9368 24.5198C15.937 24.5222 15.9367 24.5248 15.9357 24.5271ZM23.1721 23.9034L23.3943 23.7938C23.3956 23.7931 23.3971 23.7928 23.3986 23.793C23.4001 23.7931 23.4015 23.7937 23.4027 23.7947C23.4039 23.7957 23.4048 23.797 23.4053 23.7985C23.4058 23.8 23.4059 23.8016 23.4056 23.8031L23.3456 24.0317C23.3434 24.0399 23.339 24.0474 23.3329 24.0534C23.3268 24.0594 23.3193 24.0636 23.311 24.0656C23.3028 24.0677 23.2942 24.0675 23.2861 24.0651C23.278 24.0627 23.2707 24.0581 23.265 24.0518L23.1643 23.9432C23.1492 23.9268 23.1518 23.9136 23.1721 23.9034ZM22.6094 24.0184L22.7018 23.9005C22.7119 23.8877 22.7175 23.872 22.7175 23.8557L22.717 23.8336C22.7168 23.8301 22.7179 23.8266 22.7199 23.8237C22.722 23.8208 22.725 23.8187 22.7284 23.8177C22.7318 23.8167 22.7355 23.817 22.7388 23.8183C22.7421 23.8197 22.7448 23.8221 22.7465 23.8253L22.8585 24.0032C22.8713 24.0235 22.8658 24.0346 22.8418 24.0366L22.629 24.0543C22.6247 24.0546 22.6203 24.0536 22.6164 24.0515C22.6126 24.0495 22.6094 24.0463 22.6074 24.0425C22.6053 24.0387 22.6044 24.0344 22.6047 24.0301C22.6051 24.0259 22.6067 24.0218 22.6094 24.0184ZM13.7697 24.2883C13.7914 24.3151 13.7868 24.3207 13.756 24.305L13.323 24.0838C13.2853 24.0645 13.2876 24.0556 13.3298 24.0573L13.5653 24.0661C13.5823 24.0668 13.5961 24.0738 13.6066 24.0872L13.7697 24.2883ZM11.9723 24.362L11.7939 24.7429C11.7887 24.754 11.7923 24.759 11.8047 24.7576C11.8247 24.7557 11.8404 24.7494 11.8519 24.739C11.923 24.6738 11.9908 24.6099 12.0554 24.5473C12.0581 24.5446 12.0614 24.5425 12.0651 24.5413C12.0688 24.54 12.0726 24.5396 12.0765 24.5401C12.0803 24.5406 12.084 24.5419 12.0872 24.544C12.0905 24.5461 12.0932 24.5489 12.0952 24.5522C12.455 25.1302 12.9301 25.5884 13.5205 25.9269C13.5238 25.9289 13.5262 25.932 13.5272 25.9357C13.5282 25.9393 13.5278 25.9432 13.5259 25.9466L13.2276 26.4725C13.2263 26.4749 13.2245 26.477 13.2224 26.4786C13.2202 26.4803 13.2177 26.4815 13.215 26.4822C13.2123 26.4828 13.2095 26.4829 13.2068 26.4824C13.2041 26.4819 13.2014 26.4809 13.1991 26.4794L12.2957 25.8994C12.2072 25.8424 12.2076 25.7253 12.208 25.6073C12.2083 25.5208 12.2085 25.4338 12.1738 25.3696C12.0947 25.2218 11.8622 25.2732 11.7093 25.307L11.7093 25.307C11.6817 25.3132 11.6567 25.3187 11.6356 25.3224C11.6271 25.3239 11.6182 25.3234 11.6098 25.321C11.6014 25.3185 11.5935 25.3141 11.587 25.3081L11.1608 24.9179C11.1464 24.9048 11.1427 24.8892 11.1495 24.8712C11.2842 24.5139 11.4553 24.2308 11.8013 24.074C11.816 24.0671 11.8276 24.0707 11.8362 24.0848L11.9699 24.3109C11.98 24.3276 11.9808 24.3446 11.9723 24.362ZM14.326 24.5955C14.3251 24.5959 14.3241 24.596 14.3232 24.5959L14.015 24.5483C14.0042 24.5466 13.9968 24.5407 13.9929 24.5306L13.8164 24.0921C13.8079 24.0715 13.8141 24.0653 13.8351 24.0735C14.0292 24.1492 14.2229 24.4106 14.3286 24.5881C14.329 24.5889 14.3292 24.5899 14.3292 24.5909C14.3291 24.5919 14.3288 24.5928 14.3282 24.5936L14.3271 24.5948L14.326 24.5955ZM16.2888 24.2963C16.2862 24.2943 16.2842 24.2914 16.2833 24.2883L16.2135 24.0833C16.2126 24.0806 16.2124 24.0778 16.2129 24.075C16.2135 24.0723 16.2147 24.0697 16.2166 24.0676C16.2184 24.0654 16.2207 24.0638 16.2234 24.0629C16.226 24.0619 16.2289 24.0617 16.2317 24.0622L16.3791 24.0892C16.3815 24.0897 16.3837 24.0907 16.3856 24.0921C16.3875 24.0935 16.3891 24.0954 16.3902 24.0975C16.3914 24.0996 16.392 24.1019 16.3921 24.1043C16.3922 24.1067 16.3918 24.1091 16.3909 24.1113L16.3137 24.2897C16.3124 24.2928 16.3102 24.2954 16.3074 24.2972C16.3046 24.299 16.3013 24.2999 16.298 24.2997C16.2946 24.2995 16.2914 24.2983 16.2888 24.2963ZM18.5078 24.3158L18.3687 24.3246C18.3618 24.3252 18.3548 24.3235 18.3489 24.3199C18.3429 24.3163 18.3383 24.3109 18.3355 24.3046C18.3327 24.2982 18.332 24.2911 18.3335 24.2843C18.335 24.2775 18.3385 24.2713 18.3436 24.2666L18.5383 24.0848C18.5583 24.0661 18.5668 24.0704 18.5638 24.0976L18.5442 24.2814C18.5415 24.303 18.5294 24.3145 18.5078 24.3158ZM23.4177 24.4773C23.4204 24.4724 23.4248 24.4688 23.4302 24.4672L23.9222 24.3236C23.9265 24.3224 23.9312 24.3225 23.9354 24.3241C23.9397 24.3257 23.9433 24.3286 23.9458 24.3324C23.9483 24.3362 23.9495 24.3407 23.9492 24.3452C23.9489 24.3498 23.9472 24.3541 23.9443 24.3576L23.5501 24.8368C23.5477 24.8398 23.5445 24.8421 23.5408 24.8435C23.5372 24.8448 23.5332 24.8451 23.5294 24.8443L23.5273 24.8438L23.525 24.8429L23.5226 24.8417L23.5208 24.8404L23.5192 24.8391C23.5164 24.8365 23.5143 24.8331 23.5132 24.8294L23.4159 24.4932C23.4144 24.4879 23.415 24.4821 23.4177 24.4773ZM16.5246 24.3349L16.9891 24.6082C16.991 24.6094 16.9926 24.6109 16.9939 24.6127C16.9952 24.6145 16.9962 24.6165 16.9967 24.6187C16.9972 24.6209 16.9972 24.6232 16.9969 24.6255L16.9964 24.6275L16.9959 24.6289L16.9945 24.6318L16.5162 25.3774C16.5008 25.4017 16.4835 25.403 16.4641 25.3814C16.3268 25.2283 16.243 25.0493 16.2125 24.8441C16.2095 24.8245 16.2133 24.8063 16.2238 24.7896L16.503 24.3399C16.5051 24.3364 16.5086 24.334 16.5126 24.3331C16.5167 24.3322 16.521 24.3328 16.5246 24.3349ZM13.7928 25.6477C13.7991 25.6687 13.7925 25.6743 13.7732 25.6645C13.1627 25.3509 12.6506 24.9208 12.2367 24.3743C12.2168 24.3481 12.2212 24.3431 12.25 24.3595C12.3317 24.4064 12.4207 24.4543 12.5135 24.5043C13.0176 24.7759 13.6334 25.1077 13.7928 25.6477ZM21.1201 25.1307C20.9094 25.096 20.7272 25.0057 20.5736 24.8599C20.5591 24.846 20.5395 24.8384 20.519 24.8387H20.5048L20.5032 24.8386C20.5022 24.8383 20.5013 24.8379 20.5004 24.8373C20.4992 24.8364 20.4983 24.8352 20.4978 24.8337C20.4973 24.8322 20.4973 24.8306 20.4977 24.8292C20.498 24.8282 20.4985 24.8274 20.4991 24.8266L20.5003 24.8255L20.7697 24.6151C20.7847 24.6036 20.8016 24.5987 20.8203 24.6004L21.7001 24.6751C21.8439 24.6872 21.8534 24.7293 21.7286 24.8014L21.1766 25.1204C21.1589 25.1309 21.1401 25.1343 21.1201 25.1307ZM22.3645 24.6679C22.3667 24.6662 22.3693 24.6651 22.372 24.6647L22.832 24.6038C22.8352 24.6034 22.8385 24.604 22.8414 24.6055C22.8443 24.6071 22.8466 24.6095 22.848 24.6124C22.8495 24.6153 22.85 24.6186 22.8495 24.6218C22.849 24.625 22.8475 24.628 22.8453 24.6303L22.6212 24.8599C22.6183 24.8627 22.6144 24.8643 22.6103 24.8643L22.5125 24.8658C22.5102 24.8658 22.5078 24.8652 22.5057 24.8642L22.5042 24.8634C22.5027 24.8624 22.5014 24.8613 22.5002 24.8599L22.3616 24.6898C22.36 24.6876 22.3589 24.6851 22.3586 24.6823C22.3582 24.6796 22.3586 24.6769 22.3596 24.6743C22.3607 24.6718 22.3624 24.6696 22.3645 24.6679ZM17.2029 24.88C17.2179 24.8751 17.2287 24.8799 17.2353 24.8943C17.3169 25.0737 17.2284 25.2506 17.1168 25.3858C17.1142 25.3889 17.1108 25.3914 17.1071 25.3931C17.1033 25.3947 17.0992 25.3955 17.0952 25.3954C17.0911 25.3952 17.0871 25.3942 17.0835 25.3922C17.08 25.3903 17.0769 25.3876 17.0746 25.3843C16.9532 25.2113 16.9743 24.9542 17.2029 24.88ZM17.5499 25.575L17.9377 24.8899C17.9412 24.8836 17.9467 24.8786 17.9532 24.8756C17.9597 24.8726 17.967 24.8717 17.974 24.8731L18.5397 24.9877C18.5523 24.9902 18.5639 24.9958 18.5736 25.0042C18.5833 25.0125 18.5907 25.0232 18.595 25.0352C18.5994 25.0472 18.6006 25.0601 18.5985 25.0727C18.5963 25.0853 18.591 25.0972 18.583 25.1071L18.1338 25.6669C18.1265 25.6758 18.1174 25.6794 18.1062 25.6777L17.5607 25.5971C17.5583 25.5967 17.556 25.5957 17.554 25.5942C17.552 25.5928 17.5504 25.5909 17.5494 25.5887C17.5483 25.5865 17.5478 25.5841 17.5479 25.5818C17.548 25.5794 17.5486 25.5771 17.5499 25.575ZM19.7292 24.9744L19.9449 24.883C19.956 24.8784 19.9679 24.8764 19.9799 24.877C19.9919 24.8777 20.0037 24.8811 20.0142 24.8869L20.4045 25.0997C20.452 25.1259 20.4491 25.1343 20.3956 25.1248L19.7326 25.0078C19.6936 25.0009 19.6925 24.9898 19.7292 24.9744ZM21.591 25.1159L22.0854 24.884C22.1037 24.8755 22.1239 24.8721 22.1439 24.8743C22.1639 24.8765 22.1829 24.8841 22.199 24.8962L22.3012 24.9739C22.333 24.9981 22.3299 25.0167 22.2918 25.0294C22.0654 25.1051 21.8331 25.1397 21.5949 25.1331C21.5693 25.1322 21.568 25.1264 21.591 25.1159ZM23.0891 25.3971L22.9205 25.2221C22.9133 25.2146 22.9139 25.208 22.9224 25.2024C23.0669 25.1061 23.2054 25.0018 23.3378 24.8894C23.3591 24.8713 23.3713 24.8763 23.3746 24.9041L23.4046 25.1503C23.4082 25.1792 23.3981 25.2018 23.3741 25.2182L23.1092 25.399C23.102 25.404 23.0953 25.4033 23.0891 25.3971ZM14.0896 25.1505C14.0955 25.1487 14.1019 25.1486 14.1079 25.1503L14.5802 25.2894C14.5882 25.2918 14.5948 25.2972 14.5989 25.3045C14.6029 25.3117 14.604 25.3203 14.6018 25.3283L14.5139 25.6566C14.5125 25.6617 14.5099 25.6664 14.5062 25.6702C14.5026 25.674 14.4981 25.6769 14.493 25.6786C14.488 25.6802 14.4827 25.6806 14.4775 25.6797C14.4723 25.6788 14.4674 25.6766 14.4632 25.6733L14.217 25.4797C14.2135 25.4767 14.2106 25.473 14.2086 25.4688L14.0705 25.1956C14.0677 25.19 14.0665 25.1838 14.0672 25.1776C14.0679 25.1714 14.0704 25.1655 14.0743 25.1607C14.0783 25.1559 14.0836 25.1523 14.0896 25.1505ZM15.9485 25.2899L16.0011 25.1666C16.0077 25.1512 16.0192 25.1418 16.0355 25.1386C16.0483 25.1356 16.0613 25.1359 16.0744 25.1395C16.0953 25.1451 16.1098 25.158 16.1176 25.1784L16.1933 25.3794C16.1943 25.3821 16.1945 25.3851 16.1938 25.388C16.1932 25.3908 16.1918 25.3935 16.1897 25.3955C16.1877 25.3976 16.1851 25.3991 16.1823 25.3998C16.1794 25.4005 16.1764 25.4004 16.1737 25.3995L15.9658 25.3293C15.9458 25.3224 15.94 25.3093 15.9485 25.2899ZM18.344 25.6685C18.3437 25.6667 18.344 25.6647 18.3446 25.663C18.4203 25.4762 18.5247 25.3068 18.6577 25.1548C18.6659 25.1456 18.676 25.1428 18.6882 25.1464L19.0406 25.255C19.0732 25.2651 19.1007 25.2873 19.1175 25.3171C19.1342 25.3469 19.1389 25.382 19.1305 25.4153L19.0848 25.5981C19.083 25.6054 19.0789 25.6119 19.0732 25.6168C19.0675 25.6216 19.0603 25.6245 19.0529 25.6251L18.3559 25.6782C18.3546 25.6783 18.3534 25.6782 18.3521 25.6778L18.3504 25.6772L18.3487 25.6762L18.3472 25.6749L18.3461 25.6737L18.3454 25.6727L18.3444 25.6703L18.344 25.6685ZM11.6155 25.4099C11.6725 25.4046 11.6971 25.4174 11.6892 25.4482C11.688 25.4533 11.6879 25.4586 11.689 25.4638C11.6901 25.4689 11.6924 25.4739 11.6956 25.4782C11.7557 25.5557 11.8312 25.6006 11.905 25.6444C11.958 25.6759 12.0101 25.7069 12.0549 25.749C12.4132 26.0862 12.7479 26.3943 13.2217 26.559C13.2323 26.5626 13.2417 26.569 13.2489 26.5776C13.2561 26.5861 13.2609 26.5965 13.2627 26.6075C13.2645 26.6186 13.2633 26.6299 13.2592 26.6403C13.2551 26.6507 13.2483 26.6598 13.2394 26.6666C13.1205 26.7594 12.9981 26.8539 12.8723 26.9502C12.8139 26.9951 12.7515 27.0205 12.685 27.0264C11.8352 27.0987 11.4194 26.4224 11.4027 25.661C11.4023 25.6455 11.4076 25.6305 11.4174 25.6187L11.5732 25.432C11.5839 25.4194 11.5991 25.4115 11.6155 25.4099ZM14.6131 25.7711L14.7498 25.4408C14.756 25.4258 14.7673 25.4171 14.7837 25.4148C14.9598 25.3905 15.1007 25.4747 15.2441 25.5604C15.2808 25.5823 15.3177 25.6043 15.3553 25.6246C15.3651 25.6299 15.3733 25.6376 15.3793 25.647C15.3853 25.6563 15.3888 25.6671 15.3896 25.6782C15.3903 25.6892 15.3882 25.7003 15.3835 25.7104C15.3788 25.7205 15.3717 25.7292 15.3627 25.7357C15.2985 25.7823 15.2278 25.8311 15.1508 25.8822C15.0562 25.9448 14.9678 25.9459 14.8635 25.9472L14.8348 25.9476C14.8165 25.9479 14.8001 25.9425 14.7857 25.9313L14.6249 25.8124C14.6102 25.8016 14.6063 25.7878 14.6131 25.7711ZM19.9287 25.487C19.8694 25.5322 19.8042 25.5629 19.7331 25.5789C19.7254 25.5807 19.7173 25.5803 19.7098 25.5777C19.7023 25.5752 19.6956 25.5706 19.6906 25.5645C19.6855 25.5583 19.6823 25.5509 19.6812 25.5431C19.6801 25.5352 19.6812 25.5272 19.6844 25.52C19.7293 25.4194 19.8073 25.3874 19.9184 25.4241C19.9247 25.4261 19.9302 25.4299 19.9345 25.4349C19.9388 25.4399 19.9416 25.4459 19.9427 25.4524C19.9438 25.4589 19.943 25.4656 19.9406 25.4717C19.9381 25.4778 19.934 25.4831 19.9287 25.487ZM22.4522 25.4147C22.4561 25.4157 22.4594 25.4182 22.4614 25.4217L22.5951 25.6532C22.5966 25.6556 22.5974 25.6584 22.5974 25.6613C22.5973 25.6627 22.5971 25.6642 22.5967 25.6656L22.596 25.6674L22.595 25.6693C22.5934 25.6717 22.5912 25.6737 22.5887 25.6749C22.5861 25.6761 22.5832 25.6766 22.5804 25.6763L22.1223 25.6217C22.1191 25.6213 22.1161 25.6199 22.1137 25.6177C22.1114 25.6155 22.1098 25.6126 22.1092 25.6094C22.1086 25.6062 22.109 25.603 22.1104 25.6C22.1118 25.5971 22.114 25.5947 22.1169 25.5932L22.4408 25.4163C22.4442 25.4143 22.4483 25.4137 22.4522 25.4147ZM11.7484 25.4391C11.752 25.4377 11.7559 25.4377 11.7595 25.4389L11.8873 25.4841C11.9089 25.4916 11.9209 25.507 11.9232 25.5303L11.9291 25.5907C11.9294 25.5945 11.9286 25.5982 11.9268 25.6015C11.925 25.6048 11.9223 25.6074 11.9189 25.6091C11.9156 25.6108 11.9118 25.6115 11.9081 25.611C11.9044 25.6105 11.9009 25.6089 11.8981 25.6065L11.7428 25.4669C11.74 25.4643 11.7382 25.4608 11.7377 25.457C11.7372 25.4533 11.738 25.4494 11.7399 25.4462C11.7419 25.4429 11.7449 25.4404 11.7484 25.4391ZM19.7194 26.5197L19.7193 26.5197L19.7193 26.5197C19.6687 26.496 19.6175 26.472 19.565 26.4484C19.5201 26.4281 19.4747 26.406 19.4289 26.382C19.4154 26.3752 19.4103 26.3644 19.4136 26.3496L19.4756 26.0547C19.4795 26.036 19.4908 26.0241 19.5095 26.0188C19.8597 25.9173 20.2094 25.8165 20.5583 25.7166C20.6438 25.6923 20.7307 25.6844 20.8188 25.693C21.3955 25.7493 21.972 25.8055 22.5484 25.8615C22.5687 25.8635 22.5823 25.874 22.5892 25.893L22.6025 25.9299C22.6094 25.9489 22.6035 25.9623 22.5848 25.9702C22.379 26.0585 22.172 26.1432 21.9651 26.2279L21.9649 26.228C21.604 26.3758 21.2432 26.5235 20.8896 26.6897C20.7933 26.7353 20.701 26.7595 20.6129 26.7625C20.2637 26.775 20.0011 26.6518 19.7194 26.5197ZM14.0002 25.8591C14.0281 25.8902 14.0232 25.8968 13.9855 25.8788C13.919 25.8476 13.8677 25.8006 13.8317 25.7377C13.8133 25.7059 13.8187 25.7012 13.8479 25.7234C13.9111 25.7719 13.9619 25.8172 14.0002 25.8591ZM17.8122 25.9888C17.8125 25.9909 17.8124 25.9931 17.8118 25.9952L17.7548 26.2061C17.7541 26.209 17.7525 26.2116 17.7504 26.2136C17.7482 26.2156 17.7455 26.2169 17.7425 26.2174L17.688 26.2253C17.6848 26.2257 17.6816 26.2251 17.6788 26.2236C17.6759 26.2221 17.6737 26.2198 17.6722 26.2169L17.5508 25.9751C17.5497 25.9727 17.5492 25.97 17.5495 25.9673C17.5497 25.9646 17.5506 25.962 17.5522 25.9599C17.5537 25.9577 17.5558 25.9559 17.5583 25.9548C17.5607 25.9537 17.5634 25.9532 17.5661 25.9535L17.799 25.9761C17.8012 25.9763 17.8033 25.9771 17.8052 25.9782C17.807 25.9794 17.8086 25.9809 17.8098 25.9827C17.811 25.9846 17.8118 25.9866 17.8122 25.9888ZM13.2822 26.53L13.6095 25.9667C13.6122 25.9621 13.6165 25.9585 13.6215 25.9565C13.6266 25.9546 13.6322 25.9544 13.6375 25.9559L14.2765 26.1486C14.2879 26.1521 14.2984 26.1583 14.3068 26.1668C14.3153 26.1753 14.3215 26.1858 14.325 26.1972C14.3284 26.2087 14.329 26.2209 14.3266 26.2326C14.3243 26.2444 14.319 26.2553 14.3114 26.2646L13.9182 26.7408C13.9067 26.7549 13.8923 26.7592 13.8749 26.7536L13.2949 26.5629C13.2917 26.5618 13.2888 26.56 13.2863 26.5577C13.2838 26.5553 13.2819 26.5525 13.2807 26.5493C13.2795 26.5462 13.279 26.5428 13.2792 26.5395C13.2795 26.5361 13.2805 26.5329 13.2822 26.53ZM15.0206 26.211L14.9252 26.1766C14.9212 26.1751 14.9177 26.1722 14.9154 26.1685C14.9131 26.1648 14.9121 26.1605 14.9126 26.1562C14.913 26.1518 14.9149 26.1478 14.9179 26.1446C14.9209 26.1415 14.9249 26.1394 14.9292 26.1388C15.1356 26.1099 15.3324 26.0511 15.5195 25.9623C15.5327 25.956 15.5471 25.9528 15.5617 25.9529C15.5764 25.9529 15.5908 25.9563 15.604 25.9628L15.6458 25.9834C15.6769 25.9992 15.6759 26.0124 15.6428 26.0233L15.0761 26.2115C15.0575 26.2177 15.0389 26.2176 15.0206 26.211ZM18.0468 26.2533C18.2824 26.2294 18.5491 26.2194 18.8469 26.2233C18.8485 26.2234 18.85 26.224 18.8512 26.2249C18.8525 26.2259 18.8535 26.2271 18.854 26.2286C18.8545 26.23 18.8546 26.2315 18.8542 26.2329C18.8538 26.2344 18.853 26.2356 18.8518 26.2366L18.5343 26.4838C18.5278 26.4887 18.5204 26.4908 18.5122 26.4902L17.8394 26.4248C17.8246 26.4232 17.8205 26.4156 17.8271 26.4022C17.8703 26.3131 17.9435 26.2634 18.0468 26.2533ZM15.98 26.7566C15.8018 26.7438 15.641 26.6843 15.4978 26.5782C15.4932 26.5747 15.4879 26.5723 15.4822 26.5709C15.4765 26.5696 15.4707 26.5694 15.4649 26.5703C15.4541 26.5723 15.4436 26.5718 15.4335 26.5688C15.4322 26.5686 15.431 26.5679 15.4301 26.567L15.4293 26.566L15.4289 26.5653L15.4284 26.5636C15.4282 26.5623 15.4284 26.561 15.4289 26.5598C15.4295 26.5587 15.4304 26.5577 15.4315 26.557L15.8886 26.2823C15.9567 26.2413 16.03 26.2269 16.1083 26.239L16.4096 26.2862C16.42 26.2879 16.4298 26.2925 16.4377 26.2995C16.4456 26.3066 16.4513 26.3157 16.4542 26.3259C16.4571 26.336 16.457 26.3468 16.454 26.3569C16.4509 26.3671 16.4451 26.3761 16.4371 26.383L16.0247 26.7413C16.0124 26.752 15.9964 26.7575 15.98 26.7566ZM16.9674 26.9219C16.961 26.9546 16.9549 26.9853 16.9512 27.0122C16.9509 27.0149 16.9501 27.0175 16.9487 27.0198L16.948 27.021L16.9467 27.0227C16.9458 27.0239 16.9447 27.025 16.9434 27.0259C16.9413 27.0276 16.9388 27.0288 16.9362 27.0295C16.9335 27.0301 16.9308 27.0303 16.9281 27.0298L16.2548 26.9468C16.2203 26.9425 16.2159 26.9288 16.2415 26.9055L16.6607 26.5246C16.685 26.5026 16.7133 26.4931 16.7458 26.4961L16.8912 26.5089C16.9066 26.5102 16.9201 26.5161 16.9315 26.5265C17.0282 26.6137 16.9943 26.7858 16.9674 26.9219ZM17.772 26.8878C17.6835 26.962 17.4108 27.0254 17.2997 27.0323C17.2966 27.0325 17.2935 27.0319 17.2907 27.0305C17.2892 27.0299 17.2878 27.029 17.2865 27.0279C17.2854 27.027 17.2844 27.026 17.2835 27.0248C17.2816 27.0223 17.2804 27.0194 17.2799 27.0164C17.2793 27.0133 17.2796 27.0102 17.2805 27.0072C17.3631 26.7687 17.5238 26.7053 17.7627 26.817C17.803 26.8357 17.8061 26.8593 17.772 26.8878ZM19.3994 27.0785L19.4008 27.2363C19.4012 27.2838 19.4058 27.2843 19.4146 27.2377C19.4238 27.1906 19.4254 27.1512 19.4195 27.1198C19.4133 27.086 19.4274 27.0679 19.4618 27.0652L19.8319 27.0367C19.867 27.0341 19.8894 27.0498 19.8992 27.0839C19.9408 27.2333 19.9477 27.3839 19.9199 27.5356C19.9191 27.5394 19.9174 27.5429 19.9151 27.5459C19.9127 27.549 19.9096 27.5514 19.9062 27.5531C19.9027 27.5547 19.8989 27.5556 19.8951 27.5555C19.8912 27.5555 19.8874 27.5545 19.884 27.5528L19.2234 27.2166C19.2151 27.2122 19.2087 27.2052 19.2052 27.197L19.1521 27.0657C19.143 27.0425 19.1508 27.0318 19.1757 27.0338L19.3704 27.048C19.3897 27.0493 19.3994 27.0595 19.3994 27.0785ZM20.5136 27.0495C20.8572 27.3341 21.0818 27.6565 21.2548 28.0787C21.2643 28.1023 21.2569 28.1105 21.2327 28.1033L20.2344 27.8143C20.2273 27.8123 20.2212 27.8077 20.2175 27.8013C20.2137 27.7948 20.2126 27.7872 20.2143 27.7799C20.2728 27.5415 20.316 27.3115 20.2556 27.0701C20.2516 27.0544 20.2577 27.0462 20.2738 27.0456L20.4689 27.0348C20.4859 27.0338 20.5008 27.0387 20.5136 27.0495ZM18.0369 27.0421C18.0609 27.0359 18.0663 27.0433 18.0532 27.0642L17.1134 28.5673C17.0348 28.6931 17.0027 28.6823 17.0171 28.5348L17.1355 27.3012C17.1368 27.2861 17.1449 27.2766 17.1596 27.2726L18.0369 27.0421ZM18.8627 27.6948C18.8643 27.7332 18.8548 27.7605 18.8341 27.7769C18.8171 27.7904 18.8043 27.7869 18.7958 27.7666L18.6228 27.3459C18.6104 27.3157 18.6164 27.3113 18.641 27.3326L18.8455 27.5091C18.8641 27.5254 18.8735 27.5459 18.8735 27.5705C18.8735 27.5884 18.8708 27.6069 18.8681 27.6257C18.8649 27.6484 18.8616 27.6715 18.8627 27.6948ZM18.9565 27.7401C18.8962 27.7302 18.8931 27.7111 18.9472 27.6826L19.1222 27.5902C19.1507 27.5752 19.1824 27.567 19.2147 27.5664C19.247 27.5657 19.2791 27.5725 19.3084 27.5862L19.6412 27.742C19.6556 27.7489 19.6586 27.7589 19.65 27.772C19.6186 27.8202 19.5832 27.8457 19.5218 27.8349C19.3173 27.7999 19.1289 27.7682 18.9565 27.7401ZM19.7675 10.4023C19.9538 10.2642 20.2349 10.243 20.4556 10.2602C20.4681 10.2612 20.4735 10.2679 20.4718 10.2804L20.4566 10.3993C20.4559 10.4055 20.4531 10.4112 20.4486 10.4154C20.444 10.4196 20.4382 10.4221 20.432 10.4224L19.8289 10.4524C19.8142 10.4531 19.8049 10.4606 19.8009 10.475C19.7908 10.5107 19.766 10.5222 19.7267 10.5094C19.6776 10.4931 19.6687 10.5057 19.7002 10.5473C19.7985 10.6765 19.9936 10.6942 20.1455 10.6864C20.2241 10.6824 20.2367 10.7095 20.1833 10.7675C20.1784 10.773 20.1573 10.7711 20.1199 10.7616C20.1143 10.7603 20.1111 10.7624 20.1101 10.768V10.7685C20.1091 10.774 20.1114 10.7773 20.117 10.7783C20.2813 10.8 20.3736 10.7658 20.5169 10.7127L20.5456 10.7021C20.5602 10.6967 20.5728 10.6865 20.5814 10.6731C20.6974 10.4863 20.778 10.2509 20.7205 10.0288C20.7186 10.0215 20.7146 10.015 20.709 10.0101C20.7034 10.0052 20.6964 10.0021 20.6891 10.0012C20.4332 9.96715 20.1927 10.0089 19.9676 10.1266C19.8786 10.1732 19.8362 10.2491 19.7913 10.3295C19.7799 10.35 19.7683 10.3708 19.7557 10.3915C19.7403 10.4161 19.7442 10.4197 19.7675 10.4023ZM28.1111 13.384C28.015 13.321 27.9107 13.287 27.7985 13.282C27.9396 13.2163 28.0713 13.2329 28.1937 13.3319C28.2081 13.3437 28.2125 13.3584 28.207 13.3761C28.1455 13.5708 27.9779 13.8637 27.8133 13.988C27.7949 14.0015 27.7912 13.9982 27.802 13.9782L28.116 13.4046C28.1206 13.3961 28.119 13.3892 28.1111 13.384ZM27.7985 13.282L27.7887 13.2867C27.7874 13.2873 27.7864 13.287 27.7858 13.2857L27.7848 13.2837C27.7841 13.2821 27.7866 13.2814 27.7921 13.2818L27.7985 13.282ZM10.8473 19.1776C10.84 19.0567 10.8219 18.9372 10.7927 18.8193C10.7894 18.8058 10.7937 18.8027 10.8055 18.8099C10.8409 18.8322 10.8587 18.8597 10.859 18.8925C10.8604 18.9836 10.8651 19.0745 10.8733 19.1653C10.874 19.1735 10.8702 19.1779 10.862 19.1786L10.8497 19.1795C10.8484 19.1795 10.8476 19.1789 10.8473 19.1776ZM26.1231 23.842C26.3905 24.1959 26.5213 24.6554 26.5006 25.0899C26.4996 25.1092 26.5034 25.1102 26.5119 25.0929C26.7518 24.593 26.5468 24.1413 26.134 23.8307C26.1035 23.8078 26.0999 23.8115 26.1231 23.842ZM23.3639 26.3647C23.3452 26.294 23.3534 26.2907 23.3884 26.3549C23.6008 26.7422 23.7846 27.3998 23.5978 27.8446C23.5765 27.8951 23.5683 27.8931 23.5732 27.8388C23.618 27.3531 23.4877 26.8326 23.3639 26.3647ZM15.0063 26.7747C14.9801 26.8681 14.937 26.9538 14.8771 27.0317C14.9622 27.0118 15.0065 26.9547 15.0564 26.8902L15.0565 26.8901C15.0644 26.8798 15.0726 26.8693 15.081 26.8587C15.1099 26.8227 15.1025 26.7886 15.0589 26.7565C15.0545 26.7533 15.0494 26.7512 15.044 26.7504C15.0386 26.7496 15.0331 26.7501 15.0279 26.7519C15.0227 26.7536 15.0181 26.7567 15.0143 26.7606C15.0106 26.7646 15.0078 26.7694 15.0063 26.7747ZM24.995 27.0705C24.9721 27.1656 24.9097 27.2001 24.8078 27.1743C24.7878 27.169 24.7868 27.1613 24.8048 27.1512L24.9768 27.0563C24.9935 27.0471 24.9996 27.0519 24.995 27.0705ZM14.9983 28.4409C15.016 28.412 15.0088 28.4032 14.9767 28.4143C14.8944 28.4432 14.8623 28.5039 14.8803 28.5967C14.8843 28.617 14.8917 28.6183 14.9025 28.6006L14.9983 28.4409Z" fill="black"/>
</svg>
