<svg width="40" height="40" viewBox="0 0 40 40" fill="none" xmlns="http://www.w3.org/2000/svg">
<circle cx="20" cy="20" r="20" fill="#95FF42"/>
<path fill-rule="evenodd" clip-rule="evenodd" d="M30.824 16.477C30.758 15.597 30.659 14.904 30.516 14.387C30.241 13.397 29.603 12.759 28.613 12.484C27.48 12.176 24.609 12 20 12L18.251 12.066C17.041 12.066 15.732 12.099 14.302 12.176C12.85 12.242 11.904 12.341 11.387 12.484C10.397 12.759 9.759 13.397 9.484 14.387C9.176 15.52 9 17.291 9 19.7L9.066 20.624C9.066 21.284 9.099 22.043 9.176 22.923C9.242 23.803 9.341 24.496 9.484 25.013C9.759 26.003 10.397 26.641 11.387 26.916C12.52 27.224 15.391 27.4 20 27.4L21.749 27.334C22.959 27.334 24.268 27.301 25.698 27.224C27.15 27.158 28.096 27.059 28.613 26.916C29.603 26.641 30.241 26.003 30.516 25.013C30.824 23.88 31 22.109 31 19.7L30.934 18.776C30.934 18.116 30.901 17.357 30.824 16.477ZM17.8 22.9999L23.509 19.6999L17.8 16.3999V22.9999Z" fill="black"/>
</svg>
