<svg width="40" height="40" viewBox="0 0 40 40" fill="none" xmlns="http://www.w3.org/2000/svg">
<circle cx="20" cy="20" r="20" fill="#95FF42"/>
<path d="M27.2703 13.3698C27.0034 16.1806 25.8471 23.0118 25.26 26.1606C25.011 27.4948 24.5129 27.9395 24.0503 27.9929C23.0185 28.0819 22.2358 27.3169 21.2396 26.6587C19.6741 25.6269 18.7846 24.9865 17.2725 23.9902C15.5113 22.8339 16.6498 22.1935 17.6639 21.1617C17.9307 20.8948 22.4849 16.7498 22.5738 16.3763C22.5862 16.3197 22.5845 16.2609 22.569 16.2051C22.5535 16.1493 22.5246 16.0981 22.4848 16.056C22.3781 15.9671 22.2358 16.0027 22.1113 16.0205C21.9512 16.056 19.4606 17.7105 14.604 20.9838C13.8924 21.4641 13.252 21.7132 12.6827 21.6954C12.0423 21.6776 10.8326 21.3396 9.92535 21.0371C8.8046 20.6814 7.93291 20.4857 8.00407 19.863C8.03965 19.5428 8.48439 19.2226 9.3205 18.8846C14.5151 16.6253 17.9663 15.131 19.6919 14.4194C24.6374 12.3558 25.6514 12 26.3274 12C26.4697 12 26.8077 12.0356 27.0212 12.2135C27.1991 12.3558 27.2525 12.5515 27.2703 12.6938C27.2525 12.8005 27.2881 13.1207 27.2703 13.3698Z" fill="black"/>
</svg>
