<svg width="32" height="32" viewBox="0 0 32 32" fill="none" xmlns="http://www.w3.org/2000/svg">
<g id="Frame">
<path id="Vector" d="M4.81041 9C5.64961 9 6.92841 9 7.64771 9C8.00741 9 8.28711 9.2398 8.40701 9.5595C8.76671 10.5985 9.56601 12.8764 10.4851 14.4349C11.7239 16.473 12.5232 17.2323 13.0427 17.1524C13.5622 17.0325 13.4024 15.6738 13.4024 14.5948C13.4024 13.5158 13.5223 11.6775 13.0028 10.8383L12.2035 9.6794C12.0037 9.3996 12.2035 9.04 12.5232 9.04H17.079C17.5186 9.04 17.8782 9.3996 17.8782 9.8392V15.6338C17.8782 15.6338 18.078 16.6729 19.197 15.5939C20.316 14.5149 21.5148 12.5167 22.5139 10.4786L22.9135 9.5195C23.0334 9.2398 23.3132 9.04 23.6329 9.04H26.5901C27.1496 9.04 27.5492 9.5994 27.3494 10.119L27.0297 10.9582C27.0297 10.9582 25.9507 13.1162 24.8318 14.6348C23.7128 16.1933 23.473 16.553 23.6329 16.9526C23.7927 17.3522 26.67 20.0297 27.3894 21.3086C27.5892 21.6682 27.749 21.9879 27.9089 22.2677C28.1886 22.7872 27.789 23.4665 27.1896 23.4665H23.8327C23.5529 23.4665 23.2732 23.3067 23.1533 23.0669L22.8336 22.5474C22.8336 22.5474 20.7955 20.1496 19.5567 19.3903C18.2778 18.671 18.3178 19.71 18.3178 19.71V21.8281C18.3178 22.7072 17.5985 23.4266 16.7193 23.4266H15.92C15.92 23.4266 11.5241 23.4266 8.00741 18.1915C5.25001 14.1152 4.33081 11.4777 4.01111 9.9591C3.93121 9.4796 4.29091 9 4.81041 9Z" fill="white"/>
</g>
</svg>
