<svg width="32" height="32" viewBox="0 0 32 32" fill="none" xmlns="http://www.w3.org/2000/svg">
<path d="M16 3C8.83198 3 3.00008 8.83191 3.00008 16C3.00008 18.2383 3.5783 20.4392 4.67482 22.3813L3.021 28.2822C2.96674 28.476 3.0193 28.684 3.15947 28.8282C3.26743 28.9395 3.41439 29 3.5653 29C3.61052 29 3.6563 28.9943 3.70095 28.9836L9.85954 27.4581C11.74 28.4676 13.8579 29 16 29C23.1681 29 29 23.1681 29 16C29 8.83191 23.1681 3 16 3ZM22.5396 20.5873C22.2615 21.3571 20.9276 22.0597 20.2866 22.1541C19.7112 22.2383 18.9833 22.2745 18.184 22.0235C17.6996 21.8709 17.0779 21.6686 16.2815 21.3289C12.9337 19.9011 10.7475 16.5726 10.5802 16.3527C10.4135 16.1328 9.21746 14.566 9.21746 12.9444C9.21746 11.3228 10.0794 10.5253 10.3858 10.1952C10.6921 9.86513 11.0533 9.78261 11.276 9.78261C11.4987 9.78261 11.7208 9.78543 11.9158 9.79448C12.121 9.80465 12.3962 9.71704 12.667 10.3603C12.9451 11.0204 13.6126 12.642 13.6951 12.8077C13.7787 12.9727 13.8341 13.1654 13.7234 13.3853C13.6126 13.6052 13.5572 13.7425 13.3899 13.9353C13.2226 14.128 13.0394 14.3648 12.8891 14.5129C12.7218 14.6774 12.5483 14.8554 12.7427 15.1855C12.9371 15.5156 13.6069 16.5946 14.5994 17.4684C15.874 18.591 16.9496 18.9391 17.2831 19.1042C17.6166 19.2692 17.8116 19.2415 18.006 19.0217C18.2004 18.8012 18.8403 18.0591 19.0624 17.7296C19.2845 17.4 19.5072 17.4543 19.8136 17.5645C20.1199 17.6742 21.7607 18.4711 22.0942 18.6362C22.4277 18.8012 22.6504 18.8837 22.734 19.0211C22.8177 19.1579 22.8177 19.818 22.5396 20.5873Z" fill="white"/>
</svg>
