<svg width="41" height="40" viewBox="0 0 41 40" fill="none" xmlns="http://www.w3.org/2000/svg">
<g clip-path="url(#clip0_434_6491)">
<g clip-path="url(#clip1_434_6491)">
<mask id="mask0_434_6491" style="mask-type:luminance" maskUnits="userSpaceOnUse" x="-134" y="-25" width="304" height="311">
<path d="M-133.972 285.656H169.025V-24.9807H-133.972V285.656Z" fill="white"/>
</mask>
<g mask="url(#mask0_434_6491)">
<path d="M17.1047 25.8714C16.4863 25.8292 15.7731 25.718 15.2107 25.551C15.1053 25.5197 14.6691 25.3553 14.5582 25.3032C12.6 24.3732 11.2359 22.3433 11.2359 19.9883C11.2359 16.7581 13.7992 14.127 16.952 14.127C20.0768 14.127 22.6228 16.7132 22.6666 19.9069H24.7316C24.6878 15.5464 21.2159 12.0125 16.952 12.0125C12.6626 12.0125 9.17138 15.5897 9.17138 19.9883C9.17138 23.0206 10.8348 25.658 13.2704 27.0054C13.7102 27.2439 14.3413 27.4896 14.5556 27.557C15.2499 27.7688 16.102 27.9097 16.8604 27.9687C17.1179 27.9885 18.0173 27.999 18.2795 28H32.5V25.8913H18.3034C18.1146 25.8913 17.2895 25.884 17.1047 25.8714ZM18.3034 22.5604C18.1532 22.5604 17.3679 22.5552 17.2228 22.5426C16.9769 22.5212 16.6206 22.4837 16.3916 22.4299C16.133 22.359 15.8902 22.265 15.7808 22.2035C15.0137 21.7782 14.491 20.9463 14.491 19.9883C14.491 18.5944 15.5919 17.4641 16.952 17.4641C18.2836 17.4641 19.3662 18.5501 19.4095 19.9069H21.3936C21.3518 17.4281 19.381 15.4305 16.952 15.4305C14.4961 15.4305 12.5053 17.4709 12.5053 19.9883C12.5053 21.7635 13.4979 23.2967 14.9435 24.0476C15.1659 24.1812 15.5843 24.3211 15.7034 24.3529C16.1116 24.463 16.6598 24.5381 17.1047 24.5715C17.2691 24.5856 18.0743 24.5919 18.2444 24.5929V24.5961H32.4995V22.5604H18.3034ZM7.89887 27.9922H5.8201V14.1317H2.78237V12H7.89887V27.9922ZM0.5 15.1968V17.2465H2.78237V27.9922H4.7797V15.1968H0.5Z" fill="black"/>
<path d="M28.8269 12.1488C28.0781 12.1488 27.4572 12.7609 27.4572 13.5291C27.4572 14.2972 28.0781 14.9338 28.8269 14.9338C29.5985 14.9338 30.1956 14.2972 30.1956 13.5291C30.1956 12.7609 29.5985 12.1488 28.8269 12.1488ZM28.8269 14.7074C28.2084 14.7074 27.6755 14.209 27.6755 13.5291C27.6755 12.8835 28.2084 12.3727 28.8269 12.3727C29.4448 12.3727 29.9752 12.8835 29.9752 13.5291C29.9752 14.209 29.4448 14.7074 28.8269 14.7074Z" fill="black"/>
<path d="M29.3483 13.9073C29.3483 13.7524 29.3259 13.6083 29.1529 13.5514C29.3697 13.4742 29.3911 13.3286 29.3911 13.2404C29.3911 12.884 29.0755 12.8386 28.9457 12.8386H28.3486V14.2189H28.5975V13.6527H28.7935C29.0755 13.6527 29.0989 13.7857 29.0989 13.9073C29.0989 14.1427 29.0989 14.187 29.1529 14.2189H29.4023C29.3483 14.163 29.3697 14.1197 29.3483 13.9073ZM28.8912 13.4513H28.5975V13.0166H28.849C29.0231 13.0166 29.1412 13.0729 29.1412 13.2404C29.1412 13.3286 29.0989 13.4513 28.8912 13.4513Z" fill="black"/>
</g>
</g>
</g>
<defs>
<clipPath id="clip0_434_6491">
<rect width="40" height="40" fill="white" transform="translate(0.5)"/>
</clipPath>
<clipPath id="clip1_434_6491">
<rect width="32" height="16" fill="white" transform="translate(0.5 12)"/>
</clipPath>
</defs>
</svg>
