<svg width="1439" height="1135" viewBox="0 0 1439 1135" fill="none" xmlns="http://www.w3.org/2000/svg">
<g clip-path="url(#clip0_2303_8652)">
<mask id="mask0_2303_8652" style="mask-type:alpha" maskUnits="userSpaceOnUse" x="67" y="-476" width="2182" height="2182">
<circle cx="1157.79" cy="614.79" r="1090.29" stroke="#003E14"/>
<circle cx="1157.76" cy="614.752" r="725.256" stroke="#003E14"/>
<circle cx="1157.03" cy="615.025" r="406.526" stroke="#003E14"/>
<path d="M1298.5 614.999C1298.5 693.148 1235.37 756.499 1157.5 756.499C1079.63 756.499 1016.5 693.148 1016.5 614.999C1016.5 536.849 1079.63 473.499 1157.5 473.499C1235.37 473.499 1298.5 536.849 1298.5 614.999Z" stroke="#003E14"/>
</mask>
<g mask="url(#mask0_2303_8652)">
<rect x="-131" y="-877.001" width="1694" height="2914" fill="url(#paint0_radial_2303_8652)"/>
</g>
<mask id="mask1_2303_8652" style="mask-type:alpha" maskUnits="userSpaceOnUse" x="-392" y="614" width="3099" height="2">
<line x1="-392" y1="614.502" x2="2707" y2="614.502" stroke="black"/>
</mask>
<g mask="url(#mask1_2303_8652)">
<rect x="-131" y="-877.001" width="1694" height="2914" fill="url(#paint1_linear_2303_8652)"/>
</g>
<mask id="mask2_2303_8652" style="mask-type:alpha" maskUnits="userSpaceOnUse" x="1157" y="-693" width="1" height="2616">
<line x1="1157.5" y1="-692.001" x2="1157.5" y2="1922.44" stroke="black"/>
</mask>
<g mask="url(#mask2_2303_8652)">
<rect x="-131" y="-877.001" width="1694" height="2914" fill="url(#paint2_linear_2303_8652)"/>
</g>
</g>
<defs>
<radialGradient id="paint0_radial_2303_8652" cx="0" cy="0" r="1" gradientUnits="userSpaceOnUse" gradientTransform="translate(716 579.999) rotate(-180) scale(730 579.175)">
<stop offset="0.100096"/>
<stop offset="0.72254" stop-color="#95FF42"/>
<stop offset="1" stop-color="#95FF42" stop-opacity="0"/>
</radialGradient>
<linearGradient id="paint1_linear_2303_8652" x1="1502.5" y1="538.999" x2="-28.9999" y2="556.499" gradientUnits="userSpaceOnUse">
<stop stop-opacity="0.87"/>
<stop offset="0.0744954" stop-color="#95FF42"/>
<stop offset="0.228042" stop-color="#95FF42" stop-opacity="0"/>
<stop offset="0.377906" stop-color="#95FF42"/>
<stop offset="0.580579"/>
<stop offset="0.907922" stop-color="#95FF42"/>
<stop offset="0.98887" stop-color="#95FF42" stop-opacity="0"/>
</linearGradient>
<linearGradient id="paint2_linear_2303_8652" x1="1153" y1="1301.5" x2="1155" y2="-42.0014" gradientUnits="userSpaceOnUse">
<stop offset="0.127178" stop-color="#95FF42" stop-opacity="0"/>
<stop offset="0.164667" stop-color="#95FF42"/>
<stop offset="0.265624" stop-color="#003E14" stop-opacity="0.56"/>
<stop offset="0.355023" stop-color="#95FF42"/>
<stop offset="0.507869" stop-color="#95FF42" stop-opacity="0"/>
<stop offset="0.654989" stop-color="#95FF42"/>
<stop offset="0.812156" stop-color="#003E14" stop-opacity="0.63"/>
<stop offset="0.866944" stop-color="#95FF42"/>
<stop offset="0.98887" stop-color="#95FF42" stop-opacity="0"/>
</linearGradient>
<clipPath id="clip0_2303_8652">
<rect width="1439" height="1135" fill="white"/>
</clipPath>
</defs>
</svg>
