<svg width="328" height="676" viewBox="0 0 328 676" fill="none" xmlns="http://www.w3.org/2000/svg">
<g clip-path="url(#clip0_550_11294)">
<mask id="mask0_550_11294" style="mask-type:alpha" maskUnits="userSpaceOnUse" x="-212" y="-179" width="1137" height="1137">
<circle cx="356.512" cy="389.499" r="568.212" stroke="#003E14" stroke-width="0.532737"/>
<circle cx="356.496" cy="389.479" r="377.971" stroke="#003E14" stroke-width="0.532737"/>
<circle cx="356.115" cy="389.621" r="211.861" stroke="#003E14" stroke-width="0.532737"/>
<path d="M429.841 389.608C429.841 430.333 396.942 463.347 356.362 463.347C315.782 463.347 282.884 430.333 282.884 389.608C282.884 348.882 315.782 315.869 356.362 315.869C396.942 315.869 429.841 348.882 429.841 389.608Z" stroke="#003E14" stroke-width="0.532737"/>
</mask>
<g mask="url(#mask0_550_11294)">
<rect x="-315.157" y="-387.969" width="882.851" height="1518.67" fill="url(#paint0_radial_550_11294)"/>
</g>
<mask id="mask1_550_11294" style="mask-type:alpha" maskUnits="userSpaceOnUse" x="-452" y="389" width="1616" height="1">
<line x1="-451.181" y1="389.343" x2="1163.9" y2="389.343" stroke="black" stroke-width="0.532737"/>
</mask>
<g mask="url(#mask1_550_11294)">
<rect x="-315.157" y="-387.968" width="882.851" height="1518.67" fill="url(#paint1_linear_550_11294)"/>
</g>
</g>
<defs>
<radialGradient id="paint0_radial_550_11294" cx="0" cy="0" r="1" gradientUnits="userSpaceOnUse" gradientTransform="translate(126.268 371.367) rotate(-90) scale(362.649 287.722)">
<stop offset="0.100096"/>
<stop offset="0.72254" stop-color="#95FF42"/>
<stop offset="1" stop-color="#95FF42" stop-opacity="0"/>
</radialGradient>
<linearGradient id="paint1_linear_550_11294" x1="536.163" y1="350" x2="-261.998" y2="359.12" gradientUnits="userSpaceOnUse">
<stop stop-opacity="0.87"/>
<stop offset="0.0744954" stop-color="#95FF42"/>
<stop offset="0.228042" stop-color="#95FF42" stop-opacity="0"/>
<stop offset="0.377906" stop-color="#95FF42"/>
<stop offset="0.580579"/>
<stop offset="0.907922" stop-color="#95FF42"/>
<stop offset="0.98887" stop-color="#95FF42" stop-opacity="0"/>
</linearGradient>
<clipPath id="clip0_550_11294">
<rect width="328" height="676" fill="white"/>
</clipPath>
</defs>
</svg>
