<svg width="41" height="40" viewBox="0 0 41 40" fill="none" xmlns="http://www.w3.org/2000/svg">
<g clip-path="url(#clip0_434_6520)">
<path d="M38.4411 11.4358C38.4408 10.7817 38.2996 10.2038 38.014 9.70772C37.7334 9.21995 37.3133 8.81113 36.7497 8.48789C32.0979 5.83115 27.4415 3.18253 22.7911 0.523084C21.5374 -0.193812 20.3219 -0.167677 19.0775 0.559511C17.2259 1.64108 7.95566 6.90161 5.19326 8.4864C4.05562 9.1387 3.50205 10.137 3.50178 11.4346C3.5 16.7774 3.50178 22.1201 3.5 27.4631C3.5 28.1029 3.63549 28.6696 3.90852 29.1582C4.1892 29.6607 4.61521 30.0808 5.19176 30.4113C7.9543 31.9961 17.2257 37.2562 19.0769 38.3381C20.3219 39.0656 21.5374 39.0916 22.7916 38.3745C27.442 35.7149 32.0987 33.0664 36.7512 30.4097C37.3278 30.0793 37.7538 29.6589 38.0345 29.1568C38.3071 28.6682 38.4428 28.1015 38.4428 27.4617C38.4428 27.4617 38.4428 16.7788 38.4411 11.4358Z" fill="black"/>
<path d="M31.103 15.7476V17.5721H32.9451V15.7476H33.8662V17.5721H35.7083V18.4844H33.8662V20.309H35.7083V21.2212H33.8662V23.0458H32.9451V21.2212H31.103V23.0458H30.182V21.2212H28.3398V20.309H30.182V18.4844H28.3398V17.5721H30.182V15.7476H31.103ZM32.9451 18.4844H31.103V20.309H32.9451V18.4844Z" fill="#95FF42"/>
<path d="M21.0625 6.58429C25.8673 6.58429 30.0623 9.16889 32.3092 13.0106L32.2873 12.9737L26.6341 16.1977C25.5203 14.3298 23.4785 13.0693 21.1362 13.0433L21.0625 13.0429C17.4906 13.0429 14.5948 15.911 14.5948 19.4488C14.5948 20.6057 14.9062 21.6902 15.4478 22.627C16.5626 24.5546 18.6584 25.8548 21.0625 25.8548C23.4814 25.8548 25.5891 24.5381 26.6982 22.5898L26.6713 22.6366L32.3159 25.8755C30.0936 29.6847 25.9561 32.2613 21.2071 32.3127L21.0625 32.3135C16.2425 32.3135 12.0356 29.7129 9.7943 25.8509C8.70014 23.9655 8.0741 21.7797 8.0741 19.4488C8.0741 12.344 13.8891 6.58429 21.0625 6.58429Z" fill="#95FF42"/>
</g>
<defs>
<clipPath id="clip0_434_6520">
<rect width="35" height="39" fill="white" transform="translate(3.5 -0.000488281)"/>
</clipPath>
</defs>
</svg>
