<svg width="41" height="40" viewBox="0 0 41 40" fill="none" xmlns="http://www.w3.org/2000/svg">
<g clip-path="url(#clip0_434_6537)">
<g clip-path="url(#clip1_434_6537)">
<path fill-rule="evenodd" clip-rule="evenodd" d="M12.0704 24.8337C12.1634 24.8337 12.2521 24.8512 12.3341 24.8829C12.2454 24.9343 12.1852 25.0305 12.1852 25.1404C12.1852 25.3048 12.3183 25.4377 12.4827 25.4377C12.5952 25.4377 12.6928 25.3753 12.7435 25.283C12.7791 25.369 12.799 25.4634 12.799 25.5624C12.799 25.9649 12.4727 26.2911 12.0704 26.2911C11.668 26.2911 11.3416 25.9649 11.3416 25.5624C11.3416 25.1599 11.668 24.8337 12.0704 24.8337ZM12.0704 26.8089C11.383 26.8089 10.8237 26.2498 10.8237 25.5624C10.8237 24.875 11.383 24.3158 12.0704 24.3158C12.7576 24.3158 13.3168 24.875 13.3168 25.5624C13.3168 26.2498 12.7576 26.8089 12.0704 26.8089ZM34.4766 18.6396C30.9366 28.0196 22.9422 32.1977 13.5171 32.1977C9.06372 32.1977 5.51094 30.666 3.23872 28.112L3.25546 28.1009C3.91015 28.1341 4.49597 28.1454 5.09066 28.1454C5.63442 28.1454 6.16632 28.1397 6.65895 28.112C6.70181 28.1096 6.75543 28.1036 6.79798 28.1009C6.79838 28.1008 6.94997 28.091 6.87582 28.0898C8.12779 28.0125 9.0982 27.8385 10.0031 27.5803C10.0029 27.5804 10.0033 27.5802 10.0031 27.5803C10.1676 27.5333 10.3276 27.4835 10.4804 27.4306C10.6514 27.3713 10.7418 27.1847 10.6826 27.0138C10.6234 26.8428 10.437 26.7521 10.266 26.8116C9.11654 27.2098 7.60017 27.4291 5.74176 27.4703C4.79615 27.4912 3.76195 27.4663 2.64084 27.3942C2.40893 27.0846 2.19415 26.7628 1.99782 26.4295L1.68747 25.862C0.749839 24.0186 0.339327 21.8652 0.55719 19.5266H27.8276C30.0679 19.5266 32.2558 18.6906 33.2941 17.7683C31.4336 16.2555 31.6179 12.6621 32.8037 11.291C33.8328 12.1179 35.4923 13.8597 35.2069 16.077C36.5019 15.426 38.751 15.1043 40.5 16.1136C39.4019 18.2569 36.9882 18.8973 34.4766 18.6396ZM4.25847 18.8648H7.9462V15.1768H4.25847V18.8648ZM8.51348 18.8648H12.2016V15.1768H8.51348V18.8648ZM8.51348 14.6096H12.2016V10.9217H8.51348V14.6096ZM12.7688 18.8648H16.4567V15.1768H12.7688V18.8648ZM12.7688 14.6096H16.4567V10.9217H12.7688V14.6096ZM17.0239 18.8648H20.7118V15.1768H17.0239V18.8648ZM17.0239 14.6096H20.7118V10.9217H17.0239V14.6096ZM17.0239 10.3546H20.7118V6.66663H17.0239V10.3546ZM21.279 18.8648H24.9669V15.1768H21.279V18.8648Z" fill="black"/>
</g>
</g>
<defs>
<clipPath id="clip0_434_6537">
<rect width="40" height="40" fill="white" transform="translate(0.5)"/>
</clipPath>
<clipPath id="clip1_434_6537">
<rect width="40" height="40" fill="white" transform="translate(0.5)"/>
</clipPath>
</defs>
</svg>
