<svg width="41" height="40" viewBox="0 0 41 40" fill="none" xmlns="http://www.w3.org/2000/svg">
<g clip-path="url(#clip0_434_6455)">
<g clip-path="url(#clip1_434_6455)">
<path d="M2.3628 17.4152C2.28247 17.4152 2.26239 17.3729 2.30255 17.3093L2.72429 16.7373C2.76446 16.6737 2.86487 16.6313 2.9452 16.6313H10.1147C10.1951 16.6313 10.2152 16.6949 10.175 16.7585L9.83359 17.3093C9.79343 17.3729 9.69301 17.4364 9.63276 17.4364L2.3628 17.4152Z" fill="black"/>
<path d="M-0.669669 19.3643C-0.75 19.3643 -0.770083 19.322 -0.729917 19.2584L-0.308179 18.6864C-0.268014 18.6228 -0.1676 18.5804 -0.0872687 18.5804H9.07047C9.1508 18.5804 9.19097 18.644 9.17089 18.7076L9.01022 19.216C8.99014 19.3008 8.90981 19.3432 8.82948 19.3432L-0.669669 19.3643Z" fill="white"/>
<path d="M4.19032 21.3136C4.10999 21.3136 4.0899 21.25 4.13007 21.1864L4.41123 20.6568C4.45139 20.5932 4.53172 20.5297 4.61205 20.5297H8.62861C8.70894 20.5297 8.7491 20.5932 8.7491 20.678L8.70894 21.1864C8.70894 21.2712 8.62861 21.3347 8.56836 21.3347L4.19032 21.3136Z" fill="black"/>
<path d="M25.0363 17.0338C23.7711 17.3728 22.9075 17.6271 21.6624 17.9661C21.3611 18.0508 21.3411 18.072 21.08 17.7542C20.7787 17.394 20.5578 17.161 20.1361 16.9491C18.8709 16.2923 17.6458 16.483 16.5011 17.2669C15.1355 18.1991 14.4326 19.5762 14.4527 21.2923C14.4728 22.9872 15.5773 24.3855 17.1638 24.6186C18.5295 24.8093 19.6742 24.3008 20.5779 23.2203C20.7587 22.9872 20.9193 22.733 21.1201 22.4364C20.3972 22.4364 19.4934 22.4364 17.2442 22.4364C16.8224 22.4364 16.722 22.161 16.8626 21.8008C17.1237 21.144 17.6057 20.0423 17.8868 19.4915C17.9471 19.3644 18.0876 19.1525 18.3889 19.1525C19.4131 19.1525 23.1887 19.1525 25.699 19.1525C25.6589 19.7245 25.6589 20.2966 25.5785 20.8686C25.3576 22.394 24.8154 23.7923 23.9317 25.0211C22.4858 27.0338 20.598 28.2838 18.2081 28.6228C16.24 28.8983 14.4125 28.4957 12.8059 27.2245C11.3198 26.0381 10.4763 24.4703 10.2554 22.5211C9.99429 20.2118 10.6369 18.1355 11.9624 16.3135C13.3883 14.3432 15.2761 13.0932 17.5856 12.6483C19.4734 12.2881 21.2808 12.5211 22.9075 13.6864C23.9719 14.4279 24.735 15.4449 25.2371 16.6737C25.3576 16.8644 25.2773 16.9703 25.0363 17.0338Z" fill="black"/>
<path d="M31.6837 28.7499C29.8562 28.7076 28.1893 28.1567 26.7835 26.8855C25.5986 25.805 24.8556 24.4279 24.6146 22.7965C24.2531 20.4025 24.8756 18.2838 26.2413 16.3982C27.7073 14.3643 29.4746 13.305 31.8644 12.8601C33.9129 12.4787 35.8408 12.6906 37.588 13.9406C39.1746 15.0847 40.1586 16.6313 40.4197 18.6652C40.7611 21.5254 39.9779 23.8559 38.1102 25.8474C36.7847 27.2669 35.158 28.1567 33.2903 28.5593C32.7481 28.6652 32.2059 28.6864 31.6837 28.7499ZM36.4634 20.1906C36.4433 19.9152 36.4433 19.7033 36.4032 19.4915C36.0417 17.394 34.2141 16.2076 32.3063 16.6737C30.4386 17.1186 29.2336 18.3686 28.7918 20.3601C28.4303 22.0126 29.1934 23.6864 30.6394 24.3643C31.744 24.8728 32.8485 24.8093 33.9129 24.2372C35.4994 23.3686 36.363 22.0126 36.4634 20.1906Z" fill="black"/>
</g>
</g>
<defs>
<clipPath id="clip0_434_6455">
<rect width="40" height="40" fill="white" transform="translate(0.5)"/>
</clipPath>
<clipPath id="clip1_434_6455">
<rect width="41.25" height="16.25" fill="white" transform="translate(-0.75 12.5)"/>
</clipPath>
</defs>
</svg>
