<svg width="41" height="40" viewBox="0 0 41 40" fill="none" xmlns="http://www.w3.org/2000/svg">
<g clip-path="url(#clip0_434_6467)">
<path d="M16.1624 27.1456C16.1624 27.1456 14.8628 27.9139 17.0874 28.1739C19.7824 28.4864 21.1597 28.4416 24.1296 27.8702C24.1296 27.8702 24.9105 28.3679 26.0009 28.799C19.3432 31.6995 10.9331 28.6309 16.1624 27.1456Z" fill="black"/>
<path d="M15.3489 23.3606C15.3489 23.3606 13.8912 24.4574 16.1174 24.6915C18.9963 24.9934 21.2698 25.0181 25.2039 24.2481C25.2039 24.2481 25.748 24.8088 26.6036 25.1155C18.554 27.5082 9.58816 25.3042 15.3489 23.3606Z" fill="black"/>
<path d="M22.2073 16.9399C23.8478 18.8598 21.7763 20.5875 21.7763 20.5875C21.7763 20.5875 25.9417 18.4016 24.0287 15.6644C22.242 13.1118 20.8719 11.8435 28.2893 7.47058C28.2893 7.47058 16.6464 10.4265 22.2073 16.9399Z" fill="black"/>
<path d="M31.0127 29.9452C31.0127 29.9452 31.9745 30.7508 29.9535 31.374C26.1105 32.5574 13.9588 32.9148 10.583 31.4211C9.36956 30.8845 11.6452 30.1398 12.361 29.9835C13.1075 29.819 13.5342 29.8496 13.5342 29.8496C12.1846 28.8832 4.81143 31.7472 9.78893 32.5674C23.3633 34.8051 34.5337 31.5597 31.0127 29.9452Z" fill="black"/>
<path d="M16.7875 19.4388C16.7875 19.4388 10.6063 20.9312 14.5986 21.4731C16.2842 21.7026 19.6445 21.6506 22.7746 21.3841C25.3326 21.1647 27.9012 20.6983 27.9012 20.6983C27.9012 20.6983 26.9992 21.091 26.3467 21.544C20.0698 23.2221 7.94402 22.4414 11.4349 20.7249C14.3871 19.2742 16.7875 19.4388 16.7875 19.4388Z" fill="black"/>
<path d="M27.8757 25.7392C34.2564 22.3687 31.3062 19.1297 29.247 19.5661C28.7423 19.6729 28.5173 19.7654 28.5173 19.7654C28.5173 19.7654 28.7046 19.467 29.0625 19.3379C33.1362 17.882 36.2692 23.6318 27.7474 25.9091C27.7474 25.9091 27.8462 25.8194 27.8757 25.7392Z" fill="black"/>
<path d="M24.0287 0.409424C24.0287 0.409424 27.5625 4.0028 20.6771 9.52839C15.1558 13.9609 19.4181 16.4881 20.6748 19.3757C17.4519 16.4197 15.0867 13.8176 16.6735 11.3958C19.0025 7.84086 25.4545 6.11728 24.0287 0.409424Z" fill="black"/>
<path d="M17.4144 34.8725C23.5391 35.271 32.9443 34.6513 33.167 31.7054C33.167 31.7054 32.7389 32.8222 28.1053 33.7091C22.8777 34.7091 16.4303 34.5923 12.6062 33.9514C12.6062 33.9514 13.389 34.6101 17.4144 34.8725Z" fill="black"/>
</g>
<defs>
<clipPath id="clip0_434_6467">
<rect width="40" height="40" fill="white" transform="translate(0.5 -0.000488281)"/>
</clipPath>
</defs>
</svg>
