<svg width="41" height="40" viewBox="0 0 41 40" fill="none" xmlns="http://www.w3.org/2000/svg">
<g clip-path="url(#clip0_434_6563)">
<g clip-path="url(#clip1_434_6563)">
<path d="M21.1249 23.5063C23.0324 23.5063 24.5788 21.9365 24.5788 20C24.5788 18.0636 23.0324 16.4938 21.1249 16.4938C19.2175 16.4938 17.6711 18.0636 17.6711 20C17.6711 21.9365 19.2175 23.5063 21.1249 23.5063Z" fill="black"/>
<path d="M21.125 27.1836C31.3603 27.1836 39.6576 23.9674 39.6576 20.0001C39.6576 16.0327 31.3603 12.8165 21.125 12.8165C10.8897 12.8165 2.59241 16.0327 2.59241 20.0001C2.59241 23.9674 10.8897 27.1836 21.125 27.1836Z" stroke="black"/>
<path d="M14.997 23.5918C20.1146 32.5904 27.0069 38.2771 30.3914 36.2934C33.7758 34.3098 32.3708 25.4069 27.2531 16.4083C22.1355 7.40967 15.2432 1.72296 11.8587 3.70663C8.47431 5.69031 9.87934 14.5932 14.997 23.5918Z" stroke="black"/>
<path d="M14.997 16.4082C9.87932 25.4068 8.47429 34.3097 11.8587 36.2934C15.2432 38.2771 22.1355 32.5903 27.2531 23.5917C32.3707 14.5931 33.7758 5.69025 30.3913 3.70658C27.0069 1.7229 20.1146 7.40962 14.997 16.4082Z" stroke="black"/>
</g>
</g>
<defs>
<clipPath id="clip0_434_6563">
<rect width="40" height="40" fill="white" transform="translate(0.5)"/>
</clipPath>
<clipPath id="clip1_434_6563">
<rect width="38.75" height="35" fill="white" transform="translate(1.75 2.5)"/>
</clipPath>
</defs>
</svg>
