<svg width="41" height="40" viewBox="0 0 41 40" fill="none" xmlns="http://www.w3.org/2000/svg">
<g clip-path="url(#clip0_434_6503)">
<g clip-path="url(#clip1_434_6503)">
<path d="M20.3665 1.55471C20.0227 1.57197 19.6858 1.65692 19.3756 1.80458L5.85441 8.24272C5.50445 8.40927 5.19695 8.6516 4.95475 8.95173C4.71256 9.25186 4.54189 9.60206 4.45542 9.97633L1.11965 24.438C1.04262 24.7712 1.034 25.1163 1.0943 25.4528C1.15459 25.7894 1.28258 26.1106 1.47069 26.3974C1.5163 26.4675 1.56536 26.5353 1.61768 26.6007L10.9765 38.1966C11.2188 38.4966 11.5263 38.7389 11.8763 38.9054C12.2262 39.0718 12.6097 39.1583 12.998 39.1582L28.0064 39.1547C28.3947 39.155 28.778 39.0689 29.128 38.9027C29.4779 38.7365 29.7855 38.4946 30.028 38.1949L39.3833 26.5973C39.6257 26.2971 39.7965 25.9467 39.883 25.5723C39.9696 25.1979 39.9696 24.809 39.8831 24.4346L36.5421 9.97288C36.4557 9.59861 36.285 9.24841 36.0428 8.94828C35.8006 8.64816 35.4931 8.40582 35.1432 8.23927L21.6202 1.80458C21.2301 1.61883 20.799 1.53291 20.3665 1.55471Z" fill="black"/>
<path d="M20.5017 6.4762C20.0547 6.47624 19.6923 6.87742 19.6924 7.3723C19.6924 7.37989 19.694 7.38715 19.6941 7.3947C19.6935 7.46194 19.6902 7.54295 19.6924 7.60149C19.7031 7.88692 19.7655 8.10538 19.8031 8.36835C19.8711 8.93119 19.9282 9.39775 19.893 9.8314C19.8588 9.99493 19.7379 10.1445 19.6301 10.2484L19.6111 10.5896C19.1254 10.6297 18.6365 10.7032 18.1482 10.8137C16.0468 11.2891 14.2375 12.3678 12.86 13.8242C12.7706 13.7635 12.6143 13.6517 12.5678 13.6174C12.4233 13.6369 12.2772 13.6813 12.087 13.5709C11.7249 13.328 11.395 12.9926 10.9959 12.5886C10.813 12.3954 10.6805 12.2114 10.4632 12.0251C10.4139 11.9828 10.3386 11.9256 10.2834 11.8821C10.1135 11.7471 9.91316 11.6767 9.71965 11.6701C9.47087 11.6616 9.23136 11.7586 9.07463 11.9545C8.796 12.3027 8.88521 12.835 9.2735 13.1435C9.27744 13.1467 9.28164 13.1491 9.28561 13.1521C9.33896 13.1952 9.4043 13.2505 9.45335 13.2866C9.68393 13.4562 9.89456 13.5431 10.1243 13.6777C10.6083 13.9756 11.0096 14.2226 11.3279 14.5204C11.4522 14.6524 11.4739 14.8851 11.4904 14.9857L11.7498 15.2166C10.3612 17.2991 9.71858 19.8713 10.0984 22.4923L9.75943 22.5905C9.6701 22.7054 9.54387 22.8863 9.41184 22.9403C8.99543 23.071 8.52677 23.119 7.96098 23.1781C7.69535 23.2001 7.46615 23.187 7.18453 23.2402C7.12255 23.2519 7.03619 23.2743 6.96838 23.2901C6.96602 23.2906 6.96382 23.2913 6.96146 23.2919C6.95776 23.2927 6.95291 23.2945 6.94935 23.2953C6.47234 23.4102 6.16591 23.8471 6.26456 24.2776C6.36323 24.7082 6.82917 24.97 7.30904 24.8669C7.31251 24.8661 7.31754 24.866 7.32115 24.8652C7.32657 24.864 7.33133 24.8614 7.33671 24.86C7.40361 24.8454 7.48744 24.8291 7.54595 24.8135C7.82282 24.7396 8.02334 24.6311 8.27225 24.5361C8.80774 24.3447 9.25125 24.1848 9.68334 24.1225C9.8638 24.1084 10.0539 24.2334 10.1485 24.2862L10.5013 24.2259C11.3131 26.734 13.0144 28.7612 15.1686 30.0333L15.0216 30.3848C15.0746 30.5214 15.133 30.706 15.0936 30.8409C14.9365 31.2468 14.6674 31.6752 14.361 32.1529C14.2127 32.3736 14.0609 32.5449 13.927 32.7974C13.8949 32.8579 13.8542 32.9507 13.8232 33.0146C13.6152 33.458 13.7678 33.9688 14.1674 34.1605C14.5694 34.3534 15.0685 34.15 15.2845 33.7056C15.2848 33.705 15.2859 33.7045 15.2862 33.7039C15.2864 33.7034 15.286 33.7026 15.2862 33.7021C15.317 33.6391 15.3605 33.5563 15.3865 33.4971C15.5012 33.2353 15.5393 33.011 15.6199 32.7578C15.8341 32.2218 15.9517 31.6594 16.2465 31.3089C16.3272 31.2129 16.4588 31.176 16.5953 31.1396L16.7786 30.8088C18.6566 31.5271 20.7588 31.7199 22.8587 31.2448C23.3377 31.1364 23.8002 30.9961 24.2473 30.8277C24.2988 30.9188 24.3946 31.0938 24.4202 31.1379C24.5589 31.1829 24.7102 31.2061 24.8335 31.3878C25.0541 31.7633 25.2049 32.2075 25.3886 32.744C25.4693 32.9972 25.5091 33.2215 25.6238 33.4833C25.6499 33.543 25.6933 33.6269 25.7241 33.6901C25.9396 34.1359 26.4403 34.3401 26.8429 34.1467C27.2425 33.955 27.3952 33.4442 27.1871 33.0008C27.1561 32.9369 27.1136 32.8441 27.0816 32.7836C26.9477 32.5311 26.7959 32.3615 26.6475 32.1409C26.3411 31.6632 26.087 31.2664 25.9299 30.8605C25.8642 30.6511 25.941 30.5209 25.9921 30.3848C25.9615 30.3498 25.8959 30.1521 25.8573 30.0592C28.096 28.7418 29.7474 26.639 30.5228 24.2104C30.6276 24.2268 30.8096 24.2589 30.8687 24.2707C30.9904 24.1907 31.1023 24.0863 31.3218 24.1035C31.7539 24.1658 32.1974 24.3257 32.7329 24.5171C32.9818 24.6121 33.1823 24.7224 33.4592 24.7963C33.5177 24.8119 33.6015 24.8265 33.6684 24.8411C33.6738 24.8424 33.6785 24.845 33.684 24.8463C33.6876 24.8471 33.6926 24.8472 33.6961 24.848C34.176 24.9509 34.642 24.6892 34.7406 24.2586C34.8391 23.8281 34.5328 23.3911 34.0558 23.2764C33.9864 23.2606 33.888 23.2339 33.8206 23.2212C33.539 23.1681 33.3098 23.1812 33.0441 23.1592C32.4783 23.1001 32.0097 23.052 31.5933 22.9214C31.4235 22.8557 31.3027 22.6544 31.244 22.5715L30.9171 22.4768C31.0866 21.2551 31.0409 19.9836 30.7477 18.7114C30.4517 17.4274 29.9286 16.253 29.2311 15.2183C29.3149 15.1424 29.4732 15.0027 29.5181 14.9616C29.5313 14.8169 29.52 14.6651 29.6703 14.5049C29.9886 14.2071 30.3899 13.9601 30.8739 13.6622C31.1036 13.5275 31.316 13.4407 31.5466 13.2711C31.5987 13.2327 31.6699 13.1719 31.7247 13.128C32.1129 12.8194 32.2023 12.2872 31.9236 11.939C31.6448 11.5908 31.1047 11.558 30.7165 11.8666C30.6613 11.9102 30.5863 11.9671 30.5367 12.0096C30.3194 12.1959 30.1852 12.3799 30.0023 12.5731C29.6032 12.9771 29.2733 13.3141 28.9112 13.5571C28.7542 13.6482 28.5244 13.6167 28.42 13.6105L28.1122 13.8294C26.357 11.9952 23.9672 10.8226 21.394 10.5948C21.3868 10.4873 21.3774 10.2931 21.375 10.2346C21.2696 10.1342 21.1424 10.0484 21.1104 9.8314C21.0752 9.39775 21.134 8.93119 21.2021 8.36835C21.2396 8.10538 21.3021 7.88692 21.3127 7.60149C21.3152 7.53661 21.3113 7.44245 21.311 7.3723C21.3109 6.87742 20.9486 6.47615 20.5017 6.4762ZM19.4883 12.7317L19.248 16.9623L19.2307 16.9709C19.2146 17.3494 18.902 17.6516 18.5182 17.6516C18.361 17.6516 18.2159 17.6013 18.098 17.5155L18.0911 17.5189L14.6101 15.0598C15.6799 14.0114 17.0484 13.2367 18.6254 12.8799C18.9135 12.8147 19.2015 12.7663 19.4883 12.7317ZM21.5168 12.7317C23.358 12.9573 25.0608 13.7882 26.3657 15.0615L22.9071 17.5051L22.895 17.5C22.588 17.7234 22.1555 17.6679 21.9162 17.369C21.8182 17.2465 21.7668 17.1025 21.7606 16.9571L21.7572 16.9554L21.5168 12.7317ZM13.3477 16.64L16.5261 19.4731L16.5226 19.4903C16.8095 19.7389 16.8518 20.1701 16.6126 20.4691C16.5145 20.5916 16.3833 20.6738 16.2425 20.7121L16.239 20.7259L12.1649 21.8977C11.9575 20.0082 12.4044 18.1714 13.3477 16.64ZM27.6332 16.6418C28.1055 17.4046 28.4631 18.2565 28.676 19.1801C28.8863 20.0927 28.9391 21.0036 28.8524 21.8839L24.7574 20.7087L24.754 20.6914C24.3873 20.5916 24.1619 20.2199 24.2473 19.847C24.2823 19.6943 24.3636 19.5651 24.4738 19.4696L24.4721 19.461L27.6332 16.6418ZM19.8498 19.6919H21.1519L21.9612 20.7001L21.6707 21.958L20.5017 22.5181L19.3292 21.9563L19.0387 20.6983L19.8498 19.6919ZM24.0242 23.1419C24.0796 23.1392 24.1347 23.1441 24.1885 23.154L24.1954 23.1454L28.4097 23.8554C27.7929 25.5821 26.6127 27.078 25.0359 28.0791L23.4 24.1414L23.4051 24.1345C23.2549 23.7866 23.4053 23.3785 23.751 23.2126C23.8395 23.1701 23.932 23.1466 24.0242 23.1419ZM16.9463 23.1592C17.2679 23.1637 17.5564 23.3861 17.6311 23.7123C17.6661 23.8651 17.6491 24.0164 17.5913 24.15L17.6034 24.1656L15.9848 28.0636C14.4715 27.0959 13.2662 25.6469 12.6214 23.8692L16.7993 23.1626L16.8062 23.1712C16.853 23.1627 16.9004 23.1585 16.9463 23.1592ZM20.4758 24.8669C20.5878 24.8628 20.7015 24.8857 20.8095 24.9376C20.9511 25.0056 21.0606 25.1126 21.1294 25.2409H21.145L23.2046 28.9494C22.9373 29.0387 22.6625 29.115 22.3814 29.1786C20.8063 29.5349 19.2361 29.427 17.8144 28.9442L19.8688 25.2426H19.8722C19.9955 25.013 20.2293 24.876 20.4758 24.8669Z" fill="#95FF42" stroke="black" stroke-width="0.25"/>
</g>
</g>
<defs>
<clipPath id="clip0_434_6503">
<rect width="40" height="40" fill="white" transform="translate(0.5)"/>
</clipPath>
<clipPath id="clip1_434_6503">
<rect width="40" height="38.7097" fill="white" transform="translate(0.5 1)"/>
</clipPath>
</defs>
</svg>
