<svg width="41" height="40" viewBox="0 0 41 40" fill="none" xmlns="http://www.w3.org/2000/svg">
<path d="M20.5 12.6666H8.50002C8.50002 12.6666 5.16669 12.6666 5.16669 20C5.16669 27.3333 8.50002 27.3333 8.50002 27.3333H11.8334C11.8334 27.3333 11.8334 26.6666 11.8334 24C11.8334 21.3333 13.8334 19.3333 16.5 19.3333C19.1667 19.3333 22.4912 19.3333 24.4956 19.3333C26.5 19.3333 27.8334 18 27.8609 15.9679C27.8885 13.9359 27.8334 7.99996 27.8334 7.99996C27.8334 7.99996 27.8334 4.66663 20.5 4.66663C13.1667 4.66663 13.1667 7.99996 13.1667 7.99996V11.3333H20.5V12.6666Z" fill="black"/>
<path d="M20.5 27.3333H32.5C32.5 27.3333 35.8334 27.3333 35.8334 20C35.8334 12.6666 32.5 12.6666 32.5 12.6666H29.1667C29.1667 12.6666 29.1667 13.3333 29.1667 16C29.1667 18.6666 27.1667 20.6666 24.5 20.6666C21.8334 20.6666 18.5 20.6666 16.5 20.6666C14.5 20.6666 13.1667 22 13.1667 24C13.1667 26 13.1667 32 13.1667 32C13.1667 32 13.1667 35.3333 20.5 35.3333C27.8334 35.3333 27.8334 32 27.8334 32V28.6666H20.5V27.3333Z" fill="black"/>
<path d="M16.5 9.33329C17.2364 9.33329 17.8334 8.73634 17.8334 7.99996C17.8334 7.26358 17.2364 6.66663 16.5 6.66663C15.7636 6.66663 15.1667 7.26358 15.1667 7.99996C15.1667 8.73634 15.7636 9.33329 16.5 9.33329Z" fill="#0D0D0D"/>
<path d="M24.5 33.3333C25.2364 33.3333 25.8334 32.7363 25.8334 32C25.8334 31.2636 25.2364 30.6666 24.5 30.6666C23.7636 30.6666 23.1667 31.2636 23.1667 32C23.1667 32.7363 23.7636 33.3333 24.5 33.3333Z" fill="#0D0D0D"/>
</svg>
