<svg width="32" height="32" viewBox="0 0 32 32" fill="none" xmlns="http://www.w3.org/2000/svg">
<g clip-path="url(#clip0_2310_11798)">
<path fill-rule="evenodd" clip-rule="evenodd" d="M-72 16C-72 -6.09139 -54.0914 -24 -32 -24C-14.0964 -24 1.05991 -12.2376 6.16282 3.98102C7.55925 8.4193 11.3472 12 16 12V12C20.6528 12 24.4407 8.4193 25.8372 3.98102C30.9401 -12.2376 46.0964 -24 64 -24H95C117.091 -24 135 -6.09139 135 16C135 38.0914 117.091 56 95 56H64C46.0964 56 30.9401 44.2376 25.8372 28.019C24.4407 23.5807 20.6528 20 16 20V20C11.3472 20 7.55925 23.5807 6.16282 28.019C1.05991 44.2376 -14.0964 56 -32 56C-54.0914 56 -72 38.0914 -72 16Z" fill="#272727"/>
</g>
<defs>
<clipPath id="clip0_2310_11798">
<rect width="32" height="32" fill="white"/>
</clipPath>
</defs>
</svg>
