<svg width="40" height="40" viewBox="0 0 40 40" fill="none" xmlns="http://www.w3.org/2000/svg">
<path d="M34.082 2.5H5.91797C4.03028 2.5 2.5 4.03028 2.5 5.91797V34.082C2.5 35.9697 4.03028 37.5 5.91797 37.5H34.082C35.9697 37.5 37.5 35.9697 37.5 34.082V5.91797C37.5 4.03028 35.9697 2.5 34.082 2.5Z" fill="#F2F2F3"/>
<path d="M34.082 2.5H5.91797C4.03028 2.5 2.5 4.03028 2.5 5.91797V34.082C2.5 35.9697 4.03028 37.5 5.91797 37.5H34.082C35.9697 37.5 37.5 35.9697 37.5 34.082V5.91797C37.5 4.03028 35.9697 2.5 34.082 2.5Z" fill="black"/>
<path fill-rule="evenodd" clip-rule="evenodd" d="M24.1292 30.617V34.1234C24.7072 34.4156 25.3908 34.6347 26.18 34.7808C26.9692 34.9269 27.8009 35 28.6754 35C29.5276 35 30.3371 34.9197 31.104 34.7589C31.871 34.5982 32.5435 34.3334 33.1215 33.9645C33.6995 33.5956 34.1571 33.1135 34.4942 32.5181C34.8314 31.9227 35 31.1868 35 30.3102C35 29.6746 34.9037 29.1176 34.711 28.6392C34.5183 28.1607 34.2405 27.7352 33.8773 27.3626C33.5143 26.9901 33.0789 26.6558 32.5713 26.36C32.0637 26.0641 31.4913 25.7847 30.854 25.5218C30.3871 25.3318 29.9685 25.1474 29.5979 24.9684C29.2274 24.7894 28.9125 24.6068 28.6531 24.4205C28.3937 24.2342 28.1937 24.037 28.0529 23.8288C27.9121 23.6206 27.8417 23.385 27.8417 23.122C27.8417 22.881 27.9047 22.6637 28.0307 22.4701C28.1567 22.2765 28.3345 22.1103 28.5642 21.9715C28.794 21.8327 29.0755 21.7249 29.4089 21.6482C29.7425 21.5715 30.1129 21.5332 30.5205 21.5332C30.8169 21.5332 31.13 21.5552 31.4597 21.5989C31.7895 21.6428 32.1211 21.7104 32.4546 21.8016C32.7881 21.893 33.1122 22.0081 33.4272 22.1468C33.7421 22.2856 34.033 22.4463 34.2997 22.629V19.3527C33.7588 19.1481 33.1678 18.9966 32.5268 18.8979C31.8859 18.7993 31.1504 18.75 30.3205 18.75C29.4756 18.75 28.6754 18.8395 27.9195 19.0185C27.1637 19.1974 26.4986 19.4768 25.9243 19.8567C25.35 20.2366 24.8962 20.7205 24.5627 21.3086C24.2293 21.8966 24.0625 22.5997 24.0625 23.4179C24.0625 24.4625 24.3682 25.3537 24.9795 26.0916C25.5908 26.8293 26.519 27.4539 27.7639 27.9653C28.253 28.1625 28.7087 28.3561 29.1311 28.546C29.5535 28.736 29.9185 28.9332 30.2259 29.1377C30.5335 29.3423 30.7761 29.5651 30.954 29.8062C31.1319 30.0472 31.2208 30.3211 31.2208 30.628C31.2208 30.8544 31.1652 31.0644 31.054 31.258C30.9429 31.4516 30.7743 31.6196 30.5483 31.762C30.3223 31.9045 30.0407 32.0159 29.7036 32.0962C29.3663 32.1766 28.9718 32.2168 28.5197 32.2168C27.7491 32.2168 26.9859 32.0835 26.23 31.8168C25.4741 31.5502 24.7739 31.1503 24.1292 30.617ZM18.152 21.9777H22.7131V19.1002H10V21.9777H14.5388V34.7899H18.152V21.9777Z" fill="#95FF42"/>
</svg>
