<svg width="262" height="252" viewBox="0 0 262 252" fill="none" xmlns="http://www.w3.org/2000/svg">
<path fill-rule="evenodd" clip-rule="evenodd" d="M2.86719 171.85C2.86719 165.601 9.36028 160.914 14.0407 159.352C15.4887 158.672 17.0604 157.902 18.7225 157.053C18.8019 157.397 18.8857 157.755 18.9722 158.124C20.4188 164.29 22.6169 173.661 17.2054 179.073C13.2222 183.056 9.04484 182.946 7.41007 182.903C7.26815 182.9 7.1454 182.896 7.0436 182.896C4.31374 177.924 2.86719 173.607 2.86719 171.85ZM84.2528 52.8815C79.5353 53.9389 74.8263 55.1994 70.2106 56.69C76.4516 30.5828 101.126 2.58869 112.337 1.55554C110.257 14.4208 101.728 42.6973 84.2528 52.8815ZM227.795 117.168C225.299 89.6709 243.398 71.34 252.759 65.6117C266.057 66.5833 260.561 96.8581 246.518 164.039C241.317 159.872 230.292 144.665 227.795 117.168Z" fill="#C4B4FF"/>
<path d="M137.301 48.2479C163.825 51.5504 171.627 57.7998 185.669 65.6117C202.434 67.167 241.45 64.7853 252.759 65.6117M137.301 48.2479C130.822 38.3137 125.092 0.380125 112.337 1.55554M137.301 48.2479C123.479 47.6028 103.792 48.5014 84.2528 52.8815M14.0407 159.352C9.36028 160.914 2.86719 165.601 2.86719 171.85M14.0407 159.352C9.15319 154.865 3.6916 140.734 11.7437 115.606M14.0407 159.352C15.4887 158.672 17.0604 157.902 18.7225 157.053M2.86719 171.85C2.86719 175.991 10.9089 194.367 24.8524 202.014M2.86719 171.85C2.86719 173.607 4.31374 177.924 7.0436 182.896M246.518 164.039C260.561 96.8581 266.057 66.5833 252.759 65.6117M246.518 164.039C250.838 194.746 249.896 215.037 244.818 228.094M246.518 164.039C241.317 159.872 230.292 144.665 227.795 117.168C225.299 89.6709 243.398 71.34 252.759 65.6117M112.337 1.55554C101.126 2.58869 76.4516 30.5828 70.2106 56.69M112.337 1.55554C110.257 14.4208 101.728 42.6973 84.2528 52.8815M70.2106 56.69C57.3523 60.8424 42 70 24.8524 91.132C17.2507 100.5 13.9736 108.647 11.7437 115.606M70.2106 56.69C74.8263 55.1994 79.5353 53.9389 84.2528 52.8815M11.7437 115.606C42.2107 90.6087 62.4094 104.514 62.4094 115.606C62.4094 130.484 36.1626 148.14 18.7225 157.053M119.485 238.337C131.911 241.683 138.289 243.377 140.422 243.717C144.965 244.441 149.44 245.187 153.831 245.919L153.834 245.919C197.426 253.187 235.5 245.919 244.818 228.094M119.485 238.337C109.217 220.176 99.6979 198.025 96.7348 182.786C90.8081 152.308 96.7348 125.423 112.337 123.418C133.265 120.728 151.463 153.76 164.86 178.077C169.442 186.393 173.462 193.689 176.837 198.191C188.308 213.485 206.47 234.514 244.818 228.094M119.485 238.337C105.465 233.282 81.5294 226.904 67 215C48.5 211.5 42.5 211.692 24.8524 202.014M18.7225 157.053C18.8019 157.397 18.8857 157.755 18.9722 158.124C20.4188 164.29 22.6169 173.661 17.2054 179.073C13.2222 183.056 9.04484 182.946 7.41007 182.903C7.26815 182.9 7.1454 182.896 7.0436 182.896M24.8524 202.014C16.8227 197.61 10.7502 189.649 7.0436 182.896" stroke="#C4B4FF" stroke-width="1.91176" stroke-linecap="round" stroke-linejoin="round"/>
<path fill-rule="evenodd" clip-rule="evenodd" d="M14.0407 159.352C9.36029 160.914 2.86719 165.601 2.86719 171.851C2.86719 173.607 4.31374 177.924 7.0436 182.897C7.1454 182.897 7.26815 182.9 7.41007 182.904C9.04484 182.947 13.2222 183.057 17.2054 179.073C22.6169 173.662 20.4188 164.291 18.9722 158.124C18.8857 157.755 18.8019 157.398 18.7225 157.053C36.1626 148.141 62.4094 130.485 62.4094 115.607C62.4094 104.515 42.2108 90.6093 11.7437 115.607C3.6916 140.734 9.15319 154.866 14.0407 159.352ZM65.9552 57.6767C70.571 56.1861 79.5353 53.9395 84.2528 52.882C101.728 42.6978 110.257 14.4213 112.337 1.55606C101.416 4.29014 72.1962 31.5696 65.9552 57.6767ZM252.759 65.6122C243.398 71.3405 225.299 89.6715 227.795 117.169C230.292 144.666 241.318 159.873 246.518 164.039C260.561 96.8586 265.241 70.2992 252.759 65.6122ZM244.818 228.095C206.47 234.514 188.308 213.485 176.837 198.191C173.462 193.69 169.442 186.394 164.861 178.078L164.86 178.078C151.463 153.76 133.265 120.729 112.337 123.418C96.7348 125.423 90.8081 152.309 96.7348 182.787C99.6979 198.025 109.217 220.176 119.485 238.338C131.911 241.684 138.289 243.378 140.422 243.717C144.961 244.44 149.432 245.186 153.819 245.917L153.831 245.919L153.834 245.92C197.426 253.188 235.5 247.5 244.818 228.095ZM44.0399 130.979C43.4061 136.005 39.5583 139.66 35.4458 139.141C31.3333 138.622 28.5133 134.127 29.1472 129.101C29.7811 124.074 33.6288 120.42 37.7413 120.939C41.8538 121.457 44.6738 125.953 44.0399 130.979ZM124.3 161.867C117.796 161.839 111.775 164.844 108.248 167.648C107.422 168.305 106.219 168.168 105.562 167.341C104.905 166.515 105.042 165.312 105.869 164.655C109.873 161.472 116.714 158.011 124.316 158.044C132.077 158.077 140.341 161.755 146.917 172.328C147.475 173.224 147.2 174.403 146.304 174.961C145.407 175.518 144.228 175.244 143.67 174.347C137.734 164.803 130.645 161.894 124.3 161.867Z" fill="#C4B4FF"/>
<ellipse cx="63.3334" cy="77.5555" rx="12.8939" ry="7.29697" transform="rotate(33.3837 63.3334 77.5555)" fill="#C4B4FF"/>
<ellipse cx="142.932" cy="117.068" rx="15.6025" ry="6.28792" transform="rotate(0.996438 142.932 117.068)" fill="#C4B4FF"/>
</svg>
