<svg width="60" height="41" viewBox="0 0 60 41" fill="none" xmlns="http://www.w3.org/2000/svg">
<g clip-path="url(#clip0_2444_29351)">
<path fill-rule="evenodd" clip-rule="evenodd" d="M29 71C29 79.8366 36.1634 87 45 87H194C202.837 87 210 79.8366 210 71V35C210 26.1634 202.837 19 194 19H45C44.8925 19 44.7853 19.0011 44.6783 19.0032C41.4183 19.0675 37.9559 18.3505 35.861 15.8518V15.8518C33.6573 13.2233 33.5368 9.48194 35.0302 6.39414C37.5739 1.13479 39 -4.76607 39 -11C39 -33.0914 21.0914 -51 -1 -51C-23.0914 -51 -41 -33.0914 -41 -11C-41 11.0914 -23.0914 29 -1 29C4.74568 29 10.2084 27.7886 15.1467 25.6072C19.1142 23.8547 23.9484 24.4064 26.735 27.7301L26.9172 27.9474C28.5371 29.8795 29 32.4786 29 35V35V71Z" fill="#272727"/>
</g>
<defs>
<clipPath id="clip0_2444_29351">
<rect width="60" height="41" fill="white"/>
</clipPath>
</defs>
</svg>
