<svg width="60" height="41" viewBox="0 0 60 41" fill="none" xmlns="http://www.w3.org/2000/svg">
<g clip-path="url(#clip0_2444_29346)">
<path fill-rule="evenodd" clip-rule="evenodd" d="M31 -28C31 -36.8366 23.8366 -44 15 -44H-134C-142.837 -44 -150 -36.8366 -150 -28V8C-150 16.8366 -142.837 24 -134 24H15C15.1075 24 15.2147 23.9989 15.3217 23.9968C18.5817 23.9325 22.0441 24.6495 24.139 27.1482V27.1482C26.3427 29.7767 26.4632 33.5181 24.9698 36.6059C22.4261 41.8652 21 47.7661 21 54C21 76.0914 38.9086 94 61 94C83.0914 94 101 76.0914 101 54C101 31.9086 83.0914 14 61 14C55.2543 14 49.7916 15.2114 44.8533 17.3928C40.8858 19.1453 36.0516 18.5936 33.265 15.2699L33.0828 15.0526C31.4629 13.1205 31 10.5214 31 8V8V-28Z" fill="#272727"/>
</g>
<defs>
<clipPath id="clip0_2444_29346">
<rect width="60" height="41" fill="white"/>
</clipPath>
</defs>
</svg>
