<svg width="60" height="41" viewBox="0 0 60 41" fill="none" xmlns="http://www.w3.org/2000/svg">
<g clip-path="url(#clip0_2443_29341)">
<path fill-rule="evenodd" clip-rule="evenodd" d="M23 -31C23 -39.8366 30.1634 -47 39 -47H164C172.837 -47 180 -39.8366 180 -31V5C180 13.8366 172.837 21 164 21H39C38.8925 21 38.7853 20.9989 38.6783 20.9968C35.4183 20.9325 31.9559 21.6495 29.861 24.1482V24.1482C27.6573 26.7767 27.5368 30.5181 29.0302 33.6059C31.5739 38.8652 33 44.7661 33 51C33 73.0914 15.0914 91 -7 91C-29.0914 91 -47 73.0914 -47 51C-47 28.9086 -29.0914 11 -7 11C-1.25432 11 4.20841 12.2114 9.14671 14.3928C13.1142 16.1453 17.9484 15.5936 20.735 12.2699L20.9172 12.0526C22.5371 10.1205 23 7.52136 23 5V5V-31Z" fill="#272727"/>
</g>
<defs>
<clipPath id="clip0_2443_29341">
<rect width="60" height="41" fill="white"/>
</clipPath>
</defs>
</svg>
