<svg width="60" height="41" viewBox="0 0 60 41" fill="none" xmlns="http://www.w3.org/2000/svg">
<g clip-path="url(#clip0_2444_29356)">
<path fill-rule="evenodd" clip-rule="evenodd" d="M34 70C34 78.8366 26.8366 86 18 86H-131C-139.837 86 -147 78.8366 -147 70V34C-147 25.1634 -139.837 18 -131 18H18C18.1075 18 18.2147 18.0011 18.3217 18.0032C21.5817 18.0675 25.0441 17.3505 27.139 14.8518V14.8518C29.3427 12.2233 29.4632 8.48194 27.9698 5.39414C25.4261 0.134789 24 -5.76607 24 -12C24 -34.0914 41.9086 -52 64 -52C86.0914 -52 104 -34.0914 104 -12C104 10.0914 86.0914 28 64 28C58.2543 28 52.7916 26.7886 47.8533 24.6072C43.8858 22.8547 39.0516 23.4064 36.265 26.7301L36.0828 26.9474C34.4629 28.8795 34 31.4786 34 34V34V70Z" fill="#272727"/>
</g>
<defs>
<clipPath id="clip0_2444_29356">
<rect width="60" height="41" fill="white"/>
</clipPath>
</defs>
</svg>
