<svg width="40" height="15" viewBox="0 0 40 15" fill="none" xmlns="http://www.w3.org/2000/svg">
<path d="M10.7741 0.819328H8.07274L5.4656 4.60084L2.85846 0.819328H0.172762L4.02068 6.25525L0 11.8487H2.7014L5.44989 7.87815L8.19838 11.8487H10.8998L6.89481 6.25525L10.7741 0.819328ZM13.4603 6.61765C13.7744 5.7353 14.4812 5.32563 15.4549 5.32563C16.5229 5.32563 17.0412 5.82983 17.0412 6.85399C14.2142 6.98004 11.5599 7.2479 11.5599 9.54832C11.5599 10.9664 12.6436 11.9433 14.4026 11.9433C15.7062 11.9433 16.6014 11.2973 17.0098 10.5567V11.8487H19.1143V6.93277C19.1143 4.71114 17.905 3.46639 15.5177 3.46639C13.9001 3.46639 12.251 4.04937 11.6856 6.08193L13.4603 6.61765ZM14.9366 10.2574C14.1985 10.2574 13.7273 9.92647 13.7273 9.34349C13.7273 8.5084 14.7168 8.13025 17.0412 8.13025V8.42962C17.0412 9.57983 16.1774 10.2574 14.9366 10.2574ZM25.2736 12.0693C27.8022 12.0693 29.5141 10.2889 29.5141 7.81513C29.5141 5.34139 27.8493 3.92332 25.6819 3.92332C24.2998 3.92332 23.2476 4.5063 22.6664 5.48319C22.7293 3.93908 22.902 3.27731 23.5303 2.8834C24.1742 2.47374 25.1008 2.4895 26.1845 2.4895C27.8493 2.4895 28.8702 2.30042 28.8702 0H27.0954C27.0483 0.504202 26.8599 0.582984 25.572 0.582984C24.3627 0.582984 23.2947 0.614497 22.4152 1.22899C21.1744 2.09559 20.7661 3.75 20.7661 6.82248C20.7661 10.4149 22.635 12.0693 25.2736 12.0693ZM25.2108 10.2101C23.8444 10.2101 22.9963 9.18592 22.9963 7.84664C22.9963 6.68067 23.813 5.78256 25.2108 5.78256C26.5929 5.78256 27.3467 6.72794 27.3467 7.90966C27.3467 9.21744 26.6557 10.2101 25.2108 10.2101ZM36.0579 12.0536C38.3195 12.0536 40 10.3992 40 7.65756C40 5.01051 38.3666 3.43487 36.0893 3.43487C34.8328 3.43487 33.812 3.98634 33.278 4.80567V3.65546H31.2048V15H33.278V10.8246C33.7963 11.5336 34.7229 12.0536 36.0579 12.0536ZM35.571 10.1943C34.2831 10.1943 33.278 9.34349 33.278 7.8624V7.62605C33.278 6.14496 34.236 5.29412 35.571 5.29412C36.8432 5.29412 37.8326 6.14496 37.8326 7.73634C37.8326 9.35924 36.8589 10.1943 35.571 10.1943Z" fill="#191919"/>
</svg>
