<svg width="29" height="20" viewBox="0 0 29 20" fill="none" xmlns="http://www.w3.org/2000/svg">
<g clip-path="url(#clip0_4024_7730)">
<path fill-rule="evenodd" clip-rule="evenodd" d="M25.6616 0.597366C26.8916 0.926623 27.8583 1.89323 28.1875 3.12324C28.7825 5.35042 28.7849 10 28.7849 10C28.7849 10 28.7849 14.6496 28.1875 16.8768C27.8583 18.1068 26.8916 19.0734 25.6616 19.4026C23.4345 20 14.4998 20 14.4998 20C14.4998 20 5.56526 20 3.33807 19.4026C2.10807 19.0734 1.14147 18.1068 0.81221 16.8768C0.214844 14.6496 0.214844 10 0.214844 10C0.214844 10 0.214844 5.35042 0.81221 3.12324C1.14147 1.89323 2.10807 0.926623 3.33807 0.597366C5.56526 0 14.4998 0 14.4998 0C14.4998 0 23.4345 0 25.6616 0.597366ZM19.0625 10.0004L11.6401 14.2854V5.71533L19.0625 10.0004Z" fill="#191919"/>
</g>
<defs>
<clipPath id="clip0_4024_7730">
<rect width="28.57" height="20" fill="white" transform="translate(0.214844)"/>
</clipPath>
</defs>
</svg>
