<svg width="173" height="138" viewBox="0 0 173 138" fill="none" xmlns="http://www.w3.org/2000/svg">
<path d="M65.8701 135.12C65.8701 136.39 64.8401 137.41 63.5801 137.41H54.4301C53.1601 137.41 52.1401 136.38 52.1401 135.12V121.98C52.1401 120.12 54.2401 119.03 55.7601 120.11L59.5201 122.79C61.5201 124.21 63.1001 126.06 64.1901 128.18C65.2801 130.3 65.8701 132.66 65.8701 135.11V135.12Z" fill="#1D1D1B"/>
<path d="M122.71 116L117.08 121.63C115.06 123.65 111.99 124.15 109.42 122.91C103.62 120.12 96.8399 118.51 89.5899 118.51C82.3399 118.51 75.5699 120.12 69.7699 122.91C67.1999 124.15 64.1299 123.65 62.1099 121.63L56.4799 116C54.8299 114.35 54.6399 111.74 55.9999 109.84C62.6999 100.47 75.2299 94.17 89.5899 94.17C103.95 94.17 116.49 100.47 123.18 109.85C124.54 111.75 124.35 114.35 122.7 116.01L122.71 116Z" fill="#1D1D1B"/>
<path d="M127.09 121.98V135.12C127.09 136.39 126.06 137.41 124.8 137.41H115.64C114.37 137.41 113.35 136.38 113.35 135.12C113.35 132.67 113.94 130.3 115.03 128.19C116.12 126.07 117.71 124.22 119.71 122.8L123.47 120.12C124.99 119.04 127.09 120.12 127.09 121.99V121.98Z" fill="#1D1D1B"/>
<path d="M150.17 137.51H130.6V87.33C130.6 81.87 129.18 76.51 126.47 71.77L123.61 66.75C121.56 63.18 118.86 60.13 115.68 57.72L114.65 58.75C113.76 59.64 112.3 59.64 111.41 58.75L105.3 52.64C102.81 51.97 100.21 51.63 97.56 51.63H81.7C79.05 51.63 76.45 51.98 73.96 52.64L67.85 58.75C66.96 59.64 65.5 59.64 64.61 58.75L63.58 57.72C60.4 60.13 57.69 63.18 55.65 66.75L52.79 71.77C50.08 76.51 48.66 81.87 48.66 87.33V137.51H22.14C5.94001 137.51 -4.66998 120.55 2.41002 105.98L32.56 43.99C37.66 33.49 46.49 25.27 57.33 20.91L103.5 2.36997C114.65 -2.11003 127.33 3.21997 131.94 14.32L170.46 107.17C176.45 121.61 165.84 137.51 150.2 137.51H150.17Z" fill="#1D1D1B"/>
<path d="M65.8701 135.12C65.8701 136.39 64.8401 137.41 63.5801 137.41H54.4301C53.1601 137.41 52.1401 136.38 52.1401 135.12V121.98C52.1401 120.12 54.2401 119.03 55.7601 120.11L59.5201 122.79C61.5201 124.21 63.1001 126.06 64.1901 128.18C65.2801 130.3 65.8701 132.66 65.8701 135.11V135.12Z" fill="#1D1D1B"/>
<path d="M122.71 116L117.08 121.63C115.06 123.65 111.99 124.15 109.42 122.91C103.62 120.12 96.8399 118.51 89.5899 118.51C82.3399 118.51 75.5699 120.12 69.7699 122.91C67.1999 124.15 64.1299 123.65 62.1099 121.63L56.4799 116C54.8299 114.35 54.6399 111.74 55.9999 109.84C62.6999 100.47 75.2299 94.17 89.5899 94.17C103.95 94.17 116.49 100.47 123.18 109.85C124.54 111.75 124.35 114.35 122.7 116.01L122.71 116Z" fill="#1D1D1B"/>
<path d="M127.09 121.98V135.12C127.09 136.39 126.06 137.41 124.8 137.41H115.64C114.37 137.41 113.35 136.38 113.35 135.12C113.35 132.67 113.94 130.3 115.03 128.19C116.12 126.07 117.71 124.22 119.71 122.8L123.47 120.12C124.99 119.04 127.09 120.12 127.09 121.99V121.98Z" fill="#1D1D1B"/>
<path d="M122.71 116L117.08 121.63C115.06 123.65 111.99 124.15 109.42 122.91C103.62 120.12 96.8401 118.51 89.5901 118.51C82.3401 118.51 75.5701 120.12 69.7701 122.91C67.2001 124.15 64.1301 123.65 62.1101 121.63L56.4801 116C54.8301 114.35 54.6401 111.74 56.0001 109.84C62.7001 100.47 75.2301 94.17 89.5901 94.17C103.95 94.17 116.49 100.47 123.18 109.85C124.54 111.75 124.35 114.35 122.7 116.01L122.71 116Z" fill="#1D1D1B"/>
<path d="M65.8701 135.12C65.8701 136.39 64.8401 137.41 63.5801 137.41H54.4301C53.1601 137.41 52.1401 136.38 52.1401 135.12V121.98C52.1401 120.12 54.2401 119.03 55.7601 120.11L59.5201 122.79C61.5201 124.21 63.1001 126.06 64.1901 128.18C65.2801 130.3 65.8701 132.66 65.8701 135.11V135.12Z" fill="#1D1D1B"/>
<path d="M127.09 121.98V135.12C127.09 136.39 126.06 137.41 124.8 137.41H115.64C114.37 137.41 113.35 136.38 113.35 135.12C113.35 132.67 113.94 130.3 115.03 128.19C116.12 126.07 117.71 124.22 119.71 122.8L123.47 120.12C124.99 119.04 127.09 120.12 127.09 121.99V121.98Z" fill="#1D1D1B"/>
</svg>
