<svg width="413" height="137" viewBox="0 0 413 137" fill="none" xmlns="http://www.w3.org/2000/svg">
<path d="M215.17 72.1101L212.84 64.5001H199.22L196.61 72.1101H188.44L201.61 35.2101H210.56L223.56 72.1101H215.17ZM206 43.4901H205.94L201.22 58.1601H210.61L206 43.4901Z" fill="#1D1D1B"/>
<path d="M227.51 72.11L217.73 44.77H225.79L231.51 62.83L237.29 44.77H244.9L235.06 72.11H227.5H227.51Z" fill="#1D1D1B"/>
<path d="M262.36 54.1001H269.08V61.8801C269.08 63.3201 268.87 64.7101 268.44 66.0201C268.01 67.3401 267.35 68.5001 266.44 69.5201C265.53 70.5401 264.38 71.3501 262.99 71.9401C261.6 72.5301 259.94 72.8301 258.02 72.8301C256.1 72.8301 254.31 72.5301 252.91 71.9401C251.5 71.3501 250.34 70.5501 249.44 69.5501C248.53 68.5501 247.87 67.3801 247.47 66.0501C247.06 64.7201 246.86 63.3101 246.86 61.8301V37.3801H253.97V44.7701H269.09V49.8801H253.97V61.1101C253.97 62.8501 254.29 64.1901 254.94 65.1401C255.59 66.0801 256.65 66.5601 258.14 66.5601C259.63 66.5601 260.65 66.1001 261.34 65.1701C262.02 64.2401 262.37 62.9301 262.37 61.2201V54.1101L262.36 54.1001Z" fill="#1D1D1B"/>
<path d="M285.47 72.83C283.25 72.83 281.26 72.48 279.52 71.77C277.78 71.07 276.31 70.08 275.1 68.82C273.9 67.56 272.98 66.04 272.35 64.26C271.72 62.48 271.41 60.54 271.41 58.42C271.41 56.3 271.73 54.31 272.38 52.53C273.03 50.75 273.96 49.23 275.19 47.97C276.41 46.71 277.89 45.74 279.61 45.05C281.33 44.36 283.29 44.02 285.47 44.02C287.65 44.02 289.55 44.36 291.25 45.05C292.95 45.74 294.41 46.7 295.61 47.94C296.81 49.18 297.74 50.69 298.39 52.47C299.04 54.25 299.36 56.23 299.36 58.42C299.36 60.61 299.03 62.58 298.39 64.34C297.74 66.1 296.81 67.61 295.61 68.87C294.4 70.13 292.94 71.1 291.22 71.79C289.5 72.48 287.58 72.82 285.47 72.82V72.83ZM285.47 66.77C289.88 66.77 292.08 63.99 292.08 58.43C292.08 52.87 289.87 50.15 285.47 50.15C281.07 50.15 278.86 52.91 278.86 58.43C278.86 63.95 281.06 66.77 285.47 66.77Z" fill="#1D1D1B"/>
<path d="M323.32 72.1101V62.6101C323.32 60.8301 322.91 59.5601 322.1 58.8001C321.28 58.0401 319.77 57.6601 317.54 57.6601H309.32V72.1101H301.82V35.2101H320.55C322.25 35.2101 323.8 35.4801 325.19 36.0201C326.58 36.5601 327.77 37.3001 328.77 38.2401C329.77 39.1801 330.54 40.3201 331.08 41.6301C331.62 42.9501 331.89 44.3601 331.89 45.8801C331.89 47.8801 331.42 49.6501 330.47 51.1901C329.52 52.7301 328.16 53.8101 326.39 54.4401C328.02 54.9601 329.18 55.7601 329.86 56.8301C330.54 57.9101 330.89 59.5201 330.89 61.6601V72.1101H323.33H323.32ZM309.32 41.6001V51.4401H318.99C321.06 51.4401 322.53 50.9801 323.38 50.0501C324.23 49.1201 324.66 47.9601 324.66 46.5501C324.66 45.1401 324.24 43.9201 323.41 42.9901C322.58 42.0601 321.2 41.6001 319.27 41.6001H309.32Z" fill="#1D1D1B"/>
<path d="M340.71 60.33C340.82 62.41 341.42 64.05 342.52 65.28C343.62 66.51 345.05 67.11 346.83 67.11C348.02 67.11 349.06 66.84 349.97 66.3C350.88 65.76 351.46 65.01 351.72 64.05H359.17C358.32 66.87 356.84 69.03 354.72 70.55C352.6 72.07 350.09 72.83 347.16 72.83C338.05 72.83 333.49 67.87 333.49 57.94C333.49 55.83 333.79 53.92 334.38 52.22C334.97 50.52 335.83 49.05 336.96 47.83C338.09 46.61 339.47 45.67 341.1 45.02C342.73 44.37 344.6 44.05 346.71 44.05C350.93 44.05 354.13 45.4 356.3 48.11C358.47 50.82 359.55 54.89 359.55 60.34H340.71V60.33ZM352.11 55.7701C352.07 54.7701 351.9 53.8901 351.58 53.1301C351.26 52.3701 350.85 51.7401 350.33 51.2401C349.81 50.7401 349.22 50.3701 348.55 50.1301C347.88 49.8901 347.2 49.7701 346.49 49.7701C345.05 49.7701 343.79 50.3001 342.74 51.3501C341.68 52.4101 341.08 53.8801 340.93 55.7701H352.1H352.11Z" fill="#1D1D1B"/>
<path d="M379.56 72.11V55.55C379.56 53.44 379.21 52.0101 378.5 51.2701C377.8 50.5301 376.59 50.16 374.89 50.16C371.15 50.16 369.28 52.25 369.28 56.44V72.11H362.06V44.77H368.95V48.7701C369.8 47.2101 370.93 46.04 372.34 45.24C373.75 44.44 375.56 44.05 377.79 44.05C379.09 44.05 380.29 44.24 381.4 44.63C382.51 45.02 383.47 45.6 384.26 46.38C385.06 47.16 385.69 48.1101 386.15 49.2401C386.61 50.3701 386.84 51.68 386.84 53.16V72.11H379.56Z" fill="#1D1D1B"/>
<path d="M405.51 54.1001H412.23V61.8801C412.23 63.3201 412.02 64.7101 411.59 66.0201C411.16 67.3401 410.5 68.5001 409.59 69.5201C408.68 70.5401 407.53 71.3501 406.14 71.9401C404.75 72.5301 403.09 72.8301 401.17 72.8301C399.25 72.8301 397.46 72.5301 396.06 71.9401C394.65 71.3501 393.49 70.5501 392.59 69.5501C391.68 68.5501 391.02 67.3801 390.62 66.0501C390.21 64.7201 390.01 63.3101 390.01 61.8301V37.3801H397.12V44.7701H412.24V49.8801H397.12V61.1101C397.12 62.8501 397.44 64.1901 398.09 65.1401C398.74 66.0801 399.8 66.5601 401.29 66.5601C402.78 66.5601 403.8 66.1001 404.49 65.1701C405.17 64.2401 405.52 62.9301 405.52 61.2201V54.1101L405.51 54.1001Z" fill="#1D1D1B"/>
<path d="M212.23 119.11L201.28 102.49L197.17 106.55V119.11H189.56V82.2101H197.17V97.2201L211.29 82.2101H221.29L206.73 96.7701L221.62 119.11H212.23Z" fill="#1D1D1B"/>
<path d="M239.18 119.11C238.96 118.41 238.81 117.59 238.73 116.66C237.88 117.62 236.75 118.39 235.34 118.97C233.93 119.54 232.3 119.83 230.45 119.83C227.3 119.83 224.99 119.13 223.53 117.75C222.07 116.36 221.33 114.55 221.33 112.33C221.33 110.37 221.64 108.8 222.27 107.63C222.9 106.46 223.77 105.55 224.88 104.88C225.99 104.21 227.32 103.72 228.85 103.41C230.39 103.1 232.06 102.81 233.88 102.55C235.7 102.29 236.92 101.95 237.55 101.52C238.18 101.09 238.5 100.4 238.5 99.4401C238.5 98.5501 238.08 97.8601 237.25 97.3601C236.42 96.8601 235.3 96.6101 233.89 96.6101C232.22 96.6101 231.03 96.9801 230.31 97.7201C229.59 98.4601 229.13 99.4401 228.95 100.67H222.23C222.27 99.2601 222.5 97.9701 222.93 96.7801C223.35 95.6001 224.04 94.5801 224.99 93.7201C225.94 92.8701 227.17 92.2101 228.69 91.7501C230.21 91.2901 232.06 91.0601 234.25 91.0601C236.44 91.0601 238.22 91.3001 239.72 91.7801C241.22 92.2601 242.42 92.9601 243.33 93.8601C244.24 94.7601 244.9 95.9001 245.3 97.2501C245.71 98.6001 245.91 100.13 245.91 101.83V119.11H239.19H239.18ZM238.68 105.71C238.31 106.08 237.77 106.38 237.07 106.6C236.37 106.82 235.35 107.06 234.01 107.32C231.93 107.73 230.51 108.25 229.73 108.88C228.95 109.51 228.56 110.42 228.56 111.6C228.56 113.64 229.73 114.66 232.06 114.66C232.99 114.66 233.85 114.5 234.64 114.19C235.44 113.88 236.12 113.45 236.7 112.91C237.28 112.37 237.74 111.74 238.09 111.02C238.44 110.3 238.62 109.53 238.62 108.71L238.68 105.71Z" fill="#1D1D1B"/>
<path d="M255.41 119.11L245.63 91.7701H253.69L259.41 109.83L265.19 91.7701H272.8L262.96 119.11H255.4H255.41Z" fill="#1D1D1B"/>
<path d="M291.53 119.11L285.53 106.83L282.03 110.44V119.11H274.75V81.7601H282.03V102.16L291.03 91.7701H299.87L290.7 101.83L299.65 119.11H291.54H291.53Z" fill="#1D1D1B"/>
<path d="M316.49 119.11C316.27 118.41 316.12 117.59 316.04 116.66C315.19 117.62 314.06 118.39 312.65 118.97C311.24 119.54 309.61 119.83 307.76 119.83C304.61 119.83 302.3 119.13 300.84 117.75C299.38 116.36 298.64 114.55 298.64 112.33C298.64 110.37 298.95 108.8 299.58 107.63C300.21 106.46 301.08 105.55 302.19 104.88C303.3 104.21 304.63 103.72 306.16 103.41C307.7 103.1 309.37 102.81 311.19 102.55C313.01 102.29 314.23 101.95 314.86 101.52C315.49 101.09 315.81 100.4 315.81 99.4401C315.81 98.5501 315.39 97.8601 314.56 97.3601C313.73 96.8601 312.61 96.6101 311.2 96.6101C309.53 96.6101 308.34 96.9801 307.62 97.7201C306.9 98.4601 306.44 99.4401 306.26 100.67H299.54C299.58 99.2601 299.81 97.9701 300.24 96.7801C300.66 95.6001 301.35 94.5801 302.3 93.7201C303.25 92.8701 304.48 92.2101 306 91.7501C307.52 91.2901 309.37 91.0601 311.56 91.0601C313.75 91.0601 315.53 91.3001 317.03 91.7801C318.53 92.2601 319.73 92.9601 320.64 93.8601C321.55 94.7601 322.21 95.9001 322.61 97.2501C323.02 98.6001 323.22 100.13 323.22 101.83V119.11H316.5H316.49ZM315.99 105.71C315.62 106.08 315.08 106.38 314.38 106.6C313.68 106.82 312.66 107.06 311.32 107.32C309.24 107.73 307.82 108.25 307.04 108.88C306.26 109.51 305.87 110.42 305.87 111.6C305.87 113.64 307.04 114.66 309.37 114.66C310.3 114.66 311.16 114.5 311.95 114.19C312.75 113.88 313.43 113.45 314.01 112.91C314.59 112.37 315.05 111.74 315.4 111.02C315.75 110.3 315.93 109.53 315.93 108.71L315.99 105.71Z" fill="#1D1D1B"/>
<path d="M325.43 119.11V113.55L339.38 97.4901H326.38V91.7701H348.61V97.6001L334.66 113.22H349V119.11H325.44H325.43Z" fill="#1D1D1B"/>
<path d="M168.6 113.49C149.43 76.8801 130.25 40.2701 111.06 3.66005C108.91 -0.42995 103.1 -0.559955 100.77 3.42004C92.3001 17.92 83.85 32.41 75.38 46.91C73.33 50.43 68.4 50.83 65.79 47.71C62.35 43.59 58.92 39.49 55.48 35.36C52.9 32.26 47.99 32.64 45.92 36.12C31.11 60.86 16.3 85.59 1.49003 110.33C-0.839969 114.21 1.91003 119.15 6.43003 119.23L33.13 119.73C32.9 118.81 32.7801 117.85 32.7801 116.86V100.69C32.7801 93.97 35.53 87.52 40.37 82.86L55.73 68.1001C58.39 65.5301 61.9601 64.1001 65.6501 64.1001H99.6501C103.35 64.1001 106.91 65.5301 109.58 68.1001L124.93 82.86C129.79 87.52 132.53 93.97 132.53 100.69V116.86C132.53 118.52 132.2 120.11 131.58 121.54L163.27 122.12C167.73 122.2 170.66 117.46 168.58 113.5L168.6 113.49ZM58.9601 54.28C56.0501 53.5 53.15 52.71 50.24 51.93C49.77 51.8 49.25 51.9601 48.94 52.3501C45.2 56.8501 41.47 61.34 37.73 65.83C36.73 67.04 34.83 65.6801 35.69 64.3501C40.26 57.0301 44.85 49.7 49.44 42.38C49.88 41.66 50.9001 41.58 51.4601 42.22C54.3901 45.55 57.32 48.89 60.25 52.23C61.08 53.16 60.18 54.61 58.97 54.28H58.9601ZM137.93 76.47L113.4 43.61C112.45 42.35 110.47 43.38 110.98 44.88C111 44.95 111.03 45.02 111.05 45.09C111.57 46.67 109.37 47.66 108.54 46.22C106.35 42.48 104.16 38.73 101.95 35C101.58 34.33 100.73 34.12 100.07 34.49C97.27 36.12 94.46 37.73 91.66 39.36C90.45 40.06 89.08 38.73 89.76 37.5C94.72 28.3 99.69 19.09 104.66 9.87005C105.19 8.89005 106.61 8.91005 107.11 9.90005C118.17 31.61 129.22 53.31 140.28 75.01C141.05 76.52 138.94 77.8201 137.94 76.4601L137.93 76.47Z" fill="black"/>
<path d="M124.95 82.8401L109.6 68.0801C106.92 65.5101 103.37 64.0801 99.67 64.0801H65.67C61.98 64.0801 58.4101 65.5101 55.7501 68.0801L40.3901 82.8401C35.5501 87.5001 32.8 93.9501 32.8 100.67V116.84C32.8 117.83 32.9201 118.79 33.1501 119.71C33.7701 122.28 35.2301 124.54 37.2001 126.17V129.76C37.2001 133.61 40.33 136.73 44.17 136.73H53.8701C57.7101 136.73 60.8401 133.62 60.8401 129.76V128.95H104.5V129.76C104.5 133.61 107.63 136.73 111.47 136.73H121.17C125.02 136.73 128.14 133.62 128.14 129.76V126.21C129.66 124.96 130.86 123.36 131.64 121.53C132.25 120.1 132.59 118.51 132.59 116.85V100.68C132.59 93.9601 129.84 87.5101 124.99 82.8501L124.95 82.8401ZM44.98 84.7801L60.22 69.5701C61.27 68.5101 62.7001 67.9201 64.1901 67.9201H101.41C102.9 67.9201 104.33 68.5101 105.38 69.5701L120.62 84.7801C121.28 85.4401 120.82 86.5701 119.88 86.5701H45.72C44.79 86.5701 44.32 85.4401 44.98 84.7801ZM96.2601 102.76L93.3301 107.89C92.1801 109.91 90.0301 111.17 87.7001 111.17H76.4301C74.1001 111.17 71.95 109.91 70.8 107.89L67.8801 102.76H96.2601ZM45.0801 125.46C44.3001 125.46 43.53 125.36 42.8 125.14C41.34 124.75 40.0101 123.95 38.9501 122.82C38.3801 122.23 38.1401 121.52 38.1401 120.82C38.1401 120.47 38.2001 120.13 38.3201 119.8C38.7101 118.72 39.7201 117.86 41.0701 117.86H49.2001C51.3301 117.86 53.3901 118.67 54.9301 120.1C55.0801 120.23 55.22 120.37 55.35 120.5L59.73 125.13L60.04 125.45H45.0801V125.46ZM54.4601 111.14C49.3501 111.14 44.66 108.34 42.22 103.84L38.1801 96.3401H48.4901C53.6001 96.3401 58.29 99.1501 60.72 103.64L64.7601 111.14H54.4601ZM99.61 124.44C98.25 125.05 96.75 125.39 95.22 125.39H70.1201C67.0501 125.39 64.13 124.06 62.1 121.77H103.23C102.22 122.91 100.98 123.82 99.61 124.45V124.44ZM100.1 111.14L104.14 103.64C106.56 99.1501 111.26 96.3401 116.37 96.3401H126.67L122.63 103.84C120.21 108.34 115.51 111.14 110.4 111.14H100.1ZM127.13 121.43C127.03 121.91 126.8 122.4 126.39 122.81C125.33 123.94 123.99 124.74 122.53 125.13C121.79 125.35 121.03 125.45 120.25 125.45H105.29L105.6 125.13L109.42 121.1L109.99 120.5C111.59 118.82 113.82 117.86 116.14 117.86H124.27C126.03 117.86 127.21 119.3 127.21 120.81C127.21 121.02 127.19 121.21 127.14 121.42L127.13 121.43Z" fill="black"/>
</svg>
