<svg width="415" height="138" viewBox="0 0 415 138" fill="none" xmlns="http://www.w3.org/2000/svg">
<path d="M65.8701 135.12C65.8701 136.39 64.8401 137.41 63.5801 137.41H54.4301C53.1601 137.41 52.1401 136.38 52.1401 135.12V121.98C52.1401 120.12 54.2401 119.03 55.7601 120.11L59.5201 122.79C61.5201 124.21 63.1001 126.06 64.1901 128.18C65.2801 130.3 65.8701 132.66 65.8701 135.11V135.12Z" fill="#1D1D1B"/>
<path d="M122.71 116L117.08 121.63C115.06 123.65 111.99 124.15 109.42 122.91C103.62 120.12 96.8399 118.51 89.5899 118.51C82.3399 118.51 75.5699 120.12 69.7699 122.91C67.1999 124.15 64.1299 123.65 62.1099 121.63L56.4799 116C54.8299 114.35 54.6399 111.74 55.9999 109.84C62.6999 100.47 75.2299 94.17 89.5899 94.17C103.95 94.17 116.49 100.47 123.18 109.85C124.54 111.75 124.35 114.35 122.7 116.01L122.71 116Z" fill="#1D1D1B"/>
<path d="M127.09 121.98V135.12C127.09 136.39 126.06 137.41 124.8 137.41H115.64C114.37 137.41 113.35 136.38 113.35 135.12C113.35 132.67 113.94 130.3 115.03 128.19C116.12 126.07 117.71 124.22 119.71 122.8L123.47 120.12C124.99 119.04 127.09 120.12 127.09 121.99V121.98Z" fill="#1D1D1B"/>
<path d="M150.17 137.51H130.6V87.33C130.6 81.87 129.18 76.51 126.47 71.77L123.61 66.75C121.56 63.18 118.86 60.13 115.68 57.72L114.65 58.75C113.76 59.64 112.3 59.64 111.41 58.75L105.3 52.64C102.81 51.97 100.21 51.63 97.56 51.63H81.7C79.05 51.63 76.45 51.98 73.96 52.64L67.85 58.75C66.96 59.64 65.5 59.64 64.61 58.75L63.58 57.72C60.4 60.13 57.69 63.18 55.65 66.75L52.79 71.77C50.08 76.51 48.66 81.87 48.66 87.33V137.51H22.14C5.94001 137.51 -4.66998 120.55 2.41002 105.98L32.56 43.99C37.66 33.49 46.49 25.27 57.33 20.91L103.5 2.36997C114.65 -2.11003 127.33 3.21997 131.94 14.32L170.46 107.17C176.45 121.61 165.84 137.51 150.2 137.51H150.17Z" fill="#1D1D1B"/>
<path d="M65.8701 135.12C65.8701 136.39 64.8401 137.41 63.5801 137.41H54.4301C53.1601 137.41 52.1401 136.38 52.1401 135.12V121.98C52.1401 120.12 54.2401 119.03 55.7601 120.11L59.5201 122.79C61.5201 124.21 63.1001 126.06 64.1901 128.18C65.2801 130.3 65.8701 132.66 65.8701 135.11V135.12Z" fill="#1D1D1B"/>
<path d="M122.71 116L117.08 121.63C115.06 123.65 111.99 124.15 109.42 122.91C103.62 120.12 96.8399 118.51 89.5899 118.51C82.3399 118.51 75.5699 120.12 69.7699 122.91C67.1999 124.15 64.1299 123.65 62.1099 121.63L56.4799 116C54.8299 114.35 54.6399 111.74 55.9999 109.84C62.6999 100.47 75.2299 94.17 89.5899 94.17C103.95 94.17 116.49 100.47 123.18 109.85C124.54 111.75 124.35 114.35 122.7 116.01L122.71 116Z" fill="#1D1D1B"/>
<path d="M127.09 121.98V135.12C127.09 136.39 126.06 137.41 124.8 137.41H115.64C114.37 137.41 113.35 136.38 113.35 135.12C113.35 132.67 113.94 130.3 115.03 128.19C116.12 126.07 117.71 124.22 119.71 122.8L123.47 120.12C124.99 119.04 127.09 120.12 127.09 121.99V121.98Z" fill="#1D1D1B"/>
<path d="M122.71 116L117.08 121.63C115.06 123.65 111.99 124.15 109.42 122.91C103.62 120.12 96.8401 118.51 89.5901 118.51C82.3401 118.51 75.5701 120.12 69.7701 122.91C67.2001 124.15 64.1301 123.65 62.1101 121.63L56.4801 116C54.8301 114.35 54.6401 111.74 56.0001 109.84C62.7001 100.47 75.2301 94.17 89.5901 94.17C103.95 94.17 116.49 100.47 123.18 109.85C124.54 111.75 124.35 114.35 122.7 116.01L122.71 116Z" fill="#1D1D1B"/>
<path d="M65.8701 135.12C65.8701 136.39 64.8401 137.41 63.5801 137.41H54.4301C53.1601 137.41 52.1401 136.38 52.1401 135.12V121.98C52.1401 120.12 54.2401 119.03 55.7601 120.11L59.5201 122.79C61.5201 124.21 63.1001 126.06 64.1901 128.18C65.2801 130.3 65.8701 132.66 65.8701 135.11V135.12Z" fill="#1D1D1B"/>
<path d="M127.09 121.98V135.12C127.09 136.39 126.06 137.41 124.8 137.41H115.64C114.37 137.41 113.35 136.38 113.35 135.12C113.35 132.67 113.94 130.3 115.03 128.19C116.12 126.07 117.71 124.22 119.71 122.8L123.47 120.12C124.99 119.04 127.09 120.12 127.09 121.99V121.98Z" fill="#1D1D1B"/>
<path d="M217.77 62.29L215.44 54.68H201.82L199.21 62.29H191.04L204.21 25.39H213.16L226.16 62.29H217.77ZM208.6 33.67H208.54L203.82 48.34H213.21L208.6 33.67Z" fill="#1D1D1B"/>
<path d="M230.11 62.2899L220.33 34.95H228.39L234.11 53.0099L239.89 34.95H247.5L237.66 62.2899H230.1H230.11Z" fill="#1D1D1B"/>
<path d="M264.95 44.2801H271.67V52.0601C271.67 53.5001 271.46 54.8901 271.03 56.2001C270.6 57.5201 269.94 58.6801 269.03 59.7001C268.12 60.7201 266.97 61.5301 265.58 62.1201C264.19 62.7101 262.53 63.0101 260.61 63.0101C258.69 63.0101 256.9 62.7101 255.5 62.1201C254.09 61.5301 252.93 60.7301 252.03 59.7301C251.12 58.7301 250.46 57.5601 250.06 56.2301C249.65 54.9001 249.45 53.4901 249.45 52.0101V27.5601H256.56V34.9501H271.68V40.0601H256.56V51.2901C256.56 53.0301 256.88 54.3701 257.53 55.3201C258.18 56.2601 259.24 56.7401 260.73 56.7401C262.22 56.7401 263.24 56.2801 263.93 55.3501C264.61 54.4201 264.96 53.1101 264.96 51.4001V44.2901L264.95 44.2801Z" fill="#1D1D1B"/>
<path d="M288.07 63.0099C285.85 63.0099 283.86 62.66 282.12 61.95C280.38 61.25 278.91 60.26 277.7 59C276.5 57.74 275.58 56.22 274.95 54.44C274.32 52.66 274.01 50.72 274.01 48.6C274.01 46.48 274.33 44.49 274.98 42.71C275.63 40.93 276.56 39.41 277.79 38.15C279.01 36.89 280.49 35.92 282.21 35.23C283.93 34.54 285.89 34.2 288.07 34.2C290.25 34.2 292.15 34.54 293.85 35.23C295.55 35.92 297.01 36.88 298.21 38.12C299.41 39.36 300.34 40.87 300.99 42.65C301.64 44.43 301.96 46.41 301.96 48.6C301.96 50.79 301.63 52.76 300.99 54.52C300.34 56.28 299.41 57.79 298.21 59.05C297 60.31 295.54 61.28 293.82 61.97C292.1 62.66 290.18 63 288.07 63V63.0099ZM288.07 56.95C292.48 56.95 294.68 54.17 294.68 48.61C294.68 43.05 292.47 40.33 288.07 40.33C283.67 40.33 281.46 43.09 281.46 48.61C281.46 54.13 283.66 56.95 288.07 56.95Z" fill="#1D1D1B"/>
<path d="M325.92 62.29V52.79C325.92 51.01 325.51 49.74 324.7 48.98C323.88 48.22 322.37 47.84 320.14 47.84H311.92V62.29H304.42V25.39H323.15C324.85 25.39 326.4 25.66 327.79 26.2C329.18 26.74 330.37 27.48 331.37 28.42C332.37 29.36 333.14 30.5 333.68 31.81C334.22 33.13 334.49 34.54 334.49 36.06C334.49 38.06 334.02 39.83 333.07 41.37C332.12 42.91 330.76 43.99 328.99 44.62C330.62 45.14 331.78 45.94 332.46 47.01C333.14 48.09 333.49 49.7 333.49 51.84V62.29H325.93H325.92ZM311.91 31.78V41.62H321.58C323.65 41.62 325.12 41.16 325.97 40.23C326.82 39.3 327.25 38.14 327.25 36.73C327.25 35.32 326.83 34.1 326 33.17C325.17 32.24 323.79 31.78 321.86 31.78H311.91Z" fill="#1D1D1B"/>
<path d="M343.31 50.51C343.42 52.59 344.02 54.23 345.12 55.46C346.22 56.69 347.65 57.29 349.43 57.29C350.62 57.29 351.66 57.02 352.57 56.48C353.48 55.94 354.06 55.19 354.32 54.23H361.77C360.92 57.05 359.44 59.21 357.32 60.73C355.2 62.25 352.69 63.01 349.76 63.01C340.65 63.01 336.09 58.05 336.09 48.12C336.09 46.01 336.39 44.1 336.98 42.4C337.57 40.7 338.43 39.23 339.56 38.01C340.69 36.79 342.07 35.85 343.7 35.2C345.33 34.55 347.2 34.23 349.31 34.23C353.53 34.23 356.73 35.58 358.9 38.29C361.07 41 362.15 45.07 362.15 50.52H343.31V50.51ZM354.7 45.95C354.66 44.95 354.49 44.07 354.17 43.31C353.85 42.55 353.44 41.92 352.92 41.42C352.4 40.92 351.81 40.55 351.14 40.31C350.47 40.07 349.79 39.95 349.08 39.95C347.64 39.95 346.38 40.48 345.33 41.53C344.27 42.59 343.67 44.06 343.52 45.95H354.69H354.7Z" fill="#1D1D1B"/>
<path d="M382.16 62.29V45.73C382.16 43.62 381.81 42.19 381.1 41.45C380.4 40.71 379.19 40.34 377.49 40.34C373.75 40.34 371.88 42.43 371.88 46.62V62.29H364.66V34.95H371.55V38.95C372.4 37.39 373.53 36.22 374.94 35.42C376.35 34.62 378.16 34.23 380.39 34.23C381.69 34.23 382.89 34.42 384 34.81C385.11 35.2 386.07 35.78 386.86 36.56C387.66 37.34 388.29 38.29 388.75 39.42C389.21 40.55 389.44 41.86 389.44 43.34V62.29H382.16Z" fill="#1D1D1B"/>
<path d="M408.11 44.2801H414.83V52.0601C414.83 53.5001 414.62 54.8901 414.19 56.2001C413.76 57.5201 413.1 58.6801 412.19 59.7001C411.28 60.7201 410.13 61.5301 408.74 62.1201C407.35 62.7101 405.69 63.0101 403.77 63.0101C401.85 63.0101 400.06 62.7101 398.66 62.1201C397.25 61.5301 396.09 60.7301 395.19 59.7301C394.28 58.7301 393.62 57.5601 393.22 56.2301C392.81 54.9001 392.61 53.4901 392.61 52.0101V27.5601H399.72V34.9501H414.84V40.0601H399.72V51.2901C399.72 53.0301 400.04 54.3701 400.69 55.3201C401.34 56.2601 402.4 56.7401 403.89 56.7401C405.38 56.7401 406.4 56.2801 407.09 55.3501C407.77 54.4201 408.12 53.1101 408.12 51.4001V44.2901L408.11 44.2801Z" fill="#1D1D1B"/>
<path d="M214.82 109.29L203.87 92.67L199.76 96.73V109.29H192.15V72.39H199.76V87.4L213.88 72.39H223.88L209.32 86.95L224.21 109.29H214.82Z" fill="#1D1D1B"/>
<path d="M241.78 109.29C241.56 108.59 241.41 107.77 241.33 106.84C240.48 107.8 239.35 108.57 237.94 109.15C236.53 109.72 234.9 110.01 233.05 110.01C229.9 110.01 227.59 109.31 226.13 107.93C224.67 106.54 223.93 104.73 223.93 102.51C223.93 100.55 224.24 98.98 224.87 97.81C225.5 96.64 226.37 95.73 227.48 95.06C228.59 94.39 229.92 93.9 231.45 93.59C232.99 93.28 234.66 92.99 236.48 92.73C238.3 92.47 239.52 92.13 240.15 91.7C240.78 91.27 241.1 90.58 241.1 89.62C241.1 88.73 240.68 88.04 239.85 87.54C239.02 87.04 237.9 86.79 236.49 86.79C234.82 86.79 233.63 87.16 232.91 87.9C232.19 88.64 231.73 89.62 231.55 90.85H224.83C224.87 89.44 225.1 88.15 225.53 86.96C225.95 85.78 226.64 84.76 227.59 83.9C228.54 83.05 229.77 82.39 231.29 81.93C232.81 81.47 234.66 81.24 236.85 81.24C239.04 81.24 240.82 81.48 242.32 81.96C243.82 82.44 245.02 83.14 245.93 84.04C246.84 84.94 247.5 86.08 247.9 87.43C248.31 88.78 248.51 90.31 248.51 92.01V109.29H241.79H241.78ZM241.28 95.9C240.91 96.27 240.37 96.57 239.67 96.79C238.97 97.01 237.95 97.25 236.61 97.51C234.53 97.92 233.11 98.44 232.33 99.07C231.55 99.7 231.16 100.61 231.16 101.79C231.16 103.83 232.33 104.85 234.66 104.85C235.59 104.85 236.45 104.69 237.24 104.38C238.04 104.07 238.72 103.64 239.3 103.1C239.88 102.56 240.34 101.93 240.69 101.21C241.04 100.49 241.22 99.72 241.22 98.9L241.28 95.9Z" fill="#1D1D1B"/>
<path d="M258.01 109.29L248.23 81.95H256.29L262.01 100.01L267.79 81.95H275.4L265.56 109.29H258H258.01Z" fill="#1D1D1B"/>
<path d="M294.13 109.29L288.13 97.0101L284.63 100.62V109.29H277.35V71.9401H284.63V92.3401L293.63 81.9501H302.47L293.3 92.0101L302.25 109.29H294.14H294.13Z" fill="#1D1D1B"/>
<path d="M319.08 109.29C318.86 108.59 318.71 107.77 318.63 106.84C317.78 107.8 316.65 108.57 315.24 109.15C313.83 109.72 312.2 110.01 310.35 110.01C307.2 110.01 304.89 109.31 303.43 107.93C301.97 106.54 301.23 104.73 301.23 102.51C301.23 100.55 301.54 98.98 302.17 97.81C302.8 96.64 303.67 95.73 304.78 95.06C305.89 94.39 307.22 93.9 308.75 93.59C310.29 93.28 311.96 92.99 313.78 92.73C315.6 92.47 316.82 92.13 317.45 91.7C318.08 91.27 318.4 90.58 318.4 89.62C318.4 88.73 317.98 88.04 317.15 87.54C316.32 87.04 315.2 86.79 313.79 86.79C312.12 86.79 310.93 87.16 310.21 87.9C309.49 88.64 309.03 89.62 308.85 90.85H302.13C302.17 89.44 302.4 88.15 302.83 86.96C303.25 85.78 303.94 84.76 304.89 83.9C305.84 83.05 307.07 82.39 308.59 81.93C310.11 81.47 311.96 81.24 314.15 81.24C316.34 81.24 318.12 81.48 319.62 81.96C321.12 82.44 322.32 83.14 323.23 84.04C324.14 84.94 324.8 86.08 325.2 87.43C325.61 88.78 325.81 90.31 325.81 92.01V109.29H319.09H319.08ZM318.58 95.9C318.21 96.27 317.67 96.57 316.97 96.79C316.27 97.01 315.25 97.25 313.91 97.51C311.83 97.92 310.41 98.44 309.63 99.07C308.85 99.7 308.46 100.61 308.46 101.79C308.46 103.83 309.63 104.85 311.96 104.85C312.89 104.85 313.75 104.69 314.54 104.38C315.34 104.07 316.02 103.64 316.6 103.1C317.18 102.56 317.64 101.93 317.99 101.21C318.34 100.49 318.52 99.72 318.52 98.9L318.58 95.9Z" fill="#1D1D1B"/>
<path d="M328.03 109.29V103.73L341.98 87.67H328.98V81.95H351.21V87.78L337.26 103.4H351.6V109.29H328.04H328.03Z" fill="#1D1D1B"/>
</svg>
