<svg width="170" height="137" viewBox="0 0 170 137" fill="none" xmlns="http://www.w3.org/2000/svg">
<path d="M168.6 113.49C149.43 76.8801 130.25 40.2701 111.06 3.66005C108.91 -0.42995 103.1 -0.559955 100.77 3.42004C92.3001 17.92 83.85 32.41 75.38 46.91C73.33 50.43 68.4 50.83 65.79 47.71C62.35 43.59 58.92 39.49 55.48 35.36C52.9 32.26 47.99 32.64 45.92 36.12C31.11 60.86 16.3 85.59 1.49003 110.33C-0.839969 114.21 1.91003 119.15 6.43003 119.23L33.13 119.73C32.9 118.81 32.7801 117.85 32.7801 116.86V100.69C32.7801 93.97 35.53 87.52 40.37 82.86L55.73 68.1001C58.39 65.5301 61.9601 64.1001 65.6501 64.1001H99.6501C103.35 64.1001 106.91 65.5301 109.58 68.1001L124.93 82.86C129.79 87.52 132.53 93.97 132.53 100.69V116.86C132.53 118.52 132.2 120.11 131.58 121.54L163.27 122.12C167.73 122.2 170.66 117.46 168.58 113.5L168.6 113.49ZM58.9601 54.28C56.0501 53.5 53.15 52.71 50.24 51.93C49.77 51.8 49.25 51.9601 48.94 52.3501C45.2 56.8501 41.47 61.34 37.73 65.83C36.73 67.04 34.83 65.6801 35.69 64.3501C40.26 57.0301 44.85 49.7 49.44 42.38C49.88 41.66 50.9001 41.58 51.4601 42.22C54.3901 45.55 57.32 48.89 60.25 52.23C61.08 53.16 60.18 54.61 58.97 54.28H58.9601ZM137.93 76.47L113.4 43.61C112.45 42.35 110.47 43.38 110.98 44.88C111 44.95 111.03 45.02 111.05 45.09C111.57 46.67 109.37 47.66 108.54 46.22C106.35 42.48 104.16 38.73 101.95 35C101.58 34.33 100.73 34.12 100.07 34.49C97.27 36.12 94.46 37.73 91.66 39.36C90.45 40.06 89.08 38.73 89.76 37.5C94.72 28.3 99.69 19.09 104.66 9.87005C105.19 8.89005 106.61 8.91005 107.11 9.90005C118.17 31.61 129.22 53.31 140.28 75.01C141.05 76.52 138.94 77.8201 137.94 76.4601L137.93 76.47Z" fill="black"/>
<path d="M124.95 82.8401L109.6 68.0801C106.92 65.5101 103.37 64.0801 99.67 64.0801H65.67C61.98 64.0801 58.4101 65.5101 55.7501 68.0801L40.3901 82.8401C35.5501 87.5001 32.8 93.9501 32.8 100.67V116.84C32.8 117.83 32.9201 118.79 33.1501 119.71C33.7701 122.28 35.2301 124.54 37.2001 126.17V129.76C37.2001 133.61 40.33 136.73 44.17 136.73H53.8701C57.7101 136.73 60.8401 133.62 60.8401 129.76V128.95H104.5V129.76C104.5 133.61 107.63 136.73 111.47 136.73H121.17C125.02 136.73 128.14 133.62 128.14 129.76V126.21C129.66 124.96 130.86 123.36 131.64 121.53C132.25 120.1 132.59 118.51 132.59 116.85V100.68C132.59 93.9601 129.84 87.5101 124.99 82.8501L124.95 82.8401ZM44.98 84.7801L60.22 69.5701C61.27 68.5101 62.7001 67.9201 64.1901 67.9201H101.41C102.9 67.9201 104.33 68.5101 105.38 69.5701L120.62 84.7801C121.28 85.4401 120.82 86.5701 119.88 86.5701H45.72C44.79 86.5701 44.32 85.4401 44.98 84.7801ZM96.2601 102.76L93.3301 107.89C92.1801 109.91 90.0301 111.17 87.7001 111.17H76.4301C74.1001 111.17 71.95 109.91 70.8 107.89L67.8801 102.76H96.2601ZM45.0801 125.46C44.3001 125.46 43.53 125.36 42.8 125.14C41.34 124.75 40.0101 123.95 38.9501 122.82C38.3801 122.23 38.1401 121.52 38.1401 120.82C38.1401 120.47 38.2001 120.13 38.3201 119.8C38.7101 118.72 39.7201 117.86 41.0701 117.86H49.2001C51.3301 117.86 53.3901 118.67 54.9301 120.1C55.0801 120.23 55.22 120.37 55.35 120.5L59.73 125.13L60.04 125.45H45.0801V125.46ZM54.4601 111.14C49.3501 111.14 44.66 108.34 42.22 103.84L38.1801 96.3401H48.4901C53.6001 96.3401 58.29 99.1501 60.72 103.64L64.7601 111.14H54.4601ZM99.61 124.44C98.25 125.05 96.75 125.39 95.22 125.39H70.1201C67.0501 125.39 64.13 124.06 62.1 121.77H103.23C102.22 122.91 100.98 123.82 99.61 124.45V124.44ZM100.1 111.14L104.14 103.64C106.56 99.1501 111.26 96.3401 116.37 96.3401H126.67L122.63 103.84C120.21 108.34 115.51 111.14 110.4 111.14H100.1ZM127.13 121.43C127.03 121.91 126.8 122.4 126.39 122.81C125.33 123.94 123.99 124.74 122.53 125.13C121.79 125.35 121.03 125.45 120.25 125.45H105.29L105.6 125.13L109.42 121.1L109.99 120.5C111.59 118.82 113.82 117.86 116.14 117.86H124.27C126.03 117.86 127.21 119.3 127.21 120.81C127.21 121.02 127.19 121.21 127.14 121.42L127.13 121.43Z" fill="black"/>
</svg>
