<?xml version="1.0" encoding="utf-8"?><!-- Uploaded to: SVG Repo, www.svgrepo.com, Generator: SVG Repo Mixer Tools -->
<svg fill="#000000" width="800px" height="800px" viewBox="0 0 24 24" id="wheelbarrow-2" data-name="Flat Line" xmlns="http://www.w3.org/2000/svg" class="icon flat-line"><path id="secondary" d="M4,7l1.89,4.72a1,1,0,0,0,.35.45l3.39,2.37L16,11l1.33-4Z" style="fill: rgb(44, 169, 188); stroke-width: 2;"></path><path id="primary" d="M21,5H18.72a1,1,0,0,0-.95.68L16,11,6.79,16.11" style="fill: none; stroke: rgb(0, 0, 0); stroke-linecap: round; stroke-linejoin: round; stroke-width: 2;"></path><path id="primary-2" data-name="primary" d="M16,11l1.66,6.63A1.1,1.1,0,0,1,16.59,19h0a1.1,1.1,0,0,1-.92-.49l-3.56-5.35ZM4,7l1.89,4.72a1,1,0,0,0,.35.45l3.39,2.37L16,11l1.33-4ZM3,17a2,2,0,1,0,2-2A2,2,0,0,0,3,17Z" style="fill: none; stroke: rgb(0, 0, 0); stroke-linecap: round; stroke-linejoin: round; stroke-width: 2;"></path></svg>