<svg width="170" height="159" viewBox="0 0 170 159" fill="none" xmlns="http://www.w3.org/2000/svg">
<path d="M52.6968 58.0124C53.7122 51.6305 54.6115 38.6057 50.0859 37.5614C44.4289 36.256 29.6338 62.2115 20.0604 65.9862C36.0518 67.4586 48.3011 61.4756 52.6968 58.0124Z" fill="#191919"/>
<path d="M60.5296 31.4696C57.7446 33.9063 66.3316 40.0271 70.9732 42.7829C71.286 37.6742 71.1491 33.5398 70.5446 30.1642C68.3667 29.584 63.3145 29.0329 60.5296 31.4696Z" fill="#191919"/>
<path d="M153.03 132.419C126.233 118.927 117.985 111.559 111.878 89.4274C106.945 93.8797 103.569 99.0616 101.335 104.136C105.999 125.676 107.382 138.527 131.459 147.87C137.78 145.527 147.56 138.511 153.03 132.419Z" fill="#191919"/>
<path d="M127.978 80.2039C126.616 80.6579 125.312 81.1551 124.062 81.6911C123.008 82.1431 121.993 82.6228 121.016 83.1275C131.045 98.5127 141.702 105.19 168.447 105.006C170.732 95.6431 168.835 86.379 167.142 81.6911C166.038 78.6343 164.93 75.8326 163.829 73.2419C149.285 78.6315 141.119 77.2658 126.577 71.0662C127.011 74.0131 127.503 77.0516 127.978 80.2039Z" fill="#191919"/>
<path d="M144.107 22.7054C144.084 21.8621 143.098 21.3999 142.459 21.9499C131.237 31.5986 126.8 40.6553 125.596 50.1801C136.34 55.0061 142.341 55.8222 153.03 51.9206C148.048 42.8851 144.46 35.5407 144.107 22.7054Z" fill="#191919"/>
<path d="M100.128 42.7829C97.909 41.6732 95.375 44.9657 95.1998 54.5314C98.6124 55.1651 100.423 55.2645 102.802 53.226C101.684 47.9838 101.563 43.5004 100.128 42.7829Z" fill="#191919"/>
<path d="M66.2925 59.7529C63.3635 61.8015 60.4915 64.4069 60.9647 65.9862C61.356 67.292 64.6503 66.3395 69.0281 64.9744C70.6051 61.8415 67.8614 60.188 66.2925 59.7529Z" fill="#191919"/>
<path d="M74.9514 50.1801C76.4974 47.9409 77.1525 45.5182 73.5842 43.7448C71.6985 43.5692 69.346 46.4478 69.6678 48.4396C70.0007 50.5 72.5007 51 74.9514 50.1801Z" fill="#191919"/>
<path d="M45.7356 76.1886C46.7689 75.3129 47.6528 74.6067 48.3453 74.1121C54.4374 69.7608 55.7429 65.4096 50.9562 65.4096C49.7805 65.4096 46.3106 66.1154 41.818 67.7258C41.1135 70.0757 40.9565 74.9547 45.7356 76.1886Z" fill="#191919"/>
<path d="M42.2748 91.9524C42.5258 86.1744 43.4401 80.8368 46.6047 80.2039C49.7693 79.571 49.0668 85.1469 50.0192 92.8226C46.4846 94.9112 43.3835 93.1127 42.2748 91.9524Z" fill="#191919"/>
<path d="M9.51905 47.1342C10.5199 39.1017 11.0699 29.1168 2.2195 22.3319C-0.5 27.5 4.91011 42.0577 9.51905 47.1342Z" fill="#191919"/>
<path d="M50.0859 14.0644C52.4722 14.5283 54.6464 15.0226 56.6132 15.6025C55.3077 10.8836 49.5 1.19984 47.0398 1.01061C45.6474 7.62455 48.4904 12.4689 50.0859 14.0644Z" fill="#191919"/>
<path d="M97.5178 121.976C97.3956 117.577 98.334 110.953 101.335 104.136M15.5007 104.5C18.9819 162.372 90.1201 164.619 105.35 150.259C115.373 151.679 124.04 150.621 131.459 147.87M15.5007 104.5C10.0007 106.612 8.74679 99.519 8.74679 91.9524C8.74679 83.1459 12.0007 71 15.709 65.4096M15.5007 104.5C24.2923 101.124 38.2626 82.5219 45.7356 76.1886M15.709 65.4096C13.6784 64.9744 9.44321 62.6247 8.74679 56.707C8.46644 54.3248 9.04362 50.9498 9.51905 47.1342M15.709 65.4096C17.1871 65.6654 18.6386 65.8552 20.0604 65.9862M2.2195 22.3319C11.0699 29.1168 10.5199 39.1017 9.51905 47.1342M2.2195 22.3319C-0.5 27.5 4.91011 42.0577 9.51905 47.1342M2.2195 22.3319C3.50065 20.453 14.0007 20.5 20.0604 22.3319C26.5571 17.3823 31.0743 13.7523 38.772 13.1617M50.0859 14.0644C45.5575 13.1839 41.9018 12.9215 38.772 13.1617M50.0859 14.0644C52.4722 14.5283 54.6464 15.0226 56.6132 15.6025M50.0859 14.0644C48.4904 12.4689 45.6474 7.62455 47.0398 1.01061M70.9732 42.7829C66.3316 40.0271 57.7446 33.9063 60.5296 31.4696C63.3145 29.0328 68.3667 29.584 70.5446 30.1642M70.9732 42.7829C71.286 37.6742 71.1492 33.5398 70.5446 30.1642M70.9732 42.7829C72.0226 43.0744 72.8846 43.3971 73.5842 43.7448M52.6968 58.0124C56.0006 58.5 63.4732 59 70.9732 54C73.0007 52.6484 74.7513 50.4289 74.9514 50.1801M52.6968 58.0124C53.7122 51.6305 54.6115 38.6057 50.0859 37.5614C44.4289 36.256 29.6338 62.2115 20.0604 65.9862M52.6968 58.0124C48.3011 61.4756 36.0518 67.4586 20.0604 65.9862M70.5446 30.1642C69.0105 21.5974 64.4645 17.9175 56.6132 15.6025M38.772 13.1617C39.6423 8.96628 42.5143 0.662508 47.0398 1.01061M47.0398 1.01061C49.5 1.19984 55.3077 10.8836 56.6132 15.6025M74.9514 50.1801C80.7328 51.7755 92.9049 56.0108 95.3418 60.188M74.9514 50.1801C76.4974 47.9409 77.1525 45.5182 73.5842 43.7448M74.9514 50.1801C72.5007 51 70.0007 50.5 69.6678 48.4396C69.346 46.4478 71.6985 43.5692 73.5842 43.7448M95.3418 60.188C95.6319 63.7535 96.0007 65.9862 97.5007 72M95.3418 60.188C95.2113 58.1005 95.1688 56.2184 95.1998 54.5314M124.062 81.6911C125.312 81.1551 126.616 80.6579 127.978 80.2039C127.503 77.0516 127.011 74.0131 126.577 71.0662M124.062 81.6911C122.001 76.2878 119.001 71.0662 109.501 69C105.973 65.3403 103.718 57.5215 102.802 53.226M124.062 81.6911C123.008 82.1431 121.993 82.6228 121.016 83.1275M23.1065 78.0283C29.3257 73.0053 36.3338 69.6916 41.818 67.7258M74.0007 55.5C71.5007 56.5 68.7501 58.034 66.2925 59.7529M86.6387 61.4934C81.3697 61.0144 74.3871 63.3035 69.0281 64.9744M39.5006 112C42.2748 106.5 42.0082 98.0922 42.2748 91.9524M73.5842 137.641C80.9817 112.839 60.9647 104.136 54.5006 104.136C53.4781 101.905 50.2779 94.9077 50.0192 92.8226M125.596 50.1801C126.8 40.6553 131.237 31.5986 142.459 21.9499C143.098 21.3999 144.084 21.8621 144.107 22.7054C144.46 35.5407 148.048 42.8851 153.03 51.9206M125.596 50.1801C136.34 55.0061 142.341 55.8222 153.03 51.9206M125.596 50.1801C124.759 56.7977 125.483 63.6412 126.577 71.0662M153.03 51.9206C156.219 57.7059 159.98 64.1846 163.829 73.2419M126.577 71.0662C141.119 77.2658 149.285 78.6315 163.829 73.2419M163.829 73.2419C164.93 75.8326 166.038 78.6343 167.142 81.6911C168.835 86.379 170.732 95.6431 168.447 105.006M121.016 83.1275C131.045 98.5127 141.702 105.19 168.447 105.006M121.016 83.1275C117.499 84.9442 114.473 87.0848 111.878 89.4274M168.447 105.006C165.401 114.579 161.234 123.282 153.03 132.419M111.878 89.4274C117.985 111.559 126.233 118.927 153.03 132.419M111.878 89.4274C106.945 93.8797 103.569 99.0616 101.335 104.136M153.03 132.419C147.56 138.511 137.78 145.527 131.459 147.87M101.335 104.136C105.999 125.676 107.382 138.527 131.459 147.87M41.818 67.7258C46.3106 66.1154 49.7805 65.4096 50.9562 65.4096C55.7429 65.4096 54.4374 69.7608 48.3453 74.1121C47.6528 74.6067 46.7689 75.3129 45.7356 76.1886M41.818 67.7258C41.1135 70.0757 40.9565 74.9547 45.7356 76.1886M66.2925 59.7529C63.3635 61.8015 60.4915 64.4069 60.9647 65.9862C61.356 67.292 64.6503 66.3395 69.0281 64.9744M66.2925 59.7529C67.8614 60.188 70.6051 61.8415 69.0281 64.9744M42.2748 91.9524C42.5258 86.1744 43.4401 80.8368 46.6047 80.2039C49.7693 79.571 49.0668 85.1469 50.0192 92.8226M42.2748 91.9524C43.3835 93.1127 46.4846 94.9112 50.0192 92.8226M95.1998 54.5314C95.375 44.9657 97.909 41.6732 100.128 42.7829C101.563 43.5004 101.684 47.9838 102.802 53.226M95.1998 54.5314C98.6124 55.1651 100.423 55.2645 102.802 53.226" stroke="#191919" stroke-linecap="round"/>
<rect x="46" y="44" width="5" height="5" rx="2.5" fill="#C4B4FF"/>
<rect width="2.68718" height="2.93665" rx="1.34359" transform="matrix(0.822511 -0.568749 0.568795 0.822479 65.7773 34.7021)" fill="#C4B4FF"/>
<ellipse cx="34.9993" cy="33.0001" rx="4" ry="2" transform="rotate(-30 34.9993 33.0001)" fill="#191919"/>
<ellipse cx="63.5" cy="25.5" rx="2.5" ry="1.5" fill="#191919"/>
</svg>
