<svg width="1373" height="288" viewBox="0 0 1373 288" fill="none" xmlns="http://www.w3.org/2000/svg">
<path d="M244.619 11.6915L145.958 145.754L247.739 284.493H205.232L124.119 174.203L43.0064 284.493H0.5L102.671 145.754L4.78963 11.6915H46.906L124.509 117.304L201.723 11.6915H244.619Z" fill="white"/>
<path d="M262.582 151.599L278.571 11.6915H450.156V44.8173H308.598L298.459 118.084C310.158 109.51 331.216 102.495 360.464 102.495C425.978 102.495 462.635 142.636 462.635 194.078C462.635 248.639 417.399 288 356.954 288C307.428 288 263.362 264.617 245.813 221.359L277.011 208.108C287.54 231.881 314.837 254.874 356.954 254.874C405.31 254.874 428.318 227.204 428.318 195.248C428.318 158.614 399.07 135.621 351.104 135.621C323.807 135.621 306.648 143.026 290.66 159.004L262.582 151.599Z" fill="white"/>
<path d="M553.567 44.8173V11.6915H778.968V44.8173H683.816V284.493H648.329V44.8173H553.567Z" fill="white"/>
<path d="M853.677 288C791.672 288 748.386 244.742 748.386 182.777C748.386 122.371 793.232 77.1637 853.677 77.1637C913.732 77.1637 955.068 117.694 955.068 176.931C955.068 182.777 954.678 189.402 954.288 194.468H781.923C783.873 230.712 813.9 257.212 853.677 257.212C883.314 257.212 902.033 246.69 917.631 221.748L947.269 232.66C930.89 268.514 898.523 288 853.677 288ZM853.677 107.951C817.02 107.951 787.772 130.945 783.483 163.681H921.531C920.361 132.893 890.334 107.951 853.677 107.951Z" fill="white"/>
<path d="M1134.25 221.748L1163.89 232.66C1147.51 268.514 1115.15 288 1071.86 288C1009.47 288 964.619 243.962 964.619 182.777C964.619 121.591 1009.08 78.3329 1071.86 78.3329C1115.54 78.3329 1148.29 98.2084 1164.67 133.673L1135.03 144.585C1121 121.591 1099.16 109.12 1071.86 109.12C1028.96 109.12 998.936 139.518 998.936 182.777C998.936 226.425 1028.96 257.212 1071.86 257.212C1099.94 257.212 1119.44 245.911 1134.25 221.748Z" fill="white"/>
<path d="M1188.44 284.493V0H1221.19V113.018C1233.67 90.8038 1257.07 78.3329 1287.1 78.3329C1342.47 78.3329 1372.5 106.392 1372.5 170.306V284.493H1339.74V173.424C1339.74 129.386 1321.02 109.12 1280.86 109.12C1247.71 109.12 1221.19 129.386 1221.19 169.137V284.493H1188.44Z" fill="white"/>
</svg>
