<svg width="328" height="146" viewBox="0 0 328 146" fill="none" xmlns="http://www.w3.org/2000/svg">
<path d="M58.3608 2.76048L34.7741 34.4141L59.1067 67.1719H48.9448L29.5533 41.1313L10.1619 67.1719H0L24.4258 34.4141L1.02551 2.76048H11.0942L29.6466 27.6969L48.1057 2.76048H58.3608Z" fill="white"/>
<path d="M62.6552 35.7943L66.4775 2.76048H107.498V10.5819H73.6561L71.2321 27.8809C74.029 25.8566 79.0633 24.2003 86.0554 24.2003C101.718 24.2003 110.481 33.6779 110.481 45.8241C110.481 58.7064 99.6667 68 85.2164 68C73.3764 68 62.8416 62.479 58.6463 52.2652L66.1046 49.1367C68.6218 54.7497 75.1477 60.1786 85.2164 60.1786C96.7767 60.1786 102.277 53.6455 102.277 46.1001C102.277 37.4506 95.285 32.0217 83.818 32.0217C77.292 32.0217 73.1899 33.77 69.3676 37.5426L62.6552 35.7943Z" fill="white"/>
<path d="M132.22 10.5819V2.76048H186.106V10.5819H163.358V67.1719H154.875V10.5819H132.22Z" fill="white"/>
<path d="M203.966 68C189.143 68 178.795 57.7862 178.795 43.1556C178.795 28.8931 189.516 18.2192 203.966 18.2192C218.324 18.2192 228.206 27.7889 228.206 41.7754C228.206 43.1556 228.113 44.7199 228.019 45.9161H186.812C187.279 54.4736 194.457 60.7307 203.966 60.7307C211.052 60.7307 215.527 58.2463 219.256 52.3572L226.341 54.9337C222.426 63.3992 214.688 68 203.966 68ZM203.966 25.4885C195.203 25.4885 188.211 30.9175 187.185 38.6468H220.188C219.908 31.3775 212.73 25.4885 203.966 25.4885Z" fill="white"/>
<path d="M271.043 52.3572L278.129 54.9337C274.213 63.3992 266.475 68 256.127 68C241.21 68 230.489 57.6022 230.489 43.1556C230.489 28.7091 241.117 18.4953 256.127 18.4953C266.568 18.4953 274.4 23.1881 278.315 31.5616L271.23 34.138C267.874 28.7091 262.653 25.7645 256.127 25.7645C245.872 25.7645 238.693 32.9418 238.693 43.1556C238.693 53.4614 245.872 60.7307 256.127 60.7307C262.839 60.7307 267.501 58.0622 271.043 52.3572Z" fill="white"/>
<path d="M283.996 67.1719V0H291.827V26.6847C294.811 21.4398 300.404 18.4953 307.583 18.4953C320.821 18.4953 328 25.1204 328 40.2111V67.1719H320.169V40.9472C320.169 30.5494 315.694 25.7645 306.091 25.7645C298.167 25.7645 291.827 30.5494 291.827 39.935V67.1719H283.996Z" fill="white"/>
<path fill-rule="evenodd" clip-rule="evenodd" d="M0 119C0 104.088 12.0883 92 27 92C37.6455 92 46.852 98.1609 51.2486 107.112C53.3497 111.389 57.2343 115 62 115V115C66.7657 115 70.6503 111.389 72.7514 107.112C77.148 98.1609 86.3545 92 97 92H301C315.912 92 328 104.088 328 119C328 133.912 315.912 146 301 146H97C86.3545 146 77.148 139.839 72.7514 130.888C70.6503 126.611 66.7657 123 62 123V123C57.2343 123 53.3497 126.611 51.2486 130.888C46.852 139.839 37.6455 146 27 146C12.0883 146 0 133.912 0 119Z" fill="#272727"/>
<path d="M90.176 123V113.2H94.446C97.078 113.2 97.89 114.222 97.89 115.664C97.89 116.7 97.4 117.428 96.518 117.82C97.582 118.086 98.226 118.898 98.226 120.158C98.226 122.174 96.658 123 94.362 123H90.176ZM94.404 118.744H91.884V121.488H94.32C95.79 121.488 96.462 121.082 96.462 120.074C96.462 119.178 95.846 118.744 94.404 118.744ZM94.236 114.712H91.884V117.288H94.376C95.482 117.288 96.126 116.784 96.126 115.986C96.126 115.118 95.65 114.712 94.236 114.712ZM106.781 123V115.72H108.349V123H106.781ZM99.8934 123V115.72H101.461V117.862H102.889C105.199 117.862 105.885 119.038 105.885 120.41C105.885 121.796 105.115 123 102.791 123H99.8934ZM102.707 119.29H101.461V121.572H102.693C103.799 121.572 104.233 121.166 104.233 120.424C104.233 119.696 103.771 119.29 102.707 119.29ZM115.894 120.508L117.238 120.956C116.748 122.328 115.488 123.168 113.836 123.168C111.526 123.168 109.944 121.614 109.944 119.346C109.944 117.092 111.526 115.552 113.822 115.552C115.432 115.552 116.678 116.364 117.252 117.764L115.908 118.212C115.432 117.372 114.816 116.98 113.892 116.98C112.52 116.98 111.596 117.932 111.596 119.346C111.596 120.76 112.548 121.74 113.892 121.74C114.802 121.74 115.446 121.334 115.894 120.508ZM118.148 119.346C118.148 117.12 119.744 115.552 122.068 115.552C124.406 115.552 126.03 117.148 126.03 119.346C126.03 121.558 124.406 123.168 122.068 123.168C119.786 123.168 118.148 121.628 118.148 119.346ZM119.8 119.36C119.8 120.76 120.724 121.74 122.082 121.74C123.454 121.74 124.378 120.83 124.378 119.36C124.378 117.904 123.384 116.98 122.068 116.98C120.766 116.98 119.8 117.89 119.8 119.36ZM127.62 123V115.72H129.188V118.856L132.366 115.72H134.396L130.966 119.038L134.536 123H132.548L129.72 119.892L129.188 120.438V123H127.62ZM134.937 119.346C134.937 117.12 136.533 115.552 138.857 115.552C141.195 115.552 142.819 117.148 142.819 119.346C142.819 121.558 141.195 123.168 138.857 123.168C136.575 123.168 134.937 121.628 134.937 119.346ZM136.589 119.36C136.589 120.76 137.513 121.74 138.871 121.74C140.243 121.74 141.167 120.83 141.167 119.36C141.167 117.904 140.173 116.98 138.857 116.98C137.555 116.98 136.589 117.89 136.589 119.36ZM143.447 117.148V115.72H150.069V117.148H147.535V123H145.967V117.148H143.447ZM154.455 123.168C152.145 123.168 150.605 121.614 150.605 119.346C150.605 117.162 152.145 115.552 154.469 115.552C156.541 115.552 158.151 116.938 158.151 119.136C158.151 119.346 158.137 119.626 158.109 119.906H152.243C152.341 120.998 153.251 121.74 154.497 121.74C155.505 121.74 156.135 121.334 156.527 120.648L157.871 121.096C157.311 122.398 156.093 123.168 154.455 123.168ZM154.441 116.98C153.265 116.98 152.397 117.638 152.257 118.618H156.555C156.513 117.652 155.575 116.98 154.441 116.98ZM158.565 123L161.211 119.248L158.719 115.72H160.623L162.387 118.254L164.151 115.72H166.013L163.493 119.234L166.153 123H164.235L162.345 120.214L160.413 123H158.565ZM172.546 123V120.018H168.85V123H167.282V115.72H168.85V118.59H172.546V115.72H174.114V123H172.546ZM175.692 119.346C175.692 117.12 177.288 115.552 179.612 115.552C181.95 115.552 183.574 117.148 183.574 119.346C183.574 121.558 181.95 123.168 179.612 123.168C177.33 123.168 175.692 121.628 175.692 119.346ZM177.344 119.36C177.344 120.76 178.268 121.74 179.626 121.74C180.998 121.74 181.922 120.83 181.922 119.36C181.922 117.904 180.928 116.98 179.612 116.98C178.31 116.98 177.344 117.89 177.344 119.36ZM189.804 123V117.148H187.228V117.54C187.228 121.418 186.472 123.168 184.666 123.168C184.512 123.168 184.232 123.154 184.134 123.126V121.642C184.176 121.656 184.232 121.656 184.33 121.656C185.324 121.656 185.716 120.466 185.716 117.54V115.72H191.372V123H189.804ZM192.974 119.346C192.974 117.12 194.57 115.552 196.894 115.552C199.232 115.552 200.856 117.148 200.856 119.346C200.856 121.558 199.232 123.168 196.894 123.168C194.612 123.168 192.974 121.628 192.974 119.346ZM194.626 119.36C194.626 120.76 195.55 121.74 196.908 121.74C198.28 121.74 199.204 120.83 199.204 119.36C199.204 117.904 198.21 116.98 196.894 116.98C195.592 116.98 194.626 117.89 194.626 119.36ZM202.446 123V115.72H207.822V117.148H204.014V123H202.446ZM210.518 123H209.132V115.72H210.7V120.62L214.648 115.72H216.048V123H214.48V118.1L210.518 123ZM224.162 115.72V123H222.594V120.284C222.132 120.55 221.432 120.788 220.508 120.788C218.758 120.788 217.708 119.934 217.708 117.778V115.72H219.276V117.638C219.276 118.856 219.724 119.36 220.844 119.36C221.614 119.36 222.244 119.136 222.594 118.87V115.72H224.162ZM231.499 123V120.018H227.803V123H226.235V115.72H227.803V118.59H231.499V115.72H233.067V123H231.499ZM242.024 123V115.72H243.592V123H242.024ZM235.136 123V115.72H236.704V117.862H238.132C240.442 117.862 241.128 119.038 241.128 120.41C241.128 121.796 240.358 123 238.034 123H235.136ZM237.95 119.29H236.704V121.572H237.936C239.042 121.572 239.476 121.166 239.476 120.424C239.476 119.696 239.014 119.29 237.95 119.29ZM247.063 123H245.677V115.72H247.245V120.62L251.193 115.72H252.593V123H251.025V118.1L247.063 123ZM246.671 112.64H248.099C248.099 113.228 248.449 113.746 249.149 113.746C249.807 113.746 250.157 113.242 250.157 112.64H251.585C251.585 114.04 250.549 114.908 249.163 114.908C247.763 114.908 246.671 114.068 246.671 112.64ZM262.548 123.168C261.316 123.168 260.476 122.678 260 122.006V125.8H258.432V115.72H260V116.868C260.462 116.084 261.386 115.552 262.604 115.552C264.634 115.552 266.104 116.966 266.104 119.276C266.104 121.628 264.62 123.168 262.548 123.168ZM262.254 121.74C263.542 121.74 264.452 120.844 264.452 119.332C264.452 117.848 263.5 116.98 262.24 116.98C260.91 116.98 260 117.834 260 119.248V119.472C260 120.928 260.994 121.74 262.254 121.74ZM269.088 123H267.702V115.72H269.27V120.62L273.218 115.72H274.618V123H273.05V118.1L269.088 123ZM275.886 117.148V115.72H282.508V117.148H279.974V123H278.406V117.148H275.886ZM286.894 123.168C284.584 123.168 283.044 121.614 283.044 119.346C283.044 117.162 284.584 115.552 286.908 115.552C288.98 115.552 290.59 116.938 290.59 119.136C290.59 119.346 290.576 119.626 290.548 119.906H284.682C284.78 120.998 285.69 121.74 286.936 121.74C287.944 121.74 288.574 121.334 288.966 120.648L290.31 121.096C289.75 122.398 288.532 123.168 286.894 123.168ZM286.88 116.98C285.704 116.98 284.836 117.638 284.696 118.618H288.994C288.952 117.652 288.014 116.98 286.88 116.98ZM293.52 123H292.134V115.72H293.702V120.62L297.65 115.72H299.05V123H297.482V118.1L293.52 123ZM293.128 112.64H294.556C294.556 113.228 294.906 113.746 295.606 113.746C296.264 113.746 296.614 113.242 296.614 112.64H298.042C298.042 114.04 297.006 114.908 295.62 114.908C294.22 114.908 293.128 114.068 293.128 112.64ZM305.988 123V117.148H303.412V117.54C303.412 121.418 302.656 123.168 300.85 123.168C300.696 123.168 300.416 123.154 300.318 123.126V121.642C300.36 121.656 300.416 121.656 300.514 121.656C301.508 121.656 301.9 120.466 301.9 117.54V115.72H307.556V123H305.988Z" fill="white"/>
<circle cx="27" cy="119" r="21" fill="#95FF42"/>
<path d="M26.9024 119.017L34.0655 114.637M26.9024 119.017L19.7393 114.637M26.9024 119.017V121.001M34.0655 114.637L26.9024 110.566L19.7393 114.637M34.0655 114.637V123.037L26.9024 126.954M26.9024 126.954L19.7393 123.037V114.637M26.9024 126.954V123.582" stroke="black" stroke-linecap="round" stroke-linejoin="round"/>
<circle cx="38.9784" cy="111.842" r="2.13364" stroke="black"/>
<circle cx="15.0262" cy="111.842" r="2.13364" stroke="black"/>
<circle cx="27.0282" cy="132.695" r="2.13364" stroke="black"/>
<path fill-rule="evenodd" clip-rule="evenodd" d="M28.3267 104.956C27.5289 104.472 26.5275 104.472 25.7297 104.956L16.6613 110.469C16.8761 110.724 17.0321 111.031 17.1084 111.367L26.2491 105.811C26.7278 105.52 27.3287 105.52 27.8073 105.811L36.9007 111.338C36.9817 111.003 37.1416 110.699 37.3597 110.447L28.3267 104.956ZM14.5823 124.777V113.928C14.7259 113.959 14.8749 113.975 15.0276 113.975C15.2195 113.975 15.4054 113.949 15.5823 113.902V124.777C15.5823 125.321 15.8762 125.822 16.3506 126.087L25.5045 131.202C25.2709 131.44 25.0929 131.734 24.9914 132.061L15.8628 126.96C15.0721 126.518 14.5823 125.683 14.5823 124.777ZM29.0673 132.06L38.1947 126.96C38.9853 126.518 39.4751 125.683 39.4751 124.777V113.916C39.3146 113.954 39.1471 113.975 38.9747 113.975C38.8027 113.975 38.6354 113.954 38.4751 113.916V124.777C38.4751 125.321 38.1812 125.822 37.7069 126.087L28.5541 131.202C28.7877 131.44 28.9658 131.734 29.0673 132.06Z" fill="black"/>
</svg>
