<svg width="1372" height="313" viewBox="0 0 1372 313" fill="none" xmlns="http://www.w3.org/2000/svg">
<path d="M244.119 36.6915L145.458 170.754L247.239 309.493H204.732L123.619 199.203L42.5064 309.493H0L102.171 170.754L4.28963 36.6915H46.406L124.009 142.304L201.223 36.6915H244.119Z" fill="white"/>
<path d="M262.082 176.599L278.071 36.6915H449.656V69.8173H308.098L297.959 143.084C309.658 134.51 330.716 127.495 359.964 127.495C425.478 127.495 462.135 167.636 462.135 219.078C462.135 273.639 416.899 313 356.454 313C306.928 313 262.862 289.617 245.313 246.359L276.511 233.108C287.04 256.881 314.337 279.874 356.454 279.874C404.81 279.874 427.818 252.204 427.818 220.248C427.818 183.614 398.57 160.621 350.604 160.621C323.307 160.621 306.148 168.026 290.16 184.004L262.082 176.599Z" fill="white"/>
<path d="M553.067 69.8173V36.6915H778.468V69.8173H683.316V309.493H647.829V69.8173H553.067Z" fill="white"/>
<path d="M853.177 313C791.172 313 747.886 269.742 747.886 207.777C747.886 147.371 792.732 102.164 853.177 102.164C913.232 102.164 954.568 142.694 954.568 201.931C954.568 207.777 954.178 214.402 953.788 219.468H781.423C783.373 255.712 813.4 282.212 853.177 282.212C882.814 282.212 901.533 271.69 917.131 246.748L946.769 257.66C930.39 293.514 898.023 313 853.177 313ZM853.177 132.951C816.52 132.951 787.272 155.945 782.983 188.681H921.031C919.861 157.893 889.834 132.951 853.177 132.951Z" fill="white"/>
<path d="M1133.75 246.748L1163.39 257.66C1147.01 293.514 1114.65 313 1071.36 313C1008.97 313 964.119 268.962 964.119 207.777C964.119 146.591 1008.58 103.333 1071.36 103.333C1115.04 103.333 1147.79 123.208 1164.17 158.673L1134.53 169.585C1120.5 146.591 1098.66 134.12 1071.36 134.12C1028.46 134.12 998.436 164.518 998.436 207.777C998.436 251.425 1028.46 282.212 1071.36 282.212C1099.44 282.212 1118.94 270.911 1133.75 246.748Z" fill="white"/>
<path d="M1187.94 309.493V25H1220.69V138.018C1233.17 115.804 1256.57 103.333 1286.6 103.333C1341.97 103.333 1372 131.392 1372 195.306V309.493H1339.24V198.424C1339.24 154.386 1320.52 134.12 1280.36 134.12C1247.21 134.12 1220.69 154.386 1220.69 194.137V309.493H1187.94Z" fill="white"/>
<g filter="url(#filter0_d_2318_5076)">
<path fill-rule="evenodd" clip-rule="evenodd" d="M817 52C817 37.0883 829.088 25 844 25C854.645 25 863.852 31.1609 868.249 40.1117C870.35 44.3892 874.234 48 879 48V48C883.766 48 887.65 44.3892 889.751 40.1117C894.148 31.1609 903.354 25 914 25H1138C1152.91 25 1165 37.0883 1165 52C1165 66.9117 1152.91 79 1138 79H914C903.355 79 894.148 72.8391 889.751 63.8883C887.65 59.6108 883.766 56 879 56V56C874.234 56 870.35 59.6108 868.249 63.8883C863.852 72.8391 854.645 79 844 79C829.088 79 817 66.9117 817 52Z" fill="#272727"/>
</g>
<path d="M915.176 56V46.2H919.446C922.078 46.2 922.89 47.222 922.89 48.664C922.89 49.7 922.4 50.428 921.518 50.82C922.582 51.086 923.226 51.898 923.226 53.158C923.226 55.174 921.658 56 919.362 56H915.176ZM919.404 51.744H916.884V54.488H919.32C920.79 54.488 921.462 54.082 921.462 53.074C921.462 52.178 920.846 51.744 919.404 51.744ZM919.236 47.712H916.884V50.288H919.376C920.482 50.288 921.126 49.784 921.126 48.986C921.126 48.118 920.65 47.712 919.236 47.712ZM931.781 56V48.72H933.349V56H931.781ZM924.893 56V48.72H926.461V50.862H927.889C930.199 50.862 930.885 52.038 930.885 53.41C930.885 54.796 930.115 56 927.791 56H924.893ZM927.707 52.29H926.461V54.572H927.693C928.799 54.572 929.233 54.166 929.233 53.424C929.233 52.696 928.771 52.29 927.707 52.29ZM940.894 53.508L942.238 53.956C941.748 55.328 940.488 56.168 938.836 56.168C936.526 56.168 934.944 54.614 934.944 52.346C934.944 50.092 936.526 48.552 938.822 48.552C940.432 48.552 941.678 49.364 942.252 50.764L940.908 51.212C940.432 50.372 939.816 49.98 938.892 49.98C937.52 49.98 936.596 50.932 936.596 52.346C936.596 53.76 937.548 54.74 938.892 54.74C939.802 54.74 940.446 54.334 940.894 53.508ZM943.148 52.346C943.148 50.12 944.744 48.552 947.068 48.552C949.406 48.552 951.03 50.148 951.03 52.346C951.03 54.558 949.406 56.168 947.068 56.168C944.786 56.168 943.148 54.628 943.148 52.346ZM944.8 52.36C944.8 53.76 945.724 54.74 947.082 54.74C948.454 54.74 949.378 53.83 949.378 52.36C949.378 50.904 948.384 49.98 947.068 49.98C945.766 49.98 944.8 50.89 944.8 52.36ZM952.62 56V48.72H954.188V51.856L957.366 48.72H959.396L955.966 52.038L959.536 56H957.548L954.72 52.892L954.188 53.438V56H952.62ZM959.937 52.346C959.937 50.12 961.533 48.552 963.857 48.552C966.195 48.552 967.819 50.148 967.819 52.346C967.819 54.558 966.195 56.168 963.857 56.168C961.575 56.168 959.937 54.628 959.937 52.346ZM961.589 52.36C961.589 53.76 962.513 54.74 963.871 54.74C965.243 54.74 966.167 53.83 966.167 52.36C966.167 50.904 965.173 49.98 963.857 49.98C962.555 49.98 961.589 50.89 961.589 52.36ZM968.447 50.148V48.72H975.069V50.148H972.535V56H970.967V50.148H968.447ZM979.455 56.168C977.145 56.168 975.605 54.614 975.605 52.346C975.605 50.162 977.145 48.552 979.469 48.552C981.541 48.552 983.151 49.938 983.151 52.136C983.151 52.346 983.137 52.626 983.109 52.906H977.243C977.341 53.998 978.251 54.74 979.497 54.74C980.505 54.74 981.135 54.334 981.527 53.648L982.871 54.096C982.311 55.398 981.093 56.168 979.455 56.168ZM979.441 49.98C978.265 49.98 977.397 50.638 977.257 51.618H981.555C981.513 50.652 980.575 49.98 979.441 49.98ZM983.565 56L986.211 52.248L983.719 48.72H985.623L987.387 51.254L989.151 48.72H991.013L988.493 52.234L991.153 56H989.235L987.345 53.214L985.413 56H983.565ZM997.546 56V53.018H993.85V56H992.282V48.72H993.85V51.59H997.546V48.72H999.114V56H997.546ZM1000.69 52.346C1000.69 50.12 1002.29 48.552 1004.61 48.552C1006.95 48.552 1008.57 50.148 1008.57 52.346C1008.57 54.558 1006.95 56.168 1004.61 56.168C1002.33 56.168 1000.69 54.628 1000.69 52.346ZM1002.34 52.36C1002.34 53.76 1003.27 54.74 1004.63 54.74C1006 54.74 1006.92 53.83 1006.92 52.36C1006.92 50.904 1005.93 49.98 1004.61 49.98C1003.31 49.98 1002.34 50.89 1002.34 52.36ZM1014.8 56V50.148H1012.23V50.54C1012.23 54.418 1011.47 56.168 1009.67 56.168C1009.51 56.168 1009.23 56.154 1009.13 56.126V54.642C1009.18 54.656 1009.23 54.656 1009.33 54.656C1010.32 54.656 1010.72 53.466 1010.72 50.54V48.72H1016.37V56H1014.8ZM1017.97 52.346C1017.97 50.12 1019.57 48.552 1021.89 48.552C1024.23 48.552 1025.86 50.148 1025.86 52.346C1025.86 54.558 1024.23 56.168 1021.89 56.168C1019.61 56.168 1017.97 54.628 1017.97 52.346ZM1019.63 52.36C1019.63 53.76 1020.55 54.74 1021.91 54.74C1023.28 54.74 1024.2 53.83 1024.2 52.36C1024.2 50.904 1023.21 49.98 1021.89 49.98C1020.59 49.98 1019.63 50.89 1019.63 52.36ZM1027.45 56V48.72H1032.82V50.148H1029.01V56H1027.45ZM1035.52 56H1034.13V48.72H1035.7V53.62L1039.65 48.72H1041.05V56H1039.48V51.1L1035.52 56ZM1049.16 48.72V56H1047.59V53.284C1047.13 53.55 1046.43 53.788 1045.51 53.788C1043.76 53.788 1042.71 52.934 1042.71 50.778V48.72H1044.28V50.638C1044.28 51.856 1044.72 52.36 1045.84 52.36C1046.61 52.36 1047.24 52.136 1047.59 51.87V48.72H1049.16ZM1056.5 56V53.018H1052.8V56H1051.24V48.72H1052.8V51.59H1056.5V48.72H1058.07V56H1056.5ZM1067.02 56V48.72H1068.59V56H1067.02ZM1060.14 56V48.72H1061.7V50.862H1063.13C1065.44 50.862 1066.13 52.038 1066.13 53.41C1066.13 54.796 1065.36 56 1063.03 56H1060.14ZM1062.95 52.29H1061.7V54.572H1062.94C1064.04 54.572 1064.48 54.166 1064.48 53.424C1064.48 52.696 1064.01 52.29 1062.95 52.29ZM1072.06 56H1070.68V48.72H1072.24V53.62L1076.19 48.72H1077.59V56H1076.02V51.1L1072.06 56ZM1071.67 45.64H1073.1C1073.1 46.228 1073.45 46.746 1074.15 46.746C1074.81 46.746 1075.16 46.242 1075.16 45.64H1076.58C1076.58 47.04 1075.55 47.908 1074.16 47.908C1072.76 47.908 1071.67 47.068 1071.67 45.64ZM1087.55 56.168C1086.32 56.168 1085.48 55.678 1085 55.006V58.8H1083.43V48.72H1085V49.868C1085.46 49.084 1086.39 48.552 1087.6 48.552C1089.63 48.552 1091.1 49.966 1091.1 52.276C1091.1 54.628 1089.62 56.168 1087.55 56.168ZM1087.25 54.74C1088.54 54.74 1089.45 53.844 1089.45 52.332C1089.45 50.848 1088.5 49.98 1087.24 49.98C1085.91 49.98 1085 50.834 1085 52.248V52.472C1085 53.928 1085.99 54.74 1087.25 54.74ZM1094.09 56H1092.7V48.72H1094.27V53.62L1098.22 48.72H1099.62V56H1098.05V51.1L1094.09 56ZM1100.89 50.148V48.72H1107.51V50.148H1104.97V56H1103.41V50.148H1100.89ZM1111.89 56.168C1109.58 56.168 1108.04 54.614 1108.04 52.346C1108.04 50.162 1109.58 48.552 1111.91 48.552C1113.98 48.552 1115.59 49.938 1115.59 52.136C1115.59 52.346 1115.58 52.626 1115.55 52.906H1109.68C1109.78 53.998 1110.69 54.74 1111.94 54.74C1112.94 54.74 1113.57 54.334 1113.97 53.648L1115.31 54.096C1114.75 55.398 1113.53 56.168 1111.89 56.168ZM1111.88 49.98C1110.7 49.98 1109.84 50.638 1109.7 51.618H1113.99C1113.95 50.652 1113.01 49.98 1111.88 49.98ZM1118.52 56H1117.13V48.72H1118.7V53.62L1122.65 48.72H1124.05V56H1122.48V51.1L1118.52 56ZM1118.13 45.64H1119.56C1119.56 46.228 1119.91 46.746 1120.61 46.746C1121.26 46.746 1121.61 46.242 1121.61 45.64H1123.04C1123.04 47.04 1122.01 47.908 1120.62 47.908C1119.22 47.908 1118.13 47.068 1118.13 45.64ZM1130.99 56V50.148H1128.41V50.54C1128.41 54.418 1127.66 56.168 1125.85 56.168C1125.7 56.168 1125.42 56.154 1125.32 56.126V54.642C1125.36 54.656 1125.42 54.656 1125.51 54.656C1126.51 54.656 1126.9 53.466 1126.9 50.54V48.72H1132.56V56H1130.99Z" fill="white"/>
<circle cx="844" cy="52" r="21" fill="#95FF42"/>
<path d="M843.902 52.0174L851.066 47.6371M843.902 52.0174L836.739 47.6371M843.902 52.0174V54.0014M851.066 47.6371L843.902 43.5659L836.739 47.6371M851.066 47.6371V56.037L843.902 59.9535M843.902 59.9535L836.739 56.037V47.6371M843.902 59.9535V56.582" stroke="black" stroke-linecap="round" stroke-linejoin="round"/>
<circle cx="855.978" cy="44.8416" r="2.13364" stroke="black"/>
<circle cx="832.026" cy="44.8414" r="2.13364" stroke="black"/>
<circle cx="844.028" cy="65.6947" r="2.13364" stroke="black"/>
<path fill-rule="evenodd" clip-rule="evenodd" d="M845.327 37.9564C844.529 37.4715 843.527 37.4716 842.73 37.9565L833.661 43.4687C833.876 43.7241 834.032 44.0305 834.108 44.3672L843.249 38.811C843.728 38.52 844.329 38.52 844.807 38.811L853.901 44.338C853.982 44.0031 854.142 43.6991 854.36 43.4467L845.327 37.9564ZM831.582 57.7773V46.9282C831.726 46.9587 831.875 46.9748 832.028 46.9748C832.219 46.9748 832.405 46.9495 832.582 46.902V57.7773C832.582 58.3208 832.876 58.8217 833.351 59.0868L842.504 64.2018C842.271 64.4405 842.093 64.7337 841.991 65.0607L832.863 59.9597C832.072 59.5179 831.582 58.6831 831.582 57.7773ZM846.067 65.0604L855.195 59.9597C855.985 59.5179 856.475 58.6831 856.475 57.7774V46.9158C856.315 46.9544 856.147 46.9748 855.975 46.9748C855.803 46.9748 855.635 46.9544 855.475 46.916V57.7774C855.475 58.3208 855.181 58.8217 854.707 59.0868L845.554 64.2017C845.788 64.4403 845.966 64.7335 846.067 65.0604Z" fill="black"/>
<defs>
<filter id="filter0_d_2318_5076" x="768.2" y="0.200001" width="445.6" height="151.6" filterUnits="userSpaceOnUse" color-interpolation-filters="sRGB">
<feFlood flood-opacity="0" result="BackgroundImageFix"/>
<feColorMatrix in="SourceAlpha" type="matrix" values="0 0 0 0 0 0 0 0 0 0 0 0 0 0 0 0 0 0 127 0" result="hardAlpha"/>
<feOffset dy="24"/>
<feGaussianBlur stdDeviation="24.4"/>
<feComposite in2="hardAlpha" operator="out"/>
<feColorMatrix type="matrix" values="0 0 0 0 0.724326 0 0 0 0 0.734941 0 0 0 0 0.777393 0 0 0 0.08 0"/>
<feBlend mode="plus-darker" in2="BackgroundImageFix" result="effect1_dropShadow_2318_5076"/>
<feBlend mode="normal" in="SourceGraphic" in2="effect1_dropShadow_2318_5076" result="shape"/>
</filter>
</defs>
</svg>
