<svg width="43" height="42" viewBox="0 0 43 42" fill="none" xmlns="http://www.w3.org/2000/svg">
<circle cx="21.5" cy="21" r="21" fill="#95FF42"/>
<path d="M21.4024 21.0174L28.5655 16.6371M21.4024 21.0174L14.2393 16.6371M21.4024 21.0174V23.0014M28.5655 16.6371L21.4024 12.5659L14.2393 16.6371M28.5655 16.6371V25.037L21.4024 28.9535M21.4024 28.9535L14.2393 25.037V16.6371M21.4024 28.9535V25.582" stroke="black" stroke-linecap="round" stroke-linejoin="round"/>
<circle cx="33.4784" cy="13.8416" r="2.13364" stroke="black"/>
<circle cx="9.52622" cy="13.8414" r="2.13364" stroke="black"/>
<circle cx="21.5282" cy="34.6947" r="2.13364" stroke="black"/>
<path fill-rule="evenodd" clip-rule="evenodd" d="M22.8267 6.95643C22.0289 6.47154 21.0275 6.47156 20.2297 6.95648L11.1613 12.4687C11.3761 12.7241 11.5321 13.0305 11.6084 13.3672L20.7491 7.811C21.2278 7.52004 21.8287 7.52003 22.3073 7.81097L31.4007 13.338C31.4817 13.0031 31.6416 12.6991 31.8597 12.4467L22.8267 6.95643ZM9.08228 26.7773V15.9282C9.22591 15.9587 9.37489 15.9748 9.52761 15.9748C9.71947 15.9748 9.90541 15.9495 10.0823 15.902V26.7773C10.0823 27.3208 10.3762 27.8217 10.8506 28.0868L20.0045 33.2018C19.7709 33.4405 19.5929 33.7337 19.4914 34.0607L10.3628 28.9597C9.57214 28.5179 9.08228 27.6831 9.08228 26.7773ZM23.5673 34.0604L32.6947 28.9597C33.4853 28.5179 33.9751 27.6831 33.9751 26.7774V15.9158C33.8146 15.9544 33.6471 15.9748 33.4747 15.9748C33.3027 15.9748 33.1354 15.9544 32.9751 15.916V26.7774C32.9751 27.3208 32.6812 27.8217 32.2069 28.0868L23.0541 33.2017C23.2877 33.4403 23.4658 33.7335 23.5673 34.0604Z" fill="black"/>
</svg>
