<svg width="434" height="399" viewBox="0 0 434 399" fill="none" xmlns="http://www.w3.org/2000/svg">
<g clip-path="url(#clip0_2437_16077)">
<rect width="434" height="399" fill="#191919"/>
<path fill-rule="evenodd" clip-rule="evenodd" d="M5 -48C-3.83656 -48 -11 -40.8365 -11 -32V383C-11 391.837 -3.83655 399 5.00001 399H380.787C386.402 399 390.061 390.62 388.735 385.164C388.255 383.188 388 381.124 388 379C388 364.641 399.641 353 414 353C416.124 353 418.188 353.255 420.164 353.735C425.62 355.061 434 351.402 434 345.787V-32C434 -40.8366 426.837 -48 418 -48H5Z" fill="#272727"/>
</g>
<defs>
<clipPath id="clip0_2437_16077">
<rect width="434" height="399" fill="white"/>
</clipPath>
</defs>
</svg>
