<svg width="446" height="447" viewBox="0 0 446 447" fill="none" xmlns="http://www.w3.org/2000/svg">
<g clip-path="url(#clip0_652_45363)">
<path fill-rule="evenodd" clip-rule="evenodd" d="M15.5 0C6.66344 0 -0.5 7.16345 -0.5 16V200.503C-0.5 205.875 5.31982 209.273 10.114 206.848C36.5998 193.449 66.0139 184.735 97.372 181.886C230.402 169.799 348.043 267.842 360.13 400.872C361.309 413.854 361.44 426.69 360.592 439.295C360.314 443.426 363.541 447 367.681 447H388.521C395.072 447 399.586 436.94 398.726 430.446C398.577 429.318 398.5 428.168 398.5 427C398.5 412.641 410.141 401 424.5 401C425.518 401 426.523 401.059 427.511 401.172C434.236 401.948 445.5 397.008 445.5 390.239V16C445.5 7.16344 438.337 0 429.5 0H15.5ZM351.607 447C355.202 447 358.224 444.277 358.488 440.692C359.446 427.699 359.356 414.455 358.138 401.053C346.151 269.123 229.483 171.89 97.553 183.877C63.2612 186.993 31.3136 197.181 3.01877 212.871C0.830913 214.085 -0.5 216.403 -0.5 218.905V265.043C-0.5 270.993 6.53477 274.325 11.3819 270.875C37.3394 252.402 68.386 240.349 102.403 237.258C204.852 227.95 295.448 303.454 304.757 405.903C305.777 417.133 305.778 428.222 304.837 439.076C304.471 443.285 307.723 447 311.948 447H351.607ZM255.97 438.732C255.468 443.06 258.756 447 263.113 447H295.821C299.334 447 302.317 444.398 302.659 440.902C303.772 429.527 303.837 417.885 302.765 406.084C293.556 304.735 203.932 230.041 102.584 239.25C64.1781 242.739 29.5998 257.777 1.96446 280.624C0.388862 281.927 -0.5 283.875 -0.5 285.919V328.425C-0.5 335.614 10.0403 338.734 14.7151 333.272C37.2222 306.973 69.611 289.089 106.807 285.709C182.497 278.832 249.43 334.616 256.307 410.305C257.184 419.959 257.042 429.469 255.97 438.732ZM246.876 447C250.261 447 253.181 444.58 253.639 441.226C255.002 431.242 255.266 420.949 254.315 410.486C247.538 335.897 181.578 280.924 106.988 287.701C60.3139 291.942 21.3207 319.357 0.332281 357.559C-0.220472 358.565 -0.5 359.698 -0.5 360.846V431C-0.5 439.837 6.66344 447 15.5 447H32.9766C37.7053 447 41.0767 442.396 40.2012 437.749C39.7253 435.223 39.3655 432.651 39.1281 430.038C35.1072 385.784 67.7228 346.649 111.977 342.628C156.231 338.607 195.366 371.223 199.387 415.477C200.08 423.1 199.685 430.572 198.331 437.738C197.453 442.389 200.824 447 205.557 447H246.876ZM41.1199 429.857C41.5014 434.056 42.2071 438.147 43.2099 442.109C43.9548 445.051 46.6752 447 49.7105 447H188.815C191.847 447 194.565 445.056 195.313 442.118C197.454 433.707 198.226 424.794 197.395 415.658C193.474 372.504 155.312 340.699 112.158 344.62C69.0038 348.541 37.1989 386.703 41.1199 429.857Z" fill="#013E14"/>
</g>
<defs>
<clipPath id="clip0_652_45363">
<path d="M0 12C0 5.37258 5.37258 0 12 0H434C440.627 0 446 5.37258 446 12V435C446 441.627 440.627 447 434 447H12C5.37259 447 0 441.627 0 435V12Z" fill="white"/>
</clipPath>
</defs>
</svg>
