<svg width="176" height="176" viewBox="0 0 176 176" fill="none" xmlns="http://www.w3.org/2000/svg">
<path d="M153.829 72.0336C163.306 107.404 142.316 143.761 106.945 153.239C71.5741 162.716 35.2174 141.726 25.7398 106.355C16.2623 70.9842 37.2528 34.6275 72.6236 25.1499C107.994 15.6724 144.351 36.6629 153.829 72.0336Z" fill="#191919"/>
<path d="M148.899 72.979C157.684 105.766 138.227 139.467 105.44 148.253C72.6526 157.038 38.9514 137.581 30.1661 104.793C21.3809 72.0062 40.8382 38.3051 73.6254 29.5198C106.413 20.7345 140.114 40.1918 148.899 72.979Z" stroke="white" stroke-opacity="0.2" stroke-width="1.8719"/>
<path d="M141.968 74.8363C149.727 103.796 132.542 133.562 103.583 141.322C74.6234 149.081 44.8569 131.896 37.0973 102.936C29.3377 73.9771 46.5234 44.2106 75.4826 36.451C104.442 28.6914 134.208 45.8771 141.968 74.8363Z" stroke="white" stroke-opacity="0.2" stroke-width="1.24793"/>
<path fill-rule="evenodd" clip-rule="evenodd" d="M72.0909 67.3162C72.285 67.3796 72.4391 67.4306 72.5475 67.4668C77.3588 65.187 81.0444 63.9486 87.7599 63.2617L87.8198 63.8471L87.7979 63.259C94.5437 63.0075 98.3655 63.7224 103.447 65.3125C103.549 65.2617 103.694 65.1897 103.878 65.1C104.264 64.911 104.818 64.6429 105.492 64.3257C106.84 63.6917 108.669 62.8606 110.59 62.0738C112.508 61.2883 114.531 60.5416 116.265 60.0816C117.131 59.8518 117.939 59.6896 118.633 59.6331C119.311 59.5779 119.952 59.6168 120.433 59.8562C120.985 60.131 121.301 60.7592 121.5 61.4341C121.707 62.1377 121.827 63.0335 121.887 64.0337C122.008 66.0386 121.893 68.558 121.69 71.0124C121.487 73.4711 121.193 75.8825 120.95 77.678C120.829 78.5761 120.72 79.321 120.641 79.8415C120.608 80.063 120.58 80.244 120.559 80.3789C120.595 80.4074 120.635 80.4392 120.679 80.4743C120.899 80.6506 121.213 80.9089 121.593 81.2395C122.351 81.9002 123.373 82.8516 124.429 84.0155C126.527 86.3287 128.814 89.5432 129.35 93.0217C129.921 96.7327 128.122 99.7329 125.24 102.106C122.366 104.471 118.357 106.268 114.326 107.613C110.286 108.961 106.185 109.868 103.097 110.439C101.552 110.724 100.259 110.926 99.3512 111.056C98.8972 111.121 98.5395 111.168 98.2948 111.199L98.1947 111.212C97.5394 112.683 96.5814 113.606 95.437 114.199C94.2469 114.817 92.8765 115.065 91.508 115.245C90.0958 115.43 88.6551 115.377 87.3392 114.886C86.0861 114.419 84.9724 113.563 84.1178 112.193L84.017 112.195C83.7703 112.198 83.4095 112.201 82.9509 112.199C82.0338 112.196 80.725 112.176 79.1555 112.108C76.0185 111.971 71.8308 111.642 67.6435 110.867C63.4645 110.095 59.2452 108.872 56.0707 106.928C52.8867 104.978 50.6896 102.257 50.7402 98.5024C50.7878 94.9832 52.6069 91.4824 54.3636 88.9004C55.2475 87.6013 56.1278 86.5172 56.7872 85.7577C57.1171 85.3777 57.3923 85.0783 57.5857 84.8732C57.6242 84.8324 57.6595 84.7953 57.6913 84.762C57.6517 84.6313 57.599 84.456 57.5352 84.2413C57.3853 83.7367 57.1742 83.0141 56.9293 82.1416C56.4397 80.3971 55.814 78.0498 55.2713 75.6431C54.7295 73.2407 54.2664 70.7615 54.1078 68.7593C54.0287 67.7604 54.0233 66.8566 54.1309 66.131C54.2342 65.4351 54.4601 64.7691 54.9685 64.4204C55.4115 64.1165 56.0405 63.9892 56.7198 63.9497C57.4153 63.9093 58.2381 63.9578 59.1275 64.0653C60.9079 64.2803 63.0153 64.7389 65.024 65.2507C67.0357 65.7632 68.962 66.3326 70.3846 66.7735C71.0961 66.994 71.6823 67.1826 72.0909 67.3162ZM72.7839 68.4132C77.5915 66.1232 81.1775 64.8973 87.8454 64.2142C94.5435 63.9654 98.2649 64.6819 103.344 66.2826L103.529 66.341L103.703 66.2535L103.488 65.8265L103.703 66.2535L103.703 66.2533L103.705 66.2524L103.712 66.2487L103.741 66.2341L103.857 66.1767C103.958 66.1263 104.107 66.0525 104.298 65.9589C104.681 65.7718 105.23 65.5058 105.9 65.1911C107.238 64.5613 109.051 63.7374 110.952 62.9588C112.856 62.1791 114.835 61.4504 116.51 61.006C117.348 60.7836 118.095 60.6363 118.711 60.5863C119.342 60.5349 119.766 60.5924 120.007 60.7123C120.046 60.7318 120.088 60.7616 120.131 60.8035C117.252 64.2733 112.772 71.1085 114.825 74.5836C116.706 77.7688 118.338 79.8112 119.544 80.6713L119.524 80.7929L119.756 80.9664L119.756 80.9665L119.757 80.967L119.76 80.9697L119.776 80.9812C119.789 80.9917 119.81 81.0077 119.838 81.0291C119.893 81.0719 119.976 81.1361 120.081 81.2206C120.292 81.3896 120.596 81.6395 120.964 81.9606C121.702 82.6031 122.696 83.5282 123.72 84.6579C125.783 86.932 127.913 89.9729 128.404 93.1672C128.41 93.206 128.416 93.2447 128.421 93.2833C126.779 93.8955 122.903 94.6618 117.38 93.8963C113.847 93.4067 111.231 91.4066 108.863 89.5956C106.11 87.4911 103.692 85.642 100.557 86.7158C94.725 88.7135 96.0142 95.7837 99.57 101.105C102.095 104.884 102.653 108.047 102.62 109.554C101.224 109.807 100.053 109.989 99.2154 110.109C98.7669 110.173 98.4143 110.22 98.1743 110.251C98.0543 110.266 97.9625 110.277 97.9009 110.284L97.8316 110.293L97.8144 110.295L97.8102 110.295L97.8093 110.295C97.8091 110.295 97.8091 110.295 97.8627 110.77L97.8091 110.295L97.5259 110.327L97.4193 110.591C96.8495 112.003 96.0064 112.827 94.9968 113.35C93.9663 113.885 92.7409 114.118 91.3835 114.296C90.0697 114.469 88.7977 114.41 87.6736 113.99C86.5598 113.575 85.5627 112.795 84.7997 111.471L84.6574 111.224L84.3725 111.232L84.3854 111.71C84.3725 111.232 84.3725 111.232 84.3723 111.232L84.3714 111.232L84.3672 111.232L84.3499 111.233L84.2801 111.234C84.2181 111.235 84.1256 111.237 84.0047 111.238C83.7628 111.242 83.4071 111.244 82.954 111.243C82.0476 111.24 80.7519 111.22 79.1971 111.152L79.0875 111.148C78.8556 109.64 78.9876 106.454 80.9432 102.405C83.7263 96.6418 84.0218 89.4611 77.9687 88.292C74.7153 87.6636 72.577 89.8304 70.1433 92.2965C68.0491 94.4186 65.7361 96.7624 62.3057 97.7375C57.3345 99.1505 53.5815 99.064 51.6965 98.7425C51.6955 98.6672 51.6954 98.5915 51.6965 98.5153C51.7401 95.2837 53.4273 91.9766 55.1543 89.4384C56.0122 88.1774 56.8681 87.1233 57.5093 86.3847C57.8297 86.0156 58.096 85.7259 58.2815 85.5293C58.3742 85.431 58.4467 85.3559 58.4955 85.3059C58.5199 85.2809 58.5385 85.2621 58.5507 85.2498L58.5642 85.2363L58.5673 85.2332L58.5679 85.2326L58.568 85.2325L58.7737 85.0285L58.7067 84.812C59.8578 84.028 61.7338 82.0144 63.332 78.174C64.9229 74.3512 59.2147 67.9806 55.9102 65.0344C56.132 64.971 56.4185 64.9251 56.7753 64.9044C57.3916 64.8686 58.1521 64.9107 59.0129 65.0147C60.7329 65.2224 62.7941 65.6694 64.7879 66.1774C66.7786 66.6846 68.6884 67.249 70.1015 67.6869C70.8077 67.9058 71.3892 68.0929 71.7938 68.2251C71.9961 68.2913 72.1541 68.3437 72.2614 68.3795L72.3834 68.4204L72.4143 68.4308L72.422 68.4334L72.4239 68.4341L72.4243 68.4342L72.5783 67.9815L72.4244 68.4342L72.6084 68.4968L72.7839 68.4132ZM58.5969 84.7798L58.5969 84.7798L58.2312 84.8931L58.5969 84.7798ZM76.5926 85.6018C78.9995 85.434 80.8765 84.2346 80.785 82.9228C80.6935 81.6111 78.6683 80.6837 76.2614 80.8515C73.8546 81.0193 71.9776 82.2187 72.069 83.5305C72.1605 84.8423 74.1857 85.7696 76.5926 85.6018ZM105.126 78.044C105.217 79.3558 103.34 80.5552 100.933 80.723C98.5263 80.8908 96.5011 79.9635 96.4096 78.6517C96.3181 77.34 98.1951 76.1405 100.602 75.9727C103.009 75.8049 105.034 76.7323 105.126 78.044ZM91.4856 110.818C93.2361 110.696 94.6057 109.888 94.5447 109.014C94.4837 108.139 93.0153 107.529 91.2648 107.651C89.5144 107.773 88.1448 108.581 88.2058 109.456C88.2668 110.33 89.7352 110.94 91.4856 110.818ZM77.9804 99.8265C79.2932 99.735 80.2833 98.5974 80.1919 97.2856C80.1004 95.9738 78.962 94.9847 77.6492 95.0762C76.3363 95.1677 75.3462 96.3053 75.4377 97.6171C75.5291 98.9288 76.6675 99.918 77.9804 99.8265ZM103.962 95.6279C104.054 96.9397 103.064 98.0772 101.751 98.1688C100.438 98.2603 99.2995 97.2711 99.208 95.9594C99.1166 94.6476 100.107 93.51 101.42 93.4185C102.732 93.3269 103.871 94.3161 103.962 95.6279Z" fill="white" fill-opacity="0.8"/>
</svg>
